G04 #@! TF.GenerationSoftware,KiCad,Pcbnew,(5.1.0)-1*
G04 #@! TF.CreationDate,2022-07-04T21:30:28+09:00*
G04 #@! TF.ProjectId,2022NHK_Include,32303232-4e48-44b5-9f49-6e636c756465,rev?*
G04 #@! TF.SameCoordinates,Original*
G04 #@! TF.FileFunction,Legend,Top*
G04 #@! TF.FilePolarity,Positive*
%FSLAX46Y46*%
G04 Gerber Fmt 4.6, Leading zero omitted, Abs format (unit mm)*
G04 Created by KiCad (PCBNEW (5.1.0)-1) date 2022-07-04 21:30:28*
%MOMM*%
%LPD*%
G04 APERTURE LIST*
%ADD10C,0.150000*%
%ADD11C,0.120000*%
%ADD12C,0.127000*%
%ADD13C,0.200000*%
G04 APERTURE END LIST*
D10*
X7167619Y-84541380D02*
X7167619Y-83969952D01*
X7167619Y-84255666D02*
X8167619Y-84255666D01*
X8024761Y-84160428D01*
X7929523Y-84065190D01*
X7881904Y-83969952D01*
X8167619Y-85446142D02*
X8167619Y-84969952D01*
X7691428Y-84922333D01*
X7739047Y-84969952D01*
X7786666Y-85065190D01*
X7786666Y-85303285D01*
X7739047Y-85398523D01*
X7691428Y-85446142D01*
X7596190Y-85493761D01*
X7358095Y-85493761D01*
X7262857Y-85446142D01*
X7215238Y-85398523D01*
X7167619Y-85303285D01*
X7167619Y-85065190D01*
X7215238Y-84969952D01*
X7262857Y-84922333D01*
X8167619Y-86112809D02*
X8167619Y-86208047D01*
X8120000Y-86303285D01*
X8072380Y-86350904D01*
X7977142Y-86398523D01*
X7786666Y-86446142D01*
X7548571Y-86446142D01*
X7358095Y-86398523D01*
X7262857Y-86350904D01*
X7215238Y-86303285D01*
X7167619Y-86208047D01*
X7167619Y-86112809D01*
X7215238Y-86017571D01*
X7262857Y-85969952D01*
X7358095Y-85922333D01*
X7548571Y-85874714D01*
X7786666Y-85874714D01*
X7977142Y-85922333D01*
X8072380Y-85969952D01*
X8120000Y-86017571D01*
X8167619Y-86112809D01*
X7262857Y-86874714D02*
X7215238Y-86922333D01*
X7167619Y-86874714D01*
X7215238Y-86827095D01*
X7262857Y-86874714D01*
X7167619Y-86874714D01*
X8167619Y-87541380D02*
X8167619Y-87636619D01*
X8120000Y-87731857D01*
X8072380Y-87779476D01*
X7977142Y-87827095D01*
X7786666Y-87874714D01*
X7548571Y-87874714D01*
X7358095Y-87827095D01*
X7262857Y-87779476D01*
X7215238Y-87731857D01*
X7167619Y-87636619D01*
X7167619Y-87541380D01*
X7215238Y-87446142D01*
X7262857Y-87398523D01*
X7358095Y-87350904D01*
X7548571Y-87303285D01*
X7786666Y-87303285D01*
X7977142Y-87350904D01*
X8072380Y-87398523D01*
X8120000Y-87446142D01*
X8167619Y-87541380D01*
X8167619Y-88493761D02*
X8167619Y-88589000D01*
X8120000Y-88684238D01*
X8072380Y-88731857D01*
X7977142Y-88779476D01*
X7786666Y-88827095D01*
X7548571Y-88827095D01*
X7358095Y-88779476D01*
X7262857Y-88731857D01*
X7215238Y-88684238D01*
X7167619Y-88589000D01*
X7167619Y-88493761D01*
X7215238Y-88398523D01*
X7262857Y-88350904D01*
X7358095Y-88303285D01*
X7548571Y-88255666D01*
X7786666Y-88255666D01*
X7977142Y-88303285D01*
X8072380Y-88350904D01*
X8120000Y-88398523D01*
X8167619Y-88493761D01*
X8167619Y-89446142D02*
X8167619Y-89541380D01*
X8120000Y-89636619D01*
X8072380Y-89684238D01*
X7977142Y-89731857D01*
X7786666Y-89779476D01*
X7548571Y-89779476D01*
X7358095Y-89731857D01*
X7262857Y-89684238D01*
X7215238Y-89636619D01*
X7167619Y-89541380D01*
X7167619Y-89446142D01*
X7215238Y-89350904D01*
X7262857Y-89303285D01*
X7358095Y-89255666D01*
X7548571Y-89208047D01*
X7786666Y-89208047D01*
X7977142Y-89255666D01*
X8072380Y-89303285D01*
X8120000Y-89350904D01*
X8167619Y-89446142D01*
X7167619Y-90969952D02*
X7834285Y-90969952D01*
X7739047Y-90969952D02*
X7786666Y-91017571D01*
X7834285Y-91112809D01*
X7834285Y-91255666D01*
X7786666Y-91350904D01*
X7691428Y-91398523D01*
X7167619Y-91398523D01*
X7691428Y-91398523D02*
X7786666Y-91446142D01*
X7834285Y-91541380D01*
X7834285Y-91684238D01*
X7786666Y-91779476D01*
X7691428Y-91827095D01*
X7167619Y-91827095D01*
X7167619Y-92303285D02*
X7834285Y-92303285D01*
X7739047Y-92303285D02*
X7786666Y-92350904D01*
X7834285Y-92446142D01*
X7834285Y-92589000D01*
X7786666Y-92684238D01*
X7691428Y-92731857D01*
X7167619Y-92731857D01*
X7691428Y-92731857D02*
X7786666Y-92779476D01*
X7834285Y-92874714D01*
X7834285Y-93017571D01*
X7786666Y-93112809D01*
X7691428Y-93160428D01*
X7167619Y-93160428D01*
D11*
X8890000Y-13589000D02*
X8890000Y-163589000D01*
X18288000Y-13589000D02*
X8303579Y-13589000D01*
X18288000Y-163589000D02*
X8303579Y-163589000D01*
X8890000Y-163589000D02*
X8303579Y-162462496D01*
X8890000Y-163589000D02*
X9476421Y-162462496D01*
X8890000Y-13589000D02*
X8303579Y-14715504D01*
X8890000Y-13589000D02*
X9476421Y-14715504D01*
D10*
X113668952Y-1833619D02*
X113716571Y-1786000D01*
X113811809Y-1738380D01*
X114049904Y-1738380D01*
X114145142Y-1786000D01*
X114192761Y-1833619D01*
X114240380Y-1928857D01*
X114240380Y-2024095D01*
X114192761Y-2166952D01*
X113621333Y-2738380D01*
X114240380Y-2738380D01*
X114859428Y-1738380D02*
X114954666Y-1738380D01*
X115049904Y-1786000D01*
X115097523Y-1833619D01*
X115145142Y-1928857D01*
X115192761Y-2119333D01*
X115192761Y-2357428D01*
X115145142Y-2547904D01*
X115097523Y-2643142D01*
X115049904Y-2690761D01*
X114954666Y-2738380D01*
X114859428Y-2738380D01*
X114764190Y-2690761D01*
X114716571Y-2643142D01*
X114668952Y-2547904D01*
X114621333Y-2357428D01*
X114621333Y-2119333D01*
X114668952Y-1928857D01*
X114716571Y-1833619D01*
X114764190Y-1786000D01*
X114859428Y-1738380D01*
X115811809Y-1738380D02*
X115907047Y-1738380D01*
X116002285Y-1786000D01*
X116049904Y-1833619D01*
X116097523Y-1928857D01*
X116145142Y-2119333D01*
X116145142Y-2357428D01*
X116097523Y-2547904D01*
X116049904Y-2643142D01*
X116002285Y-2690761D01*
X115907047Y-2738380D01*
X115811809Y-2738380D01*
X115716571Y-2690761D01*
X115668952Y-2643142D01*
X115621333Y-2547904D01*
X115573714Y-2357428D01*
X115573714Y-2119333D01*
X115621333Y-1928857D01*
X115668952Y-1833619D01*
X115716571Y-1786000D01*
X115811809Y-1738380D01*
X116573714Y-2643142D02*
X116621333Y-2690761D01*
X116573714Y-2738380D01*
X116526095Y-2690761D01*
X116573714Y-2643142D01*
X116573714Y-2738380D01*
X117240380Y-1738380D02*
X117335619Y-1738380D01*
X117430857Y-1786000D01*
X117478476Y-1833619D01*
X117526095Y-1928857D01*
X117573714Y-2119333D01*
X117573714Y-2357428D01*
X117526095Y-2547904D01*
X117478476Y-2643142D01*
X117430857Y-2690761D01*
X117335619Y-2738380D01*
X117240380Y-2738380D01*
X117145142Y-2690761D01*
X117097523Y-2643142D01*
X117049904Y-2547904D01*
X117002285Y-2357428D01*
X117002285Y-2119333D01*
X117049904Y-1928857D01*
X117097523Y-1833619D01*
X117145142Y-1786000D01*
X117240380Y-1738380D01*
X118192761Y-1738380D02*
X118288000Y-1738380D01*
X118383238Y-1786000D01*
X118430857Y-1833619D01*
X118478476Y-1928857D01*
X118526095Y-2119333D01*
X118526095Y-2357428D01*
X118478476Y-2547904D01*
X118430857Y-2643142D01*
X118383238Y-2690761D01*
X118288000Y-2738380D01*
X118192761Y-2738380D01*
X118097523Y-2690761D01*
X118049904Y-2643142D01*
X118002285Y-2547904D01*
X117954666Y-2357428D01*
X117954666Y-2119333D01*
X118002285Y-1928857D01*
X118049904Y-1833619D01*
X118097523Y-1786000D01*
X118192761Y-1738380D01*
X119145142Y-1738380D02*
X119240380Y-1738380D01*
X119335619Y-1786000D01*
X119383238Y-1833619D01*
X119430857Y-1928857D01*
X119478476Y-2119333D01*
X119478476Y-2357428D01*
X119430857Y-2547904D01*
X119383238Y-2643142D01*
X119335619Y-2690761D01*
X119240380Y-2738380D01*
X119145142Y-2738380D01*
X119049904Y-2690761D01*
X119002285Y-2643142D01*
X118954666Y-2547904D01*
X118907047Y-2357428D01*
X118907047Y-2119333D01*
X118954666Y-1928857D01*
X119002285Y-1833619D01*
X119049904Y-1786000D01*
X119145142Y-1738380D01*
X120668952Y-2738380D02*
X120668952Y-2071714D01*
X120668952Y-2166952D02*
X120716571Y-2119333D01*
X120811809Y-2071714D01*
X120954666Y-2071714D01*
X121049904Y-2119333D01*
X121097523Y-2214571D01*
X121097523Y-2738380D01*
X121097523Y-2214571D02*
X121145142Y-2119333D01*
X121240380Y-2071714D01*
X121383238Y-2071714D01*
X121478476Y-2119333D01*
X121526095Y-2214571D01*
X121526095Y-2738380D01*
X122002285Y-2738380D02*
X122002285Y-2071714D01*
X122002285Y-2166952D02*
X122049904Y-2119333D01*
X122145142Y-2071714D01*
X122288000Y-2071714D01*
X122383238Y-2119333D01*
X122430857Y-2214571D01*
X122430857Y-2738380D01*
X122430857Y-2214571D02*
X122478476Y-2119333D01*
X122573714Y-2071714D01*
X122716571Y-2071714D01*
X122811809Y-2119333D01*
X122859428Y-2214571D01*
X122859428Y-2738380D01*
D11*
X18288000Y-3556000D02*
X218288000Y-3556000D01*
X18288000Y-13589000D02*
X18288000Y-2969579D01*
X218288000Y-13589000D02*
X218288000Y-2969579D01*
X218288000Y-3556000D02*
X217161496Y-4142421D01*
X218288000Y-3556000D02*
X217161496Y-2969579D01*
X18288000Y-3556000D02*
X19414504Y-4142421D01*
X18288000Y-3556000D02*
X19414504Y-2969579D01*
X57260000Y-44577000D02*
G75*
G03X57260000Y-44577000I-1600000J0D01*
G01*
X75460000Y-39577000D02*
X52860000Y-39577000D01*
X75460000Y-49577000D02*
X75460000Y-39577000D01*
X52860000Y-49577000D02*
X75460000Y-49577000D01*
X52860000Y-39577000D02*
X52860000Y-49577000D01*
X27669000Y-44577000D02*
G75*
G03X27669000Y-44577000I-1600000J0D01*
G01*
X45869000Y-39577000D02*
X23269000Y-39577000D01*
X45869000Y-49577000D02*
X45869000Y-39577000D01*
X23269000Y-49577000D02*
X45869000Y-49577000D01*
X23269000Y-39577000D02*
X23269000Y-49577000D01*
X29822211Y-32014000D02*
X29822211Y-31264000D01*
X30197211Y-31639000D02*
X29447211Y-31639000D01*
X22214000Y-29905000D02*
X22214000Y-29023000D01*
X22254000Y-30157000D02*
X22254000Y-28771000D01*
X22294000Y-30341000D02*
X22294000Y-28587000D01*
X22334000Y-30492000D02*
X22334000Y-28436000D01*
X22374000Y-30622000D02*
X22374000Y-28306000D01*
X22414000Y-30739000D02*
X22414000Y-28189000D01*
X22454000Y-30845000D02*
X22454000Y-28083000D01*
X22494000Y-30942000D02*
X22494000Y-27986000D01*
X22534000Y-31033000D02*
X22534000Y-27895000D01*
X22574000Y-31118000D02*
X22574000Y-27810000D01*
X22614000Y-31197000D02*
X22614000Y-27731000D01*
X22654000Y-31273000D02*
X22654000Y-27655000D01*
X22694000Y-31345000D02*
X22694000Y-27583000D01*
X22734000Y-31413000D02*
X22734000Y-27515000D01*
X22774000Y-31478000D02*
X22774000Y-27450000D01*
X22814000Y-31541000D02*
X22814000Y-27387000D01*
X22854000Y-31601000D02*
X22854000Y-27327000D01*
X22894000Y-31659000D02*
X22894000Y-27269000D01*
X22934000Y-31714000D02*
X22934000Y-27214000D01*
X22974000Y-31768000D02*
X22974000Y-27160000D01*
X23014000Y-31819000D02*
X23014000Y-27109000D01*
X23054000Y-31869000D02*
X23054000Y-27059000D01*
X23094000Y-31918000D02*
X23094000Y-27010000D01*
X23134000Y-31964000D02*
X23134000Y-26964000D01*
X23174000Y-32010000D02*
X23174000Y-26918000D01*
X23214000Y-32053000D02*
X23214000Y-26875000D01*
X23254000Y-32096000D02*
X23254000Y-26832000D01*
X23294000Y-32137000D02*
X23294000Y-26791000D01*
X23334000Y-32177000D02*
X23334000Y-26751000D01*
X23374000Y-32216000D02*
X23374000Y-26712000D01*
X23414000Y-32254000D02*
X23414000Y-26674000D01*
X23454000Y-32291000D02*
X23454000Y-26637000D01*
X23494000Y-32327000D02*
X23494000Y-26601000D01*
X23534000Y-32362000D02*
X23534000Y-26566000D01*
X23574000Y-32395000D02*
X23574000Y-26533000D01*
X23614000Y-32428000D02*
X23614000Y-26500000D01*
X23654000Y-32460000D02*
X23654000Y-26468000D01*
X23694000Y-32492000D02*
X23694000Y-26436000D01*
X23734000Y-32522000D02*
X23734000Y-26406000D01*
X23774000Y-28424000D02*
X23774000Y-26376000D01*
X23774000Y-32552000D02*
X23774000Y-30504000D01*
X23814000Y-28424000D02*
X23814000Y-26348000D01*
X23814000Y-32580000D02*
X23814000Y-30504000D01*
X23854000Y-28424000D02*
X23854000Y-26320000D01*
X23854000Y-32608000D02*
X23854000Y-30504000D01*
X23894000Y-28424000D02*
X23894000Y-26292000D01*
X23894000Y-32636000D02*
X23894000Y-30504000D01*
X23934000Y-28424000D02*
X23934000Y-26266000D01*
X23934000Y-32662000D02*
X23934000Y-30504000D01*
X23974000Y-28424000D02*
X23974000Y-26240000D01*
X23974000Y-32688000D02*
X23974000Y-30504000D01*
X24014000Y-28424000D02*
X24014000Y-26215000D01*
X24014000Y-32713000D02*
X24014000Y-30504000D01*
X24054000Y-28424000D02*
X24054000Y-26190000D01*
X24054000Y-32738000D02*
X24054000Y-30504000D01*
X24094000Y-28424000D02*
X24094000Y-26167000D01*
X24094000Y-32761000D02*
X24094000Y-30504000D01*
X24134000Y-28424000D02*
X24134000Y-26143000D01*
X24134000Y-32785000D02*
X24134000Y-30504000D01*
X24174000Y-28424000D02*
X24174000Y-26121000D01*
X24174000Y-32807000D02*
X24174000Y-30504000D01*
X24214000Y-28424000D02*
X24214000Y-26099000D01*
X24214000Y-32829000D02*
X24214000Y-30504000D01*
X24254000Y-28424000D02*
X24254000Y-26078000D01*
X24254000Y-32850000D02*
X24254000Y-30504000D01*
X24294000Y-28424000D02*
X24294000Y-26057000D01*
X24294000Y-32871000D02*
X24294000Y-30504000D01*
X24334000Y-28424000D02*
X24334000Y-26037000D01*
X24334000Y-32891000D02*
X24334000Y-30504000D01*
X24374000Y-28424000D02*
X24374000Y-26017000D01*
X24374000Y-32911000D02*
X24374000Y-30504000D01*
X24414000Y-28424000D02*
X24414000Y-25998000D01*
X24414000Y-32930000D02*
X24414000Y-30504000D01*
X24454000Y-28424000D02*
X24454000Y-25980000D01*
X24454000Y-32948000D02*
X24454000Y-30504000D01*
X24494000Y-28424000D02*
X24494000Y-25962000D01*
X24494000Y-32966000D02*
X24494000Y-30504000D01*
X24534000Y-28424000D02*
X24534000Y-25944000D01*
X24534000Y-32984000D02*
X24534000Y-30504000D01*
X24574000Y-28424000D02*
X24574000Y-25928000D01*
X24574000Y-33000000D02*
X24574000Y-30504000D01*
X24614000Y-28424000D02*
X24614000Y-25911000D01*
X24614000Y-33017000D02*
X24614000Y-30504000D01*
X24654000Y-28424000D02*
X24654000Y-25896000D01*
X24654000Y-33032000D02*
X24654000Y-30504000D01*
X24694000Y-28424000D02*
X24694000Y-25880000D01*
X24694000Y-33048000D02*
X24694000Y-30504000D01*
X24734000Y-28424000D02*
X24734000Y-25866000D01*
X24734000Y-33062000D02*
X24734000Y-30504000D01*
X24774000Y-28424000D02*
X24774000Y-25851000D01*
X24774000Y-33077000D02*
X24774000Y-30504000D01*
X24814000Y-28424000D02*
X24814000Y-25838000D01*
X24814000Y-33090000D02*
X24814000Y-30504000D01*
X24854000Y-28424000D02*
X24854000Y-25824000D01*
X24854000Y-33104000D02*
X24854000Y-30504000D01*
X24894000Y-28424000D02*
X24894000Y-25811000D01*
X24894000Y-33117000D02*
X24894000Y-30504000D01*
X24934000Y-28424000D02*
X24934000Y-25799000D01*
X24934000Y-33129000D02*
X24934000Y-30504000D01*
X24974000Y-28424000D02*
X24974000Y-25787000D01*
X24974000Y-33141000D02*
X24974000Y-30504000D01*
X25014000Y-28424000D02*
X25014000Y-25776000D01*
X25014000Y-33152000D02*
X25014000Y-30504000D01*
X25054000Y-28424000D02*
X25054000Y-25765000D01*
X25054000Y-33163000D02*
X25054000Y-30504000D01*
X25094000Y-28424000D02*
X25094000Y-25754000D01*
X25094000Y-33174000D02*
X25094000Y-30504000D01*
X25134000Y-28424000D02*
X25134000Y-25744000D01*
X25134000Y-33184000D02*
X25134000Y-30504000D01*
X25174000Y-28424000D02*
X25174000Y-25735000D01*
X25174000Y-33193000D02*
X25174000Y-30504000D01*
X25214000Y-28424000D02*
X25214000Y-25726000D01*
X25214000Y-33202000D02*
X25214000Y-30504000D01*
X25254000Y-28424000D02*
X25254000Y-25717000D01*
X25254000Y-33211000D02*
X25254000Y-30504000D01*
X25294000Y-28424000D02*
X25294000Y-25709000D01*
X25294000Y-33219000D02*
X25294000Y-30504000D01*
X25334000Y-28424000D02*
X25334000Y-25701000D01*
X25334000Y-33227000D02*
X25334000Y-30504000D01*
X25375000Y-28424000D02*
X25375000Y-25694000D01*
X25375000Y-33234000D02*
X25375000Y-30504000D01*
X25415000Y-28424000D02*
X25415000Y-25687000D01*
X25415000Y-33241000D02*
X25415000Y-30504000D01*
X25455000Y-28424000D02*
X25455000Y-25680000D01*
X25455000Y-33248000D02*
X25455000Y-30504000D01*
X25495000Y-28424000D02*
X25495000Y-25674000D01*
X25495000Y-33254000D02*
X25495000Y-30504000D01*
X25535000Y-28424000D02*
X25535000Y-25669000D01*
X25535000Y-33259000D02*
X25535000Y-30504000D01*
X25575000Y-28424000D02*
X25575000Y-25663000D01*
X25575000Y-33265000D02*
X25575000Y-30504000D01*
X25615000Y-28424000D02*
X25615000Y-25659000D01*
X25615000Y-33269000D02*
X25615000Y-30504000D01*
X25655000Y-28424000D02*
X25655000Y-25654000D01*
X25655000Y-33274000D02*
X25655000Y-30504000D01*
X25695000Y-28424000D02*
X25695000Y-25650000D01*
X25695000Y-33278000D02*
X25695000Y-30504000D01*
X25735000Y-28424000D02*
X25735000Y-25647000D01*
X25735000Y-33281000D02*
X25735000Y-30504000D01*
X25775000Y-28424000D02*
X25775000Y-25644000D01*
X25775000Y-33284000D02*
X25775000Y-30504000D01*
X25815000Y-28424000D02*
X25815000Y-25641000D01*
X25815000Y-33287000D02*
X25815000Y-30504000D01*
X25855000Y-33289000D02*
X25855000Y-25639000D01*
X25895000Y-33291000D02*
X25895000Y-25637000D01*
X25935000Y-33293000D02*
X25935000Y-25635000D01*
X25975000Y-33294000D02*
X25975000Y-25634000D01*
X26015000Y-33294000D02*
X26015000Y-25634000D01*
X26055000Y-33294000D02*
X26055000Y-25634000D01*
X29925000Y-29464000D02*
G75*
G03X29925000Y-29464000I-3870000J0D01*
G01*
X41512000Y-23368000D02*
X40822000Y-23368000D01*
X36092000Y-23368000D02*
X36782000Y-23368000D01*
X40822000Y-21948000D02*
X36782000Y-21948000D01*
X40822000Y-24788000D02*
X40822000Y-21948000D01*
X36782000Y-24788000D02*
X40822000Y-24788000D01*
X36782000Y-21948000D02*
X36782000Y-24788000D01*
X33619000Y-126683000D02*
X33619000Y-126839000D01*
X33619000Y-124367000D02*
X33619000Y-124523000D01*
X36220130Y-126682837D02*
G75*
G02X34138039Y-126683000I-1041130J1079837D01*
G01*
X36220130Y-124523163D02*
G75*
G03X34138039Y-124523000I-1041130J-1079837D01*
G01*
X36851335Y-126681608D02*
G75*
G02X33619000Y-126838516I-1672335J1078608D01*
G01*
X36851335Y-124524392D02*
G75*
G03X33619000Y-124367484I-1672335J-1078608D01*
G01*
X33492000Y-136970000D02*
X33492000Y-137126000D01*
X33492000Y-134654000D02*
X33492000Y-134810000D01*
X36093130Y-136969837D02*
G75*
G02X34011039Y-136970000I-1041130J1079837D01*
G01*
X36093130Y-134810163D02*
G75*
G03X34011039Y-134810000I-1041130J-1079837D01*
G01*
X36724335Y-136968608D02*
G75*
G02X33492000Y-137125516I-1672335J1078608D01*
G01*
X36724335Y-134811392D02*
G75*
G03X33492000Y-134654484I-1672335J-1078608D01*
G01*
X78658000Y-28615000D02*
X73083000Y-28615000D01*
X72358000Y-27890000D02*
X73083000Y-28615000D01*
X72358000Y-27890000D02*
X65158000Y-27890000D01*
X65158000Y-27890000D02*
X65158000Y-21640000D01*
X72358000Y-21640000D02*
X65158000Y-21640000D01*
X72358000Y-21640000D02*
X73083000Y-20915000D01*
X78658000Y-20915000D02*
X73083000Y-20915000D01*
X78658000Y-20915000D02*
X78658000Y-28615000D01*
X206488000Y-23449000D02*
X207088000Y-23749000D01*
X206488000Y-24049000D02*
X206488000Y-23449000D01*
X207088000Y-23749000D02*
X206488000Y-24049000D01*
X211788000Y-20999000D02*
X211788000Y-21499000D01*
X217288000Y-20999000D02*
X211788000Y-20999000D01*
X217288000Y-21499000D02*
X217288000Y-20999000D01*
X211788000Y-21499000D02*
X217288000Y-21499000D01*
X211788000Y-23499000D02*
X211788000Y-23999000D01*
X217288000Y-23499000D02*
X211788000Y-23499000D01*
X217288000Y-23999000D02*
X217288000Y-23499000D01*
X211788000Y-23999000D02*
X217288000Y-23999000D01*
X210678000Y-20109000D02*
X210678000Y-22499000D01*
X206178000Y-20109000D02*
X210678000Y-20109000D01*
X206178000Y-18689000D02*
X206178000Y-20109000D01*
X217898000Y-18689000D02*
X206178000Y-18689000D01*
X217898000Y-22499000D02*
X217898000Y-18689000D01*
X210678000Y-24889000D02*
X210678000Y-22499000D01*
X206178000Y-24889000D02*
X210678000Y-24889000D01*
X206178000Y-26309000D02*
X206178000Y-24889000D01*
X217898000Y-26309000D02*
X206178000Y-26309000D01*
X217898000Y-22499000D02*
X217898000Y-26309000D01*
X206488000Y-41084900D02*
X207088000Y-41384900D01*
X206488000Y-41684900D02*
X206488000Y-41084900D01*
X207088000Y-41384900D02*
X206488000Y-41684900D01*
X211788000Y-38634900D02*
X211788000Y-39134900D01*
X217288000Y-38634900D02*
X211788000Y-38634900D01*
X217288000Y-39134900D02*
X217288000Y-38634900D01*
X211788000Y-39134900D02*
X217288000Y-39134900D01*
X211788000Y-41134900D02*
X211788000Y-41634900D01*
X217288000Y-41134900D02*
X211788000Y-41134900D01*
X217288000Y-41634900D02*
X217288000Y-41134900D01*
X211788000Y-41634900D02*
X217288000Y-41634900D01*
X210678000Y-37744900D02*
X210678000Y-40134900D01*
X206178000Y-37744900D02*
X210678000Y-37744900D01*
X206178000Y-36324900D02*
X206178000Y-37744900D01*
X217898000Y-36324900D02*
X206178000Y-36324900D01*
X217898000Y-40134900D02*
X217898000Y-36324900D01*
X210678000Y-42524900D02*
X210678000Y-40134900D01*
X206178000Y-42524900D02*
X210678000Y-42524900D01*
X206178000Y-43944900D02*
X206178000Y-42524900D01*
X217898000Y-43944900D02*
X206178000Y-43944900D01*
X217898000Y-40134900D02*
X217898000Y-43944900D01*
X206488000Y-58720700D02*
X207088000Y-59020700D01*
X206488000Y-59320700D02*
X206488000Y-58720700D01*
X207088000Y-59020700D02*
X206488000Y-59320700D01*
X211788000Y-56270700D02*
X211788000Y-56770700D01*
X217288000Y-56270700D02*
X211788000Y-56270700D01*
X217288000Y-56770700D02*
X217288000Y-56270700D01*
X211788000Y-56770700D02*
X217288000Y-56770700D01*
X211788000Y-58770700D02*
X211788000Y-59270700D01*
X217288000Y-58770700D02*
X211788000Y-58770700D01*
X217288000Y-59270700D02*
X217288000Y-58770700D01*
X211788000Y-59270700D02*
X217288000Y-59270700D01*
X210678000Y-55380700D02*
X210678000Y-57770700D01*
X206178000Y-55380700D02*
X210678000Y-55380700D01*
X206178000Y-53960700D02*
X206178000Y-55380700D01*
X217898000Y-53960700D02*
X206178000Y-53960700D01*
X217898000Y-57770700D02*
X217898000Y-53960700D01*
X210678000Y-60160700D02*
X210678000Y-57770700D01*
X206178000Y-60160700D02*
X210678000Y-60160700D01*
X206178000Y-61580700D02*
X206178000Y-60160700D01*
X217898000Y-61580700D02*
X206178000Y-61580700D01*
X217898000Y-57770700D02*
X217898000Y-61580700D01*
X206488000Y-76356600D02*
X207088000Y-76656600D01*
X206488000Y-76956600D02*
X206488000Y-76356600D01*
X207088000Y-76656600D02*
X206488000Y-76956600D01*
X211788000Y-73906600D02*
X211788000Y-74406600D01*
X217288000Y-73906600D02*
X211788000Y-73906600D01*
X217288000Y-74406600D02*
X217288000Y-73906600D01*
X211788000Y-74406600D02*
X217288000Y-74406600D01*
X211788000Y-76406600D02*
X211788000Y-76906600D01*
X217288000Y-76406600D02*
X211788000Y-76406600D01*
X217288000Y-76906600D02*
X217288000Y-76406600D01*
X211788000Y-76906600D02*
X217288000Y-76906600D01*
X210678000Y-73016600D02*
X210678000Y-75406600D01*
X206178000Y-73016600D02*
X210678000Y-73016600D01*
X206178000Y-71596600D02*
X206178000Y-73016600D01*
X217898000Y-71596600D02*
X206178000Y-71596600D01*
X217898000Y-75406600D02*
X217898000Y-71596600D01*
X210678000Y-77796600D02*
X210678000Y-75406600D01*
X206178000Y-77796600D02*
X210678000Y-77796600D01*
X206178000Y-79216600D02*
X206178000Y-77796600D01*
X217898000Y-79216600D02*
X206178000Y-79216600D01*
X217898000Y-75406600D02*
X217898000Y-79216600D01*
X206488000Y-93992400D02*
X207088000Y-94292400D01*
X206488000Y-94592400D02*
X206488000Y-93992400D01*
X207088000Y-94292400D02*
X206488000Y-94592400D01*
X211788000Y-91542400D02*
X211788000Y-92042400D01*
X217288000Y-91542400D02*
X211788000Y-91542400D01*
X217288000Y-92042400D02*
X217288000Y-91542400D01*
X211788000Y-92042400D02*
X217288000Y-92042400D01*
X211788000Y-94042400D02*
X211788000Y-94542400D01*
X217288000Y-94042400D02*
X211788000Y-94042400D01*
X217288000Y-94542400D02*
X217288000Y-94042400D01*
X211788000Y-94542400D02*
X217288000Y-94542400D01*
X210678000Y-90652400D02*
X210678000Y-93042400D01*
X206178000Y-90652400D02*
X210678000Y-90652400D01*
X206178000Y-89232400D02*
X206178000Y-90652400D01*
X217898000Y-89232400D02*
X206178000Y-89232400D01*
X217898000Y-93042400D02*
X217898000Y-89232400D01*
X210678000Y-95432400D02*
X210678000Y-93042400D01*
X206178000Y-95432400D02*
X210678000Y-95432400D01*
X206178000Y-96852400D02*
X206178000Y-95432400D01*
X217898000Y-96852400D02*
X206178000Y-96852400D01*
X217898000Y-93042400D02*
X217898000Y-96852400D01*
X206488000Y-111628000D02*
X207088000Y-111928000D01*
X206488000Y-112228000D02*
X206488000Y-111628000D01*
X207088000Y-111928000D02*
X206488000Y-112228000D01*
X211788000Y-109178000D02*
X211788000Y-109678000D01*
X217288000Y-109178000D02*
X211788000Y-109178000D01*
X217288000Y-109678000D02*
X217288000Y-109178000D01*
X211788000Y-109678000D02*
X217288000Y-109678000D01*
X211788000Y-111678000D02*
X211788000Y-112178000D01*
X217288000Y-111678000D02*
X211788000Y-111678000D01*
X217288000Y-112178000D02*
X217288000Y-111678000D01*
X211788000Y-112178000D02*
X217288000Y-112178000D01*
X210678000Y-108288000D02*
X210678000Y-110678000D01*
X206178000Y-108288000D02*
X210678000Y-108288000D01*
X206178000Y-106868000D02*
X206178000Y-108288000D01*
X217898000Y-106868000D02*
X206178000Y-106868000D01*
X217898000Y-110678000D02*
X217898000Y-106868000D01*
X210678000Y-113068000D02*
X210678000Y-110678000D01*
X206178000Y-113068000D02*
X210678000Y-113068000D01*
X206178000Y-114488000D02*
X206178000Y-113068000D01*
X217898000Y-114488000D02*
X206178000Y-114488000D01*
X217898000Y-110678000D02*
X217898000Y-114488000D01*
X90887300Y-151789000D02*
X90587300Y-152389000D01*
X90287300Y-151789000D02*
X90887300Y-151789000D01*
X90587300Y-152389000D02*
X90287300Y-151789000D01*
X95837300Y-157089000D02*
X95337300Y-157089000D01*
X95837300Y-162589000D02*
X95837300Y-157089000D01*
X95337300Y-162589000D02*
X95837300Y-162589000D01*
X95337300Y-157089000D02*
X95337300Y-162589000D01*
X93337300Y-157089000D02*
X92837300Y-157089000D01*
X93337300Y-162589000D02*
X93337300Y-157089000D01*
X92837300Y-162589000D02*
X93337300Y-162589000D01*
X92837300Y-157089000D02*
X92837300Y-162589000D01*
X90837300Y-157089000D02*
X90337300Y-157089000D01*
X90837300Y-162589000D02*
X90837300Y-157089000D01*
X90337300Y-162589000D02*
X90837300Y-162589000D01*
X90337300Y-157089000D02*
X90337300Y-162589000D01*
X96727300Y-155979000D02*
X93087300Y-155979000D01*
X96727300Y-151479000D02*
X96727300Y-155979000D01*
X98147300Y-151479000D02*
X96727300Y-151479000D01*
X98147300Y-163199000D02*
X98147300Y-151479000D01*
X93087300Y-163199000D02*
X98147300Y-163199000D01*
X89447300Y-155979000D02*
X93087300Y-155979000D01*
X89447300Y-151479000D02*
X89447300Y-155979000D01*
X88027300Y-151479000D02*
X89447300Y-151479000D01*
X88027300Y-163199000D02*
X88027300Y-151479000D01*
X93087300Y-163199000D02*
X88027300Y-163199000D01*
X109828000Y-151789000D02*
X109528000Y-152389000D01*
X109228000Y-151789000D02*
X109828000Y-151789000D01*
X109528000Y-152389000D02*
X109228000Y-151789000D01*
X114778000Y-157089000D02*
X114278000Y-157089000D01*
X114778000Y-162589000D02*
X114778000Y-157089000D01*
X114278000Y-162589000D02*
X114778000Y-162589000D01*
X114278000Y-157089000D02*
X114278000Y-162589000D01*
X112278000Y-157089000D02*
X111778000Y-157089000D01*
X112278000Y-162589000D02*
X112278000Y-157089000D01*
X111778000Y-162589000D02*
X112278000Y-162589000D01*
X111778000Y-157089000D02*
X111778000Y-162589000D01*
X109778000Y-157089000D02*
X109278000Y-157089000D01*
X109778000Y-162589000D02*
X109778000Y-157089000D01*
X109278000Y-162589000D02*
X109778000Y-162589000D01*
X109278000Y-157089000D02*
X109278000Y-162589000D01*
X115668000Y-155979000D02*
X112028000Y-155979000D01*
X115668000Y-151479000D02*
X115668000Y-155979000D01*
X117088000Y-151479000D02*
X115668000Y-151479000D01*
X117088000Y-163199000D02*
X117088000Y-151479000D01*
X112028000Y-163199000D02*
X117088000Y-163199000D01*
X108388000Y-155979000D02*
X112028000Y-155979000D01*
X108388000Y-151479000D02*
X108388000Y-155979000D01*
X106968000Y-151479000D02*
X108388000Y-151479000D01*
X106968000Y-163199000D02*
X106968000Y-151479000D01*
X112028000Y-163199000D02*
X106968000Y-163199000D01*
X128770000Y-151789000D02*
X128470000Y-152389000D01*
X128170000Y-151789000D02*
X128770000Y-151789000D01*
X128470000Y-152389000D02*
X128170000Y-151789000D01*
X133720000Y-157089000D02*
X133220000Y-157089000D01*
X133720000Y-162589000D02*
X133720000Y-157089000D01*
X133220000Y-162589000D02*
X133720000Y-162589000D01*
X133220000Y-157089000D02*
X133220000Y-162589000D01*
X131220000Y-157089000D02*
X130720000Y-157089000D01*
X131220000Y-162589000D02*
X131220000Y-157089000D01*
X130720000Y-162589000D02*
X131220000Y-162589000D01*
X130720000Y-157089000D02*
X130720000Y-162589000D01*
X128720000Y-157089000D02*
X128220000Y-157089000D01*
X128720000Y-162589000D02*
X128720000Y-157089000D01*
X128220000Y-162589000D02*
X128720000Y-162589000D01*
X128220000Y-157089000D02*
X128220000Y-162589000D01*
X134610000Y-155979000D02*
X130970000Y-155979000D01*
X134610000Y-151479000D02*
X134610000Y-155979000D01*
X136030000Y-151479000D02*
X134610000Y-151479000D01*
X136030000Y-163199000D02*
X136030000Y-151479000D01*
X130970000Y-163199000D02*
X136030000Y-163199000D01*
X127330000Y-155979000D02*
X130970000Y-155979000D01*
X127330000Y-151479000D02*
X127330000Y-155979000D01*
X125910000Y-151479000D02*
X127330000Y-151479000D01*
X125910000Y-163199000D02*
X125910000Y-151479000D01*
X130970000Y-163199000D02*
X125910000Y-163199000D01*
X206488000Y-131764000D02*
X207088000Y-132064000D01*
X206488000Y-132364000D02*
X206488000Y-131764000D01*
X207088000Y-132064000D02*
X206488000Y-132364000D01*
X211788000Y-126814000D02*
X211788000Y-127314000D01*
X217288000Y-126814000D02*
X211788000Y-126814000D01*
X217288000Y-127314000D02*
X217288000Y-126814000D01*
X211788000Y-127314000D02*
X217288000Y-127314000D01*
X211788000Y-129314000D02*
X211788000Y-129814000D01*
X217288000Y-129314000D02*
X211788000Y-129314000D01*
X217288000Y-129814000D02*
X217288000Y-129314000D01*
X211788000Y-129814000D02*
X217288000Y-129814000D01*
X211788000Y-131814000D02*
X211788000Y-132314000D01*
X217288000Y-131814000D02*
X211788000Y-131814000D01*
X217288000Y-132314000D02*
X217288000Y-131814000D01*
X211788000Y-132314000D02*
X217288000Y-132314000D01*
X210678000Y-125924000D02*
X210678000Y-129564000D01*
X206178000Y-125924000D02*
X210678000Y-125924000D01*
X206178000Y-124504000D02*
X206178000Y-125924000D01*
X217898000Y-124504000D02*
X206178000Y-124504000D01*
X217898000Y-129564000D02*
X217898000Y-124504000D01*
X210678000Y-133204000D02*
X210678000Y-129564000D01*
X206178000Y-133204000D02*
X210678000Y-133204000D01*
X206178000Y-134624000D02*
X206178000Y-133204000D01*
X217898000Y-134624000D02*
X206178000Y-134624000D01*
X217898000Y-129564000D02*
X217898000Y-134624000D01*
X185593000Y-151789000D02*
X185293000Y-152389000D01*
X184993000Y-151789000D02*
X185593000Y-151789000D01*
X185293000Y-152389000D02*
X184993000Y-151789000D01*
X190543000Y-157089000D02*
X190043000Y-157089000D01*
X190543000Y-162589000D02*
X190543000Y-157089000D01*
X190043000Y-162589000D02*
X190543000Y-162589000D01*
X190043000Y-157089000D02*
X190043000Y-162589000D01*
X188043000Y-157089000D02*
X187543000Y-157089000D01*
X188043000Y-162589000D02*
X188043000Y-157089000D01*
X187543000Y-162589000D02*
X188043000Y-162589000D01*
X187543000Y-157089000D02*
X187543000Y-162589000D01*
X185543000Y-157089000D02*
X185043000Y-157089000D01*
X185543000Y-162589000D02*
X185543000Y-157089000D01*
X185043000Y-162589000D02*
X185543000Y-162589000D01*
X185043000Y-157089000D02*
X185043000Y-162589000D01*
X191433000Y-155979000D02*
X187793000Y-155979000D01*
X191433000Y-151479000D02*
X191433000Y-155979000D01*
X192853000Y-151479000D02*
X191433000Y-151479000D01*
X192853000Y-163199000D02*
X192853000Y-151479000D01*
X187793000Y-163199000D02*
X192853000Y-163199000D01*
X184153000Y-155979000D02*
X187793000Y-155979000D01*
X184153000Y-151479000D02*
X184153000Y-155979000D01*
X182733000Y-151479000D02*
X184153000Y-151479000D01*
X182733000Y-163199000D02*
X182733000Y-151479000D01*
X187793000Y-163199000D02*
X182733000Y-163199000D01*
X166652000Y-151789000D02*
X166352000Y-152389000D01*
X166052000Y-151789000D02*
X166652000Y-151789000D01*
X166352000Y-152389000D02*
X166052000Y-151789000D01*
X171602000Y-157089000D02*
X171102000Y-157089000D01*
X171602000Y-162589000D02*
X171602000Y-157089000D01*
X171102000Y-162589000D02*
X171602000Y-162589000D01*
X171102000Y-157089000D02*
X171102000Y-162589000D01*
X169102000Y-157089000D02*
X168602000Y-157089000D01*
X169102000Y-162589000D02*
X169102000Y-157089000D01*
X168602000Y-162589000D02*
X169102000Y-162589000D01*
X168602000Y-157089000D02*
X168602000Y-162589000D01*
X166602000Y-157089000D02*
X166102000Y-157089000D01*
X166602000Y-162589000D02*
X166602000Y-157089000D01*
X166102000Y-162589000D02*
X166602000Y-162589000D01*
X166102000Y-157089000D02*
X166102000Y-162589000D01*
X172492000Y-155979000D02*
X168852000Y-155979000D01*
X172492000Y-151479000D02*
X172492000Y-155979000D01*
X173912000Y-151479000D02*
X172492000Y-151479000D01*
X173912000Y-163199000D02*
X173912000Y-151479000D01*
X168852000Y-163199000D02*
X173912000Y-163199000D01*
X165212000Y-155979000D02*
X168852000Y-155979000D01*
X165212000Y-151479000D02*
X165212000Y-155979000D01*
X163792000Y-151479000D02*
X165212000Y-151479000D01*
X163792000Y-163199000D02*
X163792000Y-151479000D01*
X168852000Y-163199000D02*
X163792000Y-163199000D01*
X147711000Y-151789000D02*
X147411000Y-152389000D01*
X147111000Y-151789000D02*
X147711000Y-151789000D01*
X147411000Y-152389000D02*
X147111000Y-151789000D01*
X152661000Y-157089000D02*
X152161000Y-157089000D01*
X152661000Y-162589000D02*
X152661000Y-157089000D01*
X152161000Y-162589000D02*
X152661000Y-162589000D01*
X152161000Y-157089000D02*
X152161000Y-162589000D01*
X150161000Y-157089000D02*
X149661000Y-157089000D01*
X150161000Y-162589000D02*
X150161000Y-157089000D01*
X149661000Y-162589000D02*
X150161000Y-162589000D01*
X149661000Y-157089000D02*
X149661000Y-162589000D01*
X147661000Y-157089000D02*
X147161000Y-157089000D01*
X147661000Y-162589000D02*
X147661000Y-157089000D01*
X147161000Y-162589000D02*
X147661000Y-162589000D01*
X147161000Y-157089000D02*
X147161000Y-162589000D01*
X153551000Y-155979000D02*
X149911000Y-155979000D01*
X153551000Y-151479000D02*
X153551000Y-155979000D01*
X154971000Y-151479000D02*
X153551000Y-151479000D01*
X154971000Y-163199000D02*
X154971000Y-151479000D01*
X149911000Y-163199000D02*
X154971000Y-163199000D01*
X146271000Y-155979000D02*
X149911000Y-155979000D01*
X146271000Y-151479000D02*
X146271000Y-155979000D01*
X144851000Y-151479000D02*
X146271000Y-151479000D01*
X144851000Y-163199000D02*
X144851000Y-151479000D01*
X149911000Y-163199000D02*
X144851000Y-163199000D01*
X205807000Y-144720000D02*
X207137000Y-144720000D01*
X205807000Y-146050000D02*
X205807000Y-144720000D01*
X208407000Y-144720000D02*
X211007000Y-144720000D01*
X208407000Y-147320000D02*
X208407000Y-144720000D01*
X205807000Y-147320000D02*
X208407000Y-147320000D01*
X211007000Y-144720000D02*
X211007000Y-157540000D01*
X205807000Y-147320000D02*
X205807000Y-157540000D01*
X205807000Y-157540000D02*
X211007000Y-157540000D01*
X21895000Y-125603000D02*
X22845000Y-125603000D01*
X27635000Y-125603000D02*
X26685000Y-125603000D01*
X22845000Y-126523000D02*
X26685000Y-126523000D01*
X22845000Y-124683000D02*
X22845000Y-126523000D01*
X26685000Y-124683000D02*
X22845000Y-124683000D01*
X26685000Y-126523000D02*
X26685000Y-124683000D01*
X21895000Y-135890000D02*
X22845000Y-135890000D01*
X27635000Y-135890000D02*
X26685000Y-135890000D01*
X22845000Y-136810000D02*
X26685000Y-136810000D01*
X22845000Y-134970000D02*
X22845000Y-136810000D01*
X26685000Y-134970000D02*
X22845000Y-134970000D01*
X26685000Y-136810000D02*
X26685000Y-134970000D01*
X46482000Y-82931000D02*
X40132000Y-89281000D01*
X46482000Y-58801000D02*
X46482000Y-82931000D01*
X21082000Y-58801000D02*
X46482000Y-58801000D01*
X21082000Y-82931000D02*
X21082000Y-58801000D01*
X27432000Y-89281000D02*
X21082000Y-82931000D01*
X40132000Y-89281000D02*
X27432000Y-89281000D01*
X47752000Y-90551000D02*
X19812000Y-90551000D01*
X47752000Y-57531000D02*
X47752000Y-90551000D01*
X19812000Y-57531000D02*
X47752000Y-57531000D01*
X19812000Y-90551000D02*
X19812000Y-57531000D01*
X73787000Y-115697000D02*
X73787000Y-132207000D01*
X96647000Y-115697000D02*
X73787000Y-115697000D01*
X96647000Y-132207000D02*
X96647000Y-115697000D01*
X73787000Y-132207000D02*
X96647000Y-132207000D01*
X41605000Y-31369000D02*
X40655000Y-31369000D01*
X35865000Y-31369000D02*
X36815000Y-31369000D01*
X40655000Y-30449000D02*
X36815000Y-30449000D01*
X40655000Y-32289000D02*
X40655000Y-30449000D01*
X36815000Y-32289000D02*
X40655000Y-32289000D01*
X36815000Y-30449000D02*
X36815000Y-32289000D01*
X25273000Y-158601000D02*
X25273000Y-145901000D01*
X30353000Y-158601000D02*
X25273000Y-158601000D01*
X30353000Y-145901000D02*
X30353000Y-158601000D01*
X25273000Y-145901000D02*
X30353000Y-145901000D01*
X35052000Y-158601000D02*
X35052000Y-145901000D01*
X40132000Y-158601000D02*
X35052000Y-158601000D01*
X40132000Y-145901000D02*
X40132000Y-158601000D01*
X35052000Y-145901000D02*
X40132000Y-145901000D01*
D12*
X97126000Y-97892000D02*
X95126000Y-95892000D01*
X85626000Y-15392000D02*
X152626000Y-15392000D01*
X95126000Y-95892000D02*
X85626000Y-95892000D01*
X84126000Y-16892000D02*
G75*
G02X85626000Y-15392000I1500000J0D01*
G01*
X152626000Y-15392000D02*
G75*
G02X154126000Y-16892000I0J-1500000D01*
G01*
X154126000Y-94392000D02*
G75*
G02X152626000Y-95892000I-1500000J0D01*
G01*
X152626000Y-95892000D02*
X132126000Y-95892000D01*
X132126000Y-95892000D02*
X130126000Y-97892000D01*
X85626000Y-95892000D02*
G75*
G02X84126000Y-94392000I0J1500000D01*
G01*
X84126000Y-94392000D02*
X84126000Y-16892000D01*
X154126000Y-16892000D02*
X154126000Y-94392000D01*
X130126000Y-97892000D02*
X97126000Y-97892000D01*
X86146000Y-45862000D02*
X86146000Y-94122000D01*
X91146000Y-45862000D02*
X86146000Y-45862000D01*
X147106000Y-94122000D02*
X152106000Y-94122000D01*
X152106000Y-94122000D02*
X152106000Y-45862000D01*
X152106000Y-45862000D02*
X147106000Y-45862000D01*
D13*
X85726000Y-47132000D02*
G75*
G03X85726000Y-47132000I-100000J0D01*
G01*
D12*
X86146000Y-94122000D02*
X91146000Y-94122000D01*
X147106000Y-45862000D02*
X147106000Y-94122000D01*
X91146000Y-94122000D02*
X91146000Y-45862000D01*
D11*
X33410000Y-112753000D02*
X29545000Y-112753000D01*
X25035000Y-112753000D02*
X21170000Y-112753000D01*
X33410000Y-102813000D02*
X29545000Y-102813000D01*
X25035000Y-102813000D02*
X21170000Y-102813000D01*
X33410000Y-112753000D02*
X33410000Y-111154000D01*
X33410000Y-109412000D02*
X33410000Y-108653000D01*
X33410000Y-106912000D02*
X33410000Y-106153000D01*
X33410000Y-104413000D02*
X33410000Y-102813000D01*
X21170000Y-112753000D02*
X21170000Y-102813000D01*
X74146100Y-163199000D02*
X69086100Y-163199000D01*
X69086100Y-163199000D02*
X69086100Y-151479000D01*
X69086100Y-151479000D02*
X70506100Y-151479000D01*
X70506100Y-151479000D02*
X70506100Y-155979000D01*
X70506100Y-155979000D02*
X74146100Y-155979000D01*
X74146100Y-163199000D02*
X79206100Y-163199000D01*
X79206100Y-163199000D02*
X79206100Y-151479000D01*
X79206100Y-151479000D02*
X77786100Y-151479000D01*
X77786100Y-151479000D02*
X77786100Y-155979000D01*
X77786100Y-155979000D02*
X74146100Y-155979000D01*
X71396100Y-157089000D02*
X71396100Y-162589000D01*
X71396100Y-162589000D02*
X71896100Y-162589000D01*
X71896100Y-162589000D02*
X71896100Y-157089000D01*
X71896100Y-157089000D02*
X71396100Y-157089000D01*
X73896100Y-157089000D02*
X73896100Y-162589000D01*
X73896100Y-162589000D02*
X74396100Y-162589000D01*
X74396100Y-162589000D02*
X74396100Y-157089000D01*
X74396100Y-157089000D02*
X73896100Y-157089000D01*
X76396100Y-157089000D02*
X76396100Y-162589000D01*
X76396100Y-162589000D02*
X76896100Y-162589000D01*
X76896100Y-162589000D02*
X76896100Y-157089000D01*
X76896100Y-157089000D02*
X76396100Y-157089000D01*
X71646100Y-152389000D02*
X71346100Y-151789000D01*
X71346100Y-151789000D02*
X71946100Y-151789000D01*
X71946100Y-151789000D02*
X71646100Y-152389000D01*
X191817000Y-24825000D02*
X185847000Y-24825000D01*
X185847000Y-24825000D02*
X185847000Y-39945000D01*
X185847000Y-39945000D02*
X191817000Y-39945000D01*
X191817000Y-39945000D02*
X191817000Y-24825000D01*
X191807000Y-28135000D02*
X191057000Y-28135000D01*
X191057000Y-28135000D02*
X191057000Y-36635000D01*
X191057000Y-36635000D02*
X191807000Y-36635000D01*
X191807000Y-36635000D02*
X191807000Y-28135000D01*
X191807000Y-24835000D02*
X191057000Y-24835000D01*
X191057000Y-24835000D02*
X191057000Y-26635000D01*
X191057000Y-26635000D02*
X191807000Y-26635000D01*
X191807000Y-26635000D02*
X191807000Y-24835000D01*
X191807000Y-38135000D02*
X191057000Y-38135000D01*
X191057000Y-38135000D02*
X191057000Y-39935000D01*
X191057000Y-39935000D02*
X191807000Y-39935000D01*
X191807000Y-39935000D02*
X191807000Y-38135000D01*
X189557000Y-24835000D02*
X189557000Y-25585000D01*
X189557000Y-25585000D02*
X186607000Y-25585000D01*
X186607000Y-25585000D02*
X186607000Y-32385000D01*
X189557000Y-39935000D02*
X189557000Y-39185000D01*
X189557000Y-39185000D02*
X186607000Y-39185000D01*
X186607000Y-39185000D02*
X186607000Y-32385000D01*
X192107000Y-25785000D02*
X192107000Y-24535000D01*
X192107000Y-24535000D02*
X190857000Y-24535000D01*
X192198000Y-53447000D02*
X186228000Y-53447000D01*
X186228000Y-53447000D02*
X186228000Y-68567000D01*
X186228000Y-68567000D02*
X192198000Y-68567000D01*
X192198000Y-68567000D02*
X192198000Y-53447000D01*
X192188000Y-56757000D02*
X191438000Y-56757000D01*
X191438000Y-56757000D02*
X191438000Y-65257000D01*
X191438000Y-65257000D02*
X192188000Y-65257000D01*
X192188000Y-65257000D02*
X192188000Y-56757000D01*
X192188000Y-53457000D02*
X191438000Y-53457000D01*
X191438000Y-53457000D02*
X191438000Y-55257000D01*
X191438000Y-55257000D02*
X192188000Y-55257000D01*
X192188000Y-55257000D02*
X192188000Y-53457000D01*
X192188000Y-66757000D02*
X191438000Y-66757000D01*
X191438000Y-66757000D02*
X191438000Y-68557000D01*
X191438000Y-68557000D02*
X192188000Y-68557000D01*
X192188000Y-68557000D02*
X192188000Y-66757000D01*
X189938000Y-53457000D02*
X189938000Y-54207000D01*
X189938000Y-54207000D02*
X186988000Y-54207000D01*
X186988000Y-54207000D02*
X186988000Y-61007000D01*
X189938000Y-68557000D02*
X189938000Y-67807000D01*
X189938000Y-67807000D02*
X186988000Y-67807000D01*
X186988000Y-67807000D02*
X186988000Y-61007000D01*
X192488000Y-54407000D02*
X192488000Y-53157000D01*
X192488000Y-53157000D02*
X191238000Y-53157000D01*
X193377000Y-78430000D02*
X192127000Y-78430000D01*
X193377000Y-79680000D02*
X193377000Y-78430000D01*
X187877000Y-93080000D02*
X187877000Y-86280000D01*
X190827000Y-93080000D02*
X187877000Y-93080000D01*
X190827000Y-93830000D02*
X190827000Y-93080000D01*
X187877000Y-79480000D02*
X187877000Y-86280000D01*
X190827000Y-79480000D02*
X187877000Y-79480000D01*
X190827000Y-78730000D02*
X190827000Y-79480000D01*
X193077000Y-93830000D02*
X193077000Y-92030000D01*
X192327000Y-93830000D02*
X193077000Y-93830000D01*
X192327000Y-92030000D02*
X192327000Y-93830000D01*
X193077000Y-92030000D02*
X192327000Y-92030000D01*
X193077000Y-80530000D02*
X193077000Y-78730000D01*
X192327000Y-80530000D02*
X193077000Y-80530000D01*
X192327000Y-78730000D02*
X192327000Y-80530000D01*
X193077000Y-78730000D02*
X192327000Y-78730000D01*
X193077000Y-90530000D02*
X193077000Y-82030000D01*
X192327000Y-90530000D02*
X193077000Y-90530000D01*
X192327000Y-82030000D02*
X192327000Y-90530000D01*
X193077000Y-82030000D02*
X192327000Y-82030000D01*
X193087000Y-93840000D02*
X193087000Y-78720000D01*
X187117000Y-93840000D02*
X193087000Y-93840000D01*
X187117000Y-78720000D02*
X187117000Y-93840000D01*
X193087000Y-78720000D02*
X187117000Y-78720000D01*
X61259000Y-28615000D02*
X55684000Y-28615000D01*
X54959000Y-27890000D02*
X55684000Y-28615000D01*
X54959000Y-27890000D02*
X47759000Y-27890000D01*
X47759000Y-27890000D02*
X47759000Y-21640000D01*
X54959000Y-21640000D02*
X47759000Y-21640000D01*
X54959000Y-21640000D02*
X55684000Y-20915000D01*
X61259000Y-20915000D02*
X55684000Y-20915000D01*
X61259000Y-20915000D02*
X61259000Y-28615000D01*
X68119000Y-62250000D02*
X62149000Y-62250000D01*
X62149000Y-62250000D02*
X62149000Y-72370000D01*
X62149000Y-72370000D02*
X68119000Y-72370000D01*
X68119000Y-72370000D02*
X68119000Y-62250000D01*
X68109000Y-65560000D02*
X67359000Y-65560000D01*
X67359000Y-65560000D02*
X67359000Y-69060000D01*
X67359000Y-69060000D02*
X68109000Y-69060000D01*
X68109000Y-69060000D02*
X68109000Y-65560000D01*
X68109000Y-62260000D02*
X67359000Y-62260000D01*
X67359000Y-62260000D02*
X67359000Y-64060000D01*
X67359000Y-64060000D02*
X68109000Y-64060000D01*
X68109000Y-64060000D02*
X68109000Y-62260000D01*
X68109000Y-70560000D02*
X67359000Y-70560000D01*
X67359000Y-70560000D02*
X67359000Y-72360000D01*
X67359000Y-72360000D02*
X68109000Y-72360000D01*
X68109000Y-72360000D02*
X68109000Y-70560000D01*
X65859000Y-62260000D02*
X65859000Y-63010000D01*
X65859000Y-63010000D02*
X62909000Y-63010000D01*
X62909000Y-63010000D02*
X62909000Y-67310000D01*
X65859000Y-72360000D02*
X65859000Y-71610000D01*
X65859000Y-71610000D02*
X62909000Y-71610000D01*
X62909000Y-71610000D02*
X62909000Y-67310000D01*
X68409000Y-63210000D02*
X68409000Y-61960000D01*
X68409000Y-61960000D02*
X67159000Y-61960000D01*
X68409000Y-89305000D02*
X67159000Y-89305000D01*
X68409000Y-90555000D02*
X68409000Y-89305000D01*
X62909000Y-98955000D02*
X62909000Y-94655000D01*
X65859000Y-98955000D02*
X62909000Y-98955000D01*
X65859000Y-99705000D02*
X65859000Y-98955000D01*
X62909000Y-90355000D02*
X62909000Y-94655000D01*
X65859000Y-90355000D02*
X62909000Y-90355000D01*
X65859000Y-89605000D02*
X65859000Y-90355000D01*
X68109000Y-99705000D02*
X68109000Y-97905000D01*
X67359000Y-99705000D02*
X68109000Y-99705000D01*
X67359000Y-97905000D02*
X67359000Y-99705000D01*
X68109000Y-97905000D02*
X67359000Y-97905000D01*
X68109000Y-91405000D02*
X68109000Y-89605000D01*
X67359000Y-91405000D02*
X68109000Y-91405000D01*
X67359000Y-89605000D02*
X67359000Y-91405000D01*
X68109000Y-89605000D02*
X67359000Y-89605000D01*
X68109000Y-96405000D02*
X68109000Y-92905000D01*
X67359000Y-96405000D02*
X68109000Y-96405000D01*
X67359000Y-92905000D02*
X67359000Y-96405000D01*
X68109000Y-92905000D02*
X67359000Y-92905000D01*
X68119000Y-99715000D02*
X68119000Y-89595000D01*
X62149000Y-99715000D02*
X68119000Y-99715000D01*
X62149000Y-89595000D02*
X62149000Y-99715000D01*
X68119000Y-89595000D02*
X62149000Y-89595000D01*
X55205000Y-163199000D02*
X50145000Y-163199000D01*
X50145000Y-163199000D02*
X50145000Y-151479000D01*
X50145000Y-151479000D02*
X51565000Y-151479000D01*
X51565000Y-151479000D02*
X51565000Y-155979000D01*
X51565000Y-155979000D02*
X55205000Y-155979000D01*
X55205000Y-163199000D02*
X60265000Y-163199000D01*
X60265000Y-163199000D02*
X60265000Y-151479000D01*
X60265000Y-151479000D02*
X58845000Y-151479000D01*
X58845000Y-151479000D02*
X58845000Y-155979000D01*
X58845000Y-155979000D02*
X55205000Y-155979000D01*
X52455000Y-157089000D02*
X52455000Y-162589000D01*
X52455000Y-162589000D02*
X52955000Y-162589000D01*
X52955000Y-162589000D02*
X52955000Y-157089000D01*
X52955000Y-157089000D02*
X52455000Y-157089000D01*
X54955000Y-157089000D02*
X54955000Y-162589000D01*
X54955000Y-162589000D02*
X55455000Y-162589000D01*
X55455000Y-162589000D02*
X55455000Y-157089000D01*
X55455000Y-157089000D02*
X54955000Y-157089000D01*
X57455000Y-157089000D02*
X57455000Y-162589000D01*
X57455000Y-162589000D02*
X57955000Y-162589000D01*
X57955000Y-162589000D02*
X57955000Y-157089000D01*
X57955000Y-157089000D02*
X57455000Y-157089000D01*
X52705000Y-152389000D02*
X52405000Y-151789000D01*
X52405000Y-151789000D02*
X53005000Y-151789000D01*
X53005000Y-151789000D02*
X52705000Y-152389000D01*
X139009000Y-125139000D02*
X139009000Y-126389000D01*
X140259000Y-125139000D02*
X139009000Y-125139000D01*
X148659000Y-130639000D02*
X144359000Y-130639000D01*
X148659000Y-127689000D02*
X148659000Y-130639000D01*
X149409000Y-127689000D02*
X148659000Y-127689000D01*
X140059000Y-130639000D02*
X144359000Y-130639000D01*
X140059000Y-127689000D02*
X140059000Y-130639000D01*
X139309000Y-127689000D02*
X140059000Y-127689000D01*
X149409000Y-125439000D02*
X147609000Y-125439000D01*
X149409000Y-126189000D02*
X149409000Y-125439000D01*
X147609000Y-126189000D02*
X149409000Y-126189000D01*
X147609000Y-125439000D02*
X147609000Y-126189000D01*
X141109000Y-125439000D02*
X139309000Y-125439000D01*
X141109000Y-126189000D02*
X141109000Y-125439000D01*
X139309000Y-126189000D02*
X141109000Y-126189000D01*
X139309000Y-125439000D02*
X139309000Y-126189000D01*
X146109000Y-125439000D02*
X142609000Y-125439000D01*
X146109000Y-126189000D02*
X146109000Y-125439000D01*
X142609000Y-126189000D02*
X146109000Y-126189000D01*
X142609000Y-125439000D02*
X142609000Y-126189000D01*
X149419000Y-125429000D02*
X139299000Y-125429000D01*
X149419000Y-131399000D02*
X149419000Y-125429000D01*
X139299000Y-131399000D02*
X149419000Y-131399000D01*
X139299000Y-125429000D02*
X139299000Y-131399000D01*
X113899000Y-125429000D02*
X113899000Y-131399000D01*
X113899000Y-131399000D02*
X124019000Y-131399000D01*
X124019000Y-131399000D02*
X124019000Y-125429000D01*
X124019000Y-125429000D02*
X113899000Y-125429000D01*
X117209000Y-125439000D02*
X117209000Y-126189000D01*
X117209000Y-126189000D02*
X120709000Y-126189000D01*
X120709000Y-126189000D02*
X120709000Y-125439000D01*
X120709000Y-125439000D02*
X117209000Y-125439000D01*
X113909000Y-125439000D02*
X113909000Y-126189000D01*
X113909000Y-126189000D02*
X115709000Y-126189000D01*
X115709000Y-126189000D02*
X115709000Y-125439000D01*
X115709000Y-125439000D02*
X113909000Y-125439000D01*
X122209000Y-125439000D02*
X122209000Y-126189000D01*
X122209000Y-126189000D02*
X124009000Y-126189000D01*
X124009000Y-126189000D02*
X124009000Y-125439000D01*
X124009000Y-125439000D02*
X122209000Y-125439000D01*
X113909000Y-127689000D02*
X114659000Y-127689000D01*
X114659000Y-127689000D02*
X114659000Y-130639000D01*
X114659000Y-130639000D02*
X118959000Y-130639000D01*
X124009000Y-127689000D02*
X123259000Y-127689000D01*
X123259000Y-127689000D02*
X123259000Y-130639000D01*
X123259000Y-130639000D02*
X118959000Y-130639000D01*
X114859000Y-125139000D02*
X113609000Y-125139000D01*
X113609000Y-125139000D02*
X113609000Y-126389000D01*
D10*
X74519285Y-45148428D02*
X75126428Y-45148428D01*
X75197857Y-45112714D01*
X75233571Y-45077000D01*
X75269285Y-45005571D01*
X75269285Y-44862714D01*
X75233571Y-44791285D01*
X75197857Y-44755571D01*
X75126428Y-44719857D01*
X74519285Y-44719857D01*
X74519285Y-44434142D02*
X74519285Y-43969857D01*
X74805000Y-44219857D01*
X74805000Y-44112714D01*
X74840714Y-44041285D01*
X74876428Y-44005571D01*
X74947857Y-43969857D01*
X75126428Y-43969857D01*
X75197857Y-44005571D01*
X75233571Y-44041285D01*
X75269285Y-44112714D01*
X75269285Y-44327000D01*
X75233571Y-44398428D01*
X75197857Y-44434142D01*
X44928285Y-45148428D02*
X45535428Y-45148428D01*
X45606857Y-45112714D01*
X45642571Y-45077000D01*
X45678285Y-45005571D01*
X45678285Y-44862714D01*
X45642571Y-44791285D01*
X45606857Y-44755571D01*
X45535428Y-44719857D01*
X44928285Y-44719857D01*
X44999714Y-44398428D02*
X44964000Y-44362714D01*
X44928285Y-44291285D01*
X44928285Y-44112714D01*
X44964000Y-44041285D01*
X44999714Y-44005571D01*
X45071142Y-43969857D01*
X45142571Y-43969857D01*
X45249714Y-44005571D01*
X45678285Y-44434142D01*
X45678285Y-43969857D01*
X25888333Y-34821142D02*
X25840714Y-34868761D01*
X25697857Y-34916380D01*
X25602619Y-34916380D01*
X25459761Y-34868761D01*
X25364523Y-34773523D01*
X25316904Y-34678285D01*
X25269285Y-34487809D01*
X25269285Y-34344952D01*
X25316904Y-34154476D01*
X25364523Y-34059238D01*
X25459761Y-33964000D01*
X25602619Y-33916380D01*
X25697857Y-33916380D01*
X25840714Y-33964000D01*
X25888333Y-34011619D01*
X26840714Y-34916380D02*
X26269285Y-34916380D01*
X26555000Y-34916380D02*
X26555000Y-33916380D01*
X26459761Y-34059238D01*
X26364523Y-34154476D01*
X26269285Y-34202095D01*
X38635333Y-21305142D02*
X38587714Y-21352761D01*
X38444857Y-21400380D01*
X38349619Y-21400380D01*
X38206761Y-21352761D01*
X38111523Y-21257523D01*
X38063904Y-21162285D01*
X38016285Y-20971809D01*
X38016285Y-20828952D01*
X38063904Y-20638476D01*
X38111523Y-20543238D01*
X38206761Y-20448000D01*
X38349619Y-20400380D01*
X38444857Y-20400380D01*
X38587714Y-20448000D01*
X38635333Y-20495619D01*
X39016285Y-20495619D02*
X39063904Y-20448000D01*
X39159142Y-20400380D01*
X39397238Y-20400380D01*
X39492476Y-20448000D01*
X39540095Y-20495619D01*
X39587714Y-20590857D01*
X39587714Y-20686095D01*
X39540095Y-20828952D01*
X38968666Y-21400380D01*
X39587714Y-21400380D01*
X34440904Y-123095380D02*
X34440904Y-122095380D01*
X34679000Y-122095380D01*
X34821857Y-122143000D01*
X34917095Y-122238238D01*
X34964714Y-122333476D01*
X35012333Y-122523952D01*
X35012333Y-122666809D01*
X34964714Y-122857285D01*
X34917095Y-122952523D01*
X34821857Y-123047761D01*
X34679000Y-123095380D01*
X34440904Y-123095380D01*
X35964714Y-123095380D02*
X35393285Y-123095380D01*
X35679000Y-123095380D02*
X35679000Y-122095380D01*
X35583761Y-122238238D01*
X35488523Y-122333476D01*
X35393285Y-122381095D01*
X34313904Y-133382380D02*
X34313904Y-132382380D01*
X34552000Y-132382380D01*
X34694857Y-132430000D01*
X34790095Y-132525238D01*
X34837714Y-132620476D01*
X34885333Y-132810952D01*
X34885333Y-132953809D01*
X34837714Y-133144285D01*
X34790095Y-133239523D01*
X34694857Y-133334761D01*
X34552000Y-133382380D01*
X34313904Y-133382380D01*
X35266285Y-132477619D02*
X35313904Y-132430000D01*
X35409142Y-132382380D01*
X35647238Y-132382380D01*
X35742476Y-132430000D01*
X35790095Y-132477619D01*
X35837714Y-132572857D01*
X35837714Y-132668095D01*
X35790095Y-132810952D01*
X35218666Y-133382380D01*
X35837714Y-133382380D01*
X71294666Y-22947380D02*
X71294666Y-23661666D01*
X71247047Y-23804523D01*
X71151809Y-23899761D01*
X71008952Y-23947380D01*
X70913714Y-23947380D01*
X72199428Y-23280714D02*
X72199428Y-23947380D01*
X71961333Y-22899761D02*
X71723238Y-23614047D01*
X72342285Y-23614047D01*
X204540380Y-22832333D02*
X205254666Y-22832333D01*
X205397523Y-22879952D01*
X205492761Y-22975190D01*
X205540380Y-23118047D01*
X205540380Y-23213285D01*
X204540380Y-21879952D02*
X204540380Y-22356142D01*
X205016571Y-22403761D01*
X204968952Y-22356142D01*
X204921333Y-22260904D01*
X204921333Y-22022809D01*
X204968952Y-21927571D01*
X205016571Y-21879952D01*
X205111809Y-21832333D01*
X205349904Y-21832333D01*
X205445142Y-21879952D01*
X205492761Y-21927571D01*
X205540380Y-22022809D01*
X205540380Y-22260904D01*
X205492761Y-22356142D01*
X205445142Y-22403761D01*
X204540380Y-40468233D02*
X205254666Y-40468233D01*
X205397523Y-40515852D01*
X205492761Y-40611090D01*
X205540380Y-40753947D01*
X205540380Y-40849185D01*
X204540380Y-39563471D02*
X204540380Y-39753947D01*
X204588000Y-39849185D01*
X204635619Y-39896804D01*
X204778476Y-39992042D01*
X204968952Y-40039661D01*
X205349904Y-40039661D01*
X205445142Y-39992042D01*
X205492761Y-39944423D01*
X205540380Y-39849185D01*
X205540380Y-39658709D01*
X205492761Y-39563471D01*
X205445142Y-39515852D01*
X205349904Y-39468233D01*
X205111809Y-39468233D01*
X205016571Y-39515852D01*
X204968952Y-39563471D01*
X204921333Y-39658709D01*
X204921333Y-39849185D01*
X204968952Y-39944423D01*
X205016571Y-39992042D01*
X205111809Y-40039661D01*
X204540380Y-58104033D02*
X205254666Y-58104033D01*
X205397523Y-58151652D01*
X205492761Y-58246890D01*
X205540380Y-58389747D01*
X205540380Y-58484985D01*
X204540380Y-57723080D02*
X204540380Y-57056414D01*
X205540380Y-57484985D01*
X204540380Y-75739933D02*
X205254666Y-75739933D01*
X205397523Y-75787552D01*
X205492761Y-75882790D01*
X205540380Y-76025647D01*
X205540380Y-76120885D01*
X204968952Y-75120885D02*
X204921333Y-75216123D01*
X204873714Y-75263742D01*
X204778476Y-75311361D01*
X204730857Y-75311361D01*
X204635619Y-75263742D01*
X204588000Y-75216123D01*
X204540380Y-75120885D01*
X204540380Y-74930409D01*
X204588000Y-74835171D01*
X204635619Y-74787552D01*
X204730857Y-74739933D01*
X204778476Y-74739933D01*
X204873714Y-74787552D01*
X204921333Y-74835171D01*
X204968952Y-74930409D01*
X204968952Y-75120885D01*
X205016571Y-75216123D01*
X205064190Y-75263742D01*
X205159428Y-75311361D01*
X205349904Y-75311361D01*
X205445142Y-75263742D01*
X205492761Y-75216123D01*
X205540380Y-75120885D01*
X205540380Y-74930409D01*
X205492761Y-74835171D01*
X205445142Y-74787552D01*
X205349904Y-74739933D01*
X205159428Y-74739933D01*
X205064190Y-74787552D01*
X205016571Y-74835171D01*
X204968952Y-74930409D01*
X204540380Y-93375733D02*
X205254666Y-93375733D01*
X205397523Y-93423352D01*
X205492761Y-93518590D01*
X205540380Y-93661447D01*
X205540380Y-93756685D01*
X205540380Y-92851923D02*
X205540380Y-92661447D01*
X205492761Y-92566209D01*
X205445142Y-92518590D01*
X205302285Y-92423352D01*
X205111809Y-92375733D01*
X204730857Y-92375733D01*
X204635619Y-92423352D01*
X204588000Y-92470971D01*
X204540380Y-92566209D01*
X204540380Y-92756685D01*
X204588000Y-92851923D01*
X204635619Y-92899542D01*
X204730857Y-92947161D01*
X204968952Y-92947161D01*
X205064190Y-92899542D01*
X205111809Y-92851923D01*
X205159428Y-92756685D01*
X205159428Y-92566209D01*
X205111809Y-92470971D01*
X205064190Y-92423352D01*
X204968952Y-92375733D01*
X204540380Y-111487523D02*
X205254666Y-111487523D01*
X205397523Y-111535142D01*
X205492761Y-111630380D01*
X205540380Y-111773238D01*
X205540380Y-111868476D01*
X205540380Y-110487523D02*
X205540380Y-111058952D01*
X205540380Y-110773238D02*
X204540380Y-110773238D01*
X204683238Y-110868476D01*
X204778476Y-110963714D01*
X204826095Y-111058952D01*
X204540380Y-109868476D02*
X204540380Y-109773238D01*
X204588000Y-109678000D01*
X204635619Y-109630380D01*
X204730857Y-109582761D01*
X204921333Y-109535142D01*
X205159428Y-109535142D01*
X205349904Y-109582761D01*
X205445142Y-109630380D01*
X205492761Y-109678000D01*
X205540380Y-109773238D01*
X205540380Y-109868476D01*
X205492761Y-109963714D01*
X205445142Y-110011333D01*
X205349904Y-110058952D01*
X205159428Y-110106571D01*
X204921333Y-110106571D01*
X204730857Y-110058952D01*
X204635619Y-110011333D01*
X204588000Y-109963714D01*
X204540380Y-109868476D01*
X92277776Y-149841380D02*
X92277776Y-150555666D01*
X92230157Y-150698523D01*
X92134919Y-150793761D01*
X91992061Y-150841380D01*
X91896823Y-150841380D01*
X93277776Y-150841380D02*
X92706347Y-150841380D01*
X92992061Y-150841380D02*
X92992061Y-149841380D01*
X92896823Y-149984238D01*
X92801585Y-150079476D01*
X92706347Y-150127095D01*
X94230157Y-150841380D02*
X93658728Y-150841380D01*
X93944442Y-150841380D02*
X93944442Y-149841380D01*
X93849204Y-149984238D01*
X93753966Y-150079476D01*
X93658728Y-150127095D01*
X111218476Y-149841380D02*
X111218476Y-150555666D01*
X111170857Y-150698523D01*
X111075619Y-150793761D01*
X110932761Y-150841380D01*
X110837523Y-150841380D01*
X112218476Y-150841380D02*
X111647047Y-150841380D01*
X111932761Y-150841380D02*
X111932761Y-149841380D01*
X111837523Y-149984238D01*
X111742285Y-150079476D01*
X111647047Y-150127095D01*
X112599428Y-149936619D02*
X112647047Y-149889000D01*
X112742285Y-149841380D01*
X112980380Y-149841380D01*
X113075619Y-149889000D01*
X113123238Y-149936619D01*
X113170857Y-150031857D01*
X113170857Y-150127095D01*
X113123238Y-150269952D01*
X112551809Y-150841380D01*
X113170857Y-150841380D01*
X130160476Y-149841380D02*
X130160476Y-150555666D01*
X130112857Y-150698523D01*
X130017619Y-150793761D01*
X129874761Y-150841380D01*
X129779523Y-150841380D01*
X131160476Y-150841380D02*
X130589047Y-150841380D01*
X130874761Y-150841380D02*
X130874761Y-149841380D01*
X130779523Y-149984238D01*
X130684285Y-150079476D01*
X130589047Y-150127095D01*
X131493809Y-149841380D02*
X132112857Y-149841380D01*
X131779523Y-150222333D01*
X131922380Y-150222333D01*
X132017619Y-150269952D01*
X132065238Y-150317571D01*
X132112857Y-150412809D01*
X132112857Y-150650904D01*
X132065238Y-150746142D01*
X132017619Y-150793761D01*
X131922380Y-150841380D01*
X131636666Y-150841380D01*
X131541428Y-150793761D01*
X131493809Y-150746142D01*
X204540380Y-130373523D02*
X205254666Y-130373523D01*
X205397523Y-130421142D01*
X205492761Y-130516380D01*
X205540380Y-130659238D01*
X205540380Y-130754476D01*
X205540380Y-129373523D02*
X205540380Y-129944952D01*
X205540380Y-129659238D02*
X204540380Y-129659238D01*
X204683238Y-129754476D01*
X204778476Y-129849714D01*
X204826095Y-129944952D01*
X204873714Y-128516380D02*
X205540380Y-128516380D01*
X204492761Y-128754476D02*
X205207047Y-128992571D01*
X205207047Y-128373523D01*
X186983476Y-149841380D02*
X186983476Y-150555666D01*
X186935857Y-150698523D01*
X186840619Y-150793761D01*
X186697761Y-150841380D01*
X186602523Y-150841380D01*
X187983476Y-150841380D02*
X187412047Y-150841380D01*
X187697761Y-150841380D02*
X187697761Y-149841380D01*
X187602523Y-149984238D01*
X187507285Y-150079476D01*
X187412047Y-150127095D01*
X188888238Y-149841380D02*
X188412047Y-149841380D01*
X188364428Y-150317571D01*
X188412047Y-150269952D01*
X188507285Y-150222333D01*
X188745380Y-150222333D01*
X188840619Y-150269952D01*
X188888238Y-150317571D01*
X188935857Y-150412809D01*
X188935857Y-150650904D01*
X188888238Y-150746142D01*
X188840619Y-150793761D01*
X188745380Y-150841380D01*
X188507285Y-150841380D01*
X188412047Y-150793761D01*
X188364428Y-150746142D01*
X168042476Y-149841380D02*
X168042476Y-150555666D01*
X167994857Y-150698523D01*
X167899619Y-150793761D01*
X167756761Y-150841380D01*
X167661523Y-150841380D01*
X169042476Y-150841380D02*
X168471047Y-150841380D01*
X168756761Y-150841380D02*
X168756761Y-149841380D01*
X168661523Y-149984238D01*
X168566285Y-150079476D01*
X168471047Y-150127095D01*
X169899619Y-149841380D02*
X169709142Y-149841380D01*
X169613904Y-149889000D01*
X169566285Y-149936619D01*
X169471047Y-150079476D01*
X169423428Y-150269952D01*
X169423428Y-150650904D01*
X169471047Y-150746142D01*
X169518666Y-150793761D01*
X169613904Y-150841380D01*
X169804380Y-150841380D01*
X169899619Y-150793761D01*
X169947238Y-150746142D01*
X169994857Y-150650904D01*
X169994857Y-150412809D01*
X169947238Y-150317571D01*
X169899619Y-150269952D01*
X169804380Y-150222333D01*
X169613904Y-150222333D01*
X169518666Y-150269952D01*
X169471047Y-150317571D01*
X169423428Y-150412809D01*
X149101476Y-149841380D02*
X149101476Y-150555666D01*
X149053857Y-150698523D01*
X148958619Y-150793761D01*
X148815761Y-150841380D01*
X148720523Y-150841380D01*
X150101476Y-150841380D02*
X149530047Y-150841380D01*
X149815761Y-150841380D02*
X149815761Y-149841380D01*
X149720523Y-149984238D01*
X149625285Y-150079476D01*
X149530047Y-150127095D01*
X150434809Y-149841380D02*
X151101476Y-149841380D01*
X150672904Y-150841380D01*
X207597476Y-143172380D02*
X207597476Y-143886666D01*
X207549857Y-144029523D01*
X207454619Y-144124761D01*
X207311761Y-144172380D01*
X207216523Y-144172380D01*
X208026047Y-143267619D02*
X208073666Y-143220000D01*
X208168904Y-143172380D01*
X208407000Y-143172380D01*
X208502238Y-143220000D01*
X208549857Y-143267619D01*
X208597476Y-143362857D01*
X208597476Y-143458095D01*
X208549857Y-143600952D01*
X207978428Y-144172380D01*
X208597476Y-144172380D01*
X209216523Y-143172380D02*
X209311761Y-143172380D01*
X209407000Y-143220000D01*
X209454619Y-143267619D01*
X209502238Y-143362857D01*
X209549857Y-143553333D01*
X209549857Y-143791428D01*
X209502238Y-143981904D01*
X209454619Y-144077142D01*
X209407000Y-144124761D01*
X209311761Y-144172380D01*
X209216523Y-144172380D01*
X209121285Y-144124761D01*
X209073666Y-144077142D01*
X209026047Y-143981904D01*
X208978428Y-143791428D01*
X208978428Y-143553333D01*
X209026047Y-143362857D01*
X209073666Y-143267619D01*
X209121285Y-143220000D01*
X209216523Y-143172380D01*
X24598333Y-127975380D02*
X24265000Y-127499190D01*
X24026904Y-127975380D02*
X24026904Y-126975380D01*
X24407857Y-126975380D01*
X24503095Y-127023000D01*
X24550714Y-127070619D01*
X24598333Y-127165857D01*
X24598333Y-127308714D01*
X24550714Y-127403952D01*
X24503095Y-127451571D01*
X24407857Y-127499190D01*
X24026904Y-127499190D01*
X25550714Y-127975380D02*
X24979285Y-127975380D01*
X25265000Y-127975380D02*
X25265000Y-126975380D01*
X25169761Y-127118238D01*
X25074523Y-127213476D01*
X24979285Y-127261095D01*
X24598333Y-138262380D02*
X24265000Y-137786190D01*
X24026904Y-138262380D02*
X24026904Y-137262380D01*
X24407857Y-137262380D01*
X24503095Y-137310000D01*
X24550714Y-137357619D01*
X24598333Y-137452857D01*
X24598333Y-137595714D01*
X24550714Y-137690952D01*
X24503095Y-137738571D01*
X24407857Y-137786190D01*
X24026904Y-137786190D01*
X24979285Y-137357619D02*
X25026904Y-137310000D01*
X25122142Y-137262380D01*
X25360238Y-137262380D01*
X25455476Y-137310000D01*
X25503095Y-137357619D01*
X25550714Y-137452857D01*
X25550714Y-137548095D01*
X25503095Y-137690952D01*
X24931666Y-138262380D01*
X25550714Y-138262380D01*
X22860095Y-69683380D02*
X22860095Y-70492904D01*
X22907714Y-70588142D01*
X22955333Y-70635761D01*
X23050571Y-70683380D01*
X23241047Y-70683380D01*
X23336285Y-70635761D01*
X23383904Y-70588142D01*
X23431523Y-70492904D01*
X23431523Y-69683380D01*
X24336285Y-70016714D02*
X24336285Y-70683380D01*
X24098190Y-69635761D02*
X23860095Y-70350047D01*
X24479142Y-70350047D01*
X84669380Y-124078904D02*
X85478904Y-124078904D01*
X85574142Y-124031285D01*
X85621761Y-123983666D01*
X85669380Y-123888428D01*
X85669380Y-123697952D01*
X85621761Y-123602714D01*
X85574142Y-123555095D01*
X85478904Y-123507476D01*
X84669380Y-123507476D01*
X84669380Y-122555095D02*
X84669380Y-123031285D01*
X85145571Y-123078904D01*
X85097952Y-123031285D01*
X85050333Y-122936047D01*
X85050333Y-122697952D01*
X85097952Y-122602714D01*
X85145571Y-122555095D01*
X85240809Y-122507476D01*
X85478904Y-122507476D01*
X85574142Y-122555095D01*
X85621761Y-122602714D01*
X85669380Y-122697952D01*
X85669380Y-122936047D01*
X85621761Y-123031285D01*
X85574142Y-123078904D01*
X38568333Y-29901380D02*
X38235000Y-29425190D01*
X37996904Y-29901380D02*
X37996904Y-28901380D01*
X38377857Y-28901380D01*
X38473095Y-28949000D01*
X38520714Y-28996619D01*
X38568333Y-29091857D01*
X38568333Y-29234714D01*
X38520714Y-29329952D01*
X38473095Y-29377571D01*
X38377857Y-29425190D01*
X37996904Y-29425190D01*
X38901666Y-28901380D02*
X39520714Y-28901380D01*
X39187380Y-29282333D01*
X39330238Y-29282333D01*
X39425476Y-29329952D01*
X39473095Y-29377571D01*
X39520714Y-29472809D01*
X39520714Y-29710904D01*
X39473095Y-29806142D01*
X39425476Y-29853761D01*
X39330238Y-29901380D01*
X39044523Y-29901380D01*
X38949285Y-29853761D01*
X38901666Y-29806142D01*
X26479666Y-153155761D02*
X26622523Y-153203380D01*
X26860619Y-153203380D01*
X26955857Y-153155761D01*
X27003476Y-153108142D01*
X27051095Y-153012904D01*
X27051095Y-152917666D01*
X27003476Y-152822428D01*
X26955857Y-152774809D01*
X26860619Y-152727190D01*
X26670142Y-152679571D01*
X26574904Y-152631952D01*
X26527285Y-152584333D01*
X26479666Y-152489095D01*
X26479666Y-152393857D01*
X26527285Y-152298619D01*
X26574904Y-152251000D01*
X26670142Y-152203380D01*
X26908238Y-152203380D01*
X27051095Y-152251000D01*
X27384428Y-152203380D02*
X27622523Y-153203380D01*
X27813000Y-152489095D01*
X28003476Y-153203380D01*
X28241571Y-152203380D01*
X29146333Y-153203380D02*
X28574904Y-153203380D01*
X28860619Y-153203380D02*
X28860619Y-152203380D01*
X28765380Y-152346238D01*
X28670142Y-152441476D01*
X28574904Y-152489095D01*
X36258666Y-153155761D02*
X36401523Y-153203380D01*
X36639619Y-153203380D01*
X36734857Y-153155761D01*
X36782476Y-153108142D01*
X36830095Y-153012904D01*
X36830095Y-152917666D01*
X36782476Y-152822428D01*
X36734857Y-152774809D01*
X36639619Y-152727190D01*
X36449142Y-152679571D01*
X36353904Y-152631952D01*
X36306285Y-152584333D01*
X36258666Y-152489095D01*
X36258666Y-152393857D01*
X36306285Y-152298619D01*
X36353904Y-152251000D01*
X36449142Y-152203380D01*
X36687238Y-152203380D01*
X36830095Y-152251000D01*
X37163428Y-152203380D02*
X37401523Y-153203380D01*
X37592000Y-152489095D01*
X37782476Y-153203380D01*
X38020571Y-152203380D01*
X38353904Y-152298619D02*
X38401523Y-152251000D01*
X38496761Y-152203380D01*
X38734857Y-152203380D01*
X38830095Y-152251000D01*
X38877714Y-152298619D01*
X38925333Y-152393857D01*
X38925333Y-152489095D01*
X38877714Y-152631952D01*
X38306285Y-153203380D01*
X38925333Y-153203380D01*
X118364095Y-58634380D02*
X118364095Y-59443904D01*
X118411714Y-59539142D01*
X118459333Y-59586761D01*
X118554571Y-59634380D01*
X118745047Y-59634380D01*
X118840285Y-59586761D01*
X118887904Y-59539142D01*
X118935523Y-59443904D01*
X118935523Y-58634380D01*
X119935523Y-59634380D02*
X119364095Y-59634380D01*
X119649809Y-59634380D02*
X119649809Y-58634380D01*
X119554571Y-58777238D01*
X119459333Y-58872476D01*
X119364095Y-58920095D01*
X27644761Y-115885380D02*
X27311428Y-115409190D01*
X27073333Y-115885380D02*
X27073333Y-114885380D01*
X27454285Y-114885380D01*
X27549523Y-114933000D01*
X27597142Y-114980619D01*
X27644761Y-115075857D01*
X27644761Y-115218714D01*
X27597142Y-115313952D01*
X27549523Y-115361571D01*
X27454285Y-115409190D01*
X27073333Y-115409190D01*
X27930476Y-114885380D02*
X28263809Y-115885380D01*
X28597142Y-114885380D01*
X29454285Y-115885380D02*
X28882857Y-115885380D01*
X29168571Y-115885380D02*
X29168571Y-114885380D01*
X29073333Y-115028238D01*
X28978095Y-115123476D01*
X28882857Y-115171095D01*
X73336576Y-149841380D02*
X73336576Y-150555666D01*
X73288957Y-150698523D01*
X73193719Y-150793761D01*
X73050861Y-150841380D01*
X72955623Y-150841380D01*
X73765147Y-149936619D02*
X73812766Y-149889000D01*
X73908004Y-149841380D01*
X74146100Y-149841380D01*
X74241338Y-149889000D01*
X74288957Y-149936619D01*
X74336576Y-150031857D01*
X74336576Y-150127095D01*
X74288957Y-150269952D01*
X73717528Y-150841380D01*
X74336576Y-150841380D01*
X75288957Y-150841380D02*
X74717528Y-150841380D01*
X75003242Y-150841380D02*
X75003242Y-149841380D01*
X74908004Y-149984238D01*
X74812766Y-150079476D01*
X74717528Y-150127095D01*
X192359380Y-32718333D02*
X193073666Y-32718333D01*
X193216523Y-32765952D01*
X193311761Y-32861190D01*
X193359380Y-33004047D01*
X193359380Y-33099285D01*
X193359380Y-31718333D02*
X193359380Y-32289761D01*
X193359380Y-32004047D02*
X192359380Y-32004047D01*
X192502238Y-32099285D01*
X192597476Y-32194523D01*
X192645095Y-32289761D01*
X192740380Y-61340333D02*
X193454666Y-61340333D01*
X193597523Y-61387952D01*
X193692761Y-61483190D01*
X193740380Y-61626047D01*
X193740380Y-61721285D01*
X192835619Y-60911761D02*
X192788000Y-60864142D01*
X192740380Y-60768904D01*
X192740380Y-60530809D01*
X192788000Y-60435571D01*
X192835619Y-60387952D01*
X192930857Y-60340333D01*
X193026095Y-60340333D01*
X193168952Y-60387952D01*
X193740380Y-60959380D01*
X193740380Y-60340333D01*
X193629380Y-86613333D02*
X194343666Y-86613333D01*
X194486523Y-86660952D01*
X194581761Y-86756190D01*
X194629380Y-86899047D01*
X194629380Y-86994285D01*
X193629380Y-86232380D02*
X193629380Y-85613333D01*
X194010333Y-85946666D01*
X194010333Y-85803809D01*
X194057952Y-85708571D01*
X194105571Y-85660952D01*
X194200809Y-85613333D01*
X194438904Y-85613333D01*
X194534142Y-85660952D01*
X194581761Y-85708571D01*
X194629380Y-85803809D01*
X194629380Y-86089523D01*
X194581761Y-86184761D01*
X194534142Y-86232380D01*
X53419476Y-22947380D02*
X53419476Y-23661666D01*
X53371857Y-23804523D01*
X53276619Y-23899761D01*
X53133761Y-23947380D01*
X53038523Y-23947380D01*
X53848047Y-23042619D02*
X53895666Y-22995000D01*
X53990904Y-22947380D01*
X54229000Y-22947380D01*
X54324238Y-22995000D01*
X54371857Y-23042619D01*
X54419476Y-23137857D01*
X54419476Y-23233095D01*
X54371857Y-23375952D01*
X53800428Y-23947380D01*
X54419476Y-23947380D01*
X54800428Y-23042619D02*
X54848047Y-22995000D01*
X54943285Y-22947380D01*
X55181380Y-22947380D01*
X55276619Y-22995000D01*
X55324238Y-23042619D01*
X55371857Y-23137857D01*
X55371857Y-23233095D01*
X55324238Y-23375952D01*
X54752809Y-23947380D01*
X55371857Y-23947380D01*
X68661380Y-68119523D02*
X69375666Y-68119523D01*
X69518523Y-68167142D01*
X69613761Y-68262380D01*
X69661380Y-68405238D01*
X69661380Y-68500476D01*
X69661380Y-67119523D02*
X69661380Y-67690952D01*
X69661380Y-67405238D02*
X68661380Y-67405238D01*
X68804238Y-67500476D01*
X68899476Y-67595714D01*
X68947095Y-67690952D01*
X69089952Y-66548095D02*
X69042333Y-66643333D01*
X68994714Y-66690952D01*
X68899476Y-66738571D01*
X68851857Y-66738571D01*
X68756619Y-66690952D01*
X68709000Y-66643333D01*
X68661380Y-66548095D01*
X68661380Y-66357619D01*
X68709000Y-66262380D01*
X68756619Y-66214761D01*
X68851857Y-66167142D01*
X68899476Y-66167142D01*
X68994714Y-66214761D01*
X69042333Y-66262380D01*
X69089952Y-66357619D01*
X69089952Y-66548095D01*
X69137571Y-66643333D01*
X69185190Y-66690952D01*
X69280428Y-66738571D01*
X69470904Y-66738571D01*
X69566142Y-66690952D01*
X69613761Y-66643333D01*
X69661380Y-66548095D01*
X69661380Y-66357619D01*
X69613761Y-66262380D01*
X69566142Y-66214761D01*
X69470904Y-66167142D01*
X69280428Y-66167142D01*
X69185190Y-66214761D01*
X69137571Y-66262380D01*
X69089952Y-66357619D01*
X68661380Y-95464523D02*
X69375666Y-95464523D01*
X69518523Y-95512142D01*
X69613761Y-95607380D01*
X69661380Y-95750238D01*
X69661380Y-95845476D01*
X69661380Y-94464523D02*
X69661380Y-95035952D01*
X69661380Y-94750238D02*
X68661380Y-94750238D01*
X68804238Y-94845476D01*
X68899476Y-94940714D01*
X68947095Y-95035952D01*
X69661380Y-93988333D02*
X69661380Y-93797857D01*
X69613761Y-93702619D01*
X69566142Y-93655000D01*
X69423285Y-93559761D01*
X69232809Y-93512142D01*
X68851857Y-93512142D01*
X68756619Y-93559761D01*
X68709000Y-93607380D01*
X68661380Y-93702619D01*
X68661380Y-93893095D01*
X68709000Y-93988333D01*
X68756619Y-94035952D01*
X68851857Y-94083571D01*
X69089952Y-94083571D01*
X69185190Y-94035952D01*
X69232809Y-93988333D01*
X69280428Y-93893095D01*
X69280428Y-93702619D01*
X69232809Y-93607380D01*
X69185190Y-93559761D01*
X69089952Y-93512142D01*
X54395476Y-149841380D02*
X54395476Y-150555666D01*
X54347857Y-150698523D01*
X54252619Y-150793761D01*
X54109761Y-150841380D01*
X54014523Y-150841380D01*
X54824047Y-149936619D02*
X54871666Y-149889000D01*
X54966904Y-149841380D01*
X55205000Y-149841380D01*
X55300238Y-149889000D01*
X55347857Y-149936619D01*
X55395476Y-150031857D01*
X55395476Y-150127095D01*
X55347857Y-150269952D01*
X54776428Y-150841380D01*
X55395476Y-150841380D01*
X55728809Y-149841380D02*
X56347857Y-149841380D01*
X56014523Y-150222333D01*
X56157380Y-150222333D01*
X56252619Y-150269952D01*
X56300238Y-150317571D01*
X56347857Y-150412809D01*
X56347857Y-150650904D01*
X56300238Y-150746142D01*
X56252619Y-150793761D01*
X56157380Y-150841380D01*
X55871666Y-150841380D01*
X55776428Y-150793761D01*
X55728809Y-150746142D01*
X143549476Y-123791380D02*
X143549476Y-124505666D01*
X143501857Y-124648523D01*
X143406619Y-124743761D01*
X143263761Y-124791380D01*
X143168523Y-124791380D01*
X143978047Y-123886619D02*
X144025666Y-123839000D01*
X144120904Y-123791380D01*
X144359000Y-123791380D01*
X144454238Y-123839000D01*
X144501857Y-123886619D01*
X144549476Y-123981857D01*
X144549476Y-124077095D01*
X144501857Y-124219952D01*
X143930428Y-124791380D01*
X144549476Y-124791380D01*
X145406619Y-124124714D02*
X145406619Y-124791380D01*
X145168523Y-123743761D02*
X144930428Y-124458047D01*
X145549476Y-124458047D01*
X118149476Y-123791380D02*
X118149476Y-124505666D01*
X118101857Y-124648523D01*
X118006619Y-124743761D01*
X117863761Y-124791380D01*
X117768523Y-124791380D01*
X118578047Y-123886619D02*
X118625666Y-123839000D01*
X118720904Y-123791380D01*
X118959000Y-123791380D01*
X119054238Y-123839000D01*
X119101857Y-123886619D01*
X119149476Y-123981857D01*
X119149476Y-124077095D01*
X119101857Y-124219952D01*
X118530428Y-124791380D01*
X119149476Y-124791380D01*
X120054238Y-123791380D02*
X119578047Y-123791380D01*
X119530428Y-124267571D01*
X119578047Y-124219952D01*
X119673285Y-124172333D01*
X119911380Y-124172333D01*
X120006619Y-124219952D01*
X120054238Y-124267571D01*
X120101857Y-124362809D01*
X120101857Y-124600904D01*
X120054238Y-124696142D01*
X120006619Y-124743761D01*
X119911380Y-124791380D01*
X119673285Y-124791380D01*
X119578047Y-124743761D01*
X119530428Y-124696142D01*
M02*
