M48
; DRILL file {KiCad (5.1.0)-1} date 2022/07/04 21:30:35
; FORMAT={-:-/ absolute / metric / decimal}
; #@! TF.CreationDate,2022-07-04T21:30:35+09:00
; #@! TF.GenerationSoftware,Kicad,Pcbnew,(5.1.0)-1
; #@! TF.FileFunction,Plated,1,2,PTH
FMAT,2
METRIC
T1C0.700
T2C0.762
T3C0.800
T4C0.900
T5C0.950
T6C1.000
T7C1.020
T8C1.200
T9C1.500
T10C2.100
%
G90
G05
T1
X34.925Y-31.369
X42.545Y-31.369
X20.955Y-125.603
X28.575Y-125.603
X20.955Y-135.89
X28.575Y-135.89
T2
X27.813Y-147.171
X27.813Y-149.711
X27.813Y-152.251
X27.813Y-154.791
X27.813Y-157.331
X76.327Y-130.937
X78.867Y-130.937
X81.407Y-130.937
X83.947Y-130.937
X86.487Y-130.937
X89.027Y-130.937
X91.567Y-130.937
X94.107Y-130.937
X27.432Y-60.071
X27.432Y-62.611
X27.432Y-65.151
X27.432Y-67.691
X27.432Y-70.231
X27.432Y-72.771
X27.432Y-75.311
X27.432Y-77.851
X27.432Y-80.391
X27.432Y-82.931
X27.432Y-85.471
X40.132Y-60.071
X40.132Y-62.611
X40.132Y-65.151
X40.132Y-67.691
X40.132Y-70.231
X40.132Y-72.771
X40.132Y-75.311
X40.132Y-77.851
X40.132Y-80.391
X40.132Y-82.931
X40.132Y-85.471
X37.592Y-147.171
X37.592Y-149.711
X37.592Y-152.251
X37.592Y-154.791
X37.592Y-157.331
T3
X31.26Y-124.075
X38.062Y-82.931
X38.89Y-124.008
X69.051Y-131.503
X70.682Y-151.149
X83.947Y-50.038
X87.376Y-43.768
X91.958Y-67.452
X94.631Y-88.732
X107.429Y-128.052
X109.169Y-130.909
X142.348Y-78.49
X142.805Y-75.896
X184.224Y-41.417
X204.378Y-127.109
X35.052Y-23.368
X42.552Y-23.368
X24.805Y-29.464
X27.305Y-29.464
T4
X33.782Y-135.89
X36.322Y-135.89
X33.909Y-125.603
X36.449Y-125.603
T5
X208.588Y-127.064
X208.588Y-129.564
X208.588Y-132.064
X147.411Y-153.889
X149.911Y-153.889
X152.411Y-153.889
X65.659Y-92.155
X65.659Y-94.655
X65.659Y-97.155
X189.738Y-56.007
X189.738Y-58.507
X189.738Y-61.007
X189.738Y-63.507
X189.738Y-66.007
X189.357Y-27.385
X189.357Y-29.885
X189.357Y-32.385
X189.357Y-34.885
X189.357Y-37.385
X128.47Y-153.889
X130.97Y-153.889
X133.47Y-153.889
X116.459Y-127.889
X118.959Y-127.889
X121.459Y-127.889
X109.528Y-153.889
X112.028Y-153.889
X114.528Y-153.889
X190.627Y-81.28
X190.627Y-83.78
X190.627Y-86.28
X190.627Y-88.78
X190.627Y-91.28
X71.646Y-153.889
X74.146Y-153.889
X76.646Y-153.889
X141.859Y-127.889
X144.359Y-127.889
X146.859Y-127.889
X90.587Y-153.889
X93.087Y-153.889
X95.587Y-153.889
X185.293Y-153.889
X187.793Y-153.889
X190.293Y-153.889
X52.705Y-153.889
X55.205Y-153.889
X57.705Y-153.889
X166.352Y-153.889
X168.852Y-153.889
X171.352Y-153.889
X65.659Y-64.81
X65.659Y-67.31
X65.659Y-69.81
T6
X208.588Y-38.885
X208.588Y-41.385
X34.29Y-105.283
X34.29Y-107.783
X34.29Y-110.283
X208.588Y-74.157
X208.588Y-76.657
X207.137Y-146.05
X207.137Y-148.59
X207.137Y-151.13
X207.137Y-153.67
X207.137Y-156.21
X209.677Y-146.05
X209.677Y-148.59
X209.677Y-151.13
X209.677Y-153.67
X209.677Y-156.21
X208.588Y-21.249
X208.588Y-23.749
X208.588Y-109.428
X208.588Y-111.928
X208.588Y-56.521
X208.588Y-59.021
X208.588Y-91.792
X208.588Y-94.292
T7
X87.376Y-47.132
X87.376Y-49.672
X87.376Y-52.212
X87.376Y-54.752
X87.376Y-57.292
X87.376Y-59.832
X87.376Y-62.372
X87.376Y-64.912
X87.376Y-67.452
X87.376Y-69.992
X87.376Y-72.532
X87.376Y-75.072
X87.376Y-77.612
X87.376Y-80.152
X87.376Y-82.692
X87.376Y-85.232
X87.376Y-87.772
X87.376Y-90.312
X87.376Y-92.852
X89.916Y-47.132
X89.916Y-49.672
X89.916Y-52.212
X89.916Y-54.752
X89.916Y-57.292
X89.916Y-59.832
X89.916Y-62.372
X89.916Y-64.912
X89.916Y-67.452
X89.916Y-69.992
X89.916Y-72.532
X89.916Y-75.072
X89.916Y-77.612
X89.916Y-80.152
X89.916Y-82.692
X89.916Y-85.232
X89.916Y-87.772
X89.916Y-90.312
X89.916Y-92.852
X148.336Y-47.132
X148.336Y-49.672
X148.336Y-52.212
X148.336Y-54.752
X148.336Y-57.292
X148.336Y-59.832
X148.336Y-62.372
X148.336Y-64.912
X148.336Y-67.452
X148.336Y-69.992
X148.336Y-72.532
X148.336Y-75.072
X148.336Y-77.612
X148.336Y-80.152
X148.336Y-82.692
X148.336Y-85.232
X148.336Y-87.772
X148.336Y-90.312
X148.336Y-92.852
X150.876Y-47.132
X150.876Y-49.672
X150.876Y-52.212
X150.876Y-54.752
X150.876Y-57.292
X150.876Y-59.832
X150.876Y-62.372
X150.876Y-64.912
X150.876Y-67.452
X150.876Y-69.992
X150.876Y-72.532
X150.876Y-75.072
X150.876Y-77.612
X150.876Y-80.152
X150.876Y-82.692
X150.876Y-85.232
X150.876Y-87.772
X150.876Y-90.312
X150.876Y-92.852
T8
X73.66Y-42.037
X73.66Y-44.577
X73.66Y-47.117
X44.069Y-42.037
X44.069Y-44.577
X44.069Y-47.117
T9
X67.947Y-60.541
X93.459Y-57.262
X98.489Y-62.293
X120.271Y-149.161
X150.971Y-131.503
X152.411Y-160.002
X169.025Y-64.276
X170.14Y-58.526
X170.194Y-49.014
X171.352Y-159.908
T10
G00X71.108Y-25.94
M15
G01X67.508Y-25.94
M16
G05
G00X75.208Y-26.565
M15
G01X75.208Y-22.965
M16
G05
G00X54.059Y-23.39
M15
G01X49.859Y-23.39
M16
G05
G00X58.959Y-26.865
M15
G01X58.959Y-22.665
M16
G05
T0
M30
