G04 #@! TF.GenerationSoftware,KiCad,Pcbnew,(5.1.0)-1*
G04 #@! TF.CreationDate,2022-09-11T19:47:26+09:00*
G04 #@! TF.ProjectId,2022NHK_XBee_ver2,32303232-4e48-44b5-9f58-4265655f7665,rev?*
G04 #@! TF.SameCoordinates,Original*
G04 #@! TF.FileFunction,Copper,L1,Top*
G04 #@! TF.FilePolarity,Positive*
%FSLAX46Y46*%
G04 Gerber Fmt 4.6, Leading zero omitted, Abs format (unit mm)*
G04 Created by KiCad (PCBNEW (5.1.0)-1) date 2022-09-11 19:47:26*
%MOMM*%
%LPD*%
G04 APERTURE LIST*
%ADD10R,1.700000X1.700000*%
%ADD11O,1.700000X1.700000*%
%ADD12R,1.600000X1.600000*%
%ADD13C,1.600000*%
%ADD14C,5.600000*%
%ADD15C,2.400000*%
%ADD16C,1.524000*%
%ADD17O,6.500000X2.900000*%
%ADD18O,2.900000X6.500000*%
%ADD19O,7.100000X2.900000*%
%ADD20O,2.900000X7.100000*%
%ADD21O,1.600000X1.600000*%
%ADD22R,1.905000X2.000000*%
%ADD23O,1.905000X2.000000*%
%ADD24C,1.500000*%
%ADD25C,2.500000*%
%ADD26C,2.000000*%
%ADD27C,0.750000*%
%ADD28C,1.523800*%
%ADD29C,1.699800*%
%ADD30C,1.599800*%
%ADD31C,0.254000*%
G04 APERTURE END LIST*
D10*
X94742000Y-24003000D03*
D11*
X92202000Y-24003000D03*
X94742000Y-26543000D03*
X92202000Y-26543000D03*
X94742000Y-29083000D03*
X92202000Y-29083000D03*
X94742000Y-31623000D03*
X92202000Y-31623000D03*
X94742000Y-34163000D03*
X92202000Y-34163000D03*
X94742000Y-36703000D03*
X92202000Y-36703000D03*
X94742000Y-39243000D03*
X92202000Y-39243000D03*
X94742000Y-41783000D03*
X92202000Y-41783000D03*
X94742000Y-44323000D03*
X92202000Y-44323000D03*
X94742000Y-46863000D03*
X92202000Y-46863000D03*
D12*
X84709000Y-38735000D03*
D13*
X82209000Y-38735000D03*
X71628000Y-39370000D03*
X76628000Y-39370000D03*
D14*
X56769000Y-88646000D03*
X9525000Y-88646000D03*
X91440000Y-14732000D03*
X9525000Y-14732000D03*
D15*
X77987000Y-31137000D03*
D16*
X48768000Y-73279000D03*
X48768000Y-70739000D03*
X48768000Y-68199000D03*
X48768000Y-65659000D03*
X48768000Y-63119000D03*
X48768000Y-60579000D03*
X48768000Y-58039000D03*
X48768000Y-55499000D03*
X48768000Y-52959000D03*
X48768000Y-50419000D03*
X48768000Y-47879000D03*
X48768000Y-42799000D03*
X48768000Y-40259000D03*
X48768000Y-37719000D03*
X64008000Y-73279000D03*
X64008000Y-70739000D03*
X64008000Y-68199000D03*
X64008000Y-65659000D03*
X64008000Y-63119000D03*
X64008000Y-60579000D03*
X64008000Y-58039000D03*
X64008000Y-37719000D03*
X64008000Y-40259000D03*
X64008000Y-42799000D03*
X64008000Y-55499000D03*
X64008000Y-52959000D03*
X64008000Y-50419000D03*
X64008000Y-47879000D03*
X64008000Y-45339000D03*
X48768000Y-45339000D03*
D10*
X7366000Y-23241000D03*
D11*
X4826000Y-23241000D03*
X7366000Y-25781000D03*
X4826000Y-25781000D03*
X7366000Y-28321000D03*
X4826000Y-28321000D03*
X7366000Y-30861000D03*
X4826000Y-30861000D03*
X7366000Y-33401000D03*
X4826000Y-33401000D03*
X7366000Y-35941000D03*
X4826000Y-35941000D03*
X7366000Y-38481000D03*
X4826000Y-38481000D03*
X7366000Y-41021000D03*
X4826000Y-41021000D03*
X7366000Y-43561000D03*
X4826000Y-43561000D03*
X7366000Y-46101000D03*
X4826000Y-46101000D03*
X92202000Y-81026000D03*
X94742000Y-81026000D03*
X92202000Y-78486000D03*
X94742000Y-78486000D03*
X92202000Y-75946000D03*
X94742000Y-75946000D03*
X92202000Y-73406000D03*
X94742000Y-73406000D03*
X92202000Y-70866000D03*
X94742000Y-70866000D03*
X92202000Y-68326000D03*
X94742000Y-68326000D03*
X92202000Y-65786000D03*
X94742000Y-65786000D03*
X92202000Y-63246000D03*
X94742000Y-63246000D03*
X92202000Y-60706000D03*
X94742000Y-60706000D03*
X92202000Y-58166000D03*
D10*
X94742000Y-58166000D03*
D11*
X4826000Y-79629000D03*
X7366000Y-79629000D03*
X4826000Y-77089000D03*
X7366000Y-77089000D03*
X4826000Y-74549000D03*
X7366000Y-74549000D03*
X4826000Y-72009000D03*
X7366000Y-72009000D03*
X4826000Y-69469000D03*
X7366000Y-69469000D03*
X4826000Y-66929000D03*
X7366000Y-66929000D03*
X4826000Y-64389000D03*
X7366000Y-64389000D03*
X4826000Y-61849000D03*
X7366000Y-61849000D03*
X4826000Y-59309000D03*
X7366000Y-59309000D03*
X4826000Y-56769000D03*
D10*
X7366000Y-56769000D03*
D17*
X75460000Y-12351000D03*
D18*
X81360000Y-11176000D03*
X20113000Y-11176000D03*
D17*
X26013000Y-10001000D03*
D19*
X65770000Y-9801000D03*
D20*
X58770000Y-11176000D03*
X43084000Y-11176000D03*
D19*
X36084000Y-12551000D03*
D13*
X73857000Y-70876000D03*
D21*
X73857000Y-55636000D03*
X81280000Y-55636000D03*
D13*
X81280000Y-70876000D03*
X25267000Y-63109000D03*
D21*
X25267000Y-78349000D03*
X17653000Y-78349000D03*
D13*
X17653000Y-63109000D03*
D16*
X34290000Y-49784000D03*
X34290000Y-47244000D03*
X34290000Y-44704000D03*
X34290000Y-42164000D03*
X34290000Y-39624000D03*
X34290000Y-37084000D03*
X34290000Y-34544000D03*
X34290000Y-32004000D03*
X34290000Y-29464000D03*
X34290000Y-26924000D03*
X34290000Y-24384000D03*
X21590000Y-24384000D03*
X21590000Y-26924000D03*
X21590000Y-29464000D03*
X21590000Y-32004000D03*
X21590000Y-34544000D03*
X21590000Y-37084000D03*
X21590000Y-39624000D03*
X21590000Y-42164000D03*
X21590000Y-44704000D03*
X21590000Y-47244000D03*
X21590000Y-49784000D03*
D22*
X80772000Y-23749000D03*
D23*
X78232000Y-23749000D03*
X75692000Y-23749000D03*
D12*
X32131000Y-66929000D03*
D21*
X39751000Y-74549000D03*
X32131000Y-69469000D03*
X39751000Y-72009000D03*
X32131000Y-72009000D03*
X39751000Y-69469000D03*
X32131000Y-74549000D03*
X39751000Y-66929000D03*
D12*
X73787000Y-78994000D03*
D21*
X81407000Y-86614000D03*
X73787000Y-81534000D03*
X81407000Y-84074000D03*
X73787000Y-84074000D03*
X81407000Y-81534000D03*
X73787000Y-86614000D03*
X81407000Y-78994000D03*
D24*
X40136600Y-45179700D03*
X48768000Y-32330900D03*
D25*
X65770000Y-9801000D02*
X72910000Y-9801000D01*
X72910000Y-9801000D02*
X75460000Y-12351000D01*
X34290000Y-49784000D02*
X34506300Y-50000300D01*
X34506300Y-50000300D02*
X42725100Y-50000300D01*
X42725100Y-50000300D02*
X47386400Y-45339000D01*
X47386400Y-45339000D02*
X48768000Y-45339000D01*
X64008000Y-40259000D02*
X66200200Y-40259000D01*
X66200200Y-40259000D02*
X67861600Y-41920400D01*
X67861600Y-41920400D02*
X74077600Y-41920400D01*
X74077600Y-41920400D02*
X76628000Y-39370000D01*
X48768000Y-45339000D02*
X51493400Y-45339000D01*
X51493400Y-45339000D02*
X56573400Y-40259000D01*
X56573400Y-40259000D02*
X64008000Y-40259000D01*
X17653000Y-78349000D02*
X17653000Y-75798700D01*
X17653000Y-75798700D02*
X15093200Y-73238900D01*
X15093200Y-73238900D02*
X15093200Y-61977400D01*
X15093200Y-61977400D02*
X27286600Y-49784000D01*
X27286600Y-49784000D02*
X34290000Y-49784000D01*
X17653000Y-78349000D02*
X25267000Y-78349000D01*
X81280000Y-55636000D02*
X73857000Y-55636000D01*
D26*
X75460000Y-15801000D02*
X78232000Y-18573000D01*
X75460000Y-12351000D02*
X75460000Y-15801000D01*
X78232000Y-18573000D02*
X78232000Y-23749390D01*
D27*
X32131000Y-72009000D02*
X32131000Y-71896500D01*
X32131000Y-71896500D02*
X38819800Y-65207700D01*
X38819800Y-65207700D02*
X48316700Y-65207700D01*
X48316700Y-65207700D02*
X48768000Y-65659000D01*
X32131000Y-66929000D02*
X33806300Y-66929000D01*
X33806300Y-66929000D02*
X37616300Y-63119000D01*
X37616300Y-63119000D02*
X48768000Y-63119000D01*
X73787000Y-84074000D02*
X72111700Y-84074000D01*
X72111700Y-84074000D02*
X72111700Y-83922700D01*
X72111700Y-83922700D02*
X48768000Y-60579000D01*
X48768000Y-40259000D02*
X43847300Y-45179700D01*
X43847300Y-45179700D02*
X40136600Y-45179700D01*
X34290000Y-42164000D02*
X44123100Y-32330900D01*
X44123100Y-32330900D02*
X48768000Y-32330900D01*
D25*
X64008000Y-70739000D02*
X65028700Y-70739000D01*
X65028700Y-70739000D02*
X69803900Y-65963800D01*
X69803900Y-65963800D02*
X69803900Y-55163300D01*
X69803900Y-55163300D02*
X79643500Y-45323700D01*
X79643500Y-45323700D02*
X79643500Y-38122700D01*
X79643500Y-38122700D02*
X76702900Y-35182100D01*
X76702900Y-35182100D02*
X46598300Y-35182100D01*
X46598300Y-35182100D02*
X37636300Y-44144100D01*
X37636300Y-44144100D02*
X37636300Y-45936100D01*
X37636300Y-45936100D02*
X36572400Y-47000000D01*
D28*
X36572400Y-47000000D02*
X34534000Y-47000000D01*
X34534000Y-47000000D02*
X34290000Y-47244000D01*
D25*
X94742000Y-58105600D02*
X97742300Y-55105300D01*
X97742300Y-55105300D02*
X97742300Y-25855100D01*
X97742300Y-25855100D02*
X95829800Y-23942600D01*
X95829800Y-23942600D02*
X94802400Y-23942600D01*
X16912700Y-16084100D02*
X35711600Y-16084100D01*
X35711600Y-16084100D02*
X46126900Y-26499400D01*
X46126900Y-26499400D02*
X84248100Y-26499400D01*
X84248100Y-26499400D02*
X86804900Y-23942600D01*
X86804900Y-23942600D02*
X92141600Y-23942600D01*
X7934800Y-22672200D02*
X10324600Y-22672200D01*
X10324600Y-22672200D02*
X16912700Y-16084100D01*
X16912700Y-11176000D02*
X16912700Y-16084100D01*
D29*
X92141600Y-23942600D02*
X92202000Y-24003000D01*
X7366000Y-23241000D02*
X7305600Y-23180600D01*
D25*
X4826000Y-23180600D02*
X7305600Y-23180600D01*
D29*
X4826000Y-23180600D02*
X4826000Y-23241000D01*
X94802400Y-23942600D02*
X94742000Y-24003000D01*
D25*
X92262400Y-58105600D02*
X94742000Y-58105600D01*
D29*
X92202000Y-58166000D02*
X92262400Y-58105600D01*
X94742000Y-58105600D02*
X94742000Y-58166000D01*
X4826000Y-56769000D02*
X4886400Y-56708600D01*
D25*
X7366000Y-56708600D02*
X4886400Y-56708600D01*
D29*
X7366000Y-56708600D02*
X7366000Y-56769000D01*
D25*
X20113000Y-11176000D02*
X16912700Y-11176000D01*
D29*
X7934800Y-22672200D02*
X7366000Y-23241000D01*
D27*
X92202000Y-26543000D02*
X94742000Y-26543000D01*
X4826000Y-25781000D02*
X7366000Y-25781000D01*
X94742000Y-60706000D02*
X92202000Y-60706000D01*
X7366000Y-59309000D02*
X4826000Y-59309000D01*
D25*
X36084000Y-12551000D02*
X28563000Y-12551000D01*
X28563000Y-12551000D02*
X26013000Y-10001000D01*
D30*
X39217500Y-75082500D02*
X39751000Y-74549000D01*
D25*
X37658900Y-69469000D02*
X37176900Y-69951000D01*
X37176900Y-69951000D02*
X37176900Y-73041900D01*
X37176900Y-73041900D02*
X39217500Y-75082500D01*
D30*
X37658900Y-69469000D02*
X39751000Y-69469000D01*
D25*
X78879500Y-85181100D02*
X80322700Y-86624400D01*
X80322700Y-86624400D02*
X81396600Y-86624400D01*
X79314900Y-81534000D02*
X78832900Y-82016000D01*
X78832900Y-82016000D02*
X78832900Y-85134600D01*
X78832900Y-85134600D02*
X78879500Y-85181100D01*
X78879500Y-85181100D02*
X74879900Y-89180700D01*
X74879900Y-89180700D02*
X67595400Y-89180700D01*
X67595400Y-89180700D02*
X58697300Y-80282600D01*
X58697300Y-80282600D02*
X45484600Y-80282600D01*
X45484600Y-80282600D02*
X40284500Y-75082500D01*
D30*
X40284500Y-75082500D02*
X39751000Y-74549000D01*
X81396600Y-86624400D02*
X81407000Y-86614000D01*
X79314900Y-81534000D02*
X81407000Y-81534000D01*
D27*
X32131000Y-74549000D02*
X29093000Y-74549000D01*
X29093000Y-74549000D02*
X17653000Y-63109000D01*
D26*
X92202000Y-29083000D02*
X92202000Y-30285081D01*
X92202000Y-30285081D02*
X92202000Y-36553390D01*
X94742000Y-36553390D02*
X94742000Y-29083000D01*
X93472000Y-29083000D02*
X93472000Y-32893000D01*
X93472000Y-29083000D02*
X92202000Y-29083000D01*
X93703390Y-33124390D02*
X93703390Y-36553390D01*
X92202000Y-36553390D02*
X93703390Y-36553390D01*
X93472000Y-32893000D02*
X93703390Y-33124390D01*
X94742000Y-29083000D02*
X93472000Y-29083000D01*
X93703390Y-36553390D02*
X94742000Y-36553390D01*
X94742000Y-39243000D02*
X94742000Y-46863000D01*
X92075000Y-46863000D02*
X92202000Y-46736000D01*
X92202000Y-46736000D02*
X92202000Y-39243000D01*
X92202000Y-39243000D02*
X93472000Y-39243000D01*
X93472000Y-39243000D02*
X94742000Y-39243000D01*
X93345000Y-39370000D02*
X93472000Y-39243000D01*
X93345000Y-46863000D02*
X93345000Y-39370000D01*
X93345000Y-46863000D02*
X92075000Y-46863000D01*
X94742000Y-46863000D02*
X93345000Y-46863000D01*
X7366000Y-28321000D02*
X7366000Y-35791390D01*
X4826000Y-35791390D02*
X4826000Y-28321000D01*
X6096000Y-35687000D02*
X6200390Y-35791390D01*
X6096000Y-28321000D02*
X6096000Y-35687000D01*
X6200390Y-35791390D02*
X4826000Y-35791390D01*
X7366000Y-35791390D02*
X6200390Y-35791390D01*
X6096000Y-28321000D02*
X7366000Y-28321000D01*
X4826000Y-28321000D02*
X6096000Y-28321000D01*
X7366000Y-38481000D02*
X7366000Y-46101000D01*
X4826000Y-46101000D02*
X4826000Y-38481000D01*
X6096000Y-38481000D02*
X6096000Y-46101000D01*
X6096000Y-46101000D02*
X4826000Y-46101000D01*
X7366000Y-46101000D02*
X6096000Y-46101000D01*
X6096000Y-38481000D02*
X7366000Y-38481000D01*
X4826000Y-38481000D02*
X6096000Y-38481000D01*
X94742000Y-81026000D02*
X94742000Y-73406000D01*
X92202000Y-73406000D02*
X92202000Y-81026000D01*
X93345000Y-80772000D02*
X93599000Y-81026000D01*
X93345000Y-73406000D02*
X93345000Y-80772000D01*
X93599000Y-81026000D02*
X94742000Y-81026000D01*
X92202000Y-81026000D02*
X93599000Y-81026000D01*
X93345000Y-73406000D02*
X92202000Y-73406000D01*
X94742000Y-73406000D02*
X93345000Y-73406000D01*
X94742000Y-70866000D02*
X94742000Y-63246000D01*
X92202000Y-63246000D02*
X92202000Y-70866000D01*
X93472000Y-70866000D02*
X93472000Y-63246000D01*
X93472000Y-63246000D02*
X92202000Y-63246000D01*
X94742000Y-63246000D02*
X93472000Y-63246000D01*
X93472000Y-70866000D02*
X94742000Y-70866000D01*
X92202000Y-70866000D02*
X93472000Y-70866000D01*
X4826000Y-72009000D02*
X4826000Y-79629000D01*
X4826000Y-79629000D02*
X7366000Y-79629000D01*
X7366000Y-79629000D02*
X7366000Y-72009000D01*
X6096000Y-78359000D02*
X6604000Y-78867000D01*
X6096000Y-72009000D02*
X6096000Y-78359000D01*
X6096000Y-72009000D02*
X4826000Y-72009000D01*
X7366000Y-72009000D02*
X6096000Y-72009000D01*
X6604000Y-78867000D02*
X6604000Y-79502000D01*
X7366000Y-61849000D02*
X7366000Y-69469000D01*
X7366000Y-69469000D02*
X4953000Y-69469000D01*
X4826000Y-69469000D02*
X4826000Y-61849000D01*
X6096000Y-68199000D02*
X4826000Y-69469000D01*
X6096000Y-61849000D02*
X6096000Y-68199000D01*
X6096000Y-61849000D02*
X7366000Y-61849000D01*
X4826000Y-61849000D02*
X6096000Y-61849000D01*
D31*
G36*
X99340001Y-24845435D02*
G01*
X99317203Y-24802783D01*
X99081645Y-24515755D01*
X99009718Y-24456726D01*
X97228174Y-22675182D01*
X97169145Y-22603255D01*
X96882117Y-22367697D01*
X96554648Y-22192661D01*
X96199324Y-22084875D01*
X95922397Y-22057600D01*
X95922389Y-22057600D01*
X95829800Y-22048481D01*
X95737211Y-22057600D01*
X94709803Y-22057600D01*
X94432876Y-22084875D01*
X94077552Y-22192661D01*
X93750083Y-22367697D01*
X93472000Y-22595914D01*
X93193917Y-22367697D01*
X92866448Y-22192661D01*
X92511124Y-22084875D01*
X92234197Y-22057600D01*
X86897486Y-22057600D01*
X86804899Y-22048481D01*
X86712312Y-22057600D01*
X86712303Y-22057600D01*
X86435376Y-22084875D01*
X86080052Y-22192661D01*
X85752583Y-22367697D01*
X85736242Y-22381108D01*
X85537479Y-22544228D01*
X85537477Y-22544230D01*
X85465555Y-22603255D01*
X85406530Y-22675177D01*
X83467308Y-24614400D01*
X82362572Y-24614400D01*
X82362572Y-22749000D01*
X82350312Y-22624518D01*
X82314002Y-22504820D01*
X82255037Y-22394506D01*
X82175685Y-22297815D01*
X82078994Y-22218463D01*
X81968680Y-22159498D01*
X81848982Y-22123188D01*
X81724500Y-22110928D01*
X79819500Y-22110928D01*
X79695018Y-22123188D01*
X79575320Y-22159498D01*
X79465006Y-22218463D01*
X79368315Y-22297815D01*
X79288963Y-22394506D01*
X79239941Y-22486219D01*
X79098923Y-22373031D01*
X78823094Y-22229429D01*
X78604980Y-22158437D01*
X78359000Y-22278406D01*
X78359000Y-23622000D01*
X78379000Y-23622000D01*
X78379000Y-23876000D01*
X78359000Y-23876000D01*
X78359000Y-23896000D01*
X78105000Y-23896000D01*
X78105000Y-23876000D01*
X78085000Y-23876000D01*
X78085000Y-23622000D01*
X78105000Y-23622000D01*
X78105000Y-22278406D01*
X77859020Y-22158437D01*
X77640906Y-22229429D01*
X77365077Y-22373031D01*
X77122563Y-22567685D01*
X76967162Y-22752900D01*
X76819963Y-22573537D01*
X76578235Y-22375155D01*
X76302449Y-22227745D01*
X76003204Y-22136970D01*
X75692000Y-22106319D01*
X75380797Y-22136970D01*
X75081552Y-22227745D01*
X74805766Y-22375155D01*
X74564037Y-22573537D01*
X74365655Y-22815265D01*
X74218245Y-23091051D01*
X74127470Y-23390296D01*
X74104500Y-23623514D01*
X74104500Y-23874485D01*
X74127470Y-24107703D01*
X74218245Y-24406948D01*
X74329130Y-24614400D01*
X46907692Y-24614400D01*
X37109974Y-14816682D01*
X37050945Y-14744755D01*
X36918427Y-14636000D01*
X38286424Y-14636000D01*
X38592731Y-14605831D01*
X38985755Y-14486609D01*
X39347969Y-14293002D01*
X39665451Y-14032451D01*
X39926002Y-13714969D01*
X40105889Y-13378423D01*
X40999000Y-13378423D01*
X41029169Y-13684730D01*
X41148391Y-14077754D01*
X41341998Y-14439969D01*
X41602549Y-14757451D01*
X41920031Y-15018002D01*
X42282245Y-15211609D01*
X42675269Y-15330831D01*
X43084000Y-15371088D01*
X43492730Y-15330831D01*
X43885754Y-15211609D01*
X44247969Y-15018002D01*
X44565451Y-14757451D01*
X44826002Y-14439969D01*
X45019609Y-14077755D01*
X45138831Y-13684731D01*
X45169000Y-13378424D01*
X45169000Y-8973577D01*
X56685000Y-8973577D01*
X56685001Y-13378424D01*
X56715170Y-13684731D01*
X56834392Y-14077755D01*
X57027999Y-14439969D01*
X57288550Y-14757451D01*
X57606032Y-15018002D01*
X57968246Y-15211609D01*
X58361270Y-15330831D01*
X58770000Y-15371088D01*
X59178731Y-15330831D01*
X59571755Y-15211609D01*
X59933969Y-15018002D01*
X60251451Y-14757451D01*
X60512002Y-14439969D01*
X60705609Y-14077755D01*
X60824831Y-13684731D01*
X60855000Y-13378424D01*
X60855000Y-12801997D01*
X71624360Y-12801997D01*
X71685110Y-13031562D01*
X71855828Y-13403767D01*
X72095879Y-13735515D01*
X72396039Y-14014057D01*
X72744772Y-14228688D01*
X73128677Y-14371161D01*
X73533000Y-14436000D01*
X75333000Y-14436000D01*
X75333000Y-12478000D01*
X71737941Y-12478000D01*
X71624360Y-12801997D01*
X60855000Y-12801997D01*
X60855000Y-11900003D01*
X71624360Y-11900003D01*
X71737941Y-12224000D01*
X75333000Y-12224000D01*
X75333000Y-12204000D01*
X75587000Y-12204000D01*
X75587000Y-12224000D01*
X75607000Y-12224000D01*
X75607000Y-12478000D01*
X75587000Y-12478000D01*
X75587000Y-14436000D01*
X77387000Y-14436000D01*
X77791323Y-14371161D01*
X78175228Y-14228688D01*
X78523961Y-14014057D01*
X78824121Y-13735515D01*
X79064172Y-13403767D01*
X79234890Y-13031562D01*
X79275000Y-12879992D01*
X79275000Y-13078423D01*
X79305169Y-13384730D01*
X79424391Y-13777754D01*
X79617998Y-14139969D01*
X79878549Y-14457451D01*
X80196031Y-14718002D01*
X80558245Y-14911609D01*
X80951269Y-15030831D01*
X81360000Y-15071088D01*
X81768730Y-15030831D01*
X82161754Y-14911609D01*
X82523969Y-14718002D01*
X82841451Y-14457451D01*
X82893784Y-14393682D01*
X88005000Y-14393682D01*
X88005000Y-15070318D01*
X88137006Y-15733952D01*
X88395943Y-16359082D01*
X88771862Y-16921685D01*
X89250315Y-17400138D01*
X89812918Y-17776057D01*
X90438048Y-18034994D01*
X91101682Y-18167000D01*
X91778318Y-18167000D01*
X92441952Y-18034994D01*
X93067082Y-17776057D01*
X93629685Y-17400138D01*
X94108138Y-16921685D01*
X94484057Y-16359082D01*
X94742994Y-15733952D01*
X94875000Y-15070318D01*
X94875000Y-14393682D01*
X94742994Y-13730048D01*
X94484057Y-13104918D01*
X94108138Y-12542315D01*
X93629685Y-12063862D01*
X93067082Y-11687943D01*
X92441952Y-11429006D01*
X91778318Y-11297000D01*
X91101682Y-11297000D01*
X90438048Y-11429006D01*
X89812918Y-11687943D01*
X89250315Y-12063862D01*
X88771862Y-12542315D01*
X88395943Y-13104918D01*
X88137006Y-13730048D01*
X88005000Y-14393682D01*
X82893784Y-14393682D01*
X83102002Y-14139969D01*
X83295609Y-13777755D01*
X83414831Y-13384731D01*
X83445000Y-13078424D01*
X83445000Y-9273576D01*
X83414831Y-8967269D01*
X83295609Y-8574245D01*
X83102002Y-8212031D01*
X82841451Y-7894549D01*
X82523969Y-7633998D01*
X82161755Y-7440391D01*
X81768731Y-7321169D01*
X81360000Y-7280912D01*
X80951270Y-7321169D01*
X80558246Y-7440391D01*
X80196032Y-7633998D01*
X79878550Y-7894549D01*
X79617999Y-8212031D01*
X79424392Y-8574245D01*
X79305170Y-8967269D01*
X79275001Y-9273576D01*
X79275000Y-11822009D01*
X79234890Y-11670438D01*
X79064172Y-11298233D01*
X78824121Y-10966485D01*
X78523961Y-10687943D01*
X78175228Y-10473312D01*
X77791323Y-10330839D01*
X77387000Y-10266000D01*
X73533000Y-10266000D01*
X73128677Y-10330839D01*
X72744772Y-10473312D01*
X72396039Y-10687943D01*
X72095879Y-10966485D01*
X71855828Y-11298233D01*
X71685110Y-11670438D01*
X71624360Y-11900003D01*
X60855000Y-11900003D01*
X60855000Y-10251997D01*
X61634360Y-10251997D01*
X61695110Y-10481562D01*
X61865828Y-10853767D01*
X62105879Y-11185515D01*
X62406039Y-11464057D01*
X62754772Y-11678688D01*
X63138677Y-11821161D01*
X63543000Y-11886000D01*
X65643000Y-11886000D01*
X65643000Y-9928000D01*
X65897000Y-9928000D01*
X65897000Y-11886000D01*
X67997000Y-11886000D01*
X68401323Y-11821161D01*
X68785228Y-11678688D01*
X69133961Y-11464057D01*
X69434121Y-11185515D01*
X69674172Y-10853767D01*
X69844890Y-10481562D01*
X69905640Y-10251997D01*
X69792059Y-9928000D01*
X65897000Y-9928000D01*
X65643000Y-9928000D01*
X61747941Y-9928000D01*
X61634360Y-10251997D01*
X60855000Y-10251997D01*
X60855000Y-9350003D01*
X61634360Y-9350003D01*
X61747941Y-9674000D01*
X65643000Y-9674000D01*
X65643000Y-9654000D01*
X65897000Y-9654000D01*
X65897000Y-9674000D01*
X69792059Y-9674000D01*
X69905640Y-9350003D01*
X69844890Y-9120438D01*
X69674172Y-8748233D01*
X69434121Y-8416485D01*
X69133961Y-8137943D01*
X68785228Y-7923312D01*
X68401323Y-7780839D01*
X67997000Y-7716000D01*
X63543000Y-7716000D01*
X63138677Y-7780839D01*
X62754772Y-7923312D01*
X62406039Y-8137943D01*
X62105879Y-8416485D01*
X61865828Y-8748233D01*
X61695110Y-9120438D01*
X61634360Y-9350003D01*
X60855000Y-9350003D01*
X60855000Y-8973576D01*
X60824831Y-8667269D01*
X60705609Y-8274245D01*
X60512002Y-7912031D01*
X60251451Y-7594549D01*
X59933969Y-7333998D01*
X59571754Y-7140391D01*
X59178730Y-7021169D01*
X58770000Y-6980912D01*
X58361269Y-7021169D01*
X57968245Y-7140391D01*
X57606031Y-7333998D01*
X57288549Y-7594549D01*
X57027998Y-7912031D01*
X56834391Y-8274246D01*
X56715169Y-8667270D01*
X56685000Y-8973577D01*
X45169000Y-8973577D01*
X45169000Y-8973576D01*
X45138831Y-8667269D01*
X45019609Y-8274245D01*
X44826002Y-7912031D01*
X44565451Y-7594549D01*
X44247969Y-7333998D01*
X43885755Y-7140391D01*
X43492731Y-7021169D01*
X43084000Y-6980912D01*
X42675270Y-7021169D01*
X42282246Y-7140391D01*
X41920032Y-7333998D01*
X41602550Y-7594549D01*
X41341999Y-7912031D01*
X41148392Y-8274245D01*
X41029170Y-8667269D01*
X40999001Y-8973576D01*
X40999000Y-13378423D01*
X40105889Y-13378423D01*
X40119609Y-13352755D01*
X40238831Y-12959731D01*
X40279088Y-12551000D01*
X40238831Y-12142269D01*
X40119609Y-11749245D01*
X39926002Y-11387031D01*
X39665451Y-11069549D01*
X39347969Y-10808998D01*
X38985755Y-10615391D01*
X38592731Y-10496169D01*
X38286424Y-10466000D01*
X33881576Y-10466000D01*
X33575269Y-10496169D01*
X33182245Y-10615391D01*
X33087562Y-10666000D01*
X29790093Y-10666000D01*
X29867831Y-10409731D01*
X29908088Y-10001000D01*
X29867831Y-9592269D01*
X29748609Y-9199245D01*
X29555002Y-8837031D01*
X29294451Y-8519549D01*
X28976969Y-8258998D01*
X28614755Y-8065391D01*
X28221731Y-7946169D01*
X27915424Y-7916000D01*
X24110576Y-7916000D01*
X23804269Y-7946169D01*
X23411245Y-8065391D01*
X23049031Y-8258998D01*
X22731549Y-8519549D01*
X22470998Y-8837031D01*
X22277391Y-9199245D01*
X22198000Y-9460963D01*
X22198000Y-9273576D01*
X22167831Y-8967269D01*
X22048609Y-8574245D01*
X21855002Y-8212031D01*
X21594451Y-7894549D01*
X21276969Y-7633998D01*
X20914754Y-7440391D01*
X20521730Y-7321169D01*
X20113000Y-7280912D01*
X19704269Y-7321169D01*
X19311245Y-7440391D01*
X18949031Y-7633998D01*
X18631549Y-7894549D01*
X18370998Y-8212031D01*
X18177391Y-8574246D01*
X18058169Y-8967270D01*
X18028000Y-9273577D01*
X18028000Y-9291000D01*
X17005297Y-9291000D01*
X16912700Y-9281880D01*
X16820103Y-9291000D01*
X16543176Y-9318275D01*
X16187852Y-9426061D01*
X15860383Y-9601097D01*
X15573355Y-9836655D01*
X15337797Y-10123683D01*
X15162761Y-10451152D01*
X15054975Y-10806476D01*
X15018580Y-11176000D01*
X15027700Y-11268597D01*
X15027701Y-15303307D01*
X9543808Y-20787200D01*
X7842203Y-20787200D01*
X7565276Y-20814475D01*
X7209952Y-20922261D01*
X6882483Y-21097297D01*
X6640850Y-21295600D01*
X4733403Y-21295600D01*
X4456476Y-21322875D01*
X4101152Y-21430661D01*
X3773683Y-21605697D01*
X3486655Y-21841255D01*
X3251097Y-22128283D01*
X3076061Y-22455752D01*
X2968275Y-22811076D01*
X2931880Y-23180600D01*
X2968275Y-23550124D01*
X3076061Y-23905448D01*
X3251097Y-24232917D01*
X3486655Y-24519945D01*
X3757466Y-24742194D01*
X3585294Y-24951986D01*
X3447401Y-25209966D01*
X3362487Y-25489889D01*
X3333815Y-25781000D01*
X3362487Y-26072111D01*
X3447401Y-26352034D01*
X3585294Y-26610014D01*
X3770866Y-26836134D01*
X3914713Y-26954186D01*
X3913248Y-26954969D01*
X3664286Y-27159286D01*
X3459969Y-27408248D01*
X3308148Y-27692285D01*
X3214657Y-28000484D01*
X3183089Y-28321000D01*
X3191001Y-28401332D01*
X3191000Y-35711068D01*
X3183089Y-35791390D01*
X3214657Y-36111906D01*
X3308148Y-36420105D01*
X3459969Y-36704142D01*
X3658791Y-36946408D01*
X3664286Y-36953104D01*
X3887384Y-37136195D01*
X3664286Y-37319286D01*
X3459969Y-37568248D01*
X3308148Y-37852285D01*
X3214657Y-38160484D01*
X3183089Y-38481000D01*
X3191001Y-38561332D01*
X3191000Y-46020678D01*
X3183089Y-46101000D01*
X3214657Y-46421516D01*
X3308148Y-46729715D01*
X3459969Y-47013752D01*
X3599290Y-47183516D01*
X3664286Y-47262714D01*
X3913248Y-47467031D01*
X4197285Y-47618852D01*
X4505484Y-47712343D01*
X4826000Y-47743911D01*
X4906322Y-47736000D01*
X6015678Y-47736000D01*
X6096000Y-47743911D01*
X6176322Y-47736000D01*
X7285678Y-47736000D01*
X7366000Y-47743911D01*
X7686516Y-47712343D01*
X7994715Y-47618852D01*
X8278752Y-47467031D01*
X8527714Y-47262714D01*
X8732031Y-47013752D01*
X8883852Y-46729715D01*
X8977343Y-46421516D01*
X9001000Y-46181322D01*
X9001000Y-46181321D01*
X9008911Y-46101000D01*
X9001000Y-46020678D01*
X9001000Y-38561322D01*
X9008911Y-38481000D01*
X8977343Y-38160484D01*
X8883852Y-37852285D01*
X8732031Y-37568248D01*
X8527714Y-37319286D01*
X8304616Y-37136195D01*
X8527714Y-36953104D01*
X8732031Y-36704142D01*
X8883852Y-36420105D01*
X8977343Y-36111906D01*
X9001000Y-35871712D01*
X9001000Y-35871711D01*
X9008911Y-35791390D01*
X9001000Y-35711068D01*
X9001000Y-28401322D01*
X9008911Y-28321000D01*
X8977343Y-28000484D01*
X8883852Y-27692285D01*
X8732031Y-27408248D01*
X8527714Y-27159286D01*
X8278752Y-26954969D01*
X8277287Y-26954186D01*
X8421134Y-26836134D01*
X8606706Y-26610014D01*
X8744599Y-26352034D01*
X8829513Y-26072111D01*
X8858185Y-25781000D01*
X8829513Y-25489889D01*
X8744599Y-25209966D01*
X8606706Y-24951986D01*
X8421134Y-24725866D01*
X8407582Y-24714744D01*
X8442930Y-24685735D01*
X8460180Y-24680502D01*
X8570494Y-24621537D01*
X8648889Y-24557200D01*
X10232011Y-24557200D01*
X10324600Y-24566319D01*
X10417189Y-24557200D01*
X10417197Y-24557200D01*
X10694124Y-24529925D01*
X11049448Y-24422139D01*
X11376917Y-24247103D01*
X11377763Y-24246408D01*
X20193000Y-24246408D01*
X20193000Y-24521592D01*
X20246686Y-24791490D01*
X20351995Y-25045727D01*
X20504880Y-25274535D01*
X20699465Y-25469120D01*
X20928273Y-25622005D01*
X21005515Y-25654000D01*
X20928273Y-25685995D01*
X20699465Y-25838880D01*
X20504880Y-26033465D01*
X20351995Y-26262273D01*
X20246686Y-26516510D01*
X20193000Y-26786408D01*
X20193000Y-27061592D01*
X20246686Y-27331490D01*
X20351995Y-27585727D01*
X20504880Y-27814535D01*
X20699465Y-28009120D01*
X20928273Y-28162005D01*
X21005515Y-28194000D01*
X20928273Y-28225995D01*
X20699465Y-28378880D01*
X20504880Y-28573465D01*
X20351995Y-28802273D01*
X20246686Y-29056510D01*
X20193000Y-29326408D01*
X20193000Y-29601592D01*
X20246686Y-29871490D01*
X20351995Y-30125727D01*
X20504880Y-30354535D01*
X20699465Y-30549120D01*
X20928273Y-30702005D01*
X21005515Y-30734000D01*
X20928273Y-30765995D01*
X20699465Y-30918880D01*
X20504880Y-31113465D01*
X20351995Y-31342273D01*
X20246686Y-31596510D01*
X20193000Y-31866408D01*
X20193000Y-32141592D01*
X20246686Y-32411490D01*
X20351995Y-32665727D01*
X20504880Y-32894535D01*
X20699465Y-33089120D01*
X20928273Y-33242005D01*
X21005515Y-33274000D01*
X20928273Y-33305995D01*
X20699465Y-33458880D01*
X20504880Y-33653465D01*
X20351995Y-33882273D01*
X20246686Y-34136510D01*
X20193000Y-34406408D01*
X20193000Y-34681592D01*
X20246686Y-34951490D01*
X20351995Y-35205727D01*
X20504880Y-35434535D01*
X20699465Y-35629120D01*
X20928273Y-35782005D01*
X21005515Y-35814000D01*
X20928273Y-35845995D01*
X20699465Y-35998880D01*
X20504880Y-36193465D01*
X20351995Y-36422273D01*
X20246686Y-36676510D01*
X20193000Y-36946408D01*
X20193000Y-37221592D01*
X20246686Y-37491490D01*
X20351995Y-37745727D01*
X20504880Y-37974535D01*
X20699465Y-38169120D01*
X20928273Y-38322005D01*
X21005515Y-38354000D01*
X20928273Y-38385995D01*
X20699465Y-38538880D01*
X20504880Y-38733465D01*
X20351995Y-38962273D01*
X20246686Y-39216510D01*
X20193000Y-39486408D01*
X20193000Y-39761592D01*
X20246686Y-40031490D01*
X20351995Y-40285727D01*
X20504880Y-40514535D01*
X20699465Y-40709120D01*
X20928273Y-40862005D01*
X21005515Y-40894000D01*
X20928273Y-40925995D01*
X20699465Y-41078880D01*
X20504880Y-41273465D01*
X20351995Y-41502273D01*
X20246686Y-41756510D01*
X20193000Y-42026408D01*
X20193000Y-42301592D01*
X20246686Y-42571490D01*
X20351995Y-42825727D01*
X20504880Y-43054535D01*
X20699465Y-43249120D01*
X20928273Y-43402005D01*
X21005515Y-43434000D01*
X20928273Y-43465995D01*
X20699465Y-43618880D01*
X20504880Y-43813465D01*
X20351995Y-44042273D01*
X20246686Y-44296510D01*
X20193000Y-44566408D01*
X20193000Y-44841592D01*
X20246686Y-45111490D01*
X20351995Y-45365727D01*
X20504880Y-45594535D01*
X20699465Y-45789120D01*
X20928273Y-45942005D01*
X21005515Y-45974000D01*
X20928273Y-46005995D01*
X20699465Y-46158880D01*
X20504880Y-46353465D01*
X20351995Y-46582273D01*
X20246686Y-46836510D01*
X20193000Y-47106408D01*
X20193000Y-47381592D01*
X20246686Y-47651490D01*
X20351995Y-47905727D01*
X20504880Y-48134535D01*
X20699465Y-48329120D01*
X20928273Y-48482005D01*
X21005515Y-48514000D01*
X20928273Y-48545995D01*
X20699465Y-48698880D01*
X20504880Y-48893465D01*
X20351995Y-49122273D01*
X20246686Y-49376510D01*
X20193000Y-49646408D01*
X20193000Y-49921592D01*
X20246686Y-50191490D01*
X20351995Y-50445727D01*
X20504880Y-50674535D01*
X20699465Y-50869120D01*
X20928273Y-51022005D01*
X21182510Y-51127314D01*
X21452408Y-51181000D01*
X21727592Y-51181000D01*
X21997490Y-51127314D01*
X22251727Y-51022005D01*
X22480535Y-50869120D01*
X22600090Y-50749565D01*
X33504040Y-50749565D01*
X33571020Y-50989656D01*
X33820048Y-51106756D01*
X34087135Y-51173023D01*
X34362017Y-51185910D01*
X34634133Y-51144922D01*
X34893023Y-51051636D01*
X35008980Y-50989656D01*
X35075960Y-50749565D01*
X34290000Y-49963605D01*
X33504040Y-50749565D01*
X22600090Y-50749565D01*
X22675120Y-50674535D01*
X22828005Y-50445727D01*
X22933314Y-50191490D01*
X22987000Y-49921592D01*
X22987000Y-49856017D01*
X32888090Y-49856017D01*
X32929078Y-50128133D01*
X33022364Y-50387023D01*
X33084344Y-50502980D01*
X33324435Y-50569960D01*
X34110395Y-49784000D01*
X34469605Y-49784000D01*
X35255565Y-50569960D01*
X35495656Y-50502980D01*
X35612756Y-50253952D01*
X35679023Y-49986865D01*
X35691910Y-49711983D01*
X35650922Y-49439867D01*
X35557636Y-49180977D01*
X35495656Y-49065020D01*
X35255565Y-48998040D01*
X34469605Y-49784000D01*
X34110395Y-49784000D01*
X33324435Y-48998040D01*
X33084344Y-49065020D01*
X32967244Y-49314048D01*
X32900977Y-49581135D01*
X32888090Y-49856017D01*
X22987000Y-49856017D01*
X22987000Y-49646408D01*
X22933314Y-49376510D01*
X22828005Y-49122273D01*
X22675120Y-48893465D01*
X22480535Y-48698880D01*
X22251727Y-48545995D01*
X22174485Y-48514000D01*
X22251727Y-48482005D01*
X22480535Y-48329120D01*
X22675120Y-48134535D01*
X22828005Y-47905727D01*
X22933314Y-47651490D01*
X22987000Y-47381592D01*
X22987000Y-47106408D01*
X22933314Y-46836510D01*
X22828005Y-46582273D01*
X22675120Y-46353465D01*
X22480535Y-46158880D01*
X22251727Y-46005995D01*
X22174485Y-45974000D01*
X22251727Y-45942005D01*
X22480535Y-45789120D01*
X22675120Y-45594535D01*
X22828005Y-45365727D01*
X22933314Y-45111490D01*
X22987000Y-44841592D01*
X22987000Y-44566408D01*
X22933314Y-44296510D01*
X22828005Y-44042273D01*
X22675120Y-43813465D01*
X22480535Y-43618880D01*
X22251727Y-43465995D01*
X22174485Y-43434000D01*
X22251727Y-43402005D01*
X22480535Y-43249120D01*
X22675120Y-43054535D01*
X22828005Y-42825727D01*
X22933314Y-42571490D01*
X22987000Y-42301592D01*
X22987000Y-42026408D01*
X22933314Y-41756510D01*
X22828005Y-41502273D01*
X22675120Y-41273465D01*
X22480535Y-41078880D01*
X22251727Y-40925995D01*
X22174485Y-40894000D01*
X22251727Y-40862005D01*
X22480535Y-40709120D01*
X22675120Y-40514535D01*
X22828005Y-40285727D01*
X22933314Y-40031490D01*
X22987000Y-39761592D01*
X22987000Y-39486408D01*
X22933314Y-39216510D01*
X22828005Y-38962273D01*
X22675120Y-38733465D01*
X22480535Y-38538880D01*
X22251727Y-38385995D01*
X22174485Y-38354000D01*
X22251727Y-38322005D01*
X22480535Y-38169120D01*
X22675120Y-37974535D01*
X22828005Y-37745727D01*
X22933314Y-37491490D01*
X22987000Y-37221592D01*
X22987000Y-36946408D01*
X22933314Y-36676510D01*
X22828005Y-36422273D01*
X22675120Y-36193465D01*
X22480535Y-35998880D01*
X22251727Y-35845995D01*
X22174485Y-35814000D01*
X22251727Y-35782005D01*
X22480535Y-35629120D01*
X22675120Y-35434535D01*
X22828005Y-35205727D01*
X22933314Y-34951490D01*
X22987000Y-34681592D01*
X22987000Y-34406408D01*
X22933314Y-34136510D01*
X22828005Y-33882273D01*
X22675120Y-33653465D01*
X22480535Y-33458880D01*
X22251727Y-33305995D01*
X22174485Y-33274000D01*
X22251727Y-33242005D01*
X22480535Y-33089120D01*
X22675120Y-32894535D01*
X22828005Y-32665727D01*
X22933314Y-32411490D01*
X22987000Y-32141592D01*
X22987000Y-31866408D01*
X22933314Y-31596510D01*
X22828005Y-31342273D01*
X22675120Y-31113465D01*
X22480535Y-30918880D01*
X22251727Y-30765995D01*
X22174485Y-30734000D01*
X22251727Y-30702005D01*
X22480535Y-30549120D01*
X22675120Y-30354535D01*
X22828005Y-30125727D01*
X22933314Y-29871490D01*
X22987000Y-29601592D01*
X22987000Y-29326408D01*
X22933314Y-29056510D01*
X22828005Y-28802273D01*
X22675120Y-28573465D01*
X22480535Y-28378880D01*
X22251727Y-28225995D01*
X22174485Y-28194000D01*
X22251727Y-28162005D01*
X22480535Y-28009120D01*
X22675120Y-27814535D01*
X22828005Y-27585727D01*
X22933314Y-27331490D01*
X22987000Y-27061592D01*
X22987000Y-26786408D01*
X22933314Y-26516510D01*
X22828005Y-26262273D01*
X22675120Y-26033465D01*
X22480535Y-25838880D01*
X22251727Y-25685995D01*
X22174485Y-25654000D01*
X22251727Y-25622005D01*
X22480535Y-25469120D01*
X22675120Y-25274535D01*
X22828005Y-25045727D01*
X22933314Y-24791490D01*
X22987000Y-24521592D01*
X22987000Y-24246408D01*
X22933314Y-23976510D01*
X22828005Y-23722273D01*
X22675120Y-23493465D01*
X22480535Y-23298880D01*
X22251727Y-23145995D01*
X21997490Y-23040686D01*
X21727592Y-22987000D01*
X21452408Y-22987000D01*
X21182510Y-23040686D01*
X20928273Y-23145995D01*
X20699465Y-23298880D01*
X20504880Y-23493465D01*
X20351995Y-23722273D01*
X20246686Y-23976510D01*
X20193000Y-24246408D01*
X11377763Y-24246408D01*
X11663945Y-24011545D01*
X11722974Y-23939618D01*
X17693492Y-17969100D01*
X34930808Y-17969100D01*
X44728526Y-27766818D01*
X44787555Y-27838745D01*
X45065684Y-28067000D01*
X45074583Y-28074303D01*
X45402051Y-28249339D01*
X45757376Y-28357125D01*
X46126900Y-28393520D01*
X46219497Y-28384400D01*
X84155511Y-28384400D01*
X84248100Y-28393519D01*
X84340689Y-28384400D01*
X84340697Y-28384400D01*
X84617624Y-28357125D01*
X84972948Y-28249339D01*
X85300417Y-28074303D01*
X85587445Y-27838745D01*
X85646474Y-27766818D01*
X87585693Y-25827600D01*
X90900566Y-25827600D01*
X90823401Y-25971966D01*
X90738487Y-26251889D01*
X90709815Y-26543000D01*
X90738487Y-26834111D01*
X90823401Y-27114034D01*
X90961294Y-27372014D01*
X91146866Y-27598134D01*
X91290713Y-27716186D01*
X91289248Y-27716969D01*
X91040286Y-27921286D01*
X90835969Y-28170248D01*
X90684148Y-28454285D01*
X90590657Y-28762484D01*
X90559089Y-29083000D01*
X90567000Y-29163322D01*
X90567000Y-30204760D01*
X90567001Y-36473058D01*
X90559089Y-36553390D01*
X90590657Y-36873906D01*
X90684148Y-37182105D01*
X90835969Y-37466142D01*
X91040286Y-37715104D01*
X91263384Y-37898195D01*
X91040286Y-38081286D01*
X90835969Y-38330248D01*
X90684148Y-38614285D01*
X90590657Y-38922484D01*
X90559089Y-39243000D01*
X90567001Y-39323332D01*
X90567000Y-46215853D01*
X90557148Y-46234285D01*
X90463657Y-46542484D01*
X90432089Y-46863000D01*
X90463657Y-47183516D01*
X90557148Y-47491715D01*
X90708969Y-47775752D01*
X90913286Y-48024714D01*
X91162248Y-48229031D01*
X91446285Y-48380852D01*
X91754484Y-48474343D01*
X91994678Y-48498000D01*
X91994681Y-48498000D01*
X92075000Y-48505911D01*
X92155319Y-48498000D01*
X93264678Y-48498000D01*
X93345000Y-48505911D01*
X93425322Y-48498000D01*
X94661678Y-48498000D01*
X94742000Y-48505911D01*
X95062516Y-48474343D01*
X95370715Y-48380852D01*
X95654752Y-48229031D01*
X95857300Y-48062805D01*
X95857300Y-54324507D01*
X93961208Y-56220600D01*
X92169803Y-56220600D01*
X91892876Y-56247875D01*
X91537552Y-56355661D01*
X91210083Y-56530697D01*
X90923055Y-56766255D01*
X90687497Y-57053283D01*
X90512461Y-57380752D01*
X90404675Y-57736076D01*
X90368280Y-58105600D01*
X90404675Y-58475124D01*
X90512461Y-58830448D01*
X90687497Y-59157917D01*
X90923055Y-59444945D01*
X91160418Y-59639744D01*
X91146866Y-59650866D01*
X90961294Y-59876986D01*
X90823401Y-60134966D01*
X90738487Y-60414889D01*
X90709815Y-60706000D01*
X90738487Y-60997111D01*
X90823401Y-61277034D01*
X90961294Y-61535014D01*
X91146866Y-61761134D01*
X91290713Y-61879186D01*
X91289248Y-61879969D01*
X91040286Y-62084286D01*
X90835969Y-62333248D01*
X90684148Y-62617285D01*
X90590657Y-62925484D01*
X90559089Y-63246000D01*
X90567000Y-63326322D01*
X90567001Y-70785668D01*
X90559089Y-70866000D01*
X90590657Y-71186516D01*
X90684148Y-71494715D01*
X90835969Y-71778752D01*
X91040286Y-72027714D01*
X91172233Y-72136000D01*
X91040286Y-72244286D01*
X90835969Y-72493248D01*
X90684148Y-72777285D01*
X90590657Y-73085484D01*
X90559089Y-73406000D01*
X90567000Y-73486322D01*
X90567001Y-80945668D01*
X90559089Y-81026000D01*
X90590657Y-81346516D01*
X90684148Y-81654715D01*
X90835969Y-81938752D01*
X91040286Y-82187714D01*
X91289248Y-82392031D01*
X91573285Y-82543852D01*
X91881484Y-82637343D01*
X92121678Y-82661000D01*
X92202000Y-82668911D01*
X92282322Y-82661000D01*
X93518680Y-82661000D01*
X93598999Y-82668911D01*
X93679319Y-82661000D01*
X94661678Y-82661000D01*
X94742000Y-82668911D01*
X94822322Y-82661000D01*
X95062516Y-82637343D01*
X95370715Y-82543852D01*
X95654752Y-82392031D01*
X95903714Y-82187714D01*
X96108031Y-81938752D01*
X96259852Y-81654715D01*
X96353343Y-81346516D01*
X96384911Y-81026000D01*
X96377000Y-80945678D01*
X96377000Y-73486322D01*
X96384911Y-73406000D01*
X96366288Y-73216912D01*
X96353343Y-73085484D01*
X96259852Y-72777285D01*
X96108031Y-72493248D01*
X95903714Y-72244286D01*
X95771767Y-72136000D01*
X95903714Y-72027714D01*
X96108031Y-71778752D01*
X96259852Y-71494715D01*
X96353343Y-71186516D01*
X96384911Y-70866000D01*
X96377000Y-70785678D01*
X96377000Y-63326322D01*
X96384911Y-63246000D01*
X96353343Y-62925484D01*
X96259852Y-62617285D01*
X96108031Y-62333248D01*
X95903714Y-62084286D01*
X95654752Y-61879969D01*
X95653287Y-61879186D01*
X95797134Y-61761134D01*
X95982706Y-61535014D01*
X96120599Y-61277034D01*
X96205513Y-60997111D01*
X96234185Y-60706000D01*
X96205513Y-60414889D01*
X96120599Y-60134966D01*
X95982706Y-59876986D01*
X95810534Y-59667194D01*
X96081345Y-59444945D01*
X96140374Y-59373018D01*
X99009723Y-56503670D01*
X99081645Y-56444645D01*
X99154673Y-56355661D01*
X99195164Y-56306321D01*
X99317203Y-56157617D01*
X99340000Y-56114966D01*
X99340000Y-94844000D01*
X660000Y-94844000D01*
X660000Y-88307682D01*
X6090000Y-88307682D01*
X6090000Y-88984318D01*
X6222006Y-89647952D01*
X6480943Y-90273082D01*
X6856862Y-90835685D01*
X7335315Y-91314138D01*
X7897918Y-91690057D01*
X8523048Y-91948994D01*
X9186682Y-92081000D01*
X9863318Y-92081000D01*
X10526952Y-91948994D01*
X11152082Y-91690057D01*
X11714685Y-91314138D01*
X12193138Y-90835685D01*
X12569057Y-90273082D01*
X12827994Y-89647952D01*
X12960000Y-88984318D01*
X12960000Y-88307682D01*
X53334000Y-88307682D01*
X53334000Y-88984318D01*
X53466006Y-89647952D01*
X53724943Y-90273082D01*
X54100862Y-90835685D01*
X54579315Y-91314138D01*
X55141918Y-91690057D01*
X55767048Y-91948994D01*
X56430682Y-92081000D01*
X57107318Y-92081000D01*
X57770952Y-91948994D01*
X58396082Y-91690057D01*
X58958685Y-91314138D01*
X59437138Y-90835685D01*
X59813057Y-90273082D01*
X60071994Y-89647952D01*
X60204000Y-88984318D01*
X60204000Y-88307682D01*
X60071994Y-87644048D01*
X59813057Y-87018918D01*
X59437138Y-86456315D01*
X58958685Y-85977862D01*
X58396082Y-85601943D01*
X57770952Y-85343006D01*
X57107318Y-85211000D01*
X56430682Y-85211000D01*
X55767048Y-85343006D01*
X55141918Y-85601943D01*
X54579315Y-85977862D01*
X54100862Y-86456315D01*
X53724943Y-87018918D01*
X53466006Y-87644048D01*
X53334000Y-88307682D01*
X12960000Y-88307682D01*
X12827994Y-87644048D01*
X12569057Y-87018918D01*
X12193138Y-86456315D01*
X11714685Y-85977862D01*
X11152082Y-85601943D01*
X10526952Y-85343006D01*
X9863318Y-85211000D01*
X9186682Y-85211000D01*
X8523048Y-85343006D01*
X7897918Y-85601943D01*
X7335315Y-85977862D01*
X6856862Y-86456315D01*
X6480943Y-87018918D01*
X6222006Y-87644048D01*
X6090000Y-88307682D01*
X660000Y-88307682D01*
X660000Y-56708600D01*
X2992280Y-56708600D01*
X3028675Y-57078124D01*
X3136461Y-57433448D01*
X3311497Y-57760917D01*
X3547055Y-58047945D01*
X3784418Y-58242744D01*
X3770866Y-58253866D01*
X3585294Y-58479986D01*
X3447401Y-58737966D01*
X3362487Y-59017889D01*
X3333815Y-59309000D01*
X3362487Y-59600111D01*
X3447401Y-59880034D01*
X3585294Y-60138014D01*
X3770866Y-60364134D01*
X3914713Y-60482186D01*
X3913248Y-60482969D01*
X3664286Y-60687286D01*
X3459969Y-60936248D01*
X3308148Y-61220285D01*
X3214657Y-61528484D01*
X3183089Y-61849000D01*
X3191001Y-61929332D01*
X3191000Y-69388680D01*
X3183089Y-69469000D01*
X3191000Y-69549319D01*
X3191000Y-69549321D01*
X3214657Y-69789515D01*
X3308148Y-70097714D01*
X3459969Y-70381751D01*
X3664286Y-70630714D01*
X3796233Y-70739000D01*
X3664286Y-70847286D01*
X3459969Y-71096248D01*
X3308148Y-71380285D01*
X3214657Y-71688484D01*
X3183089Y-72009000D01*
X3191000Y-72089322D01*
X3191001Y-79548668D01*
X3183089Y-79629000D01*
X3214657Y-79949516D01*
X3308148Y-80257715D01*
X3459969Y-80541752D01*
X3664286Y-80790714D01*
X3913248Y-80995031D01*
X4197285Y-81146852D01*
X4505484Y-81240343D01*
X4745678Y-81264000D01*
X4826000Y-81271911D01*
X4906322Y-81264000D01*
X7285678Y-81264000D01*
X7366000Y-81271911D01*
X7446322Y-81264000D01*
X7686516Y-81240343D01*
X7994715Y-81146852D01*
X8278752Y-80995031D01*
X8527714Y-80790714D01*
X8732031Y-80541752D01*
X8883852Y-80257715D01*
X8977343Y-79949516D01*
X9008911Y-79629000D01*
X9001000Y-79548678D01*
X9001000Y-78698040D01*
X16261091Y-78698040D01*
X16355930Y-78962881D01*
X16500615Y-79204131D01*
X16689586Y-79412519D01*
X16915580Y-79580037D01*
X17169913Y-79700246D01*
X17303961Y-79740904D01*
X17526000Y-79618915D01*
X17526000Y-78476000D01*
X17780000Y-78476000D01*
X17780000Y-79618915D01*
X18002039Y-79740904D01*
X18136087Y-79700246D01*
X18390420Y-79580037D01*
X18616414Y-79412519D01*
X18805385Y-79204131D01*
X18950070Y-78962881D01*
X19044909Y-78698040D01*
X23875091Y-78698040D01*
X23969930Y-78962881D01*
X24114615Y-79204131D01*
X24303586Y-79412519D01*
X24529580Y-79580037D01*
X24783913Y-79700246D01*
X24917961Y-79740904D01*
X25140000Y-79618915D01*
X25140000Y-78476000D01*
X25394000Y-78476000D01*
X25394000Y-79618915D01*
X25616039Y-79740904D01*
X25750087Y-79700246D01*
X26004420Y-79580037D01*
X26230414Y-79412519D01*
X26419385Y-79204131D01*
X26564070Y-78962881D01*
X26658909Y-78698040D01*
X26537624Y-78476000D01*
X25394000Y-78476000D01*
X25140000Y-78476000D01*
X23996376Y-78476000D01*
X23875091Y-78698040D01*
X19044909Y-78698040D01*
X18923624Y-78476000D01*
X17780000Y-78476000D01*
X17526000Y-78476000D01*
X16382376Y-78476000D01*
X16261091Y-78698040D01*
X9001000Y-78698040D01*
X9001000Y-77999960D01*
X16261091Y-77999960D01*
X16382376Y-78222000D01*
X17526000Y-78222000D01*
X17526000Y-77079085D01*
X17780000Y-77079085D01*
X17780000Y-78222000D01*
X18923624Y-78222000D01*
X19044909Y-77999960D01*
X23875091Y-77999960D01*
X23996376Y-78222000D01*
X25140000Y-78222000D01*
X25140000Y-77079085D01*
X25394000Y-77079085D01*
X25394000Y-78222000D01*
X26537624Y-78222000D01*
X26658909Y-77999960D01*
X26564070Y-77735119D01*
X26419385Y-77493869D01*
X26230414Y-77285481D01*
X26004420Y-77117963D01*
X25750087Y-76997754D01*
X25616039Y-76957096D01*
X25394000Y-77079085D01*
X25140000Y-77079085D01*
X24917961Y-76957096D01*
X24783913Y-76997754D01*
X24529580Y-77117963D01*
X24303586Y-77285481D01*
X24114615Y-77493869D01*
X23969930Y-77735119D01*
X23875091Y-77999960D01*
X19044909Y-77999960D01*
X18950070Y-77735119D01*
X18805385Y-77493869D01*
X18616414Y-77285481D01*
X18390420Y-77117963D01*
X18136087Y-76997754D01*
X18002039Y-76957096D01*
X17780000Y-77079085D01*
X17526000Y-77079085D01*
X17303961Y-76957096D01*
X17169913Y-76997754D01*
X16915580Y-77117963D01*
X16689586Y-77285481D01*
X16500615Y-77493869D01*
X16355930Y-77735119D01*
X16261091Y-77999960D01*
X9001000Y-77999960D01*
X9001000Y-72089322D01*
X9008911Y-72009000D01*
X8977343Y-71688484D01*
X8883852Y-71380285D01*
X8732031Y-71096248D01*
X8527714Y-70847286D01*
X8395767Y-70739000D01*
X8527714Y-70630714D01*
X8732031Y-70381752D01*
X8883852Y-70097715D01*
X8977343Y-69789516D01*
X9008911Y-69469000D01*
X9001000Y-69388678D01*
X9001000Y-62967665D01*
X16218000Y-62967665D01*
X16218000Y-63250335D01*
X16273147Y-63527574D01*
X16381320Y-63788727D01*
X16538363Y-64023759D01*
X16738241Y-64223637D01*
X16973273Y-64380680D01*
X17234426Y-64488853D01*
X17511665Y-64544000D01*
X17659645Y-64544000D01*
X28343739Y-75228094D01*
X28375367Y-75266633D01*
X28529160Y-75392847D01*
X28704620Y-75486632D01*
X28895006Y-75544385D01*
X29043392Y-75559000D01*
X29043394Y-75559000D01*
X29092999Y-75563886D01*
X29142604Y-75559000D01*
X31103507Y-75559000D01*
X31111392Y-75568608D01*
X31329899Y-75747932D01*
X31579192Y-75881182D01*
X31849691Y-75963236D01*
X32060508Y-75984000D01*
X32201492Y-75984000D01*
X32412309Y-75963236D01*
X32682808Y-75881182D01*
X32932101Y-75747932D01*
X33150608Y-75568608D01*
X33329932Y-75350101D01*
X33463182Y-75100808D01*
X33545236Y-74830309D01*
X33572943Y-74549000D01*
X33545236Y-74267691D01*
X33463182Y-73997192D01*
X33329932Y-73747899D01*
X33150608Y-73529392D01*
X32932101Y-73350068D01*
X32799142Y-73279000D01*
X32932101Y-73207932D01*
X33150608Y-73028608D01*
X33329932Y-72810101D01*
X33463182Y-72560808D01*
X33545236Y-72290309D01*
X33572943Y-72009000D01*
X33561638Y-71894217D01*
X35291900Y-70163955D01*
X35291901Y-72949301D01*
X35282781Y-73041900D01*
X35319175Y-73411424D01*
X35426962Y-73766748D01*
X35601998Y-74094217D01*
X35778528Y-74309320D01*
X35778531Y-74309323D01*
X35837556Y-74381245D01*
X35909477Y-74440269D01*
X37950079Y-76480872D01*
X38165182Y-76657402D01*
X38492651Y-76832438D01*
X38847975Y-76940224D01*
X39217499Y-76976619D01*
X39486348Y-76950140D01*
X44086230Y-81550023D01*
X44145255Y-81621945D01*
X44217177Y-81680970D01*
X44217179Y-81680972D01*
X44221785Y-81684752D01*
X44432283Y-81857503D01*
X44759752Y-82032539D01*
X45007289Y-82107628D01*
X45115075Y-82140325D01*
X45147262Y-82143495D01*
X45392003Y-82167600D01*
X45392011Y-82167600D01*
X45484600Y-82176719D01*
X45577189Y-82167600D01*
X57916508Y-82167600D01*
X66197030Y-90448123D01*
X66256055Y-90520045D01*
X66327977Y-90579070D01*
X66327979Y-90579072D01*
X66543082Y-90755602D01*
X66543083Y-90755603D01*
X66870552Y-90930639D01*
X67225876Y-91038425D01*
X67595400Y-91074820D01*
X67687997Y-91065700D01*
X74787311Y-91065700D01*
X74879900Y-91074819D01*
X74972489Y-91065700D01*
X74972497Y-91065700D01*
X75249424Y-91038425D01*
X75604748Y-90930639D01*
X75932217Y-90755603D01*
X76219245Y-90520045D01*
X76278274Y-90448118D01*
X78879454Y-87846939D01*
X78924307Y-87891795D01*
X78983355Y-87963745D01*
X79128005Y-88082456D01*
X79270328Y-88199266D01*
X79270356Y-88199281D01*
X79270383Y-88199303D01*
X79439192Y-88289533D01*
X79597790Y-88374313D01*
X79597821Y-88374322D01*
X79597852Y-88374339D01*
X79781519Y-88430053D01*
X79953111Y-88482112D01*
X79953144Y-88482115D01*
X79953176Y-88482125D01*
X80139709Y-88500497D01*
X80322634Y-88518520D01*
X80415264Y-88509400D01*
X81489197Y-88509400D01*
X81766124Y-88482125D01*
X82121448Y-88374339D01*
X82448917Y-88199303D01*
X82735945Y-87963745D01*
X82971503Y-87676717D01*
X83146539Y-87349248D01*
X83254325Y-86993924D01*
X83290720Y-86624400D01*
X83254325Y-86254876D01*
X83146539Y-85899552D01*
X82971503Y-85572083D01*
X82735945Y-85285055D01*
X82457218Y-85056310D01*
X82605932Y-84875101D01*
X82739182Y-84625808D01*
X82821236Y-84355309D01*
X82848943Y-84074000D01*
X82821236Y-83792691D01*
X82739182Y-83522192D01*
X82605932Y-83272899D01*
X82426608Y-83054392D01*
X82208101Y-82875068D01*
X82075142Y-82804000D01*
X82208101Y-82732932D01*
X82426608Y-82553608D01*
X82605932Y-82335101D01*
X82739182Y-82085808D01*
X82821236Y-81815309D01*
X82848943Y-81534000D01*
X82821236Y-81252691D01*
X82739182Y-80982192D01*
X82605932Y-80732899D01*
X82426608Y-80514392D01*
X82208101Y-80335068D01*
X82075142Y-80264000D01*
X82208101Y-80192932D01*
X82426608Y-80013608D01*
X82605932Y-79795101D01*
X82739182Y-79545808D01*
X82821236Y-79275309D01*
X82848943Y-78994000D01*
X82821236Y-78712691D01*
X82739182Y-78442192D01*
X82605932Y-78192899D01*
X82426608Y-77974392D01*
X82208101Y-77795068D01*
X81958808Y-77661818D01*
X81688309Y-77579764D01*
X81477492Y-77559000D01*
X81336508Y-77559000D01*
X81125691Y-77579764D01*
X80855192Y-77661818D01*
X80605899Y-77795068D01*
X80387392Y-77974392D01*
X80208068Y-78192899D01*
X80074818Y-78442192D01*
X79992764Y-78712691D01*
X79965057Y-78994000D01*
X79992764Y-79275309D01*
X80074818Y-79545808D01*
X80208068Y-79795101D01*
X80323464Y-79935712D01*
X80039748Y-79784062D01*
X79684424Y-79676275D01*
X79314900Y-79639881D01*
X78945375Y-79676275D01*
X78590052Y-79784062D01*
X78262584Y-79959098D01*
X78047480Y-80135628D01*
X77565482Y-80617626D01*
X77493555Y-80676655D01*
X77257997Y-80963683D01*
X77082961Y-81291153D01*
X77049726Y-81400715D01*
X76982617Y-81621945D01*
X76975175Y-81646477D01*
X76947900Y-81923404D01*
X76947900Y-81923411D01*
X76938781Y-82016000D01*
X76947900Y-82108590D01*
X76947901Y-84446906D01*
X75168857Y-86225951D01*
X75119182Y-86062192D01*
X74985932Y-85812899D01*
X74806608Y-85594392D01*
X74588101Y-85415068D01*
X74455142Y-85344000D01*
X74588101Y-85272932D01*
X74806608Y-85093608D01*
X74985932Y-84875101D01*
X75119182Y-84625808D01*
X75201236Y-84355309D01*
X75228943Y-84074000D01*
X75201236Y-83792691D01*
X75119182Y-83522192D01*
X74985932Y-83272899D01*
X74806608Y-83054392D01*
X74588101Y-82875068D01*
X74455142Y-82804000D01*
X74588101Y-82732932D01*
X74806608Y-82553608D01*
X74985932Y-82335101D01*
X75119182Y-82085808D01*
X75201236Y-81815309D01*
X75228943Y-81534000D01*
X75201236Y-81252691D01*
X75119182Y-80982192D01*
X74985932Y-80732899D01*
X74806608Y-80514392D01*
X74693518Y-80421581D01*
X74711482Y-80419812D01*
X74831180Y-80383502D01*
X74941494Y-80324537D01*
X75038185Y-80245185D01*
X75117537Y-80148494D01*
X75176502Y-80038180D01*
X75212812Y-79918482D01*
X75225072Y-79794000D01*
X75225072Y-78194000D01*
X75212812Y-78069518D01*
X75176502Y-77949820D01*
X75117537Y-77839506D01*
X75038185Y-77742815D01*
X74941494Y-77663463D01*
X74831180Y-77604498D01*
X74711482Y-77568188D01*
X74587000Y-77555928D01*
X72987000Y-77555928D01*
X72862518Y-77568188D01*
X72742820Y-77604498D01*
X72632506Y-77663463D01*
X72535815Y-77742815D01*
X72456463Y-77839506D01*
X72397498Y-77949820D01*
X72361188Y-78069518D01*
X72348928Y-78194000D01*
X72348928Y-79794000D01*
X72361188Y-79918482D01*
X72397498Y-80038180D01*
X72456463Y-80148494D01*
X72535815Y-80245185D01*
X72632506Y-80324537D01*
X72742820Y-80383502D01*
X72862518Y-80419812D01*
X72880482Y-80421581D01*
X72767392Y-80514392D01*
X72588068Y-80732899D01*
X72454818Y-80982192D01*
X72372764Y-81252691D01*
X72345057Y-81534000D01*
X72372764Y-81815309D01*
X72454818Y-82085808D01*
X72588068Y-82335101D01*
X72767392Y-82553608D01*
X72985899Y-82732932D01*
X73118858Y-82804000D01*
X72985899Y-82875068D01*
X72767392Y-83054392D01*
X72759507Y-83064000D01*
X72681355Y-83064000D01*
X64268840Y-74651485D01*
X64415490Y-74622314D01*
X64669727Y-74517005D01*
X64898535Y-74364120D01*
X65093120Y-74169535D01*
X65246005Y-73940727D01*
X65351314Y-73686490D01*
X65405000Y-73416592D01*
X65405000Y-73141408D01*
X65351314Y-72871510D01*
X65246005Y-72617273D01*
X65242522Y-72612060D01*
X65398224Y-72596725D01*
X65753548Y-72488939D01*
X66081017Y-72313903D01*
X66368045Y-72078345D01*
X66427074Y-72006418D01*
X67698827Y-70734665D01*
X72422000Y-70734665D01*
X72422000Y-71017335D01*
X72477147Y-71294574D01*
X72585320Y-71555727D01*
X72742363Y-71790759D01*
X72942241Y-71990637D01*
X73177273Y-72147680D01*
X73438426Y-72255853D01*
X73715665Y-72311000D01*
X73998335Y-72311000D01*
X74275574Y-72255853D01*
X74536727Y-72147680D01*
X74771759Y-71990637D01*
X74971637Y-71790759D01*
X75128680Y-71555727D01*
X75236853Y-71294574D01*
X75292000Y-71017335D01*
X75292000Y-70734665D01*
X79845000Y-70734665D01*
X79845000Y-71017335D01*
X79900147Y-71294574D01*
X80008320Y-71555727D01*
X80165363Y-71790759D01*
X80365241Y-71990637D01*
X80600273Y-72147680D01*
X80861426Y-72255853D01*
X81138665Y-72311000D01*
X81421335Y-72311000D01*
X81698574Y-72255853D01*
X81959727Y-72147680D01*
X82194759Y-71990637D01*
X82394637Y-71790759D01*
X82551680Y-71555727D01*
X82659853Y-71294574D01*
X82715000Y-71017335D01*
X82715000Y-70734665D01*
X82659853Y-70457426D01*
X82551680Y-70196273D01*
X82394637Y-69961241D01*
X82194759Y-69761363D01*
X81959727Y-69604320D01*
X81698574Y-69496147D01*
X81421335Y-69441000D01*
X81138665Y-69441000D01*
X80861426Y-69496147D01*
X80600273Y-69604320D01*
X80365241Y-69761363D01*
X80165363Y-69961241D01*
X80008320Y-70196273D01*
X79900147Y-70457426D01*
X79845000Y-70734665D01*
X75292000Y-70734665D01*
X75236853Y-70457426D01*
X75128680Y-70196273D01*
X74971637Y-69961241D01*
X74771759Y-69761363D01*
X74536727Y-69604320D01*
X74275574Y-69496147D01*
X73998335Y-69441000D01*
X73715665Y-69441000D01*
X73438426Y-69496147D01*
X73177273Y-69604320D01*
X72942241Y-69761363D01*
X72742363Y-69961241D01*
X72585320Y-70196273D01*
X72477147Y-70457426D01*
X72422000Y-70734665D01*
X67698827Y-70734665D01*
X71071323Y-67362170D01*
X71143245Y-67303145D01*
X71211390Y-67220111D01*
X71378803Y-67016117D01*
X71408266Y-66960995D01*
X71553839Y-66688648D01*
X71661625Y-66333324D01*
X71688900Y-66056397D01*
X71688900Y-66056396D01*
X71698020Y-65963800D01*
X71688900Y-65871203D01*
X71688900Y-55985040D01*
X72465091Y-55985040D01*
X72559930Y-56249881D01*
X72704615Y-56491131D01*
X72893586Y-56699519D01*
X73119580Y-56867037D01*
X73373913Y-56987246D01*
X73507961Y-57027904D01*
X73730000Y-56905915D01*
X73730000Y-55763000D01*
X73984000Y-55763000D01*
X73984000Y-56905915D01*
X74206039Y-57027904D01*
X74340087Y-56987246D01*
X74594420Y-56867037D01*
X74820414Y-56699519D01*
X75009385Y-56491131D01*
X75154070Y-56249881D01*
X75248909Y-55985040D01*
X79888091Y-55985040D01*
X79982930Y-56249881D01*
X80127615Y-56491131D01*
X80316586Y-56699519D01*
X80542580Y-56867037D01*
X80796913Y-56987246D01*
X80930961Y-57027904D01*
X81153000Y-56905915D01*
X81153000Y-55763000D01*
X81407000Y-55763000D01*
X81407000Y-56905915D01*
X81629039Y-57027904D01*
X81763087Y-56987246D01*
X82017420Y-56867037D01*
X82243414Y-56699519D01*
X82432385Y-56491131D01*
X82577070Y-56249881D01*
X82671909Y-55985040D01*
X82550624Y-55763000D01*
X81407000Y-55763000D01*
X81153000Y-55763000D01*
X80009376Y-55763000D01*
X79888091Y-55985040D01*
X75248909Y-55985040D01*
X75127624Y-55763000D01*
X73984000Y-55763000D01*
X73730000Y-55763000D01*
X72586376Y-55763000D01*
X72465091Y-55985040D01*
X71688900Y-55985040D01*
X71688900Y-55944092D01*
X72531510Y-55101482D01*
X72465091Y-55286960D01*
X72586376Y-55509000D01*
X73730000Y-55509000D01*
X73730000Y-54366085D01*
X73984000Y-54366085D01*
X73984000Y-55509000D01*
X75127624Y-55509000D01*
X75248909Y-55286960D01*
X79888091Y-55286960D01*
X80009376Y-55509000D01*
X81153000Y-55509000D01*
X81153000Y-54366085D01*
X81407000Y-54366085D01*
X81407000Y-55509000D01*
X82550624Y-55509000D01*
X82671909Y-55286960D01*
X82577070Y-55022119D01*
X82432385Y-54780869D01*
X82243414Y-54572481D01*
X82017420Y-54404963D01*
X81763087Y-54284754D01*
X81629039Y-54244096D01*
X81407000Y-54366085D01*
X81153000Y-54366085D01*
X80930961Y-54244096D01*
X80796913Y-54284754D01*
X80542580Y-54404963D01*
X80316586Y-54572481D01*
X80127615Y-54780869D01*
X79982930Y-55022119D01*
X79888091Y-55286960D01*
X75248909Y-55286960D01*
X75154070Y-55022119D01*
X75009385Y-54780869D01*
X74820414Y-54572481D01*
X74594420Y-54404963D01*
X74340087Y-54284754D01*
X74206039Y-54244096D01*
X73984000Y-54366085D01*
X73730000Y-54366085D01*
X73507961Y-54244096D01*
X73373913Y-54284754D01*
X73325227Y-54307765D01*
X80910923Y-46722070D01*
X80982845Y-46663045D01*
X81053457Y-46577005D01*
X81218403Y-46376017D01*
X81263329Y-46291966D01*
X81393439Y-46048548D01*
X81501225Y-45693224D01*
X81528500Y-45416297D01*
X81528500Y-45416296D01*
X81537620Y-45323700D01*
X81528500Y-45231103D01*
X81528500Y-40000541D01*
X81722996Y-40092571D01*
X81997184Y-40161300D01*
X82279512Y-40175217D01*
X82559130Y-40133787D01*
X82825292Y-40038603D01*
X82950514Y-39971671D01*
X83022097Y-39727702D01*
X82209000Y-38914605D01*
X82194858Y-38928748D01*
X82015253Y-38749143D01*
X82029395Y-38735000D01*
X82388605Y-38735000D01*
X83201702Y-39548097D01*
X83270928Y-39527785D01*
X83270928Y-39535000D01*
X83283188Y-39659482D01*
X83319498Y-39779180D01*
X83378463Y-39889494D01*
X83457815Y-39986185D01*
X83554506Y-40065537D01*
X83664820Y-40124502D01*
X83784518Y-40160812D01*
X83909000Y-40173072D01*
X85509000Y-40173072D01*
X85633482Y-40160812D01*
X85753180Y-40124502D01*
X85863494Y-40065537D01*
X85960185Y-39986185D01*
X86039537Y-39889494D01*
X86098502Y-39779180D01*
X86134812Y-39659482D01*
X86147072Y-39535000D01*
X86147072Y-37935000D01*
X86134812Y-37810518D01*
X86098502Y-37690820D01*
X86039537Y-37580506D01*
X85960185Y-37483815D01*
X85863494Y-37404463D01*
X85753180Y-37345498D01*
X85633482Y-37309188D01*
X85509000Y-37296928D01*
X83909000Y-37296928D01*
X83784518Y-37309188D01*
X83664820Y-37345498D01*
X83554506Y-37404463D01*
X83457815Y-37483815D01*
X83378463Y-37580506D01*
X83319498Y-37690820D01*
X83283188Y-37810518D01*
X83270928Y-37935000D01*
X83270928Y-37942215D01*
X83201702Y-37921903D01*
X82388605Y-38735000D01*
X82029395Y-38735000D01*
X82015253Y-38720858D01*
X82194858Y-38541253D01*
X82209000Y-38555395D01*
X83022097Y-37742298D01*
X82950514Y-37498329D01*
X82695004Y-37377429D01*
X82420816Y-37308700D01*
X82138488Y-37294783D01*
X81858870Y-37336213D01*
X81592708Y-37431397D01*
X81467486Y-37498329D01*
X81446065Y-37571337D01*
X81393439Y-37397852D01*
X81218403Y-37070383D01*
X80982845Y-36783355D01*
X80910918Y-36724326D01*
X78101274Y-33914682D01*
X78042245Y-33842755D01*
X77755217Y-33607197D01*
X77427748Y-33432161D01*
X77072424Y-33324375D01*
X76795497Y-33297100D01*
X76795489Y-33297100D01*
X76702900Y-33287981D01*
X76610311Y-33297100D01*
X49760485Y-33297100D01*
X49843799Y-33213786D01*
X49995371Y-32986943D01*
X50099775Y-32734889D01*
X50153000Y-32467311D01*
X50153000Y-32194489D01*
X50099775Y-31926911D01*
X49995371Y-31674857D01*
X49843799Y-31448014D01*
X49650886Y-31255101D01*
X49424043Y-31103529D01*
X49171989Y-30999125D01*
X48956535Y-30956268D01*
X76152000Y-30956268D01*
X76152000Y-31317732D01*
X76222518Y-31672250D01*
X76360844Y-32006199D01*
X76561662Y-32306744D01*
X76817256Y-32562338D01*
X77117801Y-32763156D01*
X77451750Y-32901482D01*
X77806268Y-32972000D01*
X78167732Y-32972000D01*
X78522250Y-32901482D01*
X78856199Y-32763156D01*
X79156744Y-32562338D01*
X79412338Y-32306744D01*
X79613156Y-32006199D01*
X79751482Y-31672250D01*
X79822000Y-31317732D01*
X79822000Y-30956268D01*
X79751482Y-30601750D01*
X79613156Y-30267801D01*
X79412338Y-29967256D01*
X79156744Y-29711662D01*
X78856199Y-29510844D01*
X78522250Y-29372518D01*
X78167732Y-29302000D01*
X77806268Y-29302000D01*
X77451750Y-29372518D01*
X77117801Y-29510844D01*
X76817256Y-29711662D01*
X76561662Y-29967256D01*
X76360844Y-30267801D01*
X76222518Y-30601750D01*
X76152000Y-30956268D01*
X48956535Y-30956268D01*
X48904411Y-30945900D01*
X48631589Y-30945900D01*
X48364011Y-30999125D01*
X48111957Y-31103529D01*
X47885114Y-31255101D01*
X47819315Y-31320900D01*
X44172704Y-31320900D01*
X44123099Y-31316014D01*
X44073494Y-31320900D01*
X44073492Y-31320900D01*
X43925106Y-31335515D01*
X43734720Y-31393268D01*
X43559260Y-31487053D01*
X43405467Y-31613267D01*
X43373839Y-31651806D01*
X35662485Y-39363160D01*
X35633314Y-39216510D01*
X35528005Y-38962273D01*
X35375120Y-38733465D01*
X35180535Y-38538880D01*
X34951727Y-38385995D01*
X34874485Y-38354000D01*
X34951727Y-38322005D01*
X35180535Y-38169120D01*
X35375120Y-37974535D01*
X35528005Y-37745727D01*
X35633314Y-37491490D01*
X35687000Y-37221592D01*
X35687000Y-36946408D01*
X35633314Y-36676510D01*
X35528005Y-36422273D01*
X35375120Y-36193465D01*
X35180535Y-35998880D01*
X34951727Y-35845995D01*
X34874485Y-35814000D01*
X34951727Y-35782005D01*
X35180535Y-35629120D01*
X35375120Y-35434535D01*
X35528005Y-35205727D01*
X35633314Y-34951490D01*
X35687000Y-34681592D01*
X35687000Y-34406408D01*
X35633314Y-34136510D01*
X35528005Y-33882273D01*
X35375120Y-33653465D01*
X35180535Y-33458880D01*
X34951727Y-33305995D01*
X34874485Y-33274000D01*
X34951727Y-33242005D01*
X35180535Y-33089120D01*
X35375120Y-32894535D01*
X35528005Y-32665727D01*
X35633314Y-32411490D01*
X35687000Y-32141592D01*
X35687000Y-31866408D01*
X35633314Y-31596510D01*
X35528005Y-31342273D01*
X35375120Y-31113465D01*
X35180535Y-30918880D01*
X34951727Y-30765995D01*
X34874485Y-30734000D01*
X34951727Y-30702005D01*
X35180535Y-30549120D01*
X35375120Y-30354535D01*
X35528005Y-30125727D01*
X35633314Y-29871490D01*
X35687000Y-29601592D01*
X35687000Y-29326408D01*
X35633314Y-29056510D01*
X35528005Y-28802273D01*
X35375120Y-28573465D01*
X35180535Y-28378880D01*
X34951727Y-28225995D01*
X34874485Y-28194000D01*
X34951727Y-28162005D01*
X35180535Y-28009120D01*
X35375120Y-27814535D01*
X35528005Y-27585727D01*
X35633314Y-27331490D01*
X35687000Y-27061592D01*
X35687000Y-26786408D01*
X35633314Y-26516510D01*
X35528005Y-26262273D01*
X35375120Y-26033465D01*
X35180535Y-25838880D01*
X34951727Y-25685995D01*
X34874485Y-25654000D01*
X34951727Y-25622005D01*
X35180535Y-25469120D01*
X35375120Y-25274535D01*
X35528005Y-25045727D01*
X35633314Y-24791490D01*
X35687000Y-24521592D01*
X35687000Y-24246408D01*
X35633314Y-23976510D01*
X35528005Y-23722273D01*
X35375120Y-23493465D01*
X35180535Y-23298880D01*
X34951727Y-23145995D01*
X34697490Y-23040686D01*
X34427592Y-22987000D01*
X34152408Y-22987000D01*
X33882510Y-23040686D01*
X33628273Y-23145995D01*
X33399465Y-23298880D01*
X33204880Y-23493465D01*
X33051995Y-23722273D01*
X32946686Y-23976510D01*
X32893000Y-24246408D01*
X32893000Y-24521592D01*
X32946686Y-24791490D01*
X33051995Y-25045727D01*
X33204880Y-25274535D01*
X33399465Y-25469120D01*
X33628273Y-25622005D01*
X33705515Y-25654000D01*
X33628273Y-25685995D01*
X33399465Y-25838880D01*
X33204880Y-26033465D01*
X33051995Y-26262273D01*
X32946686Y-26516510D01*
X32893000Y-26786408D01*
X32893000Y-27061592D01*
X32946686Y-27331490D01*
X33051995Y-27585727D01*
X33204880Y-27814535D01*
X33399465Y-28009120D01*
X33628273Y-28162005D01*
X33705515Y-28194000D01*
X33628273Y-28225995D01*
X33399465Y-28378880D01*
X33204880Y-28573465D01*
X33051995Y-28802273D01*
X32946686Y-29056510D01*
X32893000Y-29326408D01*
X32893000Y-29601592D01*
X32946686Y-29871490D01*
X33051995Y-30125727D01*
X33204880Y-30354535D01*
X33399465Y-30549120D01*
X33628273Y-30702005D01*
X33705515Y-30734000D01*
X33628273Y-30765995D01*
X33399465Y-30918880D01*
X33204880Y-31113465D01*
X33051995Y-31342273D01*
X32946686Y-31596510D01*
X32893000Y-31866408D01*
X32893000Y-32141592D01*
X32946686Y-32411490D01*
X33051995Y-32665727D01*
X33204880Y-32894535D01*
X33399465Y-33089120D01*
X33628273Y-33242005D01*
X33705515Y-33274000D01*
X33628273Y-33305995D01*
X33399465Y-33458880D01*
X33204880Y-33653465D01*
X33051995Y-33882273D01*
X32946686Y-34136510D01*
X32893000Y-34406408D01*
X32893000Y-34681592D01*
X32946686Y-34951490D01*
X33051995Y-35205727D01*
X33204880Y-35434535D01*
X33399465Y-35629120D01*
X33628273Y-35782005D01*
X33705515Y-35814000D01*
X33628273Y-35845995D01*
X33399465Y-35998880D01*
X33204880Y-36193465D01*
X33051995Y-36422273D01*
X32946686Y-36676510D01*
X32893000Y-36946408D01*
X32893000Y-37221592D01*
X32946686Y-37491490D01*
X33051995Y-37745727D01*
X33204880Y-37974535D01*
X33399465Y-38169120D01*
X33628273Y-38322005D01*
X33705515Y-38354000D01*
X33628273Y-38385995D01*
X33399465Y-38538880D01*
X33204880Y-38733465D01*
X33051995Y-38962273D01*
X32946686Y-39216510D01*
X32893000Y-39486408D01*
X32893000Y-39761592D01*
X32946686Y-40031490D01*
X33051995Y-40285727D01*
X33204880Y-40514535D01*
X33399465Y-40709120D01*
X33628273Y-40862005D01*
X33705515Y-40894000D01*
X33628273Y-40925995D01*
X33399465Y-41078880D01*
X33204880Y-41273465D01*
X33051995Y-41502273D01*
X32946686Y-41756510D01*
X32893000Y-42026408D01*
X32893000Y-42301592D01*
X32946686Y-42571490D01*
X33051995Y-42825727D01*
X33204880Y-43054535D01*
X33399465Y-43249120D01*
X33628273Y-43402005D01*
X33705515Y-43434000D01*
X33628273Y-43465995D01*
X33399465Y-43618880D01*
X33204880Y-43813465D01*
X33051995Y-44042273D01*
X32946686Y-44296510D01*
X32893000Y-44566408D01*
X32893000Y-44841592D01*
X32946686Y-45111490D01*
X33051995Y-45365727D01*
X33204880Y-45594535D01*
X33399465Y-45789120D01*
X33624387Y-45939409D01*
X33541463Y-46007463D01*
X33497711Y-46060775D01*
X33399890Y-46158596D01*
X33399465Y-46158880D01*
X33204880Y-46353465D01*
X33166001Y-46411652D01*
X33122901Y-46464169D01*
X33090876Y-46524084D01*
X33051995Y-46582273D01*
X33025213Y-46646931D01*
X32993189Y-46706843D01*
X32973469Y-46771850D01*
X32946686Y-46836510D01*
X32933033Y-46905151D01*
X32913312Y-46970160D01*
X32906653Y-47037770D01*
X32893000Y-47106408D01*
X32893000Y-47176390D01*
X32886341Y-47244000D01*
X32893000Y-47311610D01*
X32893000Y-47381592D01*
X32906653Y-47450230D01*
X32913312Y-47517840D01*
X32933033Y-47582849D01*
X32946686Y-47651490D01*
X32973469Y-47716150D01*
X32993189Y-47781157D01*
X33025213Y-47841069D01*
X33051995Y-47905727D01*
X33090876Y-47963916D01*
X33122901Y-48023831D01*
X33166000Y-48076347D01*
X33204880Y-48134535D01*
X33254366Y-48184021D01*
X33297464Y-48236536D01*
X33349979Y-48279634D01*
X33399465Y-48329120D01*
X33457653Y-48368000D01*
X33510169Y-48411099D01*
X33570084Y-48443124D01*
X33628273Y-48482005D01*
X33692931Y-48508787D01*
X33699000Y-48512032D01*
X33686977Y-48516364D01*
X33571020Y-48578344D01*
X33504040Y-48818435D01*
X34290000Y-49604395D01*
X35075960Y-48818435D01*
X35008980Y-48578344D01*
X34874896Y-48515294D01*
X34887069Y-48508787D01*
X34951727Y-48482005D01*
X35009916Y-48443124D01*
X35069831Y-48411099D01*
X35087133Y-48396900D01*
X35303186Y-48396900D01*
X35520083Y-48574902D01*
X35847552Y-48749938D01*
X36202876Y-48857725D01*
X36572400Y-48894119D01*
X36941924Y-48857725D01*
X37297248Y-48749938D01*
X37624717Y-48574902D01*
X37839820Y-48398372D01*
X38903718Y-47334474D01*
X38975645Y-47275445D01*
X39211203Y-46988417D01*
X39386239Y-46660948D01*
X39466168Y-46397457D01*
X39480557Y-46407071D01*
X39732611Y-46511475D01*
X40000189Y-46564700D01*
X40273011Y-46564700D01*
X40540589Y-46511475D01*
X40792643Y-46407071D01*
X41019486Y-46255499D01*
X41085285Y-46189700D01*
X43797692Y-46189700D01*
X43847300Y-46194586D01*
X44045294Y-46175085D01*
X44235680Y-46117332D01*
X44411140Y-46023547D01*
X44564933Y-45897333D01*
X44596561Y-45858794D01*
X45044338Y-45411017D01*
X47366090Y-45411017D01*
X47407078Y-45683133D01*
X47500364Y-45942023D01*
X47562344Y-46057980D01*
X47802435Y-46124960D01*
X48588395Y-45339000D01*
X48947605Y-45339000D01*
X49733565Y-46124960D01*
X49973656Y-46057980D01*
X50090756Y-45808952D01*
X50157023Y-45541865D01*
X50169910Y-45266983D01*
X50128922Y-44994867D01*
X50035636Y-44735977D01*
X49973656Y-44620020D01*
X49733565Y-44553040D01*
X48947605Y-45339000D01*
X48588395Y-45339000D01*
X47802435Y-44553040D01*
X47562344Y-44620020D01*
X47445244Y-44869048D01*
X47378977Y-45136135D01*
X47366090Y-45411017D01*
X45044338Y-45411017D01*
X47395516Y-43059840D01*
X47424686Y-43206490D01*
X47529995Y-43460727D01*
X47682880Y-43689535D01*
X47877465Y-43884120D01*
X48106273Y-44037005D01*
X48177943Y-44066692D01*
X48164977Y-44071364D01*
X48049020Y-44133344D01*
X47982040Y-44373435D01*
X48768000Y-45159395D01*
X49553960Y-44373435D01*
X49486980Y-44133344D01*
X49351240Y-44069515D01*
X49429727Y-44037005D01*
X49658535Y-43884120D01*
X49853120Y-43689535D01*
X50006005Y-43460727D01*
X50111314Y-43206490D01*
X50165000Y-42936592D01*
X50165000Y-42661408D01*
X50111314Y-42391510D01*
X50006005Y-42137273D01*
X49853120Y-41908465D01*
X49658535Y-41713880D01*
X49429727Y-41560995D01*
X49352485Y-41529000D01*
X49429727Y-41497005D01*
X49658535Y-41344120D01*
X49853120Y-41149535D01*
X50006005Y-40920727D01*
X50111314Y-40666490D01*
X50165000Y-40396592D01*
X50165000Y-40331017D01*
X62606090Y-40331017D01*
X62647078Y-40603133D01*
X62740364Y-40862023D01*
X62802344Y-40977980D01*
X63042435Y-41044960D01*
X63828395Y-40259000D01*
X64187605Y-40259000D01*
X64973565Y-41044960D01*
X65213656Y-40977980D01*
X65330756Y-40728952D01*
X65397023Y-40461865D01*
X65409910Y-40186983D01*
X65368922Y-39914867D01*
X65275636Y-39655977D01*
X65213656Y-39540020D01*
X64973565Y-39473040D01*
X64187605Y-40259000D01*
X63828395Y-40259000D01*
X63042435Y-39473040D01*
X62802344Y-39540020D01*
X62685244Y-39789048D01*
X62618977Y-40056135D01*
X62606090Y-40331017D01*
X50165000Y-40331017D01*
X50165000Y-40121408D01*
X50111314Y-39851510D01*
X50006005Y-39597273D01*
X49853120Y-39368465D01*
X49658535Y-39173880D01*
X49429727Y-39020995D01*
X49352485Y-38989000D01*
X49429727Y-38957005D01*
X49658535Y-38804120D01*
X49853120Y-38609535D01*
X50006005Y-38380727D01*
X50111314Y-38126490D01*
X50165000Y-37856592D01*
X50165000Y-37581408D01*
X50111314Y-37311510D01*
X50010075Y-37067100D01*
X62765925Y-37067100D01*
X62664686Y-37311510D01*
X62611000Y-37581408D01*
X62611000Y-37856592D01*
X62664686Y-38126490D01*
X62769995Y-38380727D01*
X62922880Y-38609535D01*
X63117465Y-38804120D01*
X63346273Y-38957005D01*
X63417943Y-38986692D01*
X63404977Y-38991364D01*
X63289020Y-39053344D01*
X63222040Y-39293435D01*
X64008000Y-40079395D01*
X64793960Y-39293435D01*
X64775891Y-39228665D01*
X70193000Y-39228665D01*
X70193000Y-39511335D01*
X70248147Y-39788574D01*
X70356320Y-40049727D01*
X70513363Y-40284759D01*
X70713241Y-40484637D01*
X70948273Y-40641680D01*
X71209426Y-40749853D01*
X71486665Y-40805000D01*
X71769335Y-40805000D01*
X72046574Y-40749853D01*
X72307727Y-40641680D01*
X72542759Y-40484637D01*
X72664694Y-40362702D01*
X75814903Y-40362702D01*
X75886486Y-40606671D01*
X76141996Y-40727571D01*
X76416184Y-40796300D01*
X76698512Y-40810217D01*
X76978130Y-40768787D01*
X77244292Y-40673603D01*
X77369514Y-40606671D01*
X77441097Y-40362702D01*
X76628000Y-39549605D01*
X75814903Y-40362702D01*
X72664694Y-40362702D01*
X72742637Y-40284759D01*
X72899680Y-40049727D01*
X73007853Y-39788574D01*
X73063000Y-39511335D01*
X73063000Y-39440512D01*
X75187783Y-39440512D01*
X75229213Y-39720130D01*
X75324397Y-39986292D01*
X75391329Y-40111514D01*
X75635298Y-40183097D01*
X76448395Y-39370000D01*
X75635298Y-38556903D01*
X75391329Y-38628486D01*
X75270429Y-38883996D01*
X75201700Y-39158184D01*
X75187783Y-39440512D01*
X73063000Y-39440512D01*
X73063000Y-39228665D01*
X73007853Y-38951426D01*
X72899680Y-38690273D01*
X72742637Y-38455241D01*
X72542759Y-38255363D01*
X72307727Y-38098320D01*
X72046574Y-37990147D01*
X71769335Y-37935000D01*
X71486665Y-37935000D01*
X71209426Y-37990147D01*
X70948273Y-38098320D01*
X70713241Y-38255363D01*
X70513363Y-38455241D01*
X70356320Y-38690273D01*
X70248147Y-38951426D01*
X70193000Y-39228665D01*
X64775891Y-39228665D01*
X64726980Y-39053344D01*
X64591240Y-38989515D01*
X64669727Y-38957005D01*
X64898535Y-38804120D01*
X65093120Y-38609535D01*
X65246005Y-38380727D01*
X65351314Y-38126490D01*
X65405000Y-37856592D01*
X65405000Y-37581408D01*
X65351314Y-37311510D01*
X65250075Y-37067100D01*
X75922108Y-37067100D01*
X76796577Y-37941569D01*
X76557488Y-37929783D01*
X76277870Y-37971213D01*
X76011708Y-38066397D01*
X75886486Y-38133329D01*
X75814903Y-38377298D01*
X76628000Y-39190395D01*
X76642143Y-39176253D01*
X76821748Y-39355858D01*
X76807605Y-39370000D01*
X77620702Y-40183097D01*
X77758501Y-40142665D01*
X77758500Y-44542907D01*
X68536477Y-53764931D01*
X68464556Y-53823955D01*
X68405531Y-53895877D01*
X68405528Y-53895880D01*
X68228998Y-54110983D01*
X68053962Y-54438452D01*
X67946175Y-54793776D01*
X67909781Y-55163300D01*
X67918901Y-55255899D01*
X67918900Y-65183007D01*
X65339330Y-67762578D01*
X65246005Y-67537273D01*
X65093120Y-67308465D01*
X64898535Y-67113880D01*
X64669727Y-66960995D01*
X64592485Y-66929000D01*
X64669727Y-66897005D01*
X64898535Y-66744120D01*
X65093120Y-66549535D01*
X65246005Y-66320727D01*
X65351314Y-66066490D01*
X65405000Y-65796592D01*
X65405000Y-65521408D01*
X65351314Y-65251510D01*
X65246005Y-64997273D01*
X65093120Y-64768465D01*
X64898535Y-64573880D01*
X64669727Y-64420995D01*
X64592485Y-64389000D01*
X64669727Y-64357005D01*
X64898535Y-64204120D01*
X65093120Y-64009535D01*
X65246005Y-63780727D01*
X65351314Y-63526490D01*
X65405000Y-63256592D01*
X65405000Y-62981408D01*
X65351314Y-62711510D01*
X65246005Y-62457273D01*
X65093120Y-62228465D01*
X64898535Y-62033880D01*
X64669727Y-61880995D01*
X64592485Y-61849000D01*
X64669727Y-61817005D01*
X64898535Y-61664120D01*
X65093120Y-61469535D01*
X65246005Y-61240727D01*
X65351314Y-60986490D01*
X65405000Y-60716592D01*
X65405000Y-60441408D01*
X65351314Y-60171510D01*
X65246005Y-59917273D01*
X65093120Y-59688465D01*
X64898535Y-59493880D01*
X64669727Y-59340995D01*
X64592485Y-59309000D01*
X64669727Y-59277005D01*
X64898535Y-59124120D01*
X65093120Y-58929535D01*
X65246005Y-58700727D01*
X65351314Y-58446490D01*
X65405000Y-58176592D01*
X65405000Y-57901408D01*
X65351314Y-57631510D01*
X65246005Y-57377273D01*
X65093120Y-57148465D01*
X64898535Y-56953880D01*
X64669727Y-56800995D01*
X64592485Y-56769000D01*
X64669727Y-56737005D01*
X64898535Y-56584120D01*
X65093120Y-56389535D01*
X65246005Y-56160727D01*
X65351314Y-55906490D01*
X65405000Y-55636592D01*
X65405000Y-55361408D01*
X65351314Y-55091510D01*
X65246005Y-54837273D01*
X65093120Y-54608465D01*
X64898535Y-54413880D01*
X64669727Y-54260995D01*
X64592485Y-54229000D01*
X64669727Y-54197005D01*
X64898535Y-54044120D01*
X65093120Y-53849535D01*
X65246005Y-53620727D01*
X65351314Y-53366490D01*
X65405000Y-53096592D01*
X65405000Y-52821408D01*
X65351314Y-52551510D01*
X65246005Y-52297273D01*
X65093120Y-52068465D01*
X64898535Y-51873880D01*
X64669727Y-51720995D01*
X64592485Y-51689000D01*
X64669727Y-51657005D01*
X64898535Y-51504120D01*
X65093120Y-51309535D01*
X65246005Y-51080727D01*
X65351314Y-50826490D01*
X65405000Y-50556592D01*
X65405000Y-50281408D01*
X65351314Y-50011510D01*
X65246005Y-49757273D01*
X65093120Y-49528465D01*
X64898535Y-49333880D01*
X64669727Y-49180995D01*
X64592485Y-49149000D01*
X64669727Y-49117005D01*
X64898535Y-48964120D01*
X65093120Y-48769535D01*
X65246005Y-48540727D01*
X65351314Y-48286490D01*
X65405000Y-48016592D01*
X65405000Y-47741408D01*
X65351314Y-47471510D01*
X65246005Y-47217273D01*
X65093120Y-46988465D01*
X64898535Y-46793880D01*
X64669727Y-46640995D01*
X64592485Y-46609000D01*
X64669727Y-46577005D01*
X64898535Y-46424120D01*
X65093120Y-46229535D01*
X65246005Y-46000727D01*
X65351314Y-45746490D01*
X65405000Y-45476592D01*
X65405000Y-45201408D01*
X65351314Y-44931510D01*
X65246005Y-44677273D01*
X65093120Y-44448465D01*
X64898535Y-44253880D01*
X64669727Y-44100995D01*
X64592485Y-44069000D01*
X64669727Y-44037005D01*
X64898535Y-43884120D01*
X65093120Y-43689535D01*
X65246005Y-43460727D01*
X65351314Y-43206490D01*
X65405000Y-42936592D01*
X65405000Y-42661408D01*
X65351314Y-42391510D01*
X65246005Y-42137273D01*
X65093120Y-41908465D01*
X64898535Y-41713880D01*
X64669727Y-41560995D01*
X64598057Y-41531308D01*
X64611023Y-41526636D01*
X64726980Y-41464656D01*
X64793960Y-41224565D01*
X64008000Y-40438605D01*
X63222040Y-41224565D01*
X63289020Y-41464656D01*
X63424760Y-41528485D01*
X63346273Y-41560995D01*
X63117465Y-41713880D01*
X62922880Y-41908465D01*
X62769995Y-42137273D01*
X62664686Y-42391510D01*
X62611000Y-42661408D01*
X62611000Y-42936592D01*
X62664686Y-43206490D01*
X62769995Y-43460727D01*
X62922880Y-43689535D01*
X63117465Y-43884120D01*
X63346273Y-44037005D01*
X63423515Y-44069000D01*
X63346273Y-44100995D01*
X63117465Y-44253880D01*
X62922880Y-44448465D01*
X62769995Y-44677273D01*
X62664686Y-44931510D01*
X62611000Y-45201408D01*
X62611000Y-45476592D01*
X62664686Y-45746490D01*
X62769995Y-46000727D01*
X62922880Y-46229535D01*
X63117465Y-46424120D01*
X63346273Y-46577005D01*
X63423515Y-46609000D01*
X63346273Y-46640995D01*
X63117465Y-46793880D01*
X62922880Y-46988465D01*
X62769995Y-47217273D01*
X62664686Y-47471510D01*
X62611000Y-47741408D01*
X62611000Y-48016592D01*
X62664686Y-48286490D01*
X62769995Y-48540727D01*
X62922880Y-48769535D01*
X63117465Y-48964120D01*
X63346273Y-49117005D01*
X63423515Y-49149000D01*
X63346273Y-49180995D01*
X63117465Y-49333880D01*
X62922880Y-49528465D01*
X62769995Y-49757273D01*
X62664686Y-50011510D01*
X62611000Y-50281408D01*
X62611000Y-50556592D01*
X62664686Y-50826490D01*
X62769995Y-51080727D01*
X62922880Y-51309535D01*
X63117465Y-51504120D01*
X63346273Y-51657005D01*
X63423515Y-51689000D01*
X63346273Y-51720995D01*
X63117465Y-51873880D01*
X62922880Y-52068465D01*
X62769995Y-52297273D01*
X62664686Y-52551510D01*
X62611000Y-52821408D01*
X62611000Y-53096592D01*
X62664686Y-53366490D01*
X62769995Y-53620727D01*
X62922880Y-53849535D01*
X63117465Y-54044120D01*
X63346273Y-54197005D01*
X63423515Y-54229000D01*
X63346273Y-54260995D01*
X63117465Y-54413880D01*
X62922880Y-54608465D01*
X62769995Y-54837273D01*
X62664686Y-55091510D01*
X62611000Y-55361408D01*
X62611000Y-55636592D01*
X62664686Y-55906490D01*
X62769995Y-56160727D01*
X62922880Y-56389535D01*
X63117465Y-56584120D01*
X63346273Y-56737005D01*
X63423515Y-56769000D01*
X63346273Y-56800995D01*
X63117465Y-56953880D01*
X62922880Y-57148465D01*
X62769995Y-57377273D01*
X62664686Y-57631510D01*
X62611000Y-57901408D01*
X62611000Y-58176592D01*
X62664686Y-58446490D01*
X62769995Y-58700727D01*
X62922880Y-58929535D01*
X63117465Y-59124120D01*
X63346273Y-59277005D01*
X63423515Y-59309000D01*
X63346273Y-59340995D01*
X63117465Y-59493880D01*
X62922880Y-59688465D01*
X62769995Y-59917273D01*
X62664686Y-60171510D01*
X62611000Y-60441408D01*
X62611000Y-60716592D01*
X62664686Y-60986490D01*
X62769995Y-61240727D01*
X62922880Y-61469535D01*
X63117465Y-61664120D01*
X63346273Y-61817005D01*
X63423515Y-61849000D01*
X63346273Y-61880995D01*
X63117465Y-62033880D01*
X62922880Y-62228465D01*
X62769995Y-62457273D01*
X62664686Y-62711510D01*
X62611000Y-62981408D01*
X62611000Y-63256592D01*
X62664686Y-63526490D01*
X62769995Y-63780727D01*
X62922880Y-64009535D01*
X63117465Y-64204120D01*
X63346273Y-64357005D01*
X63423515Y-64389000D01*
X63346273Y-64420995D01*
X63117465Y-64573880D01*
X62922880Y-64768465D01*
X62769995Y-64997273D01*
X62664686Y-65251510D01*
X62611000Y-65521408D01*
X62611000Y-65796592D01*
X62664686Y-66066490D01*
X62769995Y-66320727D01*
X62922880Y-66549535D01*
X63117465Y-66744120D01*
X63346273Y-66897005D01*
X63423515Y-66929000D01*
X63346273Y-66960995D01*
X63117465Y-67113880D01*
X62922880Y-67308465D01*
X62769995Y-67537273D01*
X62664686Y-67791510D01*
X62611000Y-68061408D01*
X62611000Y-68336592D01*
X62664686Y-68606490D01*
X62769995Y-68860727D01*
X62922880Y-69089535D01*
X62982896Y-69149551D01*
X62955683Y-69164097D01*
X62668655Y-69399655D01*
X62433097Y-69686683D01*
X62258061Y-70014152D01*
X62150275Y-70369476D01*
X62113880Y-70739000D01*
X62150275Y-71108524D01*
X62258061Y-71463848D01*
X62433097Y-71791317D01*
X62668655Y-72078345D01*
X62955683Y-72313903D01*
X62982896Y-72328449D01*
X62922880Y-72388465D01*
X62769995Y-72617273D01*
X62664686Y-72871510D01*
X62635515Y-73018160D01*
X50165000Y-60547645D01*
X50165000Y-60441408D01*
X50111314Y-60171510D01*
X50006005Y-59917273D01*
X49853120Y-59688465D01*
X49658535Y-59493880D01*
X49429727Y-59340995D01*
X49352485Y-59309000D01*
X49429727Y-59277005D01*
X49658535Y-59124120D01*
X49853120Y-58929535D01*
X50006005Y-58700727D01*
X50111314Y-58446490D01*
X50165000Y-58176592D01*
X50165000Y-57901408D01*
X50111314Y-57631510D01*
X50006005Y-57377273D01*
X49853120Y-57148465D01*
X49658535Y-56953880D01*
X49429727Y-56800995D01*
X49352485Y-56769000D01*
X49429727Y-56737005D01*
X49658535Y-56584120D01*
X49853120Y-56389535D01*
X50006005Y-56160727D01*
X50111314Y-55906490D01*
X50165000Y-55636592D01*
X50165000Y-55361408D01*
X50111314Y-55091510D01*
X50006005Y-54837273D01*
X49853120Y-54608465D01*
X49658535Y-54413880D01*
X49429727Y-54260995D01*
X49352485Y-54229000D01*
X49429727Y-54197005D01*
X49658535Y-54044120D01*
X49853120Y-53849535D01*
X50006005Y-53620727D01*
X50111314Y-53366490D01*
X50165000Y-53096592D01*
X50165000Y-52821408D01*
X50111314Y-52551510D01*
X50006005Y-52297273D01*
X49853120Y-52068465D01*
X49658535Y-51873880D01*
X49429727Y-51720995D01*
X49352485Y-51689000D01*
X49429727Y-51657005D01*
X49658535Y-51504120D01*
X49853120Y-51309535D01*
X50006005Y-51080727D01*
X50111314Y-50826490D01*
X50165000Y-50556592D01*
X50165000Y-50281408D01*
X50111314Y-50011510D01*
X50006005Y-49757273D01*
X49853120Y-49528465D01*
X49658535Y-49333880D01*
X49429727Y-49180995D01*
X49352485Y-49149000D01*
X49429727Y-49117005D01*
X49658535Y-48964120D01*
X49853120Y-48769535D01*
X50006005Y-48540727D01*
X50111314Y-48286490D01*
X50165000Y-48016592D01*
X50165000Y-47741408D01*
X50111314Y-47471510D01*
X50006005Y-47217273D01*
X49853120Y-46988465D01*
X49658535Y-46793880D01*
X49429727Y-46640995D01*
X49358057Y-46611308D01*
X49371023Y-46606636D01*
X49486980Y-46544656D01*
X49553960Y-46304565D01*
X48768000Y-45518605D01*
X47982040Y-46304565D01*
X48049020Y-46544656D01*
X48184760Y-46608485D01*
X48106273Y-46640995D01*
X47877465Y-46793880D01*
X47682880Y-46988465D01*
X47529995Y-47217273D01*
X47424686Y-47471510D01*
X47371000Y-47741408D01*
X47371000Y-48016592D01*
X47424686Y-48286490D01*
X47529995Y-48540727D01*
X47682880Y-48769535D01*
X47877465Y-48964120D01*
X48106273Y-49117005D01*
X48183515Y-49149000D01*
X48106273Y-49180995D01*
X47877465Y-49333880D01*
X47682880Y-49528465D01*
X47529995Y-49757273D01*
X47424686Y-50011510D01*
X47371000Y-50281408D01*
X47371000Y-50556592D01*
X47424686Y-50826490D01*
X47529995Y-51080727D01*
X47682880Y-51309535D01*
X47877465Y-51504120D01*
X48106273Y-51657005D01*
X48183515Y-51689000D01*
X48106273Y-51720995D01*
X47877465Y-51873880D01*
X47682880Y-52068465D01*
X47529995Y-52297273D01*
X47424686Y-52551510D01*
X47371000Y-52821408D01*
X47371000Y-53096592D01*
X47424686Y-53366490D01*
X47529995Y-53620727D01*
X47682880Y-53849535D01*
X47877465Y-54044120D01*
X48106273Y-54197005D01*
X48183515Y-54229000D01*
X48106273Y-54260995D01*
X47877465Y-54413880D01*
X47682880Y-54608465D01*
X47529995Y-54837273D01*
X47424686Y-55091510D01*
X47371000Y-55361408D01*
X47371000Y-55636592D01*
X47424686Y-55906490D01*
X47529995Y-56160727D01*
X47682880Y-56389535D01*
X47877465Y-56584120D01*
X48106273Y-56737005D01*
X48183515Y-56769000D01*
X48106273Y-56800995D01*
X47877465Y-56953880D01*
X47682880Y-57148465D01*
X47529995Y-57377273D01*
X47424686Y-57631510D01*
X47371000Y-57901408D01*
X47371000Y-58176592D01*
X47424686Y-58446490D01*
X47529995Y-58700727D01*
X47682880Y-58929535D01*
X47877465Y-59124120D01*
X48106273Y-59277005D01*
X48183515Y-59309000D01*
X48106273Y-59340995D01*
X47877465Y-59493880D01*
X47682880Y-59688465D01*
X47529995Y-59917273D01*
X47424686Y-60171510D01*
X47371000Y-60441408D01*
X47371000Y-60716592D01*
X47424686Y-60986490D01*
X47529995Y-61240727D01*
X47682880Y-61469535D01*
X47877465Y-61664120D01*
X48106273Y-61817005D01*
X48183515Y-61849000D01*
X48106273Y-61880995D01*
X47877465Y-62033880D01*
X47802345Y-62109000D01*
X37665908Y-62109000D01*
X37616300Y-62104114D01*
X37418305Y-62123615D01*
X37227920Y-62181368D01*
X37052460Y-62275153D01*
X36898667Y-62401367D01*
X36867044Y-62439900D01*
X33486234Y-65820711D01*
X33461537Y-65774506D01*
X33382185Y-65677815D01*
X33285494Y-65598463D01*
X33175180Y-65539498D01*
X33055482Y-65503188D01*
X32931000Y-65490928D01*
X31331000Y-65490928D01*
X31206518Y-65503188D01*
X31086820Y-65539498D01*
X30976506Y-65598463D01*
X30879815Y-65677815D01*
X30800463Y-65774506D01*
X30741498Y-65884820D01*
X30705188Y-66004518D01*
X30692928Y-66129000D01*
X30692928Y-67729000D01*
X30705188Y-67853482D01*
X30741498Y-67973180D01*
X30800463Y-68083494D01*
X30879815Y-68180185D01*
X30976506Y-68259537D01*
X31086820Y-68318502D01*
X31206518Y-68354812D01*
X31224482Y-68356581D01*
X31111392Y-68449392D01*
X30932068Y-68667899D01*
X30798818Y-68917192D01*
X30716764Y-69187691D01*
X30689057Y-69469000D01*
X30716764Y-69750309D01*
X30798818Y-70020808D01*
X30932068Y-70270101D01*
X31111392Y-70488608D01*
X31329899Y-70667932D01*
X31462858Y-70739000D01*
X31329899Y-70810068D01*
X31111392Y-70989392D01*
X30932068Y-71207899D01*
X30798818Y-71457192D01*
X30716764Y-71727691D01*
X30689057Y-72009000D01*
X30716764Y-72290309D01*
X30798818Y-72560808D01*
X30932068Y-72810101D01*
X31111392Y-73028608D01*
X31329899Y-73207932D01*
X31462858Y-73279000D01*
X31329899Y-73350068D01*
X31111392Y-73529392D01*
X31103507Y-73539000D01*
X29511355Y-73539000D01*
X19088000Y-63115645D01*
X19088000Y-62967665D01*
X23832000Y-62967665D01*
X23832000Y-63250335D01*
X23887147Y-63527574D01*
X23995320Y-63788727D01*
X24152363Y-64023759D01*
X24352241Y-64223637D01*
X24587273Y-64380680D01*
X24848426Y-64488853D01*
X25125665Y-64544000D01*
X25408335Y-64544000D01*
X25685574Y-64488853D01*
X25946727Y-64380680D01*
X26181759Y-64223637D01*
X26381637Y-64023759D01*
X26538680Y-63788727D01*
X26646853Y-63527574D01*
X26702000Y-63250335D01*
X26702000Y-62967665D01*
X26646853Y-62690426D01*
X26538680Y-62429273D01*
X26381637Y-62194241D01*
X26181759Y-61994363D01*
X25946727Y-61837320D01*
X25685574Y-61729147D01*
X25408335Y-61674000D01*
X25125665Y-61674000D01*
X24848426Y-61729147D01*
X24587273Y-61837320D01*
X24352241Y-61994363D01*
X24152363Y-62194241D01*
X23995320Y-62429273D01*
X23887147Y-62690426D01*
X23832000Y-62967665D01*
X19088000Y-62967665D01*
X19032853Y-62690426D01*
X18924680Y-62429273D01*
X18767637Y-62194241D01*
X18567759Y-61994363D01*
X18332727Y-61837320D01*
X18071574Y-61729147D01*
X17794335Y-61674000D01*
X17511665Y-61674000D01*
X17234426Y-61729147D01*
X16973273Y-61837320D01*
X16738241Y-61994363D01*
X16538363Y-62194241D01*
X16381320Y-62429273D01*
X16273147Y-62690426D01*
X16218000Y-62967665D01*
X9001000Y-62967665D01*
X9001000Y-61929322D01*
X9008911Y-61849000D01*
X8977343Y-61528484D01*
X8883852Y-61220285D01*
X8732031Y-60936248D01*
X8527714Y-60687286D01*
X8278752Y-60482969D01*
X8277287Y-60482186D01*
X8421134Y-60364134D01*
X8606706Y-60138014D01*
X8744599Y-59880034D01*
X8829513Y-59600111D01*
X8858185Y-59309000D01*
X8829513Y-59017889D01*
X8744599Y-58737966D01*
X8606706Y-58479986D01*
X8434534Y-58270194D01*
X8705345Y-58047945D01*
X8940903Y-57760917D01*
X9115939Y-57433448D01*
X9223725Y-57078124D01*
X9260120Y-56708600D01*
X9223725Y-56339076D01*
X9115939Y-55983752D01*
X8940903Y-55656283D01*
X8705345Y-55369255D01*
X8418317Y-55133697D01*
X8090848Y-54958661D01*
X7735524Y-54850875D01*
X7458597Y-54823600D01*
X4793803Y-54823600D01*
X4516876Y-54850875D01*
X4161552Y-54958661D01*
X3834083Y-55133697D01*
X3547055Y-55369255D01*
X3311497Y-55656283D01*
X3136461Y-55983752D01*
X3028675Y-56339076D01*
X2992280Y-56708600D01*
X660000Y-56708600D01*
X660000Y-14393682D01*
X6090000Y-14393682D01*
X6090000Y-15070318D01*
X6222006Y-15733952D01*
X6480943Y-16359082D01*
X6856862Y-16921685D01*
X7335315Y-17400138D01*
X7897918Y-17776057D01*
X8523048Y-18034994D01*
X9186682Y-18167000D01*
X9863318Y-18167000D01*
X10526952Y-18034994D01*
X11152082Y-17776057D01*
X11714685Y-17400138D01*
X12193138Y-16921685D01*
X12569057Y-16359082D01*
X12827994Y-15733952D01*
X12960000Y-15070318D01*
X12960000Y-14393682D01*
X12827994Y-13730048D01*
X12569057Y-13104918D01*
X12193138Y-12542315D01*
X11714685Y-12063862D01*
X11152082Y-11687943D01*
X10526952Y-11429006D01*
X9863318Y-11297000D01*
X9186682Y-11297000D01*
X8523048Y-11429006D01*
X7897918Y-11687943D01*
X7335315Y-12063862D01*
X6856862Y-12542315D01*
X6480943Y-13104918D01*
X6222006Y-13730048D01*
X6090000Y-14393682D01*
X660000Y-14393682D01*
X660000Y-4470000D01*
X99340001Y-4470000D01*
X99340001Y-24845435D01*
X99340001Y-24845435D01*
G37*
X99340001Y-24845435D02*
X99317203Y-24802783D01*
X99081645Y-24515755D01*
X99009718Y-24456726D01*
X97228174Y-22675182D01*
X97169145Y-22603255D01*
X96882117Y-22367697D01*
X96554648Y-22192661D01*
X96199324Y-22084875D01*
X95922397Y-22057600D01*
X95922389Y-22057600D01*
X95829800Y-22048481D01*
X95737211Y-22057600D01*
X94709803Y-22057600D01*
X94432876Y-22084875D01*
X94077552Y-22192661D01*
X93750083Y-22367697D01*
X93472000Y-22595914D01*
X93193917Y-22367697D01*
X92866448Y-22192661D01*
X92511124Y-22084875D01*
X92234197Y-22057600D01*
X86897486Y-22057600D01*
X86804899Y-22048481D01*
X86712312Y-22057600D01*
X86712303Y-22057600D01*
X86435376Y-22084875D01*
X86080052Y-22192661D01*
X85752583Y-22367697D01*
X85736242Y-22381108D01*
X85537479Y-22544228D01*
X85537477Y-22544230D01*
X85465555Y-22603255D01*
X85406530Y-22675177D01*
X83467308Y-24614400D01*
X82362572Y-24614400D01*
X82362572Y-22749000D01*
X82350312Y-22624518D01*
X82314002Y-22504820D01*
X82255037Y-22394506D01*
X82175685Y-22297815D01*
X82078994Y-22218463D01*
X81968680Y-22159498D01*
X81848982Y-22123188D01*
X81724500Y-22110928D01*
X79819500Y-22110928D01*
X79695018Y-22123188D01*
X79575320Y-22159498D01*
X79465006Y-22218463D01*
X79368315Y-22297815D01*
X79288963Y-22394506D01*
X79239941Y-22486219D01*
X79098923Y-22373031D01*
X78823094Y-22229429D01*
X78604980Y-22158437D01*
X78359000Y-22278406D01*
X78359000Y-23622000D01*
X78379000Y-23622000D01*
X78379000Y-23876000D01*
X78359000Y-23876000D01*
X78359000Y-23896000D01*
X78105000Y-23896000D01*
X78105000Y-23876000D01*
X78085000Y-23876000D01*
X78085000Y-23622000D01*
X78105000Y-23622000D01*
X78105000Y-22278406D01*
X77859020Y-22158437D01*
X77640906Y-22229429D01*
X77365077Y-22373031D01*
X77122563Y-22567685D01*
X76967162Y-22752900D01*
X76819963Y-22573537D01*
X76578235Y-22375155D01*
X76302449Y-22227745D01*
X76003204Y-22136970D01*
X75692000Y-22106319D01*
X75380797Y-22136970D01*
X75081552Y-22227745D01*
X74805766Y-22375155D01*
X74564037Y-22573537D01*
X74365655Y-22815265D01*
X74218245Y-23091051D01*
X74127470Y-23390296D01*
X74104500Y-23623514D01*
X74104500Y-23874485D01*
X74127470Y-24107703D01*
X74218245Y-24406948D01*
X74329130Y-24614400D01*
X46907692Y-24614400D01*
X37109974Y-14816682D01*
X37050945Y-14744755D01*
X36918427Y-14636000D01*
X38286424Y-14636000D01*
X38592731Y-14605831D01*
X38985755Y-14486609D01*
X39347969Y-14293002D01*
X39665451Y-14032451D01*
X39926002Y-13714969D01*
X40105889Y-13378423D01*
X40999000Y-13378423D01*
X41029169Y-13684730D01*
X41148391Y-14077754D01*
X41341998Y-14439969D01*
X41602549Y-14757451D01*
X41920031Y-15018002D01*
X42282245Y-15211609D01*
X42675269Y-15330831D01*
X43084000Y-15371088D01*
X43492730Y-15330831D01*
X43885754Y-15211609D01*
X44247969Y-15018002D01*
X44565451Y-14757451D01*
X44826002Y-14439969D01*
X45019609Y-14077755D01*
X45138831Y-13684731D01*
X45169000Y-13378424D01*
X45169000Y-8973577D01*
X56685000Y-8973577D01*
X56685001Y-13378424D01*
X56715170Y-13684731D01*
X56834392Y-14077755D01*
X57027999Y-14439969D01*
X57288550Y-14757451D01*
X57606032Y-15018002D01*
X57968246Y-15211609D01*
X58361270Y-15330831D01*
X58770000Y-15371088D01*
X59178731Y-15330831D01*
X59571755Y-15211609D01*
X59933969Y-15018002D01*
X60251451Y-14757451D01*
X60512002Y-14439969D01*
X60705609Y-14077755D01*
X60824831Y-13684731D01*
X60855000Y-13378424D01*
X60855000Y-12801997D01*
X71624360Y-12801997D01*
X71685110Y-13031562D01*
X71855828Y-13403767D01*
X72095879Y-13735515D01*
X72396039Y-14014057D01*
X72744772Y-14228688D01*
X73128677Y-14371161D01*
X73533000Y-14436000D01*
X75333000Y-14436000D01*
X75333000Y-12478000D01*
X71737941Y-12478000D01*
X71624360Y-12801997D01*
X60855000Y-12801997D01*
X60855000Y-11900003D01*
X71624360Y-11900003D01*
X71737941Y-12224000D01*
X75333000Y-12224000D01*
X75333000Y-12204000D01*
X75587000Y-12204000D01*
X75587000Y-12224000D01*
X75607000Y-12224000D01*
X75607000Y-12478000D01*
X75587000Y-12478000D01*
X75587000Y-14436000D01*
X77387000Y-14436000D01*
X77791323Y-14371161D01*
X78175228Y-14228688D01*
X78523961Y-14014057D01*
X78824121Y-13735515D01*
X79064172Y-13403767D01*
X79234890Y-13031562D01*
X79275000Y-12879992D01*
X79275000Y-13078423D01*
X79305169Y-13384730D01*
X79424391Y-13777754D01*
X79617998Y-14139969D01*
X79878549Y-14457451D01*
X80196031Y-14718002D01*
X80558245Y-14911609D01*
X80951269Y-15030831D01*
X81360000Y-15071088D01*
X81768730Y-15030831D01*
X82161754Y-14911609D01*
X82523969Y-14718002D01*
X82841451Y-14457451D01*
X82893784Y-14393682D01*
X88005000Y-14393682D01*
X88005000Y-15070318D01*
X88137006Y-15733952D01*
X88395943Y-16359082D01*
X88771862Y-16921685D01*
X89250315Y-17400138D01*
X89812918Y-17776057D01*
X90438048Y-18034994D01*
X91101682Y-18167000D01*
X91778318Y-18167000D01*
X92441952Y-18034994D01*
X93067082Y-17776057D01*
X93629685Y-17400138D01*
X94108138Y-16921685D01*
X94484057Y-16359082D01*
X94742994Y-15733952D01*
X94875000Y-15070318D01*
X94875000Y-14393682D01*
X94742994Y-13730048D01*
X94484057Y-13104918D01*
X94108138Y-12542315D01*
X93629685Y-12063862D01*
X93067082Y-11687943D01*
X92441952Y-11429006D01*
X91778318Y-11297000D01*
X91101682Y-11297000D01*
X90438048Y-11429006D01*
X89812918Y-11687943D01*
X89250315Y-12063862D01*
X88771862Y-12542315D01*
X88395943Y-13104918D01*
X88137006Y-13730048D01*
X88005000Y-14393682D01*
X82893784Y-14393682D01*
X83102002Y-14139969D01*
X83295609Y-13777755D01*
X83414831Y-13384731D01*
X83445000Y-13078424D01*
X83445000Y-9273576D01*
X83414831Y-8967269D01*
X83295609Y-8574245D01*
X83102002Y-8212031D01*
X82841451Y-7894549D01*
X82523969Y-7633998D01*
X82161755Y-7440391D01*
X81768731Y-7321169D01*
X81360000Y-7280912D01*
X80951270Y-7321169D01*
X80558246Y-7440391D01*
X80196032Y-7633998D01*
X79878550Y-7894549D01*
X79617999Y-8212031D01*
X79424392Y-8574245D01*
X79305170Y-8967269D01*
X79275001Y-9273576D01*
X79275000Y-11822009D01*
X79234890Y-11670438D01*
X79064172Y-11298233D01*
X78824121Y-10966485D01*
X78523961Y-10687943D01*
X78175228Y-10473312D01*
X77791323Y-10330839D01*
X77387000Y-10266000D01*
X73533000Y-10266000D01*
X73128677Y-10330839D01*
X72744772Y-10473312D01*
X72396039Y-10687943D01*
X72095879Y-10966485D01*
X71855828Y-11298233D01*
X71685110Y-11670438D01*
X71624360Y-11900003D01*
X60855000Y-11900003D01*
X60855000Y-10251997D01*
X61634360Y-10251997D01*
X61695110Y-10481562D01*
X61865828Y-10853767D01*
X62105879Y-11185515D01*
X62406039Y-11464057D01*
X62754772Y-11678688D01*
X63138677Y-11821161D01*
X63543000Y-11886000D01*
X65643000Y-11886000D01*
X65643000Y-9928000D01*
X65897000Y-9928000D01*
X65897000Y-11886000D01*
X67997000Y-11886000D01*
X68401323Y-11821161D01*
X68785228Y-11678688D01*
X69133961Y-11464057D01*
X69434121Y-11185515D01*
X69674172Y-10853767D01*
X69844890Y-10481562D01*
X69905640Y-10251997D01*
X69792059Y-9928000D01*
X65897000Y-9928000D01*
X65643000Y-9928000D01*
X61747941Y-9928000D01*
X61634360Y-10251997D01*
X60855000Y-10251997D01*
X60855000Y-9350003D01*
X61634360Y-9350003D01*
X61747941Y-9674000D01*
X65643000Y-9674000D01*
X65643000Y-9654000D01*
X65897000Y-9654000D01*
X65897000Y-9674000D01*
X69792059Y-9674000D01*
X69905640Y-9350003D01*
X69844890Y-9120438D01*
X69674172Y-8748233D01*
X69434121Y-8416485D01*
X69133961Y-8137943D01*
X68785228Y-7923312D01*
X68401323Y-7780839D01*
X67997000Y-7716000D01*
X63543000Y-7716000D01*
X63138677Y-7780839D01*
X62754772Y-7923312D01*
X62406039Y-8137943D01*
X62105879Y-8416485D01*
X61865828Y-8748233D01*
X61695110Y-9120438D01*
X61634360Y-9350003D01*
X60855000Y-9350003D01*
X60855000Y-8973576D01*
X60824831Y-8667269D01*
X60705609Y-8274245D01*
X60512002Y-7912031D01*
X60251451Y-7594549D01*
X59933969Y-7333998D01*
X59571754Y-7140391D01*
X59178730Y-7021169D01*
X58770000Y-6980912D01*
X58361269Y-7021169D01*
X57968245Y-7140391D01*
X57606031Y-7333998D01*
X57288549Y-7594549D01*
X57027998Y-7912031D01*
X56834391Y-8274246D01*
X56715169Y-8667270D01*
X56685000Y-8973577D01*
X45169000Y-8973577D01*
X45169000Y-8973576D01*
X45138831Y-8667269D01*
X45019609Y-8274245D01*
X44826002Y-7912031D01*
X44565451Y-7594549D01*
X44247969Y-7333998D01*
X43885755Y-7140391D01*
X43492731Y-7021169D01*
X43084000Y-6980912D01*
X42675270Y-7021169D01*
X42282246Y-7140391D01*
X41920032Y-7333998D01*
X41602550Y-7594549D01*
X41341999Y-7912031D01*
X41148392Y-8274245D01*
X41029170Y-8667269D01*
X40999001Y-8973576D01*
X40999000Y-13378423D01*
X40105889Y-13378423D01*
X40119609Y-13352755D01*
X40238831Y-12959731D01*
X40279088Y-12551000D01*
X40238831Y-12142269D01*
X40119609Y-11749245D01*
X39926002Y-11387031D01*
X39665451Y-11069549D01*
X39347969Y-10808998D01*
X38985755Y-10615391D01*
X38592731Y-10496169D01*
X38286424Y-10466000D01*
X33881576Y-10466000D01*
X33575269Y-10496169D01*
X33182245Y-10615391D01*
X33087562Y-10666000D01*
X29790093Y-10666000D01*
X29867831Y-10409731D01*
X29908088Y-10001000D01*
X29867831Y-9592269D01*
X29748609Y-9199245D01*
X29555002Y-8837031D01*
X29294451Y-8519549D01*
X28976969Y-8258998D01*
X28614755Y-8065391D01*
X28221731Y-7946169D01*
X27915424Y-7916000D01*
X24110576Y-7916000D01*
X23804269Y-7946169D01*
X23411245Y-8065391D01*
X23049031Y-8258998D01*
X22731549Y-8519549D01*
X22470998Y-8837031D01*
X22277391Y-9199245D01*
X22198000Y-9460963D01*
X22198000Y-9273576D01*
X22167831Y-8967269D01*
X22048609Y-8574245D01*
X21855002Y-8212031D01*
X21594451Y-7894549D01*
X21276969Y-7633998D01*
X20914754Y-7440391D01*
X20521730Y-7321169D01*
X20113000Y-7280912D01*
X19704269Y-7321169D01*
X19311245Y-7440391D01*
X18949031Y-7633998D01*
X18631549Y-7894549D01*
X18370998Y-8212031D01*
X18177391Y-8574246D01*
X18058169Y-8967270D01*
X18028000Y-9273577D01*
X18028000Y-9291000D01*
X17005297Y-9291000D01*
X16912700Y-9281880D01*
X16820103Y-9291000D01*
X16543176Y-9318275D01*
X16187852Y-9426061D01*
X15860383Y-9601097D01*
X15573355Y-9836655D01*
X15337797Y-10123683D01*
X15162761Y-10451152D01*
X15054975Y-10806476D01*
X15018580Y-11176000D01*
X15027700Y-11268597D01*
X15027701Y-15303307D01*
X9543808Y-20787200D01*
X7842203Y-20787200D01*
X7565276Y-20814475D01*
X7209952Y-20922261D01*
X6882483Y-21097297D01*
X6640850Y-21295600D01*
X4733403Y-21295600D01*
X4456476Y-21322875D01*
X4101152Y-21430661D01*
X3773683Y-21605697D01*
X3486655Y-21841255D01*
X3251097Y-22128283D01*
X3076061Y-22455752D01*
X2968275Y-22811076D01*
X2931880Y-23180600D01*
X2968275Y-23550124D01*
X3076061Y-23905448D01*
X3251097Y-24232917D01*
X3486655Y-24519945D01*
X3757466Y-24742194D01*
X3585294Y-24951986D01*
X3447401Y-25209966D01*
X3362487Y-25489889D01*
X3333815Y-25781000D01*
X3362487Y-26072111D01*
X3447401Y-26352034D01*
X3585294Y-26610014D01*
X3770866Y-26836134D01*
X3914713Y-26954186D01*
X3913248Y-26954969D01*
X3664286Y-27159286D01*
X3459969Y-27408248D01*
X3308148Y-27692285D01*
X3214657Y-28000484D01*
X3183089Y-28321000D01*
X3191001Y-28401332D01*
X3191000Y-35711068D01*
X3183089Y-35791390D01*
X3214657Y-36111906D01*
X3308148Y-36420105D01*
X3459969Y-36704142D01*
X3658791Y-36946408D01*
X3664286Y-36953104D01*
X3887384Y-37136195D01*
X3664286Y-37319286D01*
X3459969Y-37568248D01*
X3308148Y-37852285D01*
X3214657Y-38160484D01*
X3183089Y-38481000D01*
X3191001Y-38561332D01*
X3191000Y-46020678D01*
X3183089Y-46101000D01*
X3214657Y-46421516D01*
X3308148Y-46729715D01*
X3459969Y-47013752D01*
X3599290Y-47183516D01*
X3664286Y-47262714D01*
X3913248Y-47467031D01*
X4197285Y-47618852D01*
X4505484Y-47712343D01*
X4826000Y-47743911D01*
X4906322Y-47736000D01*
X6015678Y-47736000D01*
X6096000Y-47743911D01*
X6176322Y-47736000D01*
X7285678Y-47736000D01*
X7366000Y-47743911D01*
X7686516Y-47712343D01*
X7994715Y-47618852D01*
X8278752Y-47467031D01*
X8527714Y-47262714D01*
X8732031Y-47013752D01*
X8883852Y-46729715D01*
X8977343Y-46421516D01*
X9001000Y-46181322D01*
X9001000Y-46181321D01*
X9008911Y-46101000D01*
X9001000Y-46020678D01*
X9001000Y-38561322D01*
X9008911Y-38481000D01*
X8977343Y-38160484D01*
X8883852Y-37852285D01*
X8732031Y-37568248D01*
X8527714Y-37319286D01*
X8304616Y-37136195D01*
X8527714Y-36953104D01*
X8732031Y-36704142D01*
X8883852Y-36420105D01*
X8977343Y-36111906D01*
X9001000Y-35871712D01*
X9001000Y-35871711D01*
X9008911Y-35791390D01*
X9001000Y-35711068D01*
X9001000Y-28401322D01*
X9008911Y-28321000D01*
X8977343Y-28000484D01*
X8883852Y-27692285D01*
X8732031Y-27408248D01*
X8527714Y-27159286D01*
X8278752Y-26954969D01*
X8277287Y-26954186D01*
X8421134Y-26836134D01*
X8606706Y-26610014D01*
X8744599Y-26352034D01*
X8829513Y-26072111D01*
X8858185Y-25781000D01*
X8829513Y-25489889D01*
X8744599Y-25209966D01*
X8606706Y-24951986D01*
X8421134Y-24725866D01*
X8407582Y-24714744D01*
X8442930Y-24685735D01*
X8460180Y-24680502D01*
X8570494Y-24621537D01*
X8648889Y-24557200D01*
X10232011Y-24557200D01*
X10324600Y-24566319D01*
X10417189Y-24557200D01*
X10417197Y-24557200D01*
X10694124Y-24529925D01*
X11049448Y-24422139D01*
X11376917Y-24247103D01*
X11377763Y-24246408D01*
X20193000Y-24246408D01*
X20193000Y-24521592D01*
X20246686Y-24791490D01*
X20351995Y-25045727D01*
X20504880Y-25274535D01*
X20699465Y-25469120D01*
X20928273Y-25622005D01*
X21005515Y-25654000D01*
X20928273Y-25685995D01*
X20699465Y-25838880D01*
X20504880Y-26033465D01*
X20351995Y-26262273D01*
X20246686Y-26516510D01*
X20193000Y-26786408D01*
X20193000Y-27061592D01*
X20246686Y-27331490D01*
X20351995Y-27585727D01*
X20504880Y-27814535D01*
X20699465Y-28009120D01*
X20928273Y-28162005D01*
X21005515Y-28194000D01*
X20928273Y-28225995D01*
X20699465Y-28378880D01*
X20504880Y-28573465D01*
X20351995Y-28802273D01*
X20246686Y-29056510D01*
X20193000Y-29326408D01*
X20193000Y-29601592D01*
X20246686Y-29871490D01*
X20351995Y-30125727D01*
X20504880Y-30354535D01*
X20699465Y-30549120D01*
X20928273Y-30702005D01*
X21005515Y-30734000D01*
X20928273Y-30765995D01*
X20699465Y-30918880D01*
X20504880Y-31113465D01*
X20351995Y-31342273D01*
X20246686Y-31596510D01*
X20193000Y-31866408D01*
X20193000Y-32141592D01*
X20246686Y-32411490D01*
X20351995Y-32665727D01*
X20504880Y-32894535D01*
X20699465Y-33089120D01*
X20928273Y-33242005D01*
X21005515Y-33274000D01*
X20928273Y-33305995D01*
X20699465Y-33458880D01*
X20504880Y-33653465D01*
X20351995Y-33882273D01*
X20246686Y-34136510D01*
X20193000Y-34406408D01*
X20193000Y-34681592D01*
X20246686Y-34951490D01*
X20351995Y-35205727D01*
X20504880Y-35434535D01*
X20699465Y-35629120D01*
X20928273Y-35782005D01*
X21005515Y-35814000D01*
X20928273Y-35845995D01*
X20699465Y-35998880D01*
X20504880Y-36193465D01*
X20351995Y-36422273D01*
X20246686Y-36676510D01*
X20193000Y-36946408D01*
X20193000Y-37221592D01*
X20246686Y-37491490D01*
X20351995Y-37745727D01*
X20504880Y-37974535D01*
X20699465Y-38169120D01*
X20928273Y-38322005D01*
X21005515Y-38354000D01*
X20928273Y-38385995D01*
X20699465Y-38538880D01*
X20504880Y-38733465D01*
X20351995Y-38962273D01*
X20246686Y-39216510D01*
X20193000Y-39486408D01*
X20193000Y-39761592D01*
X20246686Y-40031490D01*
X20351995Y-40285727D01*
X20504880Y-40514535D01*
X20699465Y-40709120D01*
X20928273Y-40862005D01*
X21005515Y-40894000D01*
X20928273Y-40925995D01*
X20699465Y-41078880D01*
X20504880Y-41273465D01*
X20351995Y-41502273D01*
X20246686Y-41756510D01*
X20193000Y-42026408D01*
X20193000Y-42301592D01*
X20246686Y-42571490D01*
X20351995Y-42825727D01*
X20504880Y-43054535D01*
X20699465Y-43249120D01*
X20928273Y-43402005D01*
X21005515Y-43434000D01*
X20928273Y-43465995D01*
X20699465Y-43618880D01*
X20504880Y-43813465D01*
X20351995Y-44042273D01*
X20246686Y-44296510D01*
X20193000Y-44566408D01*
X20193000Y-44841592D01*
X20246686Y-45111490D01*
X20351995Y-45365727D01*
X20504880Y-45594535D01*
X20699465Y-45789120D01*
X20928273Y-45942005D01*
X21005515Y-45974000D01*
X20928273Y-46005995D01*
X20699465Y-46158880D01*
X20504880Y-46353465D01*
X20351995Y-46582273D01*
X20246686Y-46836510D01*
X20193000Y-47106408D01*
X20193000Y-47381592D01*
X20246686Y-47651490D01*
X20351995Y-47905727D01*
X20504880Y-48134535D01*
X20699465Y-48329120D01*
X20928273Y-48482005D01*
X21005515Y-48514000D01*
X20928273Y-48545995D01*
X20699465Y-48698880D01*
X20504880Y-48893465D01*
X20351995Y-49122273D01*
X20246686Y-49376510D01*
X20193000Y-49646408D01*
X20193000Y-49921592D01*
X20246686Y-50191490D01*
X20351995Y-50445727D01*
X20504880Y-50674535D01*
X20699465Y-50869120D01*
X20928273Y-51022005D01*
X21182510Y-51127314D01*
X21452408Y-51181000D01*
X21727592Y-51181000D01*
X21997490Y-51127314D01*
X22251727Y-51022005D01*
X22480535Y-50869120D01*
X22600090Y-50749565D01*
X33504040Y-50749565D01*
X33571020Y-50989656D01*
X33820048Y-51106756D01*
X34087135Y-51173023D01*
X34362017Y-51185910D01*
X34634133Y-51144922D01*
X34893023Y-51051636D01*
X35008980Y-50989656D01*
X35075960Y-50749565D01*
X34290000Y-49963605D01*
X33504040Y-50749565D01*
X22600090Y-50749565D01*
X22675120Y-50674535D01*
X22828005Y-50445727D01*
X22933314Y-50191490D01*
X22987000Y-49921592D01*
X22987000Y-49856017D01*
X32888090Y-49856017D01*
X32929078Y-50128133D01*
X33022364Y-50387023D01*
X33084344Y-50502980D01*
X33324435Y-50569960D01*
X34110395Y-49784000D01*
X34469605Y-49784000D01*
X35255565Y-50569960D01*
X35495656Y-50502980D01*
X35612756Y-50253952D01*
X35679023Y-49986865D01*
X35691910Y-49711983D01*
X35650922Y-49439867D01*
X35557636Y-49180977D01*
X35495656Y-49065020D01*
X35255565Y-48998040D01*
X34469605Y-49784000D01*
X34110395Y-49784000D01*
X33324435Y-48998040D01*
X33084344Y-49065020D01*
X32967244Y-49314048D01*
X32900977Y-49581135D01*
X32888090Y-49856017D01*
X22987000Y-49856017D01*
X22987000Y-49646408D01*
X22933314Y-49376510D01*
X22828005Y-49122273D01*
X22675120Y-48893465D01*
X22480535Y-48698880D01*
X22251727Y-48545995D01*
X22174485Y-48514000D01*
X22251727Y-48482005D01*
X22480535Y-48329120D01*
X22675120Y-48134535D01*
X22828005Y-47905727D01*
X22933314Y-47651490D01*
X22987000Y-47381592D01*
X22987000Y-47106408D01*
X22933314Y-46836510D01*
X22828005Y-46582273D01*
X22675120Y-46353465D01*
X22480535Y-46158880D01*
X22251727Y-46005995D01*
X22174485Y-45974000D01*
X22251727Y-45942005D01*
X22480535Y-45789120D01*
X22675120Y-45594535D01*
X22828005Y-45365727D01*
X22933314Y-45111490D01*
X22987000Y-44841592D01*
X22987000Y-44566408D01*
X22933314Y-44296510D01*
X22828005Y-44042273D01*
X22675120Y-43813465D01*
X22480535Y-43618880D01*
X22251727Y-43465995D01*
X22174485Y-43434000D01*
X22251727Y-43402005D01*
X22480535Y-43249120D01*
X22675120Y-43054535D01*
X22828005Y-42825727D01*
X22933314Y-42571490D01*
X22987000Y-42301592D01*
X22987000Y-42026408D01*
X22933314Y-41756510D01*
X22828005Y-41502273D01*
X22675120Y-41273465D01*
X22480535Y-41078880D01*
X22251727Y-40925995D01*
X22174485Y-40894000D01*
X22251727Y-40862005D01*
X22480535Y-40709120D01*
X22675120Y-40514535D01*
X22828005Y-40285727D01*
X22933314Y-40031490D01*
X22987000Y-39761592D01*
X22987000Y-39486408D01*
X22933314Y-39216510D01*
X22828005Y-38962273D01*
X22675120Y-38733465D01*
X22480535Y-38538880D01*
X22251727Y-38385995D01*
X22174485Y-38354000D01*
X22251727Y-38322005D01*
X22480535Y-38169120D01*
X22675120Y-37974535D01*
X22828005Y-37745727D01*
X22933314Y-37491490D01*
X22987000Y-37221592D01*
X22987000Y-36946408D01*
X22933314Y-36676510D01*
X22828005Y-36422273D01*
X22675120Y-36193465D01*
X22480535Y-35998880D01*
X22251727Y-35845995D01*
X22174485Y-35814000D01*
X22251727Y-35782005D01*
X22480535Y-35629120D01*
X22675120Y-35434535D01*
X22828005Y-35205727D01*
X22933314Y-34951490D01*
X22987000Y-34681592D01*
X22987000Y-34406408D01*
X22933314Y-34136510D01*
X22828005Y-33882273D01*
X22675120Y-33653465D01*
X22480535Y-33458880D01*
X22251727Y-33305995D01*
X22174485Y-33274000D01*
X22251727Y-33242005D01*
X22480535Y-33089120D01*
X22675120Y-32894535D01*
X22828005Y-32665727D01*
X22933314Y-32411490D01*
X22987000Y-32141592D01*
X22987000Y-31866408D01*
X22933314Y-31596510D01*
X22828005Y-31342273D01*
X22675120Y-31113465D01*
X22480535Y-30918880D01*
X22251727Y-30765995D01*
X22174485Y-30734000D01*
X22251727Y-30702005D01*
X22480535Y-30549120D01*
X22675120Y-30354535D01*
X22828005Y-30125727D01*
X22933314Y-29871490D01*
X22987000Y-29601592D01*
X22987000Y-29326408D01*
X22933314Y-29056510D01*
X22828005Y-28802273D01*
X22675120Y-28573465D01*
X22480535Y-28378880D01*
X22251727Y-28225995D01*
X22174485Y-28194000D01*
X22251727Y-28162005D01*
X22480535Y-28009120D01*
X22675120Y-27814535D01*
X22828005Y-27585727D01*
X22933314Y-27331490D01*
X22987000Y-27061592D01*
X22987000Y-26786408D01*
X22933314Y-26516510D01*
X22828005Y-26262273D01*
X22675120Y-26033465D01*
X22480535Y-25838880D01*
X22251727Y-25685995D01*
X22174485Y-25654000D01*
X22251727Y-25622005D01*
X22480535Y-25469120D01*
X22675120Y-25274535D01*
X22828005Y-25045727D01*
X22933314Y-24791490D01*
X22987000Y-24521592D01*
X22987000Y-24246408D01*
X22933314Y-23976510D01*
X22828005Y-23722273D01*
X22675120Y-23493465D01*
X22480535Y-23298880D01*
X22251727Y-23145995D01*
X21997490Y-23040686D01*
X21727592Y-22987000D01*
X21452408Y-22987000D01*
X21182510Y-23040686D01*
X20928273Y-23145995D01*
X20699465Y-23298880D01*
X20504880Y-23493465D01*
X20351995Y-23722273D01*
X20246686Y-23976510D01*
X20193000Y-24246408D01*
X11377763Y-24246408D01*
X11663945Y-24011545D01*
X11722974Y-23939618D01*
X17693492Y-17969100D01*
X34930808Y-17969100D01*
X44728526Y-27766818D01*
X44787555Y-27838745D01*
X45065684Y-28067000D01*
X45074583Y-28074303D01*
X45402051Y-28249339D01*
X45757376Y-28357125D01*
X46126900Y-28393520D01*
X46219497Y-28384400D01*
X84155511Y-28384400D01*
X84248100Y-28393519D01*
X84340689Y-28384400D01*
X84340697Y-28384400D01*
X84617624Y-28357125D01*
X84972948Y-28249339D01*
X85300417Y-28074303D01*
X85587445Y-27838745D01*
X85646474Y-27766818D01*
X87585693Y-25827600D01*
X90900566Y-25827600D01*
X90823401Y-25971966D01*
X90738487Y-26251889D01*
X90709815Y-26543000D01*
X90738487Y-26834111D01*
X90823401Y-27114034D01*
X90961294Y-27372014D01*
X91146866Y-27598134D01*
X91290713Y-27716186D01*
X91289248Y-27716969D01*
X91040286Y-27921286D01*
X90835969Y-28170248D01*
X90684148Y-28454285D01*
X90590657Y-28762484D01*
X90559089Y-29083000D01*
X90567000Y-29163322D01*
X90567000Y-30204760D01*
X90567001Y-36473058D01*
X90559089Y-36553390D01*
X90590657Y-36873906D01*
X90684148Y-37182105D01*
X90835969Y-37466142D01*
X91040286Y-37715104D01*
X91263384Y-37898195D01*
X91040286Y-38081286D01*
X90835969Y-38330248D01*
X90684148Y-38614285D01*
X90590657Y-38922484D01*
X90559089Y-39243000D01*
X90567001Y-39323332D01*
X90567000Y-46215853D01*
X90557148Y-46234285D01*
X90463657Y-46542484D01*
X90432089Y-46863000D01*
X90463657Y-47183516D01*
X90557148Y-47491715D01*
X90708969Y-47775752D01*
X90913286Y-48024714D01*
X91162248Y-48229031D01*
X91446285Y-48380852D01*
X91754484Y-48474343D01*
X91994678Y-48498000D01*
X91994681Y-48498000D01*
X92075000Y-48505911D01*
X92155319Y-48498000D01*
X93264678Y-48498000D01*
X93345000Y-48505911D01*
X93425322Y-48498000D01*
X94661678Y-48498000D01*
X94742000Y-48505911D01*
X95062516Y-48474343D01*
X95370715Y-48380852D01*
X95654752Y-48229031D01*
X95857300Y-48062805D01*
X95857300Y-54324507D01*
X93961208Y-56220600D01*
X92169803Y-56220600D01*
X91892876Y-56247875D01*
X91537552Y-56355661D01*
X91210083Y-56530697D01*
X90923055Y-56766255D01*
X90687497Y-57053283D01*
X90512461Y-57380752D01*
X90404675Y-57736076D01*
X90368280Y-58105600D01*
X90404675Y-58475124D01*
X90512461Y-58830448D01*
X90687497Y-59157917D01*
X90923055Y-59444945D01*
X91160418Y-59639744D01*
X91146866Y-59650866D01*
X90961294Y-59876986D01*
X90823401Y-60134966D01*
X90738487Y-60414889D01*
X90709815Y-60706000D01*
X90738487Y-60997111D01*
X90823401Y-61277034D01*
X90961294Y-61535014D01*
X91146866Y-61761134D01*
X91290713Y-61879186D01*
X91289248Y-61879969D01*
X91040286Y-62084286D01*
X90835969Y-62333248D01*
X90684148Y-62617285D01*
X90590657Y-62925484D01*
X90559089Y-63246000D01*
X90567000Y-63326322D01*
X90567001Y-70785668D01*
X90559089Y-70866000D01*
X90590657Y-71186516D01*
X90684148Y-71494715D01*
X90835969Y-71778752D01*
X91040286Y-72027714D01*
X91172233Y-72136000D01*
X91040286Y-72244286D01*
X90835969Y-72493248D01*
X90684148Y-72777285D01*
X90590657Y-73085484D01*
X90559089Y-73406000D01*
X90567000Y-73486322D01*
X90567001Y-80945668D01*
X90559089Y-81026000D01*
X90590657Y-81346516D01*
X90684148Y-81654715D01*
X90835969Y-81938752D01*
X91040286Y-82187714D01*
X91289248Y-82392031D01*
X91573285Y-82543852D01*
X91881484Y-82637343D01*
X92121678Y-82661000D01*
X92202000Y-82668911D01*
X92282322Y-82661000D01*
X93518680Y-82661000D01*
X93598999Y-82668911D01*
X93679319Y-82661000D01*
X94661678Y-82661000D01*
X94742000Y-82668911D01*
X94822322Y-82661000D01*
X95062516Y-82637343D01*
X95370715Y-82543852D01*
X95654752Y-82392031D01*
X95903714Y-82187714D01*
X96108031Y-81938752D01*
X96259852Y-81654715D01*
X96353343Y-81346516D01*
X96384911Y-81026000D01*
X96377000Y-80945678D01*
X96377000Y-73486322D01*
X96384911Y-73406000D01*
X96366288Y-73216912D01*
X96353343Y-73085484D01*
X96259852Y-72777285D01*
X96108031Y-72493248D01*
X95903714Y-72244286D01*
X95771767Y-72136000D01*
X95903714Y-72027714D01*
X96108031Y-71778752D01*
X96259852Y-71494715D01*
X96353343Y-71186516D01*
X96384911Y-70866000D01*
X96377000Y-70785678D01*
X96377000Y-63326322D01*
X96384911Y-63246000D01*
X96353343Y-62925484D01*
X96259852Y-62617285D01*
X96108031Y-62333248D01*
X95903714Y-62084286D01*
X95654752Y-61879969D01*
X95653287Y-61879186D01*
X95797134Y-61761134D01*
X95982706Y-61535014D01*
X96120599Y-61277034D01*
X96205513Y-60997111D01*
X96234185Y-60706000D01*
X96205513Y-60414889D01*
X96120599Y-60134966D01*
X95982706Y-59876986D01*
X95810534Y-59667194D01*
X96081345Y-59444945D01*
X96140374Y-59373018D01*
X99009723Y-56503670D01*
X99081645Y-56444645D01*
X99154673Y-56355661D01*
X99195164Y-56306321D01*
X99317203Y-56157617D01*
X99340000Y-56114966D01*
X99340000Y-94844000D01*
X660000Y-94844000D01*
X660000Y-88307682D01*
X6090000Y-88307682D01*
X6090000Y-88984318D01*
X6222006Y-89647952D01*
X6480943Y-90273082D01*
X6856862Y-90835685D01*
X7335315Y-91314138D01*
X7897918Y-91690057D01*
X8523048Y-91948994D01*
X9186682Y-92081000D01*
X9863318Y-92081000D01*
X10526952Y-91948994D01*
X11152082Y-91690057D01*
X11714685Y-91314138D01*
X12193138Y-90835685D01*
X12569057Y-90273082D01*
X12827994Y-89647952D01*
X12960000Y-88984318D01*
X12960000Y-88307682D01*
X53334000Y-88307682D01*
X53334000Y-88984318D01*
X53466006Y-89647952D01*
X53724943Y-90273082D01*
X54100862Y-90835685D01*
X54579315Y-91314138D01*
X55141918Y-91690057D01*
X55767048Y-91948994D01*
X56430682Y-92081000D01*
X57107318Y-92081000D01*
X57770952Y-91948994D01*
X58396082Y-91690057D01*
X58958685Y-91314138D01*
X59437138Y-90835685D01*
X59813057Y-90273082D01*
X60071994Y-89647952D01*
X60204000Y-88984318D01*
X60204000Y-88307682D01*
X60071994Y-87644048D01*
X59813057Y-87018918D01*
X59437138Y-86456315D01*
X58958685Y-85977862D01*
X58396082Y-85601943D01*
X57770952Y-85343006D01*
X57107318Y-85211000D01*
X56430682Y-85211000D01*
X55767048Y-85343006D01*
X55141918Y-85601943D01*
X54579315Y-85977862D01*
X54100862Y-86456315D01*
X53724943Y-87018918D01*
X53466006Y-87644048D01*
X53334000Y-88307682D01*
X12960000Y-88307682D01*
X12827994Y-87644048D01*
X12569057Y-87018918D01*
X12193138Y-86456315D01*
X11714685Y-85977862D01*
X11152082Y-85601943D01*
X10526952Y-85343006D01*
X9863318Y-85211000D01*
X9186682Y-85211000D01*
X8523048Y-85343006D01*
X7897918Y-85601943D01*
X7335315Y-85977862D01*
X6856862Y-86456315D01*
X6480943Y-87018918D01*
X6222006Y-87644048D01*
X6090000Y-88307682D01*
X660000Y-88307682D01*
X660000Y-56708600D01*
X2992280Y-56708600D01*
X3028675Y-57078124D01*
X3136461Y-57433448D01*
X3311497Y-57760917D01*
X3547055Y-58047945D01*
X3784418Y-58242744D01*
X3770866Y-58253866D01*
X3585294Y-58479986D01*
X3447401Y-58737966D01*
X3362487Y-59017889D01*
X3333815Y-59309000D01*
X3362487Y-59600111D01*
X3447401Y-59880034D01*
X3585294Y-60138014D01*
X3770866Y-60364134D01*
X3914713Y-60482186D01*
X3913248Y-60482969D01*
X3664286Y-60687286D01*
X3459969Y-60936248D01*
X3308148Y-61220285D01*
X3214657Y-61528484D01*
X3183089Y-61849000D01*
X3191001Y-61929332D01*
X3191000Y-69388680D01*
X3183089Y-69469000D01*
X3191000Y-69549319D01*
X3191000Y-69549321D01*
X3214657Y-69789515D01*
X3308148Y-70097714D01*
X3459969Y-70381751D01*
X3664286Y-70630714D01*
X3796233Y-70739000D01*
X3664286Y-70847286D01*
X3459969Y-71096248D01*
X3308148Y-71380285D01*
X3214657Y-71688484D01*
X3183089Y-72009000D01*
X3191000Y-72089322D01*
X3191001Y-79548668D01*
X3183089Y-79629000D01*
X3214657Y-79949516D01*
X3308148Y-80257715D01*
X3459969Y-80541752D01*
X3664286Y-80790714D01*
X3913248Y-80995031D01*
X4197285Y-81146852D01*
X4505484Y-81240343D01*
X4745678Y-81264000D01*
X4826000Y-81271911D01*
X4906322Y-81264000D01*
X7285678Y-81264000D01*
X7366000Y-81271911D01*
X7446322Y-81264000D01*
X7686516Y-81240343D01*
X7994715Y-81146852D01*
X8278752Y-80995031D01*
X8527714Y-80790714D01*
X8732031Y-80541752D01*
X8883852Y-80257715D01*
X8977343Y-79949516D01*
X9008911Y-79629000D01*
X9001000Y-79548678D01*
X9001000Y-78698040D01*
X16261091Y-78698040D01*
X16355930Y-78962881D01*
X16500615Y-79204131D01*
X16689586Y-79412519D01*
X16915580Y-79580037D01*
X17169913Y-79700246D01*
X17303961Y-79740904D01*
X17526000Y-79618915D01*
X17526000Y-78476000D01*
X17780000Y-78476000D01*
X17780000Y-79618915D01*
X18002039Y-79740904D01*
X18136087Y-79700246D01*
X18390420Y-79580037D01*
X18616414Y-79412519D01*
X18805385Y-79204131D01*
X18950070Y-78962881D01*
X19044909Y-78698040D01*
X23875091Y-78698040D01*
X23969930Y-78962881D01*
X24114615Y-79204131D01*
X24303586Y-79412519D01*
X24529580Y-79580037D01*
X24783913Y-79700246D01*
X24917961Y-79740904D01*
X25140000Y-79618915D01*
X25140000Y-78476000D01*
X25394000Y-78476000D01*
X25394000Y-79618915D01*
X25616039Y-79740904D01*
X25750087Y-79700246D01*
X26004420Y-79580037D01*
X26230414Y-79412519D01*
X26419385Y-79204131D01*
X26564070Y-78962881D01*
X26658909Y-78698040D01*
X26537624Y-78476000D01*
X25394000Y-78476000D01*
X25140000Y-78476000D01*
X23996376Y-78476000D01*
X23875091Y-78698040D01*
X19044909Y-78698040D01*
X18923624Y-78476000D01*
X17780000Y-78476000D01*
X17526000Y-78476000D01*
X16382376Y-78476000D01*
X16261091Y-78698040D01*
X9001000Y-78698040D01*
X9001000Y-77999960D01*
X16261091Y-77999960D01*
X16382376Y-78222000D01*
X17526000Y-78222000D01*
X17526000Y-77079085D01*
X17780000Y-77079085D01*
X17780000Y-78222000D01*
X18923624Y-78222000D01*
X19044909Y-77999960D01*
X23875091Y-77999960D01*
X23996376Y-78222000D01*
X25140000Y-78222000D01*
X25140000Y-77079085D01*
X25394000Y-77079085D01*
X25394000Y-78222000D01*
X26537624Y-78222000D01*
X26658909Y-77999960D01*
X26564070Y-77735119D01*
X26419385Y-77493869D01*
X26230414Y-77285481D01*
X26004420Y-77117963D01*
X25750087Y-76997754D01*
X25616039Y-76957096D01*
X25394000Y-77079085D01*
X25140000Y-77079085D01*
X24917961Y-76957096D01*
X24783913Y-76997754D01*
X24529580Y-77117963D01*
X24303586Y-77285481D01*
X24114615Y-77493869D01*
X23969930Y-77735119D01*
X23875091Y-77999960D01*
X19044909Y-77999960D01*
X18950070Y-77735119D01*
X18805385Y-77493869D01*
X18616414Y-77285481D01*
X18390420Y-77117963D01*
X18136087Y-76997754D01*
X18002039Y-76957096D01*
X17780000Y-77079085D01*
X17526000Y-77079085D01*
X17303961Y-76957096D01*
X17169913Y-76997754D01*
X16915580Y-77117963D01*
X16689586Y-77285481D01*
X16500615Y-77493869D01*
X16355930Y-77735119D01*
X16261091Y-77999960D01*
X9001000Y-77999960D01*
X9001000Y-72089322D01*
X9008911Y-72009000D01*
X8977343Y-71688484D01*
X8883852Y-71380285D01*
X8732031Y-71096248D01*
X8527714Y-70847286D01*
X8395767Y-70739000D01*
X8527714Y-70630714D01*
X8732031Y-70381752D01*
X8883852Y-70097715D01*
X8977343Y-69789516D01*
X9008911Y-69469000D01*
X9001000Y-69388678D01*
X9001000Y-62967665D01*
X16218000Y-62967665D01*
X16218000Y-63250335D01*
X16273147Y-63527574D01*
X16381320Y-63788727D01*
X16538363Y-64023759D01*
X16738241Y-64223637D01*
X16973273Y-64380680D01*
X17234426Y-64488853D01*
X17511665Y-64544000D01*
X17659645Y-64544000D01*
X28343739Y-75228094D01*
X28375367Y-75266633D01*
X28529160Y-75392847D01*
X28704620Y-75486632D01*
X28895006Y-75544385D01*
X29043392Y-75559000D01*
X29043394Y-75559000D01*
X29092999Y-75563886D01*
X29142604Y-75559000D01*
X31103507Y-75559000D01*
X31111392Y-75568608D01*
X31329899Y-75747932D01*
X31579192Y-75881182D01*
X31849691Y-75963236D01*
X32060508Y-75984000D01*
X32201492Y-75984000D01*
X32412309Y-75963236D01*
X32682808Y-75881182D01*
X32932101Y-75747932D01*
X33150608Y-75568608D01*
X33329932Y-75350101D01*
X33463182Y-75100808D01*
X33545236Y-74830309D01*
X33572943Y-74549000D01*
X33545236Y-74267691D01*
X33463182Y-73997192D01*
X33329932Y-73747899D01*
X33150608Y-73529392D01*
X32932101Y-73350068D01*
X32799142Y-73279000D01*
X32932101Y-73207932D01*
X33150608Y-73028608D01*
X33329932Y-72810101D01*
X33463182Y-72560808D01*
X33545236Y-72290309D01*
X33572943Y-72009000D01*
X33561638Y-71894217D01*
X35291900Y-70163955D01*
X35291901Y-72949301D01*
X35282781Y-73041900D01*
X35319175Y-73411424D01*
X35426962Y-73766748D01*
X35601998Y-74094217D01*
X35778528Y-74309320D01*
X35778531Y-74309323D01*
X35837556Y-74381245D01*
X35909477Y-74440269D01*
X37950079Y-76480872D01*
X38165182Y-76657402D01*
X38492651Y-76832438D01*
X38847975Y-76940224D01*
X39217499Y-76976619D01*
X39486348Y-76950140D01*
X44086230Y-81550023D01*
X44145255Y-81621945D01*
X44217177Y-81680970D01*
X44217179Y-81680972D01*
X44221785Y-81684752D01*
X44432283Y-81857503D01*
X44759752Y-82032539D01*
X45007289Y-82107628D01*
X45115075Y-82140325D01*
X45147262Y-82143495D01*
X45392003Y-82167600D01*
X45392011Y-82167600D01*
X45484600Y-82176719D01*
X45577189Y-82167600D01*
X57916508Y-82167600D01*
X66197030Y-90448123D01*
X66256055Y-90520045D01*
X66327977Y-90579070D01*
X66327979Y-90579072D01*
X66543082Y-90755602D01*
X66543083Y-90755603D01*
X66870552Y-90930639D01*
X67225876Y-91038425D01*
X67595400Y-91074820D01*
X67687997Y-91065700D01*
X74787311Y-91065700D01*
X74879900Y-91074819D01*
X74972489Y-91065700D01*
X74972497Y-91065700D01*
X75249424Y-91038425D01*
X75604748Y-90930639D01*
X75932217Y-90755603D01*
X76219245Y-90520045D01*
X76278274Y-90448118D01*
X78879454Y-87846939D01*
X78924307Y-87891795D01*
X78983355Y-87963745D01*
X79128005Y-88082456D01*
X79270328Y-88199266D01*
X79270356Y-88199281D01*
X79270383Y-88199303D01*
X79439192Y-88289533D01*
X79597790Y-88374313D01*
X79597821Y-88374322D01*
X79597852Y-88374339D01*
X79781519Y-88430053D01*
X79953111Y-88482112D01*
X79953144Y-88482115D01*
X79953176Y-88482125D01*
X80139709Y-88500497D01*
X80322634Y-88518520D01*
X80415264Y-88509400D01*
X81489197Y-88509400D01*
X81766124Y-88482125D01*
X82121448Y-88374339D01*
X82448917Y-88199303D01*
X82735945Y-87963745D01*
X82971503Y-87676717D01*
X83146539Y-87349248D01*
X83254325Y-86993924D01*
X83290720Y-86624400D01*
X83254325Y-86254876D01*
X83146539Y-85899552D01*
X82971503Y-85572083D01*
X82735945Y-85285055D01*
X82457218Y-85056310D01*
X82605932Y-84875101D01*
X82739182Y-84625808D01*
X82821236Y-84355309D01*
X82848943Y-84074000D01*
X82821236Y-83792691D01*
X82739182Y-83522192D01*
X82605932Y-83272899D01*
X82426608Y-83054392D01*
X82208101Y-82875068D01*
X82075142Y-82804000D01*
X82208101Y-82732932D01*
X82426608Y-82553608D01*
X82605932Y-82335101D01*
X82739182Y-82085808D01*
X82821236Y-81815309D01*
X82848943Y-81534000D01*
X82821236Y-81252691D01*
X82739182Y-80982192D01*
X82605932Y-80732899D01*
X82426608Y-80514392D01*
X82208101Y-80335068D01*
X82075142Y-80264000D01*
X82208101Y-80192932D01*
X82426608Y-80013608D01*
X82605932Y-79795101D01*
X82739182Y-79545808D01*
X82821236Y-79275309D01*
X82848943Y-78994000D01*
X82821236Y-78712691D01*
X82739182Y-78442192D01*
X82605932Y-78192899D01*
X82426608Y-77974392D01*
X82208101Y-77795068D01*
X81958808Y-77661818D01*
X81688309Y-77579764D01*
X81477492Y-77559000D01*
X81336508Y-77559000D01*
X81125691Y-77579764D01*
X80855192Y-77661818D01*
X80605899Y-77795068D01*
X80387392Y-77974392D01*
X80208068Y-78192899D01*
X80074818Y-78442192D01*
X79992764Y-78712691D01*
X79965057Y-78994000D01*
X79992764Y-79275309D01*
X80074818Y-79545808D01*
X80208068Y-79795101D01*
X80323464Y-79935712D01*
X80039748Y-79784062D01*
X79684424Y-79676275D01*
X79314900Y-79639881D01*
X78945375Y-79676275D01*
X78590052Y-79784062D01*
X78262584Y-79959098D01*
X78047480Y-80135628D01*
X77565482Y-80617626D01*
X77493555Y-80676655D01*
X77257997Y-80963683D01*
X77082961Y-81291153D01*
X77049726Y-81400715D01*
X76982617Y-81621945D01*
X76975175Y-81646477D01*
X76947900Y-81923404D01*
X76947900Y-81923411D01*
X76938781Y-82016000D01*
X76947900Y-82108590D01*
X76947901Y-84446906D01*
X75168857Y-86225951D01*
X75119182Y-86062192D01*
X74985932Y-85812899D01*
X74806608Y-85594392D01*
X74588101Y-85415068D01*
X74455142Y-85344000D01*
X74588101Y-85272932D01*
X74806608Y-85093608D01*
X74985932Y-84875101D01*
X75119182Y-84625808D01*
X75201236Y-84355309D01*
X75228943Y-84074000D01*
X75201236Y-83792691D01*
X75119182Y-83522192D01*
X74985932Y-83272899D01*
X74806608Y-83054392D01*
X74588101Y-82875068D01*
X74455142Y-82804000D01*
X74588101Y-82732932D01*
X74806608Y-82553608D01*
X74985932Y-82335101D01*
X75119182Y-82085808D01*
X75201236Y-81815309D01*
X75228943Y-81534000D01*
X75201236Y-81252691D01*
X75119182Y-80982192D01*
X74985932Y-80732899D01*
X74806608Y-80514392D01*
X74693518Y-80421581D01*
X74711482Y-80419812D01*
X74831180Y-80383502D01*
X74941494Y-80324537D01*
X75038185Y-80245185D01*
X75117537Y-80148494D01*
X75176502Y-80038180D01*
X75212812Y-79918482D01*
X75225072Y-79794000D01*
X75225072Y-78194000D01*
X75212812Y-78069518D01*
X75176502Y-77949820D01*
X75117537Y-77839506D01*
X75038185Y-77742815D01*
X74941494Y-77663463D01*
X74831180Y-77604498D01*
X74711482Y-77568188D01*
X74587000Y-77555928D01*
X72987000Y-77555928D01*
X72862518Y-77568188D01*
X72742820Y-77604498D01*
X72632506Y-77663463D01*
X72535815Y-77742815D01*
X72456463Y-77839506D01*
X72397498Y-77949820D01*
X72361188Y-78069518D01*
X72348928Y-78194000D01*
X72348928Y-79794000D01*
X72361188Y-79918482D01*
X72397498Y-80038180D01*
X72456463Y-80148494D01*
X72535815Y-80245185D01*
X72632506Y-80324537D01*
X72742820Y-80383502D01*
X72862518Y-80419812D01*
X72880482Y-80421581D01*
X72767392Y-80514392D01*
X72588068Y-80732899D01*
X72454818Y-80982192D01*
X72372764Y-81252691D01*
X72345057Y-81534000D01*
X72372764Y-81815309D01*
X72454818Y-82085808D01*
X72588068Y-82335101D01*
X72767392Y-82553608D01*
X72985899Y-82732932D01*
X73118858Y-82804000D01*
X72985899Y-82875068D01*
X72767392Y-83054392D01*
X72759507Y-83064000D01*
X72681355Y-83064000D01*
X64268840Y-74651485D01*
X64415490Y-74622314D01*
X64669727Y-74517005D01*
X64898535Y-74364120D01*
X65093120Y-74169535D01*
X65246005Y-73940727D01*
X65351314Y-73686490D01*
X65405000Y-73416592D01*
X65405000Y-73141408D01*
X65351314Y-72871510D01*
X65246005Y-72617273D01*
X65242522Y-72612060D01*
X65398224Y-72596725D01*
X65753548Y-72488939D01*
X66081017Y-72313903D01*
X66368045Y-72078345D01*
X66427074Y-72006418D01*
X67698827Y-70734665D01*
X72422000Y-70734665D01*
X72422000Y-71017335D01*
X72477147Y-71294574D01*
X72585320Y-71555727D01*
X72742363Y-71790759D01*
X72942241Y-71990637D01*
X73177273Y-72147680D01*
X73438426Y-72255853D01*
X73715665Y-72311000D01*
X73998335Y-72311000D01*
X74275574Y-72255853D01*
X74536727Y-72147680D01*
X74771759Y-71990637D01*
X74971637Y-71790759D01*
X75128680Y-71555727D01*
X75236853Y-71294574D01*
X75292000Y-71017335D01*
X75292000Y-70734665D01*
X79845000Y-70734665D01*
X79845000Y-71017335D01*
X79900147Y-71294574D01*
X80008320Y-71555727D01*
X80165363Y-71790759D01*
X80365241Y-71990637D01*
X80600273Y-72147680D01*
X80861426Y-72255853D01*
X81138665Y-72311000D01*
X81421335Y-72311000D01*
X81698574Y-72255853D01*
X81959727Y-72147680D01*
X82194759Y-71990637D01*
X82394637Y-71790759D01*
X82551680Y-71555727D01*
X82659853Y-71294574D01*
X82715000Y-71017335D01*
X82715000Y-70734665D01*
X82659853Y-70457426D01*
X82551680Y-70196273D01*
X82394637Y-69961241D01*
X82194759Y-69761363D01*
X81959727Y-69604320D01*
X81698574Y-69496147D01*
X81421335Y-69441000D01*
X81138665Y-69441000D01*
X80861426Y-69496147D01*
X80600273Y-69604320D01*
X80365241Y-69761363D01*
X80165363Y-69961241D01*
X80008320Y-70196273D01*
X79900147Y-70457426D01*
X79845000Y-70734665D01*
X75292000Y-70734665D01*
X75236853Y-70457426D01*
X75128680Y-70196273D01*
X74971637Y-69961241D01*
X74771759Y-69761363D01*
X74536727Y-69604320D01*
X74275574Y-69496147D01*
X73998335Y-69441000D01*
X73715665Y-69441000D01*
X73438426Y-69496147D01*
X73177273Y-69604320D01*
X72942241Y-69761363D01*
X72742363Y-69961241D01*
X72585320Y-70196273D01*
X72477147Y-70457426D01*
X72422000Y-70734665D01*
X67698827Y-70734665D01*
X71071323Y-67362170D01*
X71143245Y-67303145D01*
X71211390Y-67220111D01*
X71378803Y-67016117D01*
X71408266Y-66960995D01*
X71553839Y-66688648D01*
X71661625Y-66333324D01*
X71688900Y-66056397D01*
X71688900Y-66056396D01*
X71698020Y-65963800D01*
X71688900Y-65871203D01*
X71688900Y-55985040D01*
X72465091Y-55985040D01*
X72559930Y-56249881D01*
X72704615Y-56491131D01*
X72893586Y-56699519D01*
X73119580Y-56867037D01*
X73373913Y-56987246D01*
X73507961Y-57027904D01*
X73730000Y-56905915D01*
X73730000Y-55763000D01*
X73984000Y-55763000D01*
X73984000Y-56905915D01*
X74206039Y-57027904D01*
X74340087Y-56987246D01*
X74594420Y-56867037D01*
X74820414Y-56699519D01*
X75009385Y-56491131D01*
X75154070Y-56249881D01*
X75248909Y-55985040D01*
X79888091Y-55985040D01*
X79982930Y-56249881D01*
X80127615Y-56491131D01*
X80316586Y-56699519D01*
X80542580Y-56867037D01*
X80796913Y-56987246D01*
X80930961Y-57027904D01*
X81153000Y-56905915D01*
X81153000Y-55763000D01*
X81407000Y-55763000D01*
X81407000Y-56905915D01*
X81629039Y-57027904D01*
X81763087Y-56987246D01*
X82017420Y-56867037D01*
X82243414Y-56699519D01*
X82432385Y-56491131D01*
X82577070Y-56249881D01*
X82671909Y-55985040D01*
X82550624Y-55763000D01*
X81407000Y-55763000D01*
X81153000Y-55763000D01*
X80009376Y-55763000D01*
X79888091Y-55985040D01*
X75248909Y-55985040D01*
X75127624Y-55763000D01*
X73984000Y-55763000D01*
X73730000Y-55763000D01*
X72586376Y-55763000D01*
X72465091Y-55985040D01*
X71688900Y-55985040D01*
X71688900Y-55944092D01*
X72531510Y-55101482D01*
X72465091Y-55286960D01*
X72586376Y-55509000D01*
X73730000Y-55509000D01*
X73730000Y-54366085D01*
X73984000Y-54366085D01*
X73984000Y-55509000D01*
X75127624Y-55509000D01*
X75248909Y-55286960D01*
X79888091Y-55286960D01*
X80009376Y-55509000D01*
X81153000Y-55509000D01*
X81153000Y-54366085D01*
X81407000Y-54366085D01*
X81407000Y-55509000D01*
X82550624Y-55509000D01*
X82671909Y-55286960D01*
X82577070Y-55022119D01*
X82432385Y-54780869D01*
X82243414Y-54572481D01*
X82017420Y-54404963D01*
X81763087Y-54284754D01*
X81629039Y-54244096D01*
X81407000Y-54366085D01*
X81153000Y-54366085D01*
X80930961Y-54244096D01*
X80796913Y-54284754D01*
X80542580Y-54404963D01*
X80316586Y-54572481D01*
X80127615Y-54780869D01*
X79982930Y-55022119D01*
X79888091Y-55286960D01*
X75248909Y-55286960D01*
X75154070Y-55022119D01*
X75009385Y-54780869D01*
X74820414Y-54572481D01*
X74594420Y-54404963D01*
X74340087Y-54284754D01*
X74206039Y-54244096D01*
X73984000Y-54366085D01*
X73730000Y-54366085D01*
X73507961Y-54244096D01*
X73373913Y-54284754D01*
X73325227Y-54307765D01*
X80910923Y-46722070D01*
X80982845Y-46663045D01*
X81053457Y-46577005D01*
X81218403Y-46376017D01*
X81263329Y-46291966D01*
X81393439Y-46048548D01*
X81501225Y-45693224D01*
X81528500Y-45416297D01*
X81528500Y-45416296D01*
X81537620Y-45323700D01*
X81528500Y-45231103D01*
X81528500Y-40000541D01*
X81722996Y-40092571D01*
X81997184Y-40161300D01*
X82279512Y-40175217D01*
X82559130Y-40133787D01*
X82825292Y-40038603D01*
X82950514Y-39971671D01*
X83022097Y-39727702D01*
X82209000Y-38914605D01*
X82194858Y-38928748D01*
X82015253Y-38749143D01*
X82029395Y-38735000D01*
X82388605Y-38735000D01*
X83201702Y-39548097D01*
X83270928Y-39527785D01*
X83270928Y-39535000D01*
X83283188Y-39659482D01*
X83319498Y-39779180D01*
X83378463Y-39889494D01*
X83457815Y-39986185D01*
X83554506Y-40065537D01*
X83664820Y-40124502D01*
X83784518Y-40160812D01*
X83909000Y-40173072D01*
X85509000Y-40173072D01*
X85633482Y-40160812D01*
X85753180Y-40124502D01*
X85863494Y-40065537D01*
X85960185Y-39986185D01*
X86039537Y-39889494D01*
X86098502Y-39779180D01*
X86134812Y-39659482D01*
X86147072Y-39535000D01*
X86147072Y-37935000D01*
X86134812Y-37810518D01*
X86098502Y-37690820D01*
X86039537Y-37580506D01*
X85960185Y-37483815D01*
X85863494Y-37404463D01*
X85753180Y-37345498D01*
X85633482Y-37309188D01*
X85509000Y-37296928D01*
X83909000Y-37296928D01*
X83784518Y-37309188D01*
X83664820Y-37345498D01*
X83554506Y-37404463D01*
X83457815Y-37483815D01*
X83378463Y-37580506D01*
X83319498Y-37690820D01*
X83283188Y-37810518D01*
X83270928Y-37935000D01*
X83270928Y-37942215D01*
X83201702Y-37921903D01*
X82388605Y-38735000D01*
X82029395Y-38735000D01*
X82015253Y-38720858D01*
X82194858Y-38541253D01*
X82209000Y-38555395D01*
X83022097Y-37742298D01*
X82950514Y-37498329D01*
X82695004Y-37377429D01*
X82420816Y-37308700D01*
X82138488Y-37294783D01*
X81858870Y-37336213D01*
X81592708Y-37431397D01*
X81467486Y-37498329D01*
X81446065Y-37571337D01*
X81393439Y-37397852D01*
X81218403Y-37070383D01*
X80982845Y-36783355D01*
X80910918Y-36724326D01*
X78101274Y-33914682D01*
X78042245Y-33842755D01*
X77755217Y-33607197D01*
X77427748Y-33432161D01*
X77072424Y-33324375D01*
X76795497Y-33297100D01*
X76795489Y-33297100D01*
X76702900Y-33287981D01*
X76610311Y-33297100D01*
X49760485Y-33297100D01*
X49843799Y-33213786D01*
X49995371Y-32986943D01*
X50099775Y-32734889D01*
X50153000Y-32467311D01*
X50153000Y-32194489D01*
X50099775Y-31926911D01*
X49995371Y-31674857D01*
X49843799Y-31448014D01*
X49650886Y-31255101D01*
X49424043Y-31103529D01*
X49171989Y-30999125D01*
X48956535Y-30956268D01*
X76152000Y-30956268D01*
X76152000Y-31317732D01*
X76222518Y-31672250D01*
X76360844Y-32006199D01*
X76561662Y-32306744D01*
X76817256Y-32562338D01*
X77117801Y-32763156D01*
X77451750Y-32901482D01*
X77806268Y-32972000D01*
X78167732Y-32972000D01*
X78522250Y-32901482D01*
X78856199Y-32763156D01*
X79156744Y-32562338D01*
X79412338Y-32306744D01*
X79613156Y-32006199D01*
X79751482Y-31672250D01*
X79822000Y-31317732D01*
X79822000Y-30956268D01*
X79751482Y-30601750D01*
X79613156Y-30267801D01*
X79412338Y-29967256D01*
X79156744Y-29711662D01*
X78856199Y-29510844D01*
X78522250Y-29372518D01*
X78167732Y-29302000D01*
X77806268Y-29302000D01*
X77451750Y-29372518D01*
X77117801Y-29510844D01*
X76817256Y-29711662D01*
X76561662Y-29967256D01*
X76360844Y-30267801D01*
X76222518Y-30601750D01*
X76152000Y-30956268D01*
X48956535Y-30956268D01*
X48904411Y-30945900D01*
X48631589Y-30945900D01*
X48364011Y-30999125D01*
X48111957Y-31103529D01*
X47885114Y-31255101D01*
X47819315Y-31320900D01*
X44172704Y-31320900D01*
X44123099Y-31316014D01*
X44073494Y-31320900D01*
X44073492Y-31320900D01*
X43925106Y-31335515D01*
X43734720Y-31393268D01*
X43559260Y-31487053D01*
X43405467Y-31613267D01*
X43373839Y-31651806D01*
X35662485Y-39363160D01*
X35633314Y-39216510D01*
X35528005Y-38962273D01*
X35375120Y-38733465D01*
X35180535Y-38538880D01*
X34951727Y-38385995D01*
X34874485Y-38354000D01*
X34951727Y-38322005D01*
X35180535Y-38169120D01*
X35375120Y-37974535D01*
X35528005Y-37745727D01*
X35633314Y-37491490D01*
X35687000Y-37221592D01*
X35687000Y-36946408D01*
X35633314Y-36676510D01*
X35528005Y-36422273D01*
X35375120Y-36193465D01*
X35180535Y-35998880D01*
X34951727Y-35845995D01*
X34874485Y-35814000D01*
X34951727Y-35782005D01*
X35180535Y-35629120D01*
X35375120Y-35434535D01*
X35528005Y-35205727D01*
X35633314Y-34951490D01*
X35687000Y-34681592D01*
X35687000Y-34406408D01*
X35633314Y-34136510D01*
X35528005Y-33882273D01*
X35375120Y-33653465D01*
X35180535Y-33458880D01*
X34951727Y-33305995D01*
X34874485Y-33274000D01*
X34951727Y-33242005D01*
X35180535Y-33089120D01*
X35375120Y-32894535D01*
X35528005Y-32665727D01*
X35633314Y-32411490D01*
X35687000Y-32141592D01*
X35687000Y-31866408D01*
X35633314Y-31596510D01*
X35528005Y-31342273D01*
X35375120Y-31113465D01*
X35180535Y-30918880D01*
X34951727Y-30765995D01*
X34874485Y-30734000D01*
X34951727Y-30702005D01*
X35180535Y-30549120D01*
X35375120Y-30354535D01*
X35528005Y-30125727D01*
X35633314Y-29871490D01*
X35687000Y-29601592D01*
X35687000Y-29326408D01*
X35633314Y-29056510D01*
X35528005Y-28802273D01*
X35375120Y-28573465D01*
X35180535Y-28378880D01*
X34951727Y-28225995D01*
X34874485Y-28194000D01*
X34951727Y-28162005D01*
X35180535Y-28009120D01*
X35375120Y-27814535D01*
X35528005Y-27585727D01*
X35633314Y-27331490D01*
X35687000Y-27061592D01*
X35687000Y-26786408D01*
X35633314Y-26516510D01*
X35528005Y-26262273D01*
X35375120Y-26033465D01*
X35180535Y-25838880D01*
X34951727Y-25685995D01*
X34874485Y-25654000D01*
X34951727Y-25622005D01*
X35180535Y-25469120D01*
X35375120Y-25274535D01*
X35528005Y-25045727D01*
X35633314Y-24791490D01*
X35687000Y-24521592D01*
X35687000Y-24246408D01*
X35633314Y-23976510D01*
X35528005Y-23722273D01*
X35375120Y-23493465D01*
X35180535Y-23298880D01*
X34951727Y-23145995D01*
X34697490Y-23040686D01*
X34427592Y-22987000D01*
X34152408Y-22987000D01*
X33882510Y-23040686D01*
X33628273Y-23145995D01*
X33399465Y-23298880D01*
X33204880Y-23493465D01*
X33051995Y-23722273D01*
X32946686Y-23976510D01*
X32893000Y-24246408D01*
X32893000Y-24521592D01*
X32946686Y-24791490D01*
X33051995Y-25045727D01*
X33204880Y-25274535D01*
X33399465Y-25469120D01*
X33628273Y-25622005D01*
X33705515Y-25654000D01*
X33628273Y-25685995D01*
X33399465Y-25838880D01*
X33204880Y-26033465D01*
X33051995Y-26262273D01*
X32946686Y-26516510D01*
X32893000Y-26786408D01*
X32893000Y-27061592D01*
X32946686Y-27331490D01*
X33051995Y-27585727D01*
X33204880Y-27814535D01*
X33399465Y-28009120D01*
X33628273Y-28162005D01*
X33705515Y-28194000D01*
X33628273Y-28225995D01*
X33399465Y-28378880D01*
X33204880Y-28573465D01*
X33051995Y-28802273D01*
X32946686Y-29056510D01*
X32893000Y-29326408D01*
X32893000Y-29601592D01*
X32946686Y-29871490D01*
X33051995Y-30125727D01*
X33204880Y-30354535D01*
X33399465Y-30549120D01*
X33628273Y-30702005D01*
X33705515Y-30734000D01*
X33628273Y-30765995D01*
X33399465Y-30918880D01*
X33204880Y-31113465D01*
X33051995Y-31342273D01*
X32946686Y-31596510D01*
X32893000Y-31866408D01*
X32893000Y-32141592D01*
X32946686Y-32411490D01*
X33051995Y-32665727D01*
X33204880Y-32894535D01*
X33399465Y-33089120D01*
X33628273Y-33242005D01*
X33705515Y-33274000D01*
X33628273Y-33305995D01*
X33399465Y-33458880D01*
X33204880Y-33653465D01*
X33051995Y-33882273D01*
X32946686Y-34136510D01*
X32893000Y-34406408D01*
X32893000Y-34681592D01*
X32946686Y-34951490D01*
X33051995Y-35205727D01*
X33204880Y-35434535D01*
X33399465Y-35629120D01*
X33628273Y-35782005D01*
X33705515Y-35814000D01*
X33628273Y-35845995D01*
X33399465Y-35998880D01*
X33204880Y-36193465D01*
X33051995Y-36422273D01*
X32946686Y-36676510D01*
X32893000Y-36946408D01*
X32893000Y-37221592D01*
X32946686Y-37491490D01*
X33051995Y-37745727D01*
X33204880Y-37974535D01*
X33399465Y-38169120D01*
X33628273Y-38322005D01*
X33705515Y-38354000D01*
X33628273Y-38385995D01*
X33399465Y-38538880D01*
X33204880Y-38733465D01*
X33051995Y-38962273D01*
X32946686Y-39216510D01*
X32893000Y-39486408D01*
X32893000Y-39761592D01*
X32946686Y-40031490D01*
X33051995Y-40285727D01*
X33204880Y-40514535D01*
X33399465Y-40709120D01*
X33628273Y-40862005D01*
X33705515Y-40894000D01*
X33628273Y-40925995D01*
X33399465Y-41078880D01*
X33204880Y-41273465D01*
X33051995Y-41502273D01*
X32946686Y-41756510D01*
X32893000Y-42026408D01*
X32893000Y-42301592D01*
X32946686Y-42571490D01*
X33051995Y-42825727D01*
X33204880Y-43054535D01*
X33399465Y-43249120D01*
X33628273Y-43402005D01*
X33705515Y-43434000D01*
X33628273Y-43465995D01*
X33399465Y-43618880D01*
X33204880Y-43813465D01*
X33051995Y-44042273D01*
X32946686Y-44296510D01*
X32893000Y-44566408D01*
X32893000Y-44841592D01*
X32946686Y-45111490D01*
X33051995Y-45365727D01*
X33204880Y-45594535D01*
X33399465Y-45789120D01*
X33624387Y-45939409D01*
X33541463Y-46007463D01*
X33497711Y-46060775D01*
X33399890Y-46158596D01*
X33399465Y-46158880D01*
X33204880Y-46353465D01*
X33166001Y-46411652D01*
X33122901Y-46464169D01*
X33090876Y-46524084D01*
X33051995Y-46582273D01*
X33025213Y-46646931D01*
X32993189Y-46706843D01*
X32973469Y-46771850D01*
X32946686Y-46836510D01*
X32933033Y-46905151D01*
X32913312Y-46970160D01*
X32906653Y-47037770D01*
X32893000Y-47106408D01*
X32893000Y-47176390D01*
X32886341Y-47244000D01*
X32893000Y-47311610D01*
X32893000Y-47381592D01*
X32906653Y-47450230D01*
X32913312Y-47517840D01*
X32933033Y-47582849D01*
X32946686Y-47651490D01*
X32973469Y-47716150D01*
X32993189Y-47781157D01*
X33025213Y-47841069D01*
X33051995Y-47905727D01*
X33090876Y-47963916D01*
X33122901Y-48023831D01*
X33166000Y-48076347D01*
X33204880Y-48134535D01*
X33254366Y-48184021D01*
X33297464Y-48236536D01*
X33349979Y-48279634D01*
X33399465Y-48329120D01*
X33457653Y-48368000D01*
X33510169Y-48411099D01*
X33570084Y-48443124D01*
X33628273Y-48482005D01*
X33692931Y-48508787D01*
X33699000Y-48512032D01*
X33686977Y-48516364D01*
X33571020Y-48578344D01*
X33504040Y-48818435D01*
X34290000Y-49604395D01*
X35075960Y-48818435D01*
X35008980Y-48578344D01*
X34874896Y-48515294D01*
X34887069Y-48508787D01*
X34951727Y-48482005D01*
X35009916Y-48443124D01*
X35069831Y-48411099D01*
X35087133Y-48396900D01*
X35303186Y-48396900D01*
X35520083Y-48574902D01*
X35847552Y-48749938D01*
X36202876Y-48857725D01*
X36572400Y-48894119D01*
X36941924Y-48857725D01*
X37297248Y-48749938D01*
X37624717Y-48574902D01*
X37839820Y-48398372D01*
X38903718Y-47334474D01*
X38975645Y-47275445D01*
X39211203Y-46988417D01*
X39386239Y-46660948D01*
X39466168Y-46397457D01*
X39480557Y-46407071D01*
X39732611Y-46511475D01*
X40000189Y-46564700D01*
X40273011Y-46564700D01*
X40540589Y-46511475D01*
X40792643Y-46407071D01*
X41019486Y-46255499D01*
X41085285Y-46189700D01*
X43797692Y-46189700D01*
X43847300Y-46194586D01*
X44045294Y-46175085D01*
X44235680Y-46117332D01*
X44411140Y-46023547D01*
X44564933Y-45897333D01*
X44596561Y-45858794D01*
X45044338Y-45411017D01*
X47366090Y-45411017D01*
X47407078Y-45683133D01*
X47500364Y-45942023D01*
X47562344Y-46057980D01*
X47802435Y-46124960D01*
X48588395Y-45339000D01*
X48947605Y-45339000D01*
X49733565Y-46124960D01*
X49973656Y-46057980D01*
X50090756Y-45808952D01*
X50157023Y-45541865D01*
X50169910Y-45266983D01*
X50128922Y-44994867D01*
X50035636Y-44735977D01*
X49973656Y-44620020D01*
X49733565Y-44553040D01*
X48947605Y-45339000D01*
X48588395Y-45339000D01*
X47802435Y-44553040D01*
X47562344Y-44620020D01*
X47445244Y-44869048D01*
X47378977Y-45136135D01*
X47366090Y-45411017D01*
X45044338Y-45411017D01*
X47395516Y-43059840D01*
X47424686Y-43206490D01*
X47529995Y-43460727D01*
X47682880Y-43689535D01*
X47877465Y-43884120D01*
X48106273Y-44037005D01*
X48177943Y-44066692D01*
X48164977Y-44071364D01*
X48049020Y-44133344D01*
X47982040Y-44373435D01*
X48768000Y-45159395D01*
X49553960Y-44373435D01*
X49486980Y-44133344D01*
X49351240Y-44069515D01*
X49429727Y-44037005D01*
X49658535Y-43884120D01*
X49853120Y-43689535D01*
X50006005Y-43460727D01*
X50111314Y-43206490D01*
X50165000Y-42936592D01*
X50165000Y-42661408D01*
X50111314Y-42391510D01*
X50006005Y-42137273D01*
X49853120Y-41908465D01*
X49658535Y-41713880D01*
X49429727Y-41560995D01*
X49352485Y-41529000D01*
X49429727Y-41497005D01*
X49658535Y-41344120D01*
X49853120Y-41149535D01*
X50006005Y-40920727D01*
X50111314Y-40666490D01*
X50165000Y-40396592D01*
X50165000Y-40331017D01*
X62606090Y-40331017D01*
X62647078Y-40603133D01*
X62740364Y-40862023D01*
X62802344Y-40977980D01*
X63042435Y-41044960D01*
X63828395Y-40259000D01*
X64187605Y-40259000D01*
X64973565Y-41044960D01*
X65213656Y-40977980D01*
X65330756Y-40728952D01*
X65397023Y-40461865D01*
X65409910Y-40186983D01*
X65368922Y-39914867D01*
X65275636Y-39655977D01*
X65213656Y-39540020D01*
X64973565Y-39473040D01*
X64187605Y-40259000D01*
X63828395Y-40259000D01*
X63042435Y-39473040D01*
X62802344Y-39540020D01*
X62685244Y-39789048D01*
X62618977Y-40056135D01*
X62606090Y-40331017D01*
X50165000Y-40331017D01*
X50165000Y-40121408D01*
X50111314Y-39851510D01*
X50006005Y-39597273D01*
X49853120Y-39368465D01*
X49658535Y-39173880D01*
X49429727Y-39020995D01*
X49352485Y-38989000D01*
X49429727Y-38957005D01*
X49658535Y-38804120D01*
X49853120Y-38609535D01*
X50006005Y-38380727D01*
X50111314Y-38126490D01*
X50165000Y-37856592D01*
X50165000Y-37581408D01*
X50111314Y-37311510D01*
X50010075Y-37067100D01*
X62765925Y-37067100D01*
X62664686Y-37311510D01*
X62611000Y-37581408D01*
X62611000Y-37856592D01*
X62664686Y-38126490D01*
X62769995Y-38380727D01*
X62922880Y-38609535D01*
X63117465Y-38804120D01*
X63346273Y-38957005D01*
X63417943Y-38986692D01*
X63404977Y-38991364D01*
X63289020Y-39053344D01*
X63222040Y-39293435D01*
X64008000Y-40079395D01*
X64793960Y-39293435D01*
X64775891Y-39228665D01*
X70193000Y-39228665D01*
X70193000Y-39511335D01*
X70248147Y-39788574D01*
X70356320Y-40049727D01*
X70513363Y-40284759D01*
X70713241Y-40484637D01*
X70948273Y-40641680D01*
X71209426Y-40749853D01*
X71486665Y-40805000D01*
X71769335Y-40805000D01*
X72046574Y-40749853D01*
X72307727Y-40641680D01*
X72542759Y-40484637D01*
X72664694Y-40362702D01*
X75814903Y-40362702D01*
X75886486Y-40606671D01*
X76141996Y-40727571D01*
X76416184Y-40796300D01*
X76698512Y-40810217D01*
X76978130Y-40768787D01*
X77244292Y-40673603D01*
X77369514Y-40606671D01*
X77441097Y-40362702D01*
X76628000Y-39549605D01*
X75814903Y-40362702D01*
X72664694Y-40362702D01*
X72742637Y-40284759D01*
X72899680Y-40049727D01*
X73007853Y-39788574D01*
X73063000Y-39511335D01*
X73063000Y-39440512D01*
X75187783Y-39440512D01*
X75229213Y-39720130D01*
X75324397Y-39986292D01*
X75391329Y-40111514D01*
X75635298Y-40183097D01*
X76448395Y-39370000D01*
X75635298Y-38556903D01*
X75391329Y-38628486D01*
X75270429Y-38883996D01*
X75201700Y-39158184D01*
X75187783Y-39440512D01*
X73063000Y-39440512D01*
X73063000Y-39228665D01*
X73007853Y-38951426D01*
X72899680Y-38690273D01*
X72742637Y-38455241D01*
X72542759Y-38255363D01*
X72307727Y-38098320D01*
X72046574Y-37990147D01*
X71769335Y-37935000D01*
X71486665Y-37935000D01*
X71209426Y-37990147D01*
X70948273Y-38098320D01*
X70713241Y-38255363D01*
X70513363Y-38455241D01*
X70356320Y-38690273D01*
X70248147Y-38951426D01*
X70193000Y-39228665D01*
X64775891Y-39228665D01*
X64726980Y-39053344D01*
X64591240Y-38989515D01*
X64669727Y-38957005D01*
X64898535Y-38804120D01*
X65093120Y-38609535D01*
X65246005Y-38380727D01*
X65351314Y-38126490D01*
X65405000Y-37856592D01*
X65405000Y-37581408D01*
X65351314Y-37311510D01*
X65250075Y-37067100D01*
X75922108Y-37067100D01*
X76796577Y-37941569D01*
X76557488Y-37929783D01*
X76277870Y-37971213D01*
X76011708Y-38066397D01*
X75886486Y-38133329D01*
X75814903Y-38377298D01*
X76628000Y-39190395D01*
X76642143Y-39176253D01*
X76821748Y-39355858D01*
X76807605Y-39370000D01*
X77620702Y-40183097D01*
X77758501Y-40142665D01*
X77758500Y-44542907D01*
X68536477Y-53764931D01*
X68464556Y-53823955D01*
X68405531Y-53895877D01*
X68405528Y-53895880D01*
X68228998Y-54110983D01*
X68053962Y-54438452D01*
X67946175Y-54793776D01*
X67909781Y-55163300D01*
X67918901Y-55255899D01*
X67918900Y-65183007D01*
X65339330Y-67762578D01*
X65246005Y-67537273D01*
X65093120Y-67308465D01*
X64898535Y-67113880D01*
X64669727Y-66960995D01*
X64592485Y-66929000D01*
X64669727Y-66897005D01*
X64898535Y-66744120D01*
X65093120Y-66549535D01*
X65246005Y-66320727D01*
X65351314Y-66066490D01*
X65405000Y-65796592D01*
X65405000Y-65521408D01*
X65351314Y-65251510D01*
X65246005Y-64997273D01*
X65093120Y-64768465D01*
X64898535Y-64573880D01*
X64669727Y-64420995D01*
X64592485Y-64389000D01*
X64669727Y-64357005D01*
X64898535Y-64204120D01*
X65093120Y-64009535D01*
X65246005Y-63780727D01*
X65351314Y-63526490D01*
X65405000Y-63256592D01*
X65405000Y-62981408D01*
X65351314Y-62711510D01*
X65246005Y-62457273D01*
X65093120Y-62228465D01*
X64898535Y-62033880D01*
X64669727Y-61880995D01*
X64592485Y-61849000D01*
X64669727Y-61817005D01*
X64898535Y-61664120D01*
X65093120Y-61469535D01*
X65246005Y-61240727D01*
X65351314Y-60986490D01*
X65405000Y-60716592D01*
X65405000Y-60441408D01*
X65351314Y-60171510D01*
X65246005Y-59917273D01*
X65093120Y-59688465D01*
X64898535Y-59493880D01*
X64669727Y-59340995D01*
X64592485Y-59309000D01*
X64669727Y-59277005D01*
X64898535Y-59124120D01*
X65093120Y-58929535D01*
X65246005Y-58700727D01*
X65351314Y-58446490D01*
X65405000Y-58176592D01*
X65405000Y-57901408D01*
X65351314Y-57631510D01*
X65246005Y-57377273D01*
X65093120Y-57148465D01*
X64898535Y-56953880D01*
X64669727Y-56800995D01*
X64592485Y-56769000D01*
X64669727Y-56737005D01*
X64898535Y-56584120D01*
X65093120Y-56389535D01*
X65246005Y-56160727D01*
X65351314Y-55906490D01*
X65405000Y-55636592D01*
X65405000Y-55361408D01*
X65351314Y-55091510D01*
X65246005Y-54837273D01*
X65093120Y-54608465D01*
X64898535Y-54413880D01*
X64669727Y-54260995D01*
X64592485Y-54229000D01*
X64669727Y-54197005D01*
X64898535Y-54044120D01*
X65093120Y-53849535D01*
X65246005Y-53620727D01*
X65351314Y-53366490D01*
X65405000Y-53096592D01*
X65405000Y-52821408D01*
X65351314Y-52551510D01*
X65246005Y-52297273D01*
X65093120Y-52068465D01*
X64898535Y-51873880D01*
X64669727Y-51720995D01*
X64592485Y-51689000D01*
X64669727Y-51657005D01*
X64898535Y-51504120D01*
X65093120Y-51309535D01*
X65246005Y-51080727D01*
X65351314Y-50826490D01*
X65405000Y-50556592D01*
X65405000Y-50281408D01*
X65351314Y-50011510D01*
X65246005Y-49757273D01*
X65093120Y-49528465D01*
X64898535Y-49333880D01*
X64669727Y-49180995D01*
X64592485Y-49149000D01*
X64669727Y-49117005D01*
X64898535Y-48964120D01*
X65093120Y-48769535D01*
X65246005Y-48540727D01*
X65351314Y-48286490D01*
X65405000Y-48016592D01*
X65405000Y-47741408D01*
X65351314Y-47471510D01*
X65246005Y-47217273D01*
X65093120Y-46988465D01*
X64898535Y-46793880D01*
X64669727Y-46640995D01*
X64592485Y-46609000D01*
X64669727Y-46577005D01*
X64898535Y-46424120D01*
X65093120Y-46229535D01*
X65246005Y-46000727D01*
X65351314Y-45746490D01*
X65405000Y-45476592D01*
X65405000Y-45201408D01*
X65351314Y-44931510D01*
X65246005Y-44677273D01*
X65093120Y-44448465D01*
X64898535Y-44253880D01*
X64669727Y-44100995D01*
X64592485Y-44069000D01*
X64669727Y-44037005D01*
X64898535Y-43884120D01*
X65093120Y-43689535D01*
X65246005Y-43460727D01*
X65351314Y-43206490D01*
X65405000Y-42936592D01*
X65405000Y-42661408D01*
X65351314Y-42391510D01*
X65246005Y-42137273D01*
X65093120Y-41908465D01*
X64898535Y-41713880D01*
X64669727Y-41560995D01*
X64598057Y-41531308D01*
X64611023Y-41526636D01*
X64726980Y-41464656D01*
X64793960Y-41224565D01*
X64008000Y-40438605D01*
X63222040Y-41224565D01*
X63289020Y-41464656D01*
X63424760Y-41528485D01*
X63346273Y-41560995D01*
X63117465Y-41713880D01*
X62922880Y-41908465D01*
X62769995Y-42137273D01*
X62664686Y-42391510D01*
X62611000Y-42661408D01*
X62611000Y-42936592D01*
X62664686Y-43206490D01*
X62769995Y-43460727D01*
X62922880Y-43689535D01*
X63117465Y-43884120D01*
X63346273Y-44037005D01*
X63423515Y-44069000D01*
X63346273Y-44100995D01*
X63117465Y-44253880D01*
X62922880Y-44448465D01*
X62769995Y-44677273D01*
X62664686Y-44931510D01*
X62611000Y-45201408D01*
X62611000Y-45476592D01*
X62664686Y-45746490D01*
X62769995Y-46000727D01*
X62922880Y-46229535D01*
X63117465Y-46424120D01*
X63346273Y-46577005D01*
X63423515Y-46609000D01*
X63346273Y-46640995D01*
X63117465Y-46793880D01*
X62922880Y-46988465D01*
X62769995Y-47217273D01*
X62664686Y-47471510D01*
X62611000Y-47741408D01*
X62611000Y-48016592D01*
X62664686Y-48286490D01*
X62769995Y-48540727D01*
X62922880Y-48769535D01*
X63117465Y-48964120D01*
X63346273Y-49117005D01*
X63423515Y-49149000D01*
X63346273Y-49180995D01*
X63117465Y-49333880D01*
X62922880Y-49528465D01*
X62769995Y-49757273D01*
X62664686Y-50011510D01*
X62611000Y-50281408D01*
X62611000Y-50556592D01*
X62664686Y-50826490D01*
X62769995Y-51080727D01*
X62922880Y-51309535D01*
X63117465Y-51504120D01*
X63346273Y-51657005D01*
X63423515Y-51689000D01*
X63346273Y-51720995D01*
X63117465Y-51873880D01*
X62922880Y-52068465D01*
X62769995Y-52297273D01*
X62664686Y-52551510D01*
X62611000Y-52821408D01*
X62611000Y-53096592D01*
X62664686Y-53366490D01*
X62769995Y-53620727D01*
X62922880Y-53849535D01*
X63117465Y-54044120D01*
X63346273Y-54197005D01*
X63423515Y-54229000D01*
X63346273Y-54260995D01*
X63117465Y-54413880D01*
X62922880Y-54608465D01*
X62769995Y-54837273D01*
X62664686Y-55091510D01*
X62611000Y-55361408D01*
X62611000Y-55636592D01*
X62664686Y-55906490D01*
X62769995Y-56160727D01*
X62922880Y-56389535D01*
X63117465Y-56584120D01*
X63346273Y-56737005D01*
X63423515Y-56769000D01*
X63346273Y-56800995D01*
X63117465Y-56953880D01*
X62922880Y-57148465D01*
X62769995Y-57377273D01*
X62664686Y-57631510D01*
X62611000Y-57901408D01*
X62611000Y-58176592D01*
X62664686Y-58446490D01*
X62769995Y-58700727D01*
X62922880Y-58929535D01*
X63117465Y-59124120D01*
X63346273Y-59277005D01*
X63423515Y-59309000D01*
X63346273Y-59340995D01*
X63117465Y-59493880D01*
X62922880Y-59688465D01*
X62769995Y-59917273D01*
X62664686Y-60171510D01*
X62611000Y-60441408D01*
X62611000Y-60716592D01*
X62664686Y-60986490D01*
X62769995Y-61240727D01*
X62922880Y-61469535D01*
X63117465Y-61664120D01*
X63346273Y-61817005D01*
X63423515Y-61849000D01*
X63346273Y-61880995D01*
X63117465Y-62033880D01*
X62922880Y-62228465D01*
X62769995Y-62457273D01*
X62664686Y-62711510D01*
X62611000Y-62981408D01*
X62611000Y-63256592D01*
X62664686Y-63526490D01*
X62769995Y-63780727D01*
X62922880Y-64009535D01*
X63117465Y-64204120D01*
X63346273Y-64357005D01*
X63423515Y-64389000D01*
X63346273Y-64420995D01*
X63117465Y-64573880D01*
X62922880Y-64768465D01*
X62769995Y-64997273D01*
X62664686Y-65251510D01*
X62611000Y-65521408D01*
X62611000Y-65796592D01*
X62664686Y-66066490D01*
X62769995Y-66320727D01*
X62922880Y-66549535D01*
X63117465Y-66744120D01*
X63346273Y-66897005D01*
X63423515Y-66929000D01*
X63346273Y-66960995D01*
X63117465Y-67113880D01*
X62922880Y-67308465D01*
X62769995Y-67537273D01*
X62664686Y-67791510D01*
X62611000Y-68061408D01*
X62611000Y-68336592D01*
X62664686Y-68606490D01*
X62769995Y-68860727D01*
X62922880Y-69089535D01*
X62982896Y-69149551D01*
X62955683Y-69164097D01*
X62668655Y-69399655D01*
X62433097Y-69686683D01*
X62258061Y-70014152D01*
X62150275Y-70369476D01*
X62113880Y-70739000D01*
X62150275Y-71108524D01*
X62258061Y-71463848D01*
X62433097Y-71791317D01*
X62668655Y-72078345D01*
X62955683Y-72313903D01*
X62982896Y-72328449D01*
X62922880Y-72388465D01*
X62769995Y-72617273D01*
X62664686Y-72871510D01*
X62635515Y-73018160D01*
X50165000Y-60547645D01*
X50165000Y-60441408D01*
X50111314Y-60171510D01*
X50006005Y-59917273D01*
X49853120Y-59688465D01*
X49658535Y-59493880D01*
X49429727Y-59340995D01*
X49352485Y-59309000D01*
X49429727Y-59277005D01*
X49658535Y-59124120D01*
X49853120Y-58929535D01*
X50006005Y-58700727D01*
X50111314Y-58446490D01*
X50165000Y-58176592D01*
X50165000Y-57901408D01*
X50111314Y-57631510D01*
X50006005Y-57377273D01*
X49853120Y-57148465D01*
X49658535Y-56953880D01*
X49429727Y-56800995D01*
X49352485Y-56769000D01*
X49429727Y-56737005D01*
X49658535Y-56584120D01*
X49853120Y-56389535D01*
X50006005Y-56160727D01*
X50111314Y-55906490D01*
X50165000Y-55636592D01*
X50165000Y-55361408D01*
X50111314Y-55091510D01*
X50006005Y-54837273D01*
X49853120Y-54608465D01*
X49658535Y-54413880D01*
X49429727Y-54260995D01*
X49352485Y-54229000D01*
X49429727Y-54197005D01*
X49658535Y-54044120D01*
X49853120Y-53849535D01*
X50006005Y-53620727D01*
X50111314Y-53366490D01*
X50165000Y-53096592D01*
X50165000Y-52821408D01*
X50111314Y-52551510D01*
X50006005Y-52297273D01*
X49853120Y-52068465D01*
X49658535Y-51873880D01*
X49429727Y-51720995D01*
X49352485Y-51689000D01*
X49429727Y-51657005D01*
X49658535Y-51504120D01*
X49853120Y-51309535D01*
X50006005Y-51080727D01*
X50111314Y-50826490D01*
X50165000Y-50556592D01*
X50165000Y-50281408D01*
X50111314Y-50011510D01*
X50006005Y-49757273D01*
X49853120Y-49528465D01*
X49658535Y-49333880D01*
X49429727Y-49180995D01*
X49352485Y-49149000D01*
X49429727Y-49117005D01*
X49658535Y-48964120D01*
X49853120Y-48769535D01*
X50006005Y-48540727D01*
X50111314Y-48286490D01*
X50165000Y-48016592D01*
X50165000Y-47741408D01*
X50111314Y-47471510D01*
X50006005Y-47217273D01*
X49853120Y-46988465D01*
X49658535Y-46793880D01*
X49429727Y-46640995D01*
X49358057Y-46611308D01*
X49371023Y-46606636D01*
X49486980Y-46544656D01*
X49553960Y-46304565D01*
X48768000Y-45518605D01*
X47982040Y-46304565D01*
X48049020Y-46544656D01*
X48184760Y-46608485D01*
X48106273Y-46640995D01*
X47877465Y-46793880D01*
X47682880Y-46988465D01*
X47529995Y-47217273D01*
X47424686Y-47471510D01*
X47371000Y-47741408D01*
X47371000Y-48016592D01*
X47424686Y-48286490D01*
X47529995Y-48540727D01*
X47682880Y-48769535D01*
X47877465Y-48964120D01*
X48106273Y-49117005D01*
X48183515Y-49149000D01*
X48106273Y-49180995D01*
X47877465Y-49333880D01*
X47682880Y-49528465D01*
X47529995Y-49757273D01*
X47424686Y-50011510D01*
X47371000Y-50281408D01*
X47371000Y-50556592D01*
X47424686Y-50826490D01*
X47529995Y-51080727D01*
X47682880Y-51309535D01*
X47877465Y-51504120D01*
X48106273Y-51657005D01*
X48183515Y-51689000D01*
X48106273Y-51720995D01*
X47877465Y-51873880D01*
X47682880Y-52068465D01*
X47529995Y-52297273D01*
X47424686Y-52551510D01*
X47371000Y-52821408D01*
X47371000Y-53096592D01*
X47424686Y-53366490D01*
X47529995Y-53620727D01*
X47682880Y-53849535D01*
X47877465Y-54044120D01*
X48106273Y-54197005D01*
X48183515Y-54229000D01*
X48106273Y-54260995D01*
X47877465Y-54413880D01*
X47682880Y-54608465D01*
X47529995Y-54837273D01*
X47424686Y-55091510D01*
X47371000Y-55361408D01*
X47371000Y-55636592D01*
X47424686Y-55906490D01*
X47529995Y-56160727D01*
X47682880Y-56389535D01*
X47877465Y-56584120D01*
X48106273Y-56737005D01*
X48183515Y-56769000D01*
X48106273Y-56800995D01*
X47877465Y-56953880D01*
X47682880Y-57148465D01*
X47529995Y-57377273D01*
X47424686Y-57631510D01*
X47371000Y-57901408D01*
X47371000Y-58176592D01*
X47424686Y-58446490D01*
X47529995Y-58700727D01*
X47682880Y-58929535D01*
X47877465Y-59124120D01*
X48106273Y-59277005D01*
X48183515Y-59309000D01*
X48106273Y-59340995D01*
X47877465Y-59493880D01*
X47682880Y-59688465D01*
X47529995Y-59917273D01*
X47424686Y-60171510D01*
X47371000Y-60441408D01*
X47371000Y-60716592D01*
X47424686Y-60986490D01*
X47529995Y-61240727D01*
X47682880Y-61469535D01*
X47877465Y-61664120D01*
X48106273Y-61817005D01*
X48183515Y-61849000D01*
X48106273Y-61880995D01*
X47877465Y-62033880D01*
X47802345Y-62109000D01*
X37665908Y-62109000D01*
X37616300Y-62104114D01*
X37418305Y-62123615D01*
X37227920Y-62181368D01*
X37052460Y-62275153D01*
X36898667Y-62401367D01*
X36867044Y-62439900D01*
X33486234Y-65820711D01*
X33461537Y-65774506D01*
X33382185Y-65677815D01*
X33285494Y-65598463D01*
X33175180Y-65539498D01*
X33055482Y-65503188D01*
X32931000Y-65490928D01*
X31331000Y-65490928D01*
X31206518Y-65503188D01*
X31086820Y-65539498D01*
X30976506Y-65598463D01*
X30879815Y-65677815D01*
X30800463Y-65774506D01*
X30741498Y-65884820D01*
X30705188Y-66004518D01*
X30692928Y-66129000D01*
X30692928Y-67729000D01*
X30705188Y-67853482D01*
X30741498Y-67973180D01*
X30800463Y-68083494D01*
X30879815Y-68180185D01*
X30976506Y-68259537D01*
X31086820Y-68318502D01*
X31206518Y-68354812D01*
X31224482Y-68356581D01*
X31111392Y-68449392D01*
X30932068Y-68667899D01*
X30798818Y-68917192D01*
X30716764Y-69187691D01*
X30689057Y-69469000D01*
X30716764Y-69750309D01*
X30798818Y-70020808D01*
X30932068Y-70270101D01*
X31111392Y-70488608D01*
X31329899Y-70667932D01*
X31462858Y-70739000D01*
X31329899Y-70810068D01*
X31111392Y-70989392D01*
X30932068Y-71207899D01*
X30798818Y-71457192D01*
X30716764Y-71727691D01*
X30689057Y-72009000D01*
X30716764Y-72290309D01*
X30798818Y-72560808D01*
X30932068Y-72810101D01*
X31111392Y-73028608D01*
X31329899Y-73207932D01*
X31462858Y-73279000D01*
X31329899Y-73350068D01*
X31111392Y-73529392D01*
X31103507Y-73539000D01*
X29511355Y-73539000D01*
X19088000Y-63115645D01*
X19088000Y-62967665D01*
X23832000Y-62967665D01*
X23832000Y-63250335D01*
X23887147Y-63527574D01*
X23995320Y-63788727D01*
X24152363Y-64023759D01*
X24352241Y-64223637D01*
X24587273Y-64380680D01*
X24848426Y-64488853D01*
X25125665Y-64544000D01*
X25408335Y-64544000D01*
X25685574Y-64488853D01*
X25946727Y-64380680D01*
X26181759Y-64223637D01*
X26381637Y-64023759D01*
X26538680Y-63788727D01*
X26646853Y-63527574D01*
X26702000Y-63250335D01*
X26702000Y-62967665D01*
X26646853Y-62690426D01*
X26538680Y-62429273D01*
X26381637Y-62194241D01*
X26181759Y-61994363D01*
X25946727Y-61837320D01*
X25685574Y-61729147D01*
X25408335Y-61674000D01*
X25125665Y-61674000D01*
X24848426Y-61729147D01*
X24587273Y-61837320D01*
X24352241Y-61994363D01*
X24152363Y-62194241D01*
X23995320Y-62429273D01*
X23887147Y-62690426D01*
X23832000Y-62967665D01*
X19088000Y-62967665D01*
X19032853Y-62690426D01*
X18924680Y-62429273D01*
X18767637Y-62194241D01*
X18567759Y-61994363D01*
X18332727Y-61837320D01*
X18071574Y-61729147D01*
X17794335Y-61674000D01*
X17511665Y-61674000D01*
X17234426Y-61729147D01*
X16973273Y-61837320D01*
X16738241Y-61994363D01*
X16538363Y-62194241D01*
X16381320Y-62429273D01*
X16273147Y-62690426D01*
X16218000Y-62967665D01*
X9001000Y-62967665D01*
X9001000Y-61929322D01*
X9008911Y-61849000D01*
X8977343Y-61528484D01*
X8883852Y-61220285D01*
X8732031Y-60936248D01*
X8527714Y-60687286D01*
X8278752Y-60482969D01*
X8277287Y-60482186D01*
X8421134Y-60364134D01*
X8606706Y-60138014D01*
X8744599Y-59880034D01*
X8829513Y-59600111D01*
X8858185Y-59309000D01*
X8829513Y-59017889D01*
X8744599Y-58737966D01*
X8606706Y-58479986D01*
X8434534Y-58270194D01*
X8705345Y-58047945D01*
X8940903Y-57760917D01*
X9115939Y-57433448D01*
X9223725Y-57078124D01*
X9260120Y-56708600D01*
X9223725Y-56339076D01*
X9115939Y-55983752D01*
X8940903Y-55656283D01*
X8705345Y-55369255D01*
X8418317Y-55133697D01*
X8090848Y-54958661D01*
X7735524Y-54850875D01*
X7458597Y-54823600D01*
X4793803Y-54823600D01*
X4516876Y-54850875D01*
X4161552Y-54958661D01*
X3834083Y-55133697D01*
X3547055Y-55369255D01*
X3311497Y-55656283D01*
X3136461Y-55983752D01*
X3028675Y-56339076D01*
X2992280Y-56708600D01*
X660000Y-56708600D01*
X660000Y-14393682D01*
X6090000Y-14393682D01*
X6090000Y-15070318D01*
X6222006Y-15733952D01*
X6480943Y-16359082D01*
X6856862Y-16921685D01*
X7335315Y-17400138D01*
X7897918Y-17776057D01*
X8523048Y-18034994D01*
X9186682Y-18167000D01*
X9863318Y-18167000D01*
X10526952Y-18034994D01*
X11152082Y-17776057D01*
X11714685Y-17400138D01*
X12193138Y-16921685D01*
X12569057Y-16359082D01*
X12827994Y-15733952D01*
X12960000Y-15070318D01*
X12960000Y-14393682D01*
X12827994Y-13730048D01*
X12569057Y-13104918D01*
X12193138Y-12542315D01*
X11714685Y-12063862D01*
X11152082Y-11687943D01*
X10526952Y-11429006D01*
X9863318Y-11297000D01*
X9186682Y-11297000D01*
X8523048Y-11429006D01*
X7897918Y-11687943D01*
X7335315Y-12063862D01*
X6856862Y-12542315D01*
X6480943Y-13104918D01*
X6222006Y-13730048D01*
X6090000Y-14393682D01*
X660000Y-14393682D01*
X660000Y-4470000D01*
X99340001Y-4470000D01*
X99340001Y-24845435D01*
M02*
