G04 #@! TF.GenerationSoftware,KiCad,Pcbnew,(5.1.0)-1*
G04 #@! TF.CreationDate,2022-09-11T19:47:26+09:00*
G04 #@! TF.ProjectId,2022NHK_XBee_ver2,32303232-4e48-44b5-9f58-4265655f7665,rev?*
G04 #@! TF.SameCoordinates,Original*
G04 #@! TF.FileFunction,Legend,Bot*
G04 #@! TF.FilePolarity,Positive*
%FSLAX46Y46*%
G04 Gerber Fmt 4.6, Leading zero omitted, Abs format (unit mm)*
G04 Created by KiCad (PCBNEW (5.1.0)-1) date 2022-09-11 19:47:26*
%MOMM*%
%LPD*%
G04 APERTURE LIST*
%ADD10C,0.150000*%
G04 APERTURE END LIST*
D10*
X10318714Y-75493619D02*
X10271095Y-75446000D01*
X10175857Y-75398380D01*
X9937761Y-75398380D01*
X9842523Y-75446000D01*
X9794904Y-75493619D01*
X9747285Y-75588857D01*
X9747285Y-75684095D01*
X9794904Y-75826952D01*
X10366333Y-76398380D01*
X9747285Y-76398380D01*
X9874285Y-32710380D02*
X10445714Y-32710380D01*
X10160000Y-32710380D02*
X10160000Y-31710380D01*
X10255238Y-31853238D01*
X10350476Y-31948476D01*
X10445714Y-31996095D01*
X90249333Y-76287380D02*
X89630285Y-76287380D01*
X89963619Y-76668333D01*
X89820761Y-76668333D01*
X89725523Y-76715952D01*
X89677904Y-76763571D01*
X89630285Y-76858809D01*
X89630285Y-77096904D01*
X89677904Y-77192142D01*
X89725523Y-77239761D01*
X89820761Y-77287380D01*
X90106476Y-77287380D01*
X90201714Y-77239761D01*
X90249333Y-77192142D01*
X89725523Y-32805714D02*
X89725523Y-33472380D01*
X89963619Y-32424761D02*
X90201714Y-33139047D01*
X89582666Y-33139047D01*
X89296904Y-66508380D02*
X89773095Y-66508380D01*
X89820714Y-66984571D01*
X89773095Y-66936952D01*
X89677857Y-66889333D01*
X89439761Y-66889333D01*
X89344523Y-66936952D01*
X89296904Y-66984571D01*
X89249285Y-67079809D01*
X89249285Y-67317904D01*
X89296904Y-67413142D01*
X89344523Y-67460761D01*
X89439761Y-67508380D01*
X89677857Y-67508380D01*
X89773095Y-67460761D01*
X89820714Y-67413142D01*
X9842523Y-41743380D02*
X10033000Y-41743380D01*
X10128238Y-41791000D01*
X10175857Y-41838619D01*
X10271095Y-41981476D01*
X10318714Y-42171952D01*
X10318714Y-42552904D01*
X10271095Y-42648142D01*
X10223476Y-42695761D01*
X10128238Y-42743380D01*
X9937761Y-42743380D01*
X9842523Y-42695761D01*
X9794904Y-42648142D01*
X9747285Y-42552904D01*
X9747285Y-42314809D01*
X9794904Y-42219571D01*
X9842523Y-42171952D01*
X9937761Y-42124333D01*
X10128238Y-42124333D01*
X10223476Y-42171952D01*
X10271095Y-42219571D01*
X10318714Y-42314809D01*
X9842523Y-65111380D02*
X10033000Y-65111380D01*
X10128238Y-65159000D01*
X10175857Y-65206619D01*
X10271095Y-65349476D01*
X10318714Y-65539952D01*
X10318714Y-65920904D01*
X10271095Y-66016142D01*
X10223476Y-66063761D01*
X10128238Y-66111380D01*
X9937761Y-66111380D01*
X9842523Y-66063761D01*
X9794904Y-66016142D01*
X9747285Y-65920904D01*
X9747285Y-65682809D01*
X9794904Y-65587571D01*
X9842523Y-65539952D01*
X9937761Y-65492333D01*
X10128238Y-65492333D01*
X10223476Y-65539952D01*
X10271095Y-65587571D01*
X10318714Y-65682809D01*
X89423904Y-42505380D02*
X89900095Y-42505380D01*
X89947714Y-42981571D01*
X89900095Y-42933952D01*
X89804857Y-42886333D01*
X89566761Y-42886333D01*
X89471523Y-42933952D01*
X89423904Y-42981571D01*
X89376285Y-43076809D01*
X89376285Y-43314904D01*
X89423904Y-43410142D01*
X89471523Y-43457761D01*
X89566761Y-43505380D01*
X89804857Y-43505380D01*
X89900095Y-43457761D01*
X89947714Y-43410142D01*
X81216523Y-15279714D02*
X81216523Y-15946380D01*
X81454619Y-14898761D02*
X81692714Y-15613047D01*
X81073666Y-15613047D01*
X59007333Y-15708380D02*
X58388285Y-15708380D01*
X58721619Y-16089333D01*
X58578761Y-16089333D01*
X58483523Y-16136952D01*
X58435904Y-16184571D01*
X58388285Y-16279809D01*
X58388285Y-16517904D01*
X58435904Y-16613142D01*
X58483523Y-16660761D01*
X58578761Y-16708380D01*
X58864476Y-16708380D01*
X58959714Y-16660761D01*
X59007333Y-16613142D01*
X43338714Y-15803619D02*
X43291095Y-15756000D01*
X43195857Y-15708380D01*
X42957761Y-15708380D01*
X42862523Y-15756000D01*
X42814904Y-15803619D01*
X42767285Y-15898857D01*
X42767285Y-15994095D01*
X42814904Y-16136952D01*
X43386333Y-16708380D01*
X42767285Y-16708380D01*
X19653285Y-16327380D02*
X20224714Y-16327380D01*
X19939000Y-16327380D02*
X19939000Y-15327380D01*
X20034238Y-15470238D01*
X20129476Y-15565476D01*
X20224714Y-15613095D01*
M02*
