M48
; DRILL file {KiCad (5.1.0)-1} date 2022/09/11 19:47:30
; FORMAT={-:-/ absolute / metric / decimal}
; #@! TF.CreationDate,2022-09-11T19:47:30+09:00
; #@! TF.GenerationSoftware,Kicad,Pcbnew,(5.1.0)-1
; #@! TF.FileFunction,Plated,1,2,PTH
FMAT,2
METRIC
T1C0.750
T2C0.762
T3C0.800
T4C1.000
T5C1.200
T6C1.800
T7C2.100
T8C3.200
%
G90
G05
T1
X40.137Y-45.18
X48.768Y-32.331
T2
X21.59Y-24.384
X21.59Y-26.924
X21.59Y-29.464
X21.59Y-32.004
X21.59Y-34.544
X21.59Y-37.084
X21.59Y-39.624
X21.59Y-42.164
X21.59Y-44.704
X21.59Y-47.244
X21.59Y-49.784
X34.29Y-24.384
X34.29Y-26.924
X34.29Y-29.464
X34.29Y-32.004
X34.29Y-34.544
X34.29Y-37.084
X34.29Y-39.624
X34.29Y-42.164
X34.29Y-44.704
X34.29Y-47.244
X34.29Y-49.784
X48.768Y-37.719
X48.768Y-40.259
X48.768Y-42.799
X48.768Y-45.339
X48.768Y-47.879
X48.768Y-50.419
X48.768Y-52.959
X48.768Y-55.499
X48.768Y-58.039
X48.768Y-60.579
X48.768Y-63.119
X48.768Y-65.659
X48.768Y-68.199
X48.768Y-70.739
X48.768Y-73.279
X64.008Y-37.719
X64.008Y-40.259
X64.008Y-42.799
X64.008Y-45.339
X64.008Y-47.879
X64.008Y-50.419
X64.008Y-52.959
X64.008Y-55.499
X64.008Y-58.039
X64.008Y-60.579
X64.008Y-63.119
X64.008Y-65.659
X64.008Y-68.199
X64.008Y-70.739
X64.008Y-73.279
T3
X71.628Y-39.37
X76.628Y-39.37
X17.653Y-63.109
X17.653Y-78.349
X32.131Y-66.929
X32.131Y-69.469
X32.131Y-72.009
X32.131Y-74.549
X39.751Y-66.929
X39.751Y-69.469
X39.751Y-72.009
X39.751Y-74.549
X25.267Y-63.109
X25.267Y-78.349
X73.787Y-78.994
X73.787Y-81.534
X73.787Y-84.074
X73.787Y-86.614
X81.407Y-78.994
X81.407Y-81.534
X81.407Y-84.074
X81.407Y-86.614
X82.209Y-38.735
X84.709Y-38.735
X81.28Y-55.636
X81.28Y-70.876
X73.857Y-55.636
X73.857Y-70.876
T4
X92.202Y-58.166
X92.202Y-60.706
X92.202Y-63.246
X92.202Y-65.786
X92.202Y-68.326
X92.202Y-70.866
X92.202Y-73.406
X92.202Y-75.946
X92.202Y-78.486
X92.202Y-81.026
X94.742Y-58.166
X94.742Y-60.706
X94.742Y-63.246
X94.742Y-65.786
X94.742Y-68.326
X94.742Y-70.866
X94.742Y-73.406
X94.742Y-75.946
X94.742Y-78.486
X94.742Y-81.026
X4.826Y-23.241
X4.826Y-25.781
X4.826Y-28.321
X4.826Y-30.861
X4.826Y-33.401
X4.826Y-35.941
X4.826Y-38.481
X4.826Y-41.021
X4.826Y-43.561
X4.826Y-46.101
X7.366Y-23.241
X7.366Y-25.781
X7.366Y-28.321
X7.366Y-30.861
X7.366Y-33.401
X7.366Y-35.941
X7.366Y-38.481
X7.366Y-41.021
X7.366Y-43.561
X7.366Y-46.101
X92.202Y-24.003
X92.202Y-26.543
X92.202Y-29.083
X92.202Y-31.623
X92.202Y-34.163
X92.202Y-36.703
X92.202Y-39.243
X92.202Y-41.783
X92.202Y-44.323
X92.202Y-46.863
X94.742Y-24.003
X94.742Y-26.543
X94.742Y-29.083
X94.742Y-31.623
X94.742Y-34.163
X94.742Y-36.703
X94.742Y-39.243
X94.742Y-41.783
X94.742Y-44.323
X94.742Y-46.863
X4.826Y-56.769
X4.826Y-59.309
X4.826Y-61.849
X4.826Y-64.389
X4.826Y-66.929
X4.826Y-69.469
X4.826Y-72.009
X4.826Y-74.549
X4.826Y-77.089
X4.826Y-79.629
X7.366Y-56.769
X7.366Y-59.309
X7.366Y-61.849
X7.366Y-64.389
X7.366Y-66.929
X7.366Y-69.469
X7.366Y-72.009
X7.366Y-74.549
X7.366Y-77.089
X7.366Y-79.629
T5
X75.692Y-23.749
X78.232Y-23.749
X80.772Y-23.749
T6
X77.987Y-31.137
T8
X56.769Y-88.646
X91.44Y-14.732
X9.525Y-88.646
X9.525Y-14.732
T7
G00X20.113Y-9.376
M15
G01X20.113Y-12.976
M16
G05
G00X24.213Y-10.001
M15
G01X27.813Y-10.001
M16
G05
G00X77.26Y-12.351
M15
G01X73.66Y-12.351
M16
G05
G00X81.36Y-12.976
M15
G01X81.36Y-9.376
M16
G05
G00X58.77Y-9.076
M15
G01X58.77Y-13.276
M16
G05
G00X63.67Y-9.801
M15
G01X67.87Y-9.801
M16
G05
G00X38.184Y-12.551
M15
G01X33.984Y-12.551
M16
G05
G00X43.084Y-13.276
M15
G01X43.084Y-9.076
M16
G05
T0
M30
