G04 #@! TF.GenerationSoftware,KiCad,Pcbnew,(5.1.0)-1*
G04 #@! TF.CreationDate,2022-09-11T19:47:26+09:00*
G04 #@! TF.ProjectId,2022NHK_XBee_ver2,32303232-4e48-44b5-9f58-4265655f7665,rev?*
G04 #@! TF.SameCoordinates,Original*
G04 #@! TF.FileFunction,Soldermask,Top*
G04 #@! TF.FilePolarity,Negative*
%FSLAX46Y46*%
G04 Gerber Fmt 4.6, Leading zero omitted, Abs format (unit mm)*
G04 Created by KiCad (PCBNEW (5.1.0)-1) date 2022-09-11 19:47:26*
%MOMM*%
%LPD*%
G04 APERTURE LIST*
%ADD10C,0.100000*%
G04 APERTURE END LIST*
D10*
G36*
X57195467Y-85823975D02*
G01*
X57600606Y-85904562D01*
X58119455Y-86119476D01*
X58586407Y-86431484D01*
X58983516Y-86828593D01*
X59295524Y-87295545D01*
X59510438Y-87814394D01*
X59620000Y-88365201D01*
X59620000Y-88926799D01*
X59510438Y-89477606D01*
X59295524Y-89996455D01*
X58983516Y-90463407D01*
X58586407Y-90860516D01*
X58119455Y-91172524D01*
X57600606Y-91387438D01*
X57049800Y-91497000D01*
X56488200Y-91497000D01*
X55937394Y-91387438D01*
X55418545Y-91172524D01*
X54951593Y-90860516D01*
X54554484Y-90463407D01*
X54242476Y-89996455D01*
X54027562Y-89477606D01*
X53918000Y-88926799D01*
X53918000Y-88365201D01*
X54027562Y-87814394D01*
X54242476Y-87295545D01*
X54554484Y-86828593D01*
X54951593Y-86431484D01*
X55418545Y-86119476D01*
X55937394Y-85904562D01*
X56342533Y-85823975D01*
X56488200Y-85795000D01*
X57049800Y-85795000D01*
X57195467Y-85823975D01*
X57195467Y-85823975D01*
G37*
G36*
X9951467Y-85823975D02*
G01*
X10356606Y-85904562D01*
X10875455Y-86119476D01*
X11342407Y-86431484D01*
X11739516Y-86828593D01*
X12051524Y-87295545D01*
X12266438Y-87814394D01*
X12376000Y-88365201D01*
X12376000Y-88926799D01*
X12266438Y-89477606D01*
X12051524Y-89996455D01*
X11739516Y-90463407D01*
X11342407Y-90860516D01*
X10875455Y-91172524D01*
X10356606Y-91387438D01*
X9805800Y-91497000D01*
X9244200Y-91497000D01*
X8693394Y-91387438D01*
X8174545Y-91172524D01*
X7707593Y-90860516D01*
X7310484Y-90463407D01*
X6998476Y-89996455D01*
X6783562Y-89477606D01*
X6674000Y-88926799D01*
X6674000Y-88365201D01*
X6783562Y-87814394D01*
X6998476Y-87295545D01*
X7310484Y-86828593D01*
X7707593Y-86431484D01*
X8174545Y-86119476D01*
X8693394Y-85904562D01*
X9098533Y-85823975D01*
X9244200Y-85795000D01*
X9805800Y-85795000D01*
X9951467Y-85823975D01*
X9951467Y-85823975D01*
G37*
G36*
X73953823Y-85775313D02*
G01*
X74114242Y-85823976D01*
X74246906Y-85894886D01*
X74262078Y-85902996D01*
X74391659Y-86009341D01*
X74498004Y-86138922D01*
X74498005Y-86138924D01*
X74577024Y-86286758D01*
X74625687Y-86447177D01*
X74642117Y-86614000D01*
X74625687Y-86780823D01*
X74577024Y-86941242D01*
X74506114Y-87073906D01*
X74498004Y-87089078D01*
X74391659Y-87218659D01*
X74262078Y-87325004D01*
X74262076Y-87325005D01*
X74114242Y-87404024D01*
X73953823Y-87452687D01*
X73828804Y-87465000D01*
X73745196Y-87465000D01*
X73620177Y-87452687D01*
X73459758Y-87404024D01*
X73311924Y-87325005D01*
X73311922Y-87325004D01*
X73182341Y-87218659D01*
X73075996Y-87089078D01*
X73067886Y-87073906D01*
X72996976Y-86941242D01*
X72948313Y-86780823D01*
X72931883Y-86614000D01*
X72948313Y-86447177D01*
X72996976Y-86286758D01*
X73075995Y-86138924D01*
X73075996Y-86138922D01*
X73182341Y-86009341D01*
X73311922Y-85902996D01*
X73327094Y-85894886D01*
X73459758Y-85823976D01*
X73620177Y-85775313D01*
X73745196Y-85763000D01*
X73828804Y-85763000D01*
X73953823Y-85775313D01*
X73953823Y-85775313D01*
G37*
G36*
X81573823Y-85775313D02*
G01*
X81734242Y-85823976D01*
X81866906Y-85894886D01*
X81882078Y-85902996D01*
X82011659Y-86009341D01*
X82118004Y-86138922D01*
X82118005Y-86138924D01*
X82197024Y-86286758D01*
X82245687Y-86447177D01*
X82262117Y-86614000D01*
X82245687Y-86780823D01*
X82197024Y-86941242D01*
X82126114Y-87073906D01*
X82118004Y-87089078D01*
X82011659Y-87218659D01*
X81882078Y-87325004D01*
X81882076Y-87325005D01*
X81734242Y-87404024D01*
X81573823Y-87452687D01*
X81448804Y-87465000D01*
X81365196Y-87465000D01*
X81240177Y-87452687D01*
X81079758Y-87404024D01*
X80931924Y-87325005D01*
X80931922Y-87325004D01*
X80802341Y-87218659D01*
X80695996Y-87089078D01*
X80687886Y-87073906D01*
X80616976Y-86941242D01*
X80568313Y-86780823D01*
X80551883Y-86614000D01*
X80568313Y-86447177D01*
X80616976Y-86286758D01*
X80695995Y-86138924D01*
X80695996Y-86138922D01*
X80802341Y-86009341D01*
X80931922Y-85902996D01*
X80947094Y-85894886D01*
X81079758Y-85823976D01*
X81240177Y-85775313D01*
X81365196Y-85763000D01*
X81448804Y-85763000D01*
X81573823Y-85775313D01*
X81573823Y-85775313D01*
G37*
G36*
X81573823Y-83235313D02*
G01*
X81734242Y-83283976D01*
X81866906Y-83354886D01*
X81882078Y-83362996D01*
X82011659Y-83469341D01*
X82118004Y-83598922D01*
X82118005Y-83598924D01*
X82197024Y-83746758D01*
X82245687Y-83907177D01*
X82262117Y-84074000D01*
X82245687Y-84240823D01*
X82197024Y-84401242D01*
X82126114Y-84533906D01*
X82118004Y-84549078D01*
X82011659Y-84678659D01*
X81882078Y-84785004D01*
X81882076Y-84785005D01*
X81734242Y-84864024D01*
X81573823Y-84912687D01*
X81448804Y-84925000D01*
X81365196Y-84925000D01*
X81240177Y-84912687D01*
X81079758Y-84864024D01*
X80931924Y-84785005D01*
X80931922Y-84785004D01*
X80802341Y-84678659D01*
X80695996Y-84549078D01*
X80687886Y-84533906D01*
X80616976Y-84401242D01*
X80568313Y-84240823D01*
X80551883Y-84074000D01*
X80568313Y-83907177D01*
X80616976Y-83746758D01*
X80695995Y-83598924D01*
X80695996Y-83598922D01*
X80802341Y-83469341D01*
X80931922Y-83362996D01*
X80947094Y-83354886D01*
X81079758Y-83283976D01*
X81240177Y-83235313D01*
X81365196Y-83223000D01*
X81448804Y-83223000D01*
X81573823Y-83235313D01*
X81573823Y-83235313D01*
G37*
G36*
X73953823Y-83235313D02*
G01*
X74114242Y-83283976D01*
X74246906Y-83354886D01*
X74262078Y-83362996D01*
X74391659Y-83469341D01*
X74498004Y-83598922D01*
X74498005Y-83598924D01*
X74577024Y-83746758D01*
X74625687Y-83907177D01*
X74642117Y-84074000D01*
X74625687Y-84240823D01*
X74577024Y-84401242D01*
X74506114Y-84533906D01*
X74498004Y-84549078D01*
X74391659Y-84678659D01*
X74262078Y-84785004D01*
X74262076Y-84785005D01*
X74114242Y-84864024D01*
X73953823Y-84912687D01*
X73828804Y-84925000D01*
X73745196Y-84925000D01*
X73620177Y-84912687D01*
X73459758Y-84864024D01*
X73311924Y-84785005D01*
X73311922Y-84785004D01*
X73182341Y-84678659D01*
X73075996Y-84549078D01*
X73067886Y-84533906D01*
X72996976Y-84401242D01*
X72948313Y-84240823D01*
X72931883Y-84074000D01*
X72948313Y-83907177D01*
X72996976Y-83746758D01*
X73075995Y-83598924D01*
X73075996Y-83598922D01*
X73182341Y-83469341D01*
X73311922Y-83362996D01*
X73327094Y-83354886D01*
X73459758Y-83283976D01*
X73620177Y-83235313D01*
X73745196Y-83223000D01*
X73828804Y-83223000D01*
X73953823Y-83235313D01*
X73953823Y-83235313D01*
G37*
G36*
X73953823Y-80695313D02*
G01*
X74114242Y-80743976D01*
X74246906Y-80814886D01*
X74262078Y-80822996D01*
X74391659Y-80929341D01*
X74498004Y-81058922D01*
X74498005Y-81058924D01*
X74577024Y-81206758D01*
X74625687Y-81367177D01*
X74642117Y-81534000D01*
X74625687Y-81700823D01*
X74577024Y-81861242D01*
X74506114Y-81993906D01*
X74498004Y-82009078D01*
X74391659Y-82138659D01*
X74262078Y-82245004D01*
X74262076Y-82245005D01*
X74114242Y-82324024D01*
X73953823Y-82372687D01*
X73828804Y-82385000D01*
X73745196Y-82385000D01*
X73620177Y-82372687D01*
X73459758Y-82324024D01*
X73311924Y-82245005D01*
X73311922Y-82245004D01*
X73182341Y-82138659D01*
X73075996Y-82009078D01*
X73067886Y-81993906D01*
X72996976Y-81861242D01*
X72948313Y-81700823D01*
X72931883Y-81534000D01*
X72948313Y-81367177D01*
X72996976Y-81206758D01*
X73075995Y-81058924D01*
X73075996Y-81058922D01*
X73182341Y-80929341D01*
X73311922Y-80822996D01*
X73327094Y-80814886D01*
X73459758Y-80743976D01*
X73620177Y-80695313D01*
X73745196Y-80683000D01*
X73828804Y-80683000D01*
X73953823Y-80695313D01*
X73953823Y-80695313D01*
G37*
G36*
X81573823Y-80695313D02*
G01*
X81734242Y-80743976D01*
X81866906Y-80814886D01*
X81882078Y-80822996D01*
X82011659Y-80929341D01*
X82118004Y-81058922D01*
X82118005Y-81058924D01*
X82197024Y-81206758D01*
X82245687Y-81367177D01*
X82262117Y-81534000D01*
X82245687Y-81700823D01*
X82197024Y-81861242D01*
X82126114Y-81993906D01*
X82118004Y-82009078D01*
X82011659Y-82138659D01*
X81882078Y-82245004D01*
X81882076Y-82245005D01*
X81734242Y-82324024D01*
X81573823Y-82372687D01*
X81448804Y-82385000D01*
X81365196Y-82385000D01*
X81240177Y-82372687D01*
X81079758Y-82324024D01*
X80931924Y-82245005D01*
X80931922Y-82245004D01*
X80802341Y-82138659D01*
X80695996Y-82009078D01*
X80687886Y-81993906D01*
X80616976Y-81861242D01*
X80568313Y-81700823D01*
X80551883Y-81534000D01*
X80568313Y-81367177D01*
X80616976Y-81206758D01*
X80695995Y-81058924D01*
X80695996Y-81058922D01*
X80802341Y-80929341D01*
X80931922Y-80822996D01*
X80947094Y-80814886D01*
X81079758Y-80743976D01*
X81240177Y-80695313D01*
X81365196Y-80683000D01*
X81448804Y-80683000D01*
X81573823Y-80695313D01*
X81573823Y-80695313D01*
G37*
G36*
X92312443Y-80131519D02*
G01*
X92378627Y-80138037D01*
X92548466Y-80189557D01*
X92704991Y-80273222D01*
X92740729Y-80302552D01*
X92842186Y-80385814D01*
X92925448Y-80487271D01*
X92954778Y-80523009D01*
X93038443Y-80679534D01*
X93089963Y-80849373D01*
X93107359Y-81026000D01*
X93089963Y-81202627D01*
X93038443Y-81372466D01*
X92954778Y-81528991D01*
X92950667Y-81534000D01*
X92842186Y-81666186D01*
X92740729Y-81749448D01*
X92704991Y-81778778D01*
X92548466Y-81862443D01*
X92378627Y-81913963D01*
X92312442Y-81920482D01*
X92246260Y-81927000D01*
X92157740Y-81927000D01*
X92091558Y-81920482D01*
X92025373Y-81913963D01*
X91855534Y-81862443D01*
X91699009Y-81778778D01*
X91663271Y-81749448D01*
X91561814Y-81666186D01*
X91453333Y-81534000D01*
X91449222Y-81528991D01*
X91365557Y-81372466D01*
X91314037Y-81202627D01*
X91296641Y-81026000D01*
X91314037Y-80849373D01*
X91365557Y-80679534D01*
X91449222Y-80523009D01*
X91478552Y-80487271D01*
X91561814Y-80385814D01*
X91663271Y-80302552D01*
X91699009Y-80273222D01*
X91855534Y-80189557D01*
X92025373Y-80138037D01*
X92091557Y-80131519D01*
X92157740Y-80125000D01*
X92246260Y-80125000D01*
X92312443Y-80131519D01*
X92312443Y-80131519D01*
G37*
G36*
X94852443Y-80131519D02*
G01*
X94918627Y-80138037D01*
X95088466Y-80189557D01*
X95244991Y-80273222D01*
X95280729Y-80302552D01*
X95382186Y-80385814D01*
X95465448Y-80487271D01*
X95494778Y-80523009D01*
X95578443Y-80679534D01*
X95629963Y-80849373D01*
X95647359Y-81026000D01*
X95629963Y-81202627D01*
X95578443Y-81372466D01*
X95494778Y-81528991D01*
X95490667Y-81534000D01*
X95382186Y-81666186D01*
X95280729Y-81749448D01*
X95244991Y-81778778D01*
X95088466Y-81862443D01*
X94918627Y-81913963D01*
X94852442Y-81920482D01*
X94786260Y-81927000D01*
X94697740Y-81927000D01*
X94631558Y-81920482D01*
X94565373Y-81913963D01*
X94395534Y-81862443D01*
X94239009Y-81778778D01*
X94203271Y-81749448D01*
X94101814Y-81666186D01*
X93993333Y-81534000D01*
X93989222Y-81528991D01*
X93905557Y-81372466D01*
X93854037Y-81202627D01*
X93836641Y-81026000D01*
X93854037Y-80849373D01*
X93905557Y-80679534D01*
X93989222Y-80523009D01*
X94018552Y-80487271D01*
X94101814Y-80385814D01*
X94203271Y-80302552D01*
X94239009Y-80273222D01*
X94395534Y-80189557D01*
X94565373Y-80138037D01*
X94631557Y-80131519D01*
X94697740Y-80125000D01*
X94786260Y-80125000D01*
X94852443Y-80131519D01*
X94852443Y-80131519D01*
G37*
G36*
X4936442Y-78734518D02*
G01*
X5002627Y-78741037D01*
X5172466Y-78792557D01*
X5328991Y-78876222D01*
X5364729Y-78905552D01*
X5466186Y-78988814D01*
X5524609Y-79060004D01*
X5578778Y-79126009D01*
X5662443Y-79282534D01*
X5713963Y-79452373D01*
X5731359Y-79629000D01*
X5713963Y-79805627D01*
X5662443Y-79975466D01*
X5578778Y-80131991D01*
X5573816Y-80138037D01*
X5466186Y-80269186D01*
X5364729Y-80352448D01*
X5328991Y-80381778D01*
X5172466Y-80465443D01*
X5002627Y-80516963D01*
X4936442Y-80523482D01*
X4870260Y-80530000D01*
X4781740Y-80530000D01*
X4715558Y-80523482D01*
X4649373Y-80516963D01*
X4479534Y-80465443D01*
X4323009Y-80381778D01*
X4287271Y-80352448D01*
X4185814Y-80269186D01*
X4078184Y-80138037D01*
X4073222Y-80131991D01*
X3989557Y-79975466D01*
X3938037Y-79805627D01*
X3920641Y-79629000D01*
X3938037Y-79452373D01*
X3989557Y-79282534D01*
X4073222Y-79126009D01*
X4127391Y-79060004D01*
X4185814Y-78988814D01*
X4287271Y-78905552D01*
X4323009Y-78876222D01*
X4479534Y-78792557D01*
X4649373Y-78741037D01*
X4715558Y-78734518D01*
X4781740Y-78728000D01*
X4870260Y-78728000D01*
X4936442Y-78734518D01*
X4936442Y-78734518D01*
G37*
G36*
X7476442Y-78734518D02*
G01*
X7542627Y-78741037D01*
X7712466Y-78792557D01*
X7868991Y-78876222D01*
X7904729Y-78905552D01*
X8006186Y-78988814D01*
X8064609Y-79060004D01*
X8118778Y-79126009D01*
X8202443Y-79282534D01*
X8253963Y-79452373D01*
X8271359Y-79629000D01*
X8253963Y-79805627D01*
X8202443Y-79975466D01*
X8118778Y-80131991D01*
X8113816Y-80138037D01*
X8006186Y-80269186D01*
X7904729Y-80352448D01*
X7868991Y-80381778D01*
X7712466Y-80465443D01*
X7542627Y-80516963D01*
X7476442Y-80523482D01*
X7410260Y-80530000D01*
X7321740Y-80530000D01*
X7255558Y-80523482D01*
X7189373Y-80516963D01*
X7019534Y-80465443D01*
X6863009Y-80381778D01*
X6827271Y-80352448D01*
X6725814Y-80269186D01*
X6618184Y-80138037D01*
X6613222Y-80131991D01*
X6529557Y-79975466D01*
X6478037Y-79805627D01*
X6460641Y-79629000D01*
X6478037Y-79452373D01*
X6529557Y-79282534D01*
X6613222Y-79126009D01*
X6667391Y-79060004D01*
X6725814Y-78988814D01*
X6827271Y-78905552D01*
X6863009Y-78876222D01*
X7019534Y-78792557D01*
X7189373Y-78741037D01*
X7255558Y-78734518D01*
X7321740Y-78728000D01*
X7410260Y-78728000D01*
X7476442Y-78734518D01*
X7476442Y-78734518D01*
G37*
G36*
X74638000Y-79845000D02*
G01*
X72936000Y-79845000D01*
X72936000Y-78143000D01*
X74638000Y-78143000D01*
X74638000Y-79845000D01*
X74638000Y-79845000D01*
G37*
G36*
X81573823Y-78155313D02*
G01*
X81734242Y-78203976D01*
X81866906Y-78274886D01*
X81882078Y-78282996D01*
X82011659Y-78389341D01*
X82118004Y-78518922D01*
X82118005Y-78518924D01*
X82197024Y-78666758D01*
X82245687Y-78827177D01*
X82262117Y-78994000D01*
X82245687Y-79160823D01*
X82197024Y-79321242D01*
X82126933Y-79452373D01*
X82118004Y-79469078D01*
X82011659Y-79598659D01*
X81882078Y-79705004D01*
X81882076Y-79705005D01*
X81734242Y-79784024D01*
X81573823Y-79832687D01*
X81448804Y-79845000D01*
X81365196Y-79845000D01*
X81240177Y-79832687D01*
X81079758Y-79784024D01*
X80931924Y-79705005D01*
X80931922Y-79705004D01*
X80802341Y-79598659D01*
X80695996Y-79469078D01*
X80687067Y-79452373D01*
X80616976Y-79321242D01*
X80568313Y-79160823D01*
X80551883Y-78994000D01*
X80568313Y-78827177D01*
X80616976Y-78666758D01*
X80695995Y-78518924D01*
X80695996Y-78518922D01*
X80802341Y-78389341D01*
X80931922Y-78282996D01*
X80947094Y-78274886D01*
X81079758Y-78203976D01*
X81240177Y-78155313D01*
X81365196Y-78143000D01*
X81448804Y-78143000D01*
X81573823Y-78155313D01*
X81573823Y-78155313D01*
G37*
G36*
X92312442Y-77591518D02*
G01*
X92378627Y-77598037D01*
X92548466Y-77649557D01*
X92704991Y-77733222D01*
X92718539Y-77744341D01*
X92842186Y-77845814D01*
X92925448Y-77947271D01*
X92954778Y-77983009D01*
X93038443Y-78139534D01*
X93089963Y-78309373D01*
X93107359Y-78486000D01*
X93089963Y-78662627D01*
X93038443Y-78832466D01*
X92954778Y-78988991D01*
X92950667Y-78994000D01*
X92842186Y-79126186D01*
X92752242Y-79200000D01*
X92704991Y-79238778D01*
X92548466Y-79322443D01*
X92378627Y-79373963D01*
X92312442Y-79380482D01*
X92246260Y-79387000D01*
X92157740Y-79387000D01*
X92091558Y-79380482D01*
X92025373Y-79373963D01*
X91855534Y-79322443D01*
X91699009Y-79238778D01*
X91651758Y-79200000D01*
X91561814Y-79126186D01*
X91453333Y-78994000D01*
X91449222Y-78988991D01*
X91365557Y-78832466D01*
X91314037Y-78662627D01*
X91296641Y-78486000D01*
X91314037Y-78309373D01*
X91365557Y-78139534D01*
X91449222Y-77983009D01*
X91478552Y-77947271D01*
X91561814Y-77845814D01*
X91685461Y-77744341D01*
X91699009Y-77733222D01*
X91855534Y-77649557D01*
X92025373Y-77598037D01*
X92091558Y-77591518D01*
X92157740Y-77585000D01*
X92246260Y-77585000D01*
X92312442Y-77591518D01*
X92312442Y-77591518D01*
G37*
G36*
X94852442Y-77591518D02*
G01*
X94918627Y-77598037D01*
X95088466Y-77649557D01*
X95244991Y-77733222D01*
X95258539Y-77744341D01*
X95382186Y-77845814D01*
X95465448Y-77947271D01*
X95494778Y-77983009D01*
X95578443Y-78139534D01*
X95629963Y-78309373D01*
X95647359Y-78486000D01*
X95629963Y-78662627D01*
X95578443Y-78832466D01*
X95494778Y-78988991D01*
X95490667Y-78994000D01*
X95382186Y-79126186D01*
X95292242Y-79200000D01*
X95244991Y-79238778D01*
X95088466Y-79322443D01*
X94918627Y-79373963D01*
X94852442Y-79380482D01*
X94786260Y-79387000D01*
X94697740Y-79387000D01*
X94631558Y-79380482D01*
X94565373Y-79373963D01*
X94395534Y-79322443D01*
X94239009Y-79238778D01*
X94191758Y-79200000D01*
X94101814Y-79126186D01*
X93993333Y-78994000D01*
X93989222Y-78988991D01*
X93905557Y-78832466D01*
X93854037Y-78662627D01*
X93836641Y-78486000D01*
X93854037Y-78309373D01*
X93905557Y-78139534D01*
X93989222Y-77983009D01*
X94018552Y-77947271D01*
X94101814Y-77845814D01*
X94225461Y-77744341D01*
X94239009Y-77733222D01*
X94395534Y-77649557D01*
X94565373Y-77598037D01*
X94631558Y-77591518D01*
X94697740Y-77585000D01*
X94786260Y-77585000D01*
X94852442Y-77591518D01*
X94852442Y-77591518D01*
G37*
G36*
X25433823Y-77510313D02*
G01*
X25594242Y-77558976D01*
X25726906Y-77629886D01*
X25742078Y-77637996D01*
X25871659Y-77744341D01*
X25978004Y-77873922D01*
X25978005Y-77873924D01*
X26057024Y-78021758D01*
X26105687Y-78182177D01*
X26122117Y-78349000D01*
X26105687Y-78515823D01*
X26057024Y-78676242D01*
X26022390Y-78741037D01*
X25978004Y-78824078D01*
X25871659Y-78953659D01*
X25742078Y-79060004D01*
X25742076Y-79060005D01*
X25594242Y-79139024D01*
X25433823Y-79187687D01*
X25308804Y-79200000D01*
X25225196Y-79200000D01*
X25100177Y-79187687D01*
X24939758Y-79139024D01*
X24791924Y-79060005D01*
X24791922Y-79060004D01*
X24662341Y-78953659D01*
X24555996Y-78824078D01*
X24511610Y-78741037D01*
X24476976Y-78676242D01*
X24428313Y-78515823D01*
X24411883Y-78349000D01*
X24428313Y-78182177D01*
X24476976Y-78021758D01*
X24555995Y-77873924D01*
X24555996Y-77873922D01*
X24662341Y-77744341D01*
X24791922Y-77637996D01*
X24807094Y-77629886D01*
X24939758Y-77558976D01*
X25100177Y-77510313D01*
X25225196Y-77498000D01*
X25308804Y-77498000D01*
X25433823Y-77510313D01*
X25433823Y-77510313D01*
G37*
G36*
X17819823Y-77510313D02*
G01*
X17980242Y-77558976D01*
X18112906Y-77629886D01*
X18128078Y-77637996D01*
X18257659Y-77744341D01*
X18364004Y-77873922D01*
X18364005Y-77873924D01*
X18443024Y-78021758D01*
X18491687Y-78182177D01*
X18508117Y-78349000D01*
X18491687Y-78515823D01*
X18443024Y-78676242D01*
X18408390Y-78741037D01*
X18364004Y-78824078D01*
X18257659Y-78953659D01*
X18128078Y-79060004D01*
X18128076Y-79060005D01*
X17980242Y-79139024D01*
X17819823Y-79187687D01*
X17694804Y-79200000D01*
X17611196Y-79200000D01*
X17486177Y-79187687D01*
X17325758Y-79139024D01*
X17177924Y-79060005D01*
X17177922Y-79060004D01*
X17048341Y-78953659D01*
X16941996Y-78824078D01*
X16897610Y-78741037D01*
X16862976Y-78676242D01*
X16814313Y-78515823D01*
X16797883Y-78349000D01*
X16814313Y-78182177D01*
X16862976Y-78021758D01*
X16941995Y-77873924D01*
X16941996Y-77873922D01*
X17048341Y-77744341D01*
X17177922Y-77637996D01*
X17193094Y-77629886D01*
X17325758Y-77558976D01*
X17486177Y-77510313D01*
X17611196Y-77498000D01*
X17694804Y-77498000D01*
X17819823Y-77510313D01*
X17819823Y-77510313D01*
G37*
G36*
X4936442Y-76194518D02*
G01*
X5002627Y-76201037D01*
X5172466Y-76252557D01*
X5328991Y-76336222D01*
X5364729Y-76365552D01*
X5466186Y-76448814D01*
X5549448Y-76550271D01*
X5578778Y-76586009D01*
X5662443Y-76742534D01*
X5713963Y-76912373D01*
X5731359Y-77089000D01*
X5713963Y-77265627D01*
X5662443Y-77435466D01*
X5578778Y-77591991D01*
X5573816Y-77598037D01*
X5466186Y-77729186D01*
X5364729Y-77812448D01*
X5328991Y-77841778D01*
X5172466Y-77925443D01*
X5002627Y-77976963D01*
X4936442Y-77983482D01*
X4870260Y-77990000D01*
X4781740Y-77990000D01*
X4715558Y-77983482D01*
X4649373Y-77976963D01*
X4479534Y-77925443D01*
X4323009Y-77841778D01*
X4287271Y-77812448D01*
X4185814Y-77729186D01*
X4078184Y-77598037D01*
X4073222Y-77591991D01*
X3989557Y-77435466D01*
X3938037Y-77265627D01*
X3920641Y-77089000D01*
X3938037Y-76912373D01*
X3989557Y-76742534D01*
X4073222Y-76586009D01*
X4102552Y-76550271D01*
X4185814Y-76448814D01*
X4287271Y-76365552D01*
X4323009Y-76336222D01*
X4479534Y-76252557D01*
X4649373Y-76201037D01*
X4715558Y-76194518D01*
X4781740Y-76188000D01*
X4870260Y-76188000D01*
X4936442Y-76194518D01*
X4936442Y-76194518D01*
G37*
G36*
X7476442Y-76194518D02*
G01*
X7542627Y-76201037D01*
X7712466Y-76252557D01*
X7868991Y-76336222D01*
X7904729Y-76365552D01*
X8006186Y-76448814D01*
X8089448Y-76550271D01*
X8118778Y-76586009D01*
X8202443Y-76742534D01*
X8253963Y-76912373D01*
X8271359Y-77089000D01*
X8253963Y-77265627D01*
X8202443Y-77435466D01*
X8118778Y-77591991D01*
X8113816Y-77598037D01*
X8006186Y-77729186D01*
X7904729Y-77812448D01*
X7868991Y-77841778D01*
X7712466Y-77925443D01*
X7542627Y-77976963D01*
X7476442Y-77983482D01*
X7410260Y-77990000D01*
X7321740Y-77990000D01*
X7255558Y-77983482D01*
X7189373Y-77976963D01*
X7019534Y-77925443D01*
X6863009Y-77841778D01*
X6827271Y-77812448D01*
X6725814Y-77729186D01*
X6618184Y-77598037D01*
X6613222Y-77591991D01*
X6529557Y-77435466D01*
X6478037Y-77265627D01*
X6460641Y-77089000D01*
X6478037Y-76912373D01*
X6529557Y-76742534D01*
X6613222Y-76586009D01*
X6642552Y-76550271D01*
X6725814Y-76448814D01*
X6827271Y-76365552D01*
X6863009Y-76336222D01*
X7019534Y-76252557D01*
X7189373Y-76201037D01*
X7255558Y-76194518D01*
X7321740Y-76188000D01*
X7410260Y-76188000D01*
X7476442Y-76194518D01*
X7476442Y-76194518D01*
G37*
G36*
X92312442Y-75051518D02*
G01*
X92378627Y-75058037D01*
X92548466Y-75109557D01*
X92704991Y-75193222D01*
X92740729Y-75222552D01*
X92842186Y-75305814D01*
X92909376Y-75387687D01*
X92954778Y-75443009D01*
X93038443Y-75599534D01*
X93089963Y-75769373D01*
X93107359Y-75946000D01*
X93089963Y-76122627D01*
X93038443Y-76292466D01*
X92954778Y-76448991D01*
X92925448Y-76484729D01*
X92842186Y-76586186D01*
X92740729Y-76669448D01*
X92704991Y-76698778D01*
X92548466Y-76782443D01*
X92378627Y-76833963D01*
X92312442Y-76840482D01*
X92246260Y-76847000D01*
X92157740Y-76847000D01*
X92091558Y-76840482D01*
X92025373Y-76833963D01*
X91855534Y-76782443D01*
X91699009Y-76698778D01*
X91663271Y-76669448D01*
X91561814Y-76586186D01*
X91478552Y-76484729D01*
X91449222Y-76448991D01*
X91365557Y-76292466D01*
X91314037Y-76122627D01*
X91296641Y-75946000D01*
X91314037Y-75769373D01*
X91365557Y-75599534D01*
X91449222Y-75443009D01*
X91494624Y-75387687D01*
X91561814Y-75305814D01*
X91663271Y-75222552D01*
X91699009Y-75193222D01*
X91855534Y-75109557D01*
X92025373Y-75058037D01*
X92091558Y-75051518D01*
X92157740Y-75045000D01*
X92246260Y-75045000D01*
X92312442Y-75051518D01*
X92312442Y-75051518D01*
G37*
G36*
X94852442Y-75051518D02*
G01*
X94918627Y-75058037D01*
X95088466Y-75109557D01*
X95244991Y-75193222D01*
X95280729Y-75222552D01*
X95382186Y-75305814D01*
X95449376Y-75387687D01*
X95494778Y-75443009D01*
X95578443Y-75599534D01*
X95629963Y-75769373D01*
X95647359Y-75946000D01*
X95629963Y-76122627D01*
X95578443Y-76292466D01*
X95494778Y-76448991D01*
X95465448Y-76484729D01*
X95382186Y-76586186D01*
X95280729Y-76669448D01*
X95244991Y-76698778D01*
X95088466Y-76782443D01*
X94918627Y-76833963D01*
X94852442Y-76840482D01*
X94786260Y-76847000D01*
X94697740Y-76847000D01*
X94631558Y-76840482D01*
X94565373Y-76833963D01*
X94395534Y-76782443D01*
X94239009Y-76698778D01*
X94203271Y-76669448D01*
X94101814Y-76586186D01*
X94018552Y-76484729D01*
X93989222Y-76448991D01*
X93905557Y-76292466D01*
X93854037Y-76122627D01*
X93836641Y-75946000D01*
X93854037Y-75769373D01*
X93905557Y-75599534D01*
X93989222Y-75443009D01*
X94034624Y-75387687D01*
X94101814Y-75305814D01*
X94203271Y-75222552D01*
X94239009Y-75193222D01*
X94395534Y-75109557D01*
X94565373Y-75058037D01*
X94631558Y-75051518D01*
X94697740Y-75045000D01*
X94786260Y-75045000D01*
X94852442Y-75051518D01*
X94852442Y-75051518D01*
G37*
G36*
X7476442Y-73654518D02*
G01*
X7542627Y-73661037D01*
X7712466Y-73712557D01*
X7868991Y-73796222D01*
X7904729Y-73825552D01*
X8006186Y-73908814D01*
X8080585Y-73999471D01*
X8118778Y-74046009D01*
X8202443Y-74202534D01*
X8253963Y-74372373D01*
X8271359Y-74549000D01*
X8253963Y-74725627D01*
X8202443Y-74895466D01*
X8118778Y-75051991D01*
X8113816Y-75058037D01*
X8006186Y-75189186D01*
X7904729Y-75272448D01*
X7868991Y-75301778D01*
X7712466Y-75385443D01*
X7542627Y-75436963D01*
X7476443Y-75443481D01*
X7410260Y-75450000D01*
X7321740Y-75450000D01*
X7255557Y-75443481D01*
X7189373Y-75436963D01*
X7019534Y-75385443D01*
X6863009Y-75301778D01*
X6827271Y-75272448D01*
X6725814Y-75189186D01*
X6618184Y-75058037D01*
X6613222Y-75051991D01*
X6529557Y-74895466D01*
X6478037Y-74725627D01*
X6460641Y-74549000D01*
X6478037Y-74372373D01*
X6529557Y-74202534D01*
X6613222Y-74046009D01*
X6651415Y-73999471D01*
X6725814Y-73908814D01*
X6827271Y-73825552D01*
X6863009Y-73796222D01*
X7019534Y-73712557D01*
X7189373Y-73661037D01*
X7255558Y-73654518D01*
X7321740Y-73648000D01*
X7410260Y-73648000D01*
X7476442Y-73654518D01*
X7476442Y-73654518D01*
G37*
G36*
X4936442Y-73654518D02*
G01*
X5002627Y-73661037D01*
X5172466Y-73712557D01*
X5328991Y-73796222D01*
X5364729Y-73825552D01*
X5466186Y-73908814D01*
X5540585Y-73999471D01*
X5578778Y-74046009D01*
X5662443Y-74202534D01*
X5713963Y-74372373D01*
X5731359Y-74549000D01*
X5713963Y-74725627D01*
X5662443Y-74895466D01*
X5578778Y-75051991D01*
X5573816Y-75058037D01*
X5466186Y-75189186D01*
X5364729Y-75272448D01*
X5328991Y-75301778D01*
X5172466Y-75385443D01*
X5002627Y-75436963D01*
X4936443Y-75443481D01*
X4870260Y-75450000D01*
X4781740Y-75450000D01*
X4715557Y-75443481D01*
X4649373Y-75436963D01*
X4479534Y-75385443D01*
X4323009Y-75301778D01*
X4287271Y-75272448D01*
X4185814Y-75189186D01*
X4078184Y-75058037D01*
X4073222Y-75051991D01*
X3989557Y-74895466D01*
X3938037Y-74725627D01*
X3920641Y-74549000D01*
X3938037Y-74372373D01*
X3989557Y-74202534D01*
X4073222Y-74046009D01*
X4111415Y-73999471D01*
X4185814Y-73908814D01*
X4287271Y-73825552D01*
X4323009Y-73796222D01*
X4479534Y-73712557D01*
X4649373Y-73661037D01*
X4715558Y-73654518D01*
X4781740Y-73648000D01*
X4870260Y-73648000D01*
X4936442Y-73654518D01*
X4936442Y-73654518D01*
G37*
G36*
X39917823Y-73710313D02*
G01*
X40078242Y-73758976D01*
X40210906Y-73829886D01*
X40226078Y-73837996D01*
X40355659Y-73944341D01*
X40462004Y-74073922D01*
X40462005Y-74073924D01*
X40541024Y-74221758D01*
X40541025Y-74221761D01*
X40547299Y-74242443D01*
X40589687Y-74382177D01*
X40606117Y-74549000D01*
X40589687Y-74715823D01*
X40541024Y-74876242D01*
X40530747Y-74895468D01*
X40462004Y-75024078D01*
X40355659Y-75153659D01*
X40226078Y-75260004D01*
X40226076Y-75260005D01*
X40078242Y-75339024D01*
X39917823Y-75387687D01*
X39792804Y-75400000D01*
X39709196Y-75400000D01*
X39584177Y-75387687D01*
X39423758Y-75339024D01*
X39275924Y-75260005D01*
X39275922Y-75260004D01*
X39146341Y-75153659D01*
X39039996Y-75024078D01*
X38971253Y-74895468D01*
X38960976Y-74876242D01*
X38912313Y-74715823D01*
X38895883Y-74549000D01*
X38912313Y-74382177D01*
X38954701Y-74242443D01*
X38960975Y-74221761D01*
X38960976Y-74221758D01*
X39039995Y-74073924D01*
X39039996Y-74073922D01*
X39146341Y-73944341D01*
X39275922Y-73837996D01*
X39291094Y-73829886D01*
X39423758Y-73758976D01*
X39584177Y-73710313D01*
X39709196Y-73698000D01*
X39792804Y-73698000D01*
X39917823Y-73710313D01*
X39917823Y-73710313D01*
G37*
G36*
X32297823Y-73710313D02*
G01*
X32458242Y-73758976D01*
X32590906Y-73829886D01*
X32606078Y-73837996D01*
X32735659Y-73944341D01*
X32842004Y-74073922D01*
X32842005Y-74073924D01*
X32921024Y-74221758D01*
X32921025Y-74221761D01*
X32927299Y-74242443D01*
X32969687Y-74382177D01*
X32986117Y-74549000D01*
X32969687Y-74715823D01*
X32921024Y-74876242D01*
X32910747Y-74895468D01*
X32842004Y-75024078D01*
X32735659Y-75153659D01*
X32606078Y-75260004D01*
X32606076Y-75260005D01*
X32458242Y-75339024D01*
X32297823Y-75387687D01*
X32172804Y-75400000D01*
X32089196Y-75400000D01*
X31964177Y-75387687D01*
X31803758Y-75339024D01*
X31655924Y-75260005D01*
X31655922Y-75260004D01*
X31526341Y-75153659D01*
X31419996Y-75024078D01*
X31351253Y-74895468D01*
X31340976Y-74876242D01*
X31292313Y-74715823D01*
X31275883Y-74549000D01*
X31292313Y-74382177D01*
X31334701Y-74242443D01*
X31340975Y-74221761D01*
X31340976Y-74221758D01*
X31419995Y-74073924D01*
X31419996Y-74073922D01*
X31526341Y-73944341D01*
X31655922Y-73837996D01*
X31671094Y-73829886D01*
X31803758Y-73758976D01*
X31964177Y-73710313D01*
X32089196Y-73698000D01*
X32172804Y-73698000D01*
X32297823Y-73710313D01*
X32297823Y-73710313D01*
G37*
G36*
X92312442Y-72511518D02*
G01*
X92378627Y-72518037D01*
X92548466Y-72569557D01*
X92704991Y-72653222D01*
X92740729Y-72682552D01*
X92842186Y-72765814D01*
X92909376Y-72847687D01*
X92954778Y-72903009D01*
X93038443Y-73059534D01*
X93089963Y-73229373D01*
X93107359Y-73406000D01*
X93089963Y-73582627D01*
X93038443Y-73752466D01*
X92954778Y-73908991D01*
X92925767Y-73944341D01*
X92842186Y-74046186D01*
X92740729Y-74129448D01*
X92704991Y-74158778D01*
X92548466Y-74242443D01*
X92378627Y-74293963D01*
X92312443Y-74300481D01*
X92246260Y-74307000D01*
X92157740Y-74307000D01*
X92091557Y-74300481D01*
X92025373Y-74293963D01*
X91855534Y-74242443D01*
X91699009Y-74158778D01*
X91663271Y-74129448D01*
X91561814Y-74046186D01*
X91478233Y-73944341D01*
X91449222Y-73908991D01*
X91365557Y-73752466D01*
X91314037Y-73582627D01*
X91296641Y-73406000D01*
X91314037Y-73229373D01*
X91365557Y-73059534D01*
X91449222Y-72903009D01*
X91494624Y-72847687D01*
X91561814Y-72765814D01*
X91663271Y-72682552D01*
X91699009Y-72653222D01*
X91855534Y-72569557D01*
X92025373Y-72518037D01*
X92091558Y-72511518D01*
X92157740Y-72505000D01*
X92246260Y-72505000D01*
X92312442Y-72511518D01*
X92312442Y-72511518D01*
G37*
G36*
X94852442Y-72511518D02*
G01*
X94918627Y-72518037D01*
X95088466Y-72569557D01*
X95244991Y-72653222D01*
X95280729Y-72682552D01*
X95382186Y-72765814D01*
X95449376Y-72847687D01*
X95494778Y-72903009D01*
X95578443Y-73059534D01*
X95629963Y-73229373D01*
X95647359Y-73406000D01*
X95629963Y-73582627D01*
X95578443Y-73752466D01*
X95494778Y-73908991D01*
X95465767Y-73944341D01*
X95382186Y-74046186D01*
X95280729Y-74129448D01*
X95244991Y-74158778D01*
X95088466Y-74242443D01*
X94918627Y-74293963D01*
X94852443Y-74300481D01*
X94786260Y-74307000D01*
X94697740Y-74307000D01*
X94631557Y-74300481D01*
X94565373Y-74293963D01*
X94395534Y-74242443D01*
X94239009Y-74158778D01*
X94203271Y-74129448D01*
X94101814Y-74046186D01*
X94018233Y-73944341D01*
X93989222Y-73908991D01*
X93905557Y-73752466D01*
X93854037Y-73582627D01*
X93836641Y-73406000D01*
X93854037Y-73229373D01*
X93905557Y-73059534D01*
X93989222Y-72903009D01*
X94034624Y-72847687D01*
X94101814Y-72765814D01*
X94203271Y-72682552D01*
X94239009Y-72653222D01*
X94395534Y-72569557D01*
X94565373Y-72518037D01*
X94631558Y-72511518D01*
X94697740Y-72505000D01*
X94786260Y-72505000D01*
X94852442Y-72511518D01*
X94852442Y-72511518D01*
G37*
G36*
X64245142Y-72497242D02*
G01*
X64393101Y-72558529D01*
X64526255Y-72647499D01*
X64639501Y-72760745D01*
X64728471Y-72893899D01*
X64789758Y-73041858D01*
X64821000Y-73198925D01*
X64821000Y-73359075D01*
X64789758Y-73516142D01*
X64728471Y-73664101D01*
X64639501Y-73797255D01*
X64526255Y-73910501D01*
X64393101Y-73999471D01*
X64245142Y-74060758D01*
X64088075Y-74092000D01*
X63927925Y-74092000D01*
X63770858Y-74060758D01*
X63622899Y-73999471D01*
X63489745Y-73910501D01*
X63376499Y-73797255D01*
X63287529Y-73664101D01*
X63226242Y-73516142D01*
X63195000Y-73359075D01*
X63195000Y-73198925D01*
X63226242Y-73041858D01*
X63287529Y-72893899D01*
X63376499Y-72760745D01*
X63489745Y-72647499D01*
X63622899Y-72558529D01*
X63770858Y-72497242D01*
X63927925Y-72466000D01*
X64088075Y-72466000D01*
X64245142Y-72497242D01*
X64245142Y-72497242D01*
G37*
G36*
X49005142Y-72497242D02*
G01*
X49153101Y-72558529D01*
X49286255Y-72647499D01*
X49399501Y-72760745D01*
X49488471Y-72893899D01*
X49549758Y-73041858D01*
X49581000Y-73198925D01*
X49581000Y-73359075D01*
X49549758Y-73516142D01*
X49488471Y-73664101D01*
X49399501Y-73797255D01*
X49286255Y-73910501D01*
X49153101Y-73999471D01*
X49005142Y-74060758D01*
X48848075Y-74092000D01*
X48687925Y-74092000D01*
X48530858Y-74060758D01*
X48382899Y-73999471D01*
X48249745Y-73910501D01*
X48136499Y-73797255D01*
X48047529Y-73664101D01*
X47986242Y-73516142D01*
X47955000Y-73359075D01*
X47955000Y-73198925D01*
X47986242Y-73041858D01*
X48047529Y-72893899D01*
X48136499Y-72760745D01*
X48249745Y-72647499D01*
X48382899Y-72558529D01*
X48530858Y-72497242D01*
X48687925Y-72466000D01*
X48848075Y-72466000D01*
X49005142Y-72497242D01*
X49005142Y-72497242D01*
G37*
G36*
X7476443Y-71114519D02*
G01*
X7542627Y-71121037D01*
X7712466Y-71172557D01*
X7868991Y-71256222D01*
X7896864Y-71279097D01*
X8006186Y-71368814D01*
X8080585Y-71459471D01*
X8118778Y-71506009D01*
X8202443Y-71662534D01*
X8253963Y-71832373D01*
X8271359Y-72009000D01*
X8253963Y-72185627D01*
X8202443Y-72355466D01*
X8118778Y-72511991D01*
X8113816Y-72518037D01*
X8006186Y-72649186D01*
X7904729Y-72732448D01*
X7868991Y-72761778D01*
X7712466Y-72845443D01*
X7542627Y-72896963D01*
X7476442Y-72903482D01*
X7410260Y-72910000D01*
X7321740Y-72910000D01*
X7255558Y-72903482D01*
X7189373Y-72896963D01*
X7019534Y-72845443D01*
X6863009Y-72761778D01*
X6827271Y-72732448D01*
X6725814Y-72649186D01*
X6618184Y-72518037D01*
X6613222Y-72511991D01*
X6529557Y-72355466D01*
X6478037Y-72185627D01*
X6460641Y-72009000D01*
X6478037Y-71832373D01*
X6529557Y-71662534D01*
X6613222Y-71506009D01*
X6651415Y-71459471D01*
X6725814Y-71368814D01*
X6835136Y-71279097D01*
X6863009Y-71256222D01*
X7019534Y-71172557D01*
X7189373Y-71121037D01*
X7255557Y-71114519D01*
X7321740Y-71108000D01*
X7410260Y-71108000D01*
X7476443Y-71114519D01*
X7476443Y-71114519D01*
G37*
G36*
X4936443Y-71114519D02*
G01*
X5002627Y-71121037D01*
X5172466Y-71172557D01*
X5328991Y-71256222D01*
X5356864Y-71279097D01*
X5466186Y-71368814D01*
X5540585Y-71459471D01*
X5578778Y-71506009D01*
X5662443Y-71662534D01*
X5713963Y-71832373D01*
X5731359Y-72009000D01*
X5713963Y-72185627D01*
X5662443Y-72355466D01*
X5578778Y-72511991D01*
X5573816Y-72518037D01*
X5466186Y-72649186D01*
X5364729Y-72732448D01*
X5328991Y-72761778D01*
X5172466Y-72845443D01*
X5002627Y-72896963D01*
X4936442Y-72903482D01*
X4870260Y-72910000D01*
X4781740Y-72910000D01*
X4715558Y-72903482D01*
X4649373Y-72896963D01*
X4479534Y-72845443D01*
X4323009Y-72761778D01*
X4287271Y-72732448D01*
X4185814Y-72649186D01*
X4078184Y-72518037D01*
X4073222Y-72511991D01*
X3989557Y-72355466D01*
X3938037Y-72185627D01*
X3920641Y-72009000D01*
X3938037Y-71832373D01*
X3989557Y-71662534D01*
X4073222Y-71506009D01*
X4111415Y-71459471D01*
X4185814Y-71368814D01*
X4295136Y-71279097D01*
X4323009Y-71256222D01*
X4479534Y-71172557D01*
X4649373Y-71121037D01*
X4715557Y-71114519D01*
X4781740Y-71108000D01*
X4870260Y-71108000D01*
X4936443Y-71114519D01*
X4936443Y-71114519D01*
G37*
G36*
X32297823Y-71170313D02*
G01*
X32458242Y-71218976D01*
X32570720Y-71279097D01*
X32606078Y-71297996D01*
X32735659Y-71404341D01*
X32842004Y-71533922D01*
X32842005Y-71533924D01*
X32921024Y-71681758D01*
X32921025Y-71681761D01*
X32927299Y-71702443D01*
X32969687Y-71842177D01*
X32986117Y-72009000D01*
X32969687Y-72175823D01*
X32921024Y-72336242D01*
X32910747Y-72355468D01*
X32842004Y-72484078D01*
X32735659Y-72613659D01*
X32606078Y-72720004D01*
X32606076Y-72720005D01*
X32458242Y-72799024D01*
X32297823Y-72847687D01*
X32172804Y-72860000D01*
X32089196Y-72860000D01*
X31964177Y-72847687D01*
X31803758Y-72799024D01*
X31655924Y-72720005D01*
X31655922Y-72720004D01*
X31526341Y-72613659D01*
X31419996Y-72484078D01*
X31351253Y-72355468D01*
X31340976Y-72336242D01*
X31292313Y-72175823D01*
X31275883Y-72009000D01*
X31292313Y-71842177D01*
X31334701Y-71702443D01*
X31340975Y-71681761D01*
X31340976Y-71681758D01*
X31419995Y-71533924D01*
X31419996Y-71533922D01*
X31526341Y-71404341D01*
X31655922Y-71297996D01*
X31691280Y-71279097D01*
X31803758Y-71218976D01*
X31964177Y-71170313D01*
X32089196Y-71158000D01*
X32172804Y-71158000D01*
X32297823Y-71170313D01*
X32297823Y-71170313D01*
G37*
G36*
X39917823Y-71170313D02*
G01*
X40078242Y-71218976D01*
X40190720Y-71279097D01*
X40226078Y-71297996D01*
X40355659Y-71404341D01*
X40462004Y-71533922D01*
X40462005Y-71533924D01*
X40541024Y-71681758D01*
X40541025Y-71681761D01*
X40547299Y-71702443D01*
X40589687Y-71842177D01*
X40606117Y-72009000D01*
X40589687Y-72175823D01*
X40541024Y-72336242D01*
X40530747Y-72355468D01*
X40462004Y-72484078D01*
X40355659Y-72613659D01*
X40226078Y-72720004D01*
X40226076Y-72720005D01*
X40078242Y-72799024D01*
X39917823Y-72847687D01*
X39792804Y-72860000D01*
X39709196Y-72860000D01*
X39584177Y-72847687D01*
X39423758Y-72799024D01*
X39275924Y-72720005D01*
X39275922Y-72720004D01*
X39146341Y-72613659D01*
X39039996Y-72484078D01*
X38971253Y-72355468D01*
X38960976Y-72336242D01*
X38912313Y-72175823D01*
X38895883Y-72009000D01*
X38912313Y-71842177D01*
X38954701Y-71702443D01*
X38960975Y-71681761D01*
X38960976Y-71681758D01*
X39039995Y-71533924D01*
X39039996Y-71533922D01*
X39146341Y-71404341D01*
X39275922Y-71297996D01*
X39311280Y-71279097D01*
X39423758Y-71218976D01*
X39584177Y-71170313D01*
X39709196Y-71158000D01*
X39792804Y-71158000D01*
X39917823Y-71170313D01*
X39917823Y-71170313D01*
G37*
G36*
X92312443Y-69971519D02*
G01*
X92378627Y-69978037D01*
X92548466Y-70029557D01*
X92704991Y-70113222D01*
X92740729Y-70142552D01*
X92842186Y-70225814D01*
X92909376Y-70307687D01*
X92954778Y-70363009D01*
X93038443Y-70519534D01*
X93089963Y-70689373D01*
X93107359Y-70866000D01*
X93089963Y-71042627D01*
X93038443Y-71212466D01*
X92954778Y-71368991D01*
X92925767Y-71404341D01*
X92842186Y-71506186D01*
X92740729Y-71589448D01*
X92704991Y-71618778D01*
X92548466Y-71702443D01*
X92378627Y-71753963D01*
X92312442Y-71760482D01*
X92246260Y-71767000D01*
X92157740Y-71767000D01*
X92091558Y-71760482D01*
X92025373Y-71753963D01*
X91855534Y-71702443D01*
X91699009Y-71618778D01*
X91663271Y-71589448D01*
X91561814Y-71506186D01*
X91478233Y-71404341D01*
X91449222Y-71368991D01*
X91365557Y-71212466D01*
X91314037Y-71042627D01*
X91296641Y-70866000D01*
X91314037Y-70689373D01*
X91365557Y-70519534D01*
X91449222Y-70363009D01*
X91494624Y-70307687D01*
X91561814Y-70225814D01*
X91663271Y-70142552D01*
X91699009Y-70113222D01*
X91855534Y-70029557D01*
X92025373Y-69978037D01*
X92091557Y-69971519D01*
X92157740Y-69965000D01*
X92246260Y-69965000D01*
X92312443Y-69971519D01*
X92312443Y-69971519D01*
G37*
G36*
X94852443Y-69971519D02*
G01*
X94918627Y-69978037D01*
X95088466Y-70029557D01*
X95244991Y-70113222D01*
X95280729Y-70142552D01*
X95382186Y-70225814D01*
X95449376Y-70307687D01*
X95494778Y-70363009D01*
X95578443Y-70519534D01*
X95629963Y-70689373D01*
X95647359Y-70866000D01*
X95629963Y-71042627D01*
X95578443Y-71212466D01*
X95494778Y-71368991D01*
X95465767Y-71404341D01*
X95382186Y-71506186D01*
X95280729Y-71589448D01*
X95244991Y-71618778D01*
X95088466Y-71702443D01*
X94918627Y-71753963D01*
X94852442Y-71760482D01*
X94786260Y-71767000D01*
X94697740Y-71767000D01*
X94631558Y-71760482D01*
X94565373Y-71753963D01*
X94395534Y-71702443D01*
X94239009Y-71618778D01*
X94203271Y-71589448D01*
X94101814Y-71506186D01*
X94018233Y-71404341D01*
X93989222Y-71368991D01*
X93905557Y-71212466D01*
X93854037Y-71042627D01*
X93836641Y-70866000D01*
X93854037Y-70689373D01*
X93905557Y-70519534D01*
X93989222Y-70363009D01*
X94034624Y-70307687D01*
X94101814Y-70225814D01*
X94203271Y-70142552D01*
X94239009Y-70113222D01*
X94395534Y-70029557D01*
X94565373Y-69978037D01*
X94631557Y-69971519D01*
X94697740Y-69965000D01*
X94786260Y-69965000D01*
X94852443Y-69971519D01*
X94852443Y-69971519D01*
G37*
G36*
X81528228Y-70057703D02*
G01*
X81683100Y-70121853D01*
X81822481Y-70214985D01*
X81941015Y-70333519D01*
X82034147Y-70472900D01*
X82098297Y-70627772D01*
X82131000Y-70792184D01*
X82131000Y-70959816D01*
X82098297Y-71124228D01*
X82034147Y-71279100D01*
X81941015Y-71418481D01*
X81822481Y-71537015D01*
X81683100Y-71630147D01*
X81528228Y-71694297D01*
X81363816Y-71727000D01*
X81196184Y-71727000D01*
X81031772Y-71694297D01*
X80876900Y-71630147D01*
X80737519Y-71537015D01*
X80618985Y-71418481D01*
X80525853Y-71279100D01*
X80461703Y-71124228D01*
X80429000Y-70959816D01*
X80429000Y-70792184D01*
X80461703Y-70627772D01*
X80525853Y-70472900D01*
X80618985Y-70333519D01*
X80737519Y-70214985D01*
X80876900Y-70121853D01*
X81031772Y-70057703D01*
X81196184Y-70025000D01*
X81363816Y-70025000D01*
X81528228Y-70057703D01*
X81528228Y-70057703D01*
G37*
G36*
X74105228Y-70057703D02*
G01*
X74260100Y-70121853D01*
X74399481Y-70214985D01*
X74518015Y-70333519D01*
X74611147Y-70472900D01*
X74675297Y-70627772D01*
X74708000Y-70792184D01*
X74708000Y-70959816D01*
X74675297Y-71124228D01*
X74611147Y-71279100D01*
X74518015Y-71418481D01*
X74399481Y-71537015D01*
X74260100Y-71630147D01*
X74105228Y-71694297D01*
X73940816Y-71727000D01*
X73773184Y-71727000D01*
X73608772Y-71694297D01*
X73453900Y-71630147D01*
X73314519Y-71537015D01*
X73195985Y-71418481D01*
X73102853Y-71279100D01*
X73038703Y-71124228D01*
X73006000Y-70959816D01*
X73006000Y-70792184D01*
X73038703Y-70627772D01*
X73102853Y-70472900D01*
X73195985Y-70333519D01*
X73314519Y-70214985D01*
X73453900Y-70121853D01*
X73608772Y-70057703D01*
X73773184Y-70025000D01*
X73940816Y-70025000D01*
X74105228Y-70057703D01*
X74105228Y-70057703D01*
G37*
G36*
X64245142Y-69957242D02*
G01*
X64393101Y-70018529D01*
X64526255Y-70107499D01*
X64639501Y-70220745D01*
X64728471Y-70353899D01*
X64789758Y-70501858D01*
X64821000Y-70658925D01*
X64821000Y-70819075D01*
X64789758Y-70976142D01*
X64728471Y-71124101D01*
X64639501Y-71257255D01*
X64526255Y-71370501D01*
X64393101Y-71459471D01*
X64245142Y-71520758D01*
X64088075Y-71552000D01*
X63927925Y-71552000D01*
X63770858Y-71520758D01*
X63622899Y-71459471D01*
X63489745Y-71370501D01*
X63376499Y-71257255D01*
X63287529Y-71124101D01*
X63226242Y-70976142D01*
X63195000Y-70819075D01*
X63195000Y-70658925D01*
X63226242Y-70501858D01*
X63287529Y-70353899D01*
X63376499Y-70220745D01*
X63489745Y-70107499D01*
X63622899Y-70018529D01*
X63770858Y-69957242D01*
X63927925Y-69926000D01*
X64088075Y-69926000D01*
X64245142Y-69957242D01*
X64245142Y-69957242D01*
G37*
G36*
X49005142Y-69957242D02*
G01*
X49153101Y-70018529D01*
X49286255Y-70107499D01*
X49399501Y-70220745D01*
X49488471Y-70353899D01*
X49549758Y-70501858D01*
X49581000Y-70658925D01*
X49581000Y-70819075D01*
X49549758Y-70976142D01*
X49488471Y-71124101D01*
X49399501Y-71257255D01*
X49286255Y-71370501D01*
X49153101Y-71459471D01*
X49005142Y-71520758D01*
X48848075Y-71552000D01*
X48687925Y-71552000D01*
X48530858Y-71520758D01*
X48382899Y-71459471D01*
X48249745Y-71370501D01*
X48136499Y-71257255D01*
X48047529Y-71124101D01*
X47986242Y-70976142D01*
X47955000Y-70819075D01*
X47955000Y-70658925D01*
X47986242Y-70501858D01*
X48047529Y-70353899D01*
X48136499Y-70220745D01*
X48249745Y-70107499D01*
X48382899Y-70018529D01*
X48530858Y-69957242D01*
X48687925Y-69926000D01*
X48848075Y-69926000D01*
X49005142Y-69957242D01*
X49005142Y-69957242D01*
G37*
G36*
X4936442Y-68574518D02*
G01*
X5002627Y-68581037D01*
X5172466Y-68632557D01*
X5328991Y-68716222D01*
X5364729Y-68745552D01*
X5466186Y-68828814D01*
X5540585Y-68919471D01*
X5578778Y-68966009D01*
X5662443Y-69122534D01*
X5713963Y-69292373D01*
X5731359Y-69469000D01*
X5713963Y-69645627D01*
X5662443Y-69815466D01*
X5578778Y-69971991D01*
X5573816Y-69978037D01*
X5466186Y-70109186D01*
X5364729Y-70192448D01*
X5328991Y-70221778D01*
X5172466Y-70305443D01*
X5002627Y-70356963D01*
X4936443Y-70363481D01*
X4870260Y-70370000D01*
X4781740Y-70370000D01*
X4715557Y-70363481D01*
X4649373Y-70356963D01*
X4479534Y-70305443D01*
X4323009Y-70221778D01*
X4287271Y-70192448D01*
X4185814Y-70109186D01*
X4078184Y-69978037D01*
X4073222Y-69971991D01*
X3989557Y-69815466D01*
X3938037Y-69645627D01*
X3920641Y-69469000D01*
X3938037Y-69292373D01*
X3989557Y-69122534D01*
X4073222Y-68966009D01*
X4111415Y-68919471D01*
X4185814Y-68828814D01*
X4287271Y-68745552D01*
X4323009Y-68716222D01*
X4479534Y-68632557D01*
X4649373Y-68581037D01*
X4715558Y-68574518D01*
X4781740Y-68568000D01*
X4870260Y-68568000D01*
X4936442Y-68574518D01*
X4936442Y-68574518D01*
G37*
G36*
X7476442Y-68574518D02*
G01*
X7542627Y-68581037D01*
X7712466Y-68632557D01*
X7868991Y-68716222D01*
X7904729Y-68745552D01*
X8006186Y-68828814D01*
X8080585Y-68919471D01*
X8118778Y-68966009D01*
X8202443Y-69122534D01*
X8253963Y-69292373D01*
X8271359Y-69469000D01*
X8253963Y-69645627D01*
X8202443Y-69815466D01*
X8118778Y-69971991D01*
X8113816Y-69978037D01*
X8006186Y-70109186D01*
X7904729Y-70192448D01*
X7868991Y-70221778D01*
X7712466Y-70305443D01*
X7542627Y-70356963D01*
X7476443Y-70363481D01*
X7410260Y-70370000D01*
X7321740Y-70370000D01*
X7255557Y-70363481D01*
X7189373Y-70356963D01*
X7019534Y-70305443D01*
X6863009Y-70221778D01*
X6827271Y-70192448D01*
X6725814Y-70109186D01*
X6618184Y-69978037D01*
X6613222Y-69971991D01*
X6529557Y-69815466D01*
X6478037Y-69645627D01*
X6460641Y-69469000D01*
X6478037Y-69292373D01*
X6529557Y-69122534D01*
X6613222Y-68966009D01*
X6651415Y-68919471D01*
X6725814Y-68828814D01*
X6827271Y-68745552D01*
X6863009Y-68716222D01*
X7019534Y-68632557D01*
X7189373Y-68581037D01*
X7255558Y-68574518D01*
X7321740Y-68568000D01*
X7410260Y-68568000D01*
X7476442Y-68574518D01*
X7476442Y-68574518D01*
G37*
G36*
X39917823Y-68630313D02*
G01*
X40078242Y-68678976D01*
X40210906Y-68749886D01*
X40226078Y-68757996D01*
X40355659Y-68864341D01*
X40462004Y-68993922D01*
X40462005Y-68993924D01*
X40541024Y-69141758D01*
X40541025Y-69141761D01*
X40547299Y-69162443D01*
X40589687Y-69302177D01*
X40606117Y-69469000D01*
X40589687Y-69635823D01*
X40541024Y-69796242D01*
X40530747Y-69815468D01*
X40462004Y-69944078D01*
X40355659Y-70073659D01*
X40226078Y-70180004D01*
X40226076Y-70180005D01*
X40078242Y-70259024D01*
X39917823Y-70307687D01*
X39792804Y-70320000D01*
X39709196Y-70320000D01*
X39584177Y-70307687D01*
X39423758Y-70259024D01*
X39275924Y-70180005D01*
X39275922Y-70180004D01*
X39146341Y-70073659D01*
X39039996Y-69944078D01*
X38971253Y-69815468D01*
X38960976Y-69796242D01*
X38912313Y-69635823D01*
X38895883Y-69469000D01*
X38912313Y-69302177D01*
X38954701Y-69162443D01*
X38960975Y-69141761D01*
X38960976Y-69141758D01*
X39039995Y-68993924D01*
X39039996Y-68993922D01*
X39146341Y-68864341D01*
X39275922Y-68757996D01*
X39291094Y-68749886D01*
X39423758Y-68678976D01*
X39584177Y-68630313D01*
X39709196Y-68618000D01*
X39792804Y-68618000D01*
X39917823Y-68630313D01*
X39917823Y-68630313D01*
G37*
G36*
X32297823Y-68630313D02*
G01*
X32458242Y-68678976D01*
X32590906Y-68749886D01*
X32606078Y-68757996D01*
X32735659Y-68864341D01*
X32842004Y-68993922D01*
X32842005Y-68993924D01*
X32921024Y-69141758D01*
X32921025Y-69141761D01*
X32927299Y-69162443D01*
X32969687Y-69302177D01*
X32986117Y-69469000D01*
X32969687Y-69635823D01*
X32921024Y-69796242D01*
X32910747Y-69815468D01*
X32842004Y-69944078D01*
X32735659Y-70073659D01*
X32606078Y-70180004D01*
X32606076Y-70180005D01*
X32458242Y-70259024D01*
X32297823Y-70307687D01*
X32172804Y-70320000D01*
X32089196Y-70320000D01*
X31964177Y-70307687D01*
X31803758Y-70259024D01*
X31655924Y-70180005D01*
X31655922Y-70180004D01*
X31526341Y-70073659D01*
X31419996Y-69944078D01*
X31351253Y-69815468D01*
X31340976Y-69796242D01*
X31292313Y-69635823D01*
X31275883Y-69469000D01*
X31292313Y-69302177D01*
X31334701Y-69162443D01*
X31340975Y-69141761D01*
X31340976Y-69141758D01*
X31419995Y-68993924D01*
X31419996Y-68993922D01*
X31526341Y-68864341D01*
X31655922Y-68757996D01*
X31671094Y-68749886D01*
X31803758Y-68678976D01*
X31964177Y-68630313D01*
X32089196Y-68618000D01*
X32172804Y-68618000D01*
X32297823Y-68630313D01*
X32297823Y-68630313D01*
G37*
G36*
X92312442Y-67431518D02*
G01*
X92378627Y-67438037D01*
X92548466Y-67489557D01*
X92704991Y-67573222D01*
X92740729Y-67602552D01*
X92842186Y-67685814D01*
X92909376Y-67767687D01*
X92954778Y-67823009D01*
X93038443Y-67979534D01*
X93089963Y-68149373D01*
X93107359Y-68326000D01*
X93089963Y-68502627D01*
X93038443Y-68672466D01*
X92954778Y-68828991D01*
X92925767Y-68864341D01*
X92842186Y-68966186D01*
X92740729Y-69049448D01*
X92704991Y-69078778D01*
X92548466Y-69162443D01*
X92378627Y-69213963D01*
X92312443Y-69220481D01*
X92246260Y-69227000D01*
X92157740Y-69227000D01*
X92091557Y-69220481D01*
X92025373Y-69213963D01*
X91855534Y-69162443D01*
X91699009Y-69078778D01*
X91663271Y-69049448D01*
X91561814Y-68966186D01*
X91478233Y-68864341D01*
X91449222Y-68828991D01*
X91365557Y-68672466D01*
X91314037Y-68502627D01*
X91296641Y-68326000D01*
X91314037Y-68149373D01*
X91365557Y-67979534D01*
X91449222Y-67823009D01*
X91494624Y-67767687D01*
X91561814Y-67685814D01*
X91663271Y-67602552D01*
X91699009Y-67573222D01*
X91855534Y-67489557D01*
X92025373Y-67438037D01*
X92091558Y-67431518D01*
X92157740Y-67425000D01*
X92246260Y-67425000D01*
X92312442Y-67431518D01*
X92312442Y-67431518D01*
G37*
G36*
X94852442Y-67431518D02*
G01*
X94918627Y-67438037D01*
X95088466Y-67489557D01*
X95244991Y-67573222D01*
X95280729Y-67602552D01*
X95382186Y-67685814D01*
X95449376Y-67767687D01*
X95494778Y-67823009D01*
X95578443Y-67979534D01*
X95629963Y-68149373D01*
X95647359Y-68326000D01*
X95629963Y-68502627D01*
X95578443Y-68672466D01*
X95494778Y-68828991D01*
X95465767Y-68864341D01*
X95382186Y-68966186D01*
X95280729Y-69049448D01*
X95244991Y-69078778D01*
X95088466Y-69162443D01*
X94918627Y-69213963D01*
X94852443Y-69220481D01*
X94786260Y-69227000D01*
X94697740Y-69227000D01*
X94631557Y-69220481D01*
X94565373Y-69213963D01*
X94395534Y-69162443D01*
X94239009Y-69078778D01*
X94203271Y-69049448D01*
X94101814Y-68966186D01*
X94018233Y-68864341D01*
X93989222Y-68828991D01*
X93905557Y-68672466D01*
X93854037Y-68502627D01*
X93836641Y-68326000D01*
X93854037Y-68149373D01*
X93905557Y-67979534D01*
X93989222Y-67823009D01*
X94034624Y-67767687D01*
X94101814Y-67685814D01*
X94203271Y-67602552D01*
X94239009Y-67573222D01*
X94395534Y-67489557D01*
X94565373Y-67438037D01*
X94631558Y-67431518D01*
X94697740Y-67425000D01*
X94786260Y-67425000D01*
X94852442Y-67431518D01*
X94852442Y-67431518D01*
G37*
G36*
X64245142Y-67417242D02*
G01*
X64393101Y-67478529D01*
X64526255Y-67567499D01*
X64639501Y-67680745D01*
X64728471Y-67813899D01*
X64789758Y-67961858D01*
X64821000Y-68118925D01*
X64821000Y-68279075D01*
X64789758Y-68436142D01*
X64728471Y-68584101D01*
X64639501Y-68717255D01*
X64526255Y-68830501D01*
X64393101Y-68919471D01*
X64245142Y-68980758D01*
X64088075Y-69012000D01*
X63927925Y-69012000D01*
X63770858Y-68980758D01*
X63622899Y-68919471D01*
X63489745Y-68830501D01*
X63376499Y-68717255D01*
X63287529Y-68584101D01*
X63226242Y-68436142D01*
X63195000Y-68279075D01*
X63195000Y-68118925D01*
X63226242Y-67961858D01*
X63287529Y-67813899D01*
X63376499Y-67680745D01*
X63489745Y-67567499D01*
X63622899Y-67478529D01*
X63770858Y-67417242D01*
X63927925Y-67386000D01*
X64088075Y-67386000D01*
X64245142Y-67417242D01*
X64245142Y-67417242D01*
G37*
G36*
X49005142Y-67417242D02*
G01*
X49153101Y-67478529D01*
X49286255Y-67567499D01*
X49399501Y-67680745D01*
X49488471Y-67813899D01*
X49549758Y-67961858D01*
X49581000Y-68118925D01*
X49581000Y-68279075D01*
X49549758Y-68436142D01*
X49488471Y-68584101D01*
X49399501Y-68717255D01*
X49286255Y-68830501D01*
X49153101Y-68919471D01*
X49005142Y-68980758D01*
X48848075Y-69012000D01*
X48687925Y-69012000D01*
X48530858Y-68980758D01*
X48382899Y-68919471D01*
X48249745Y-68830501D01*
X48136499Y-68717255D01*
X48047529Y-68584101D01*
X47986242Y-68436142D01*
X47955000Y-68279075D01*
X47955000Y-68118925D01*
X47986242Y-67961858D01*
X48047529Y-67813899D01*
X48136499Y-67680745D01*
X48249745Y-67567499D01*
X48382899Y-67478529D01*
X48530858Y-67417242D01*
X48687925Y-67386000D01*
X48848075Y-67386000D01*
X49005142Y-67417242D01*
X49005142Y-67417242D01*
G37*
G36*
X7476442Y-66034518D02*
G01*
X7542627Y-66041037D01*
X7712466Y-66092557D01*
X7868991Y-66176222D01*
X7904729Y-66205552D01*
X8006186Y-66288814D01*
X8080585Y-66379471D01*
X8118778Y-66426009D01*
X8202443Y-66582534D01*
X8253963Y-66752373D01*
X8271359Y-66929000D01*
X8253963Y-67105627D01*
X8202443Y-67275466D01*
X8118778Y-67431991D01*
X8113816Y-67438037D01*
X8006186Y-67569186D01*
X7904729Y-67652448D01*
X7868991Y-67681778D01*
X7712466Y-67765443D01*
X7542627Y-67816963D01*
X7476442Y-67823482D01*
X7410260Y-67830000D01*
X7321740Y-67830000D01*
X7255558Y-67823482D01*
X7189373Y-67816963D01*
X7019534Y-67765443D01*
X6863009Y-67681778D01*
X6827271Y-67652448D01*
X6725814Y-67569186D01*
X6618184Y-67438037D01*
X6613222Y-67431991D01*
X6529557Y-67275466D01*
X6478037Y-67105627D01*
X6460641Y-66929000D01*
X6478037Y-66752373D01*
X6529557Y-66582534D01*
X6613222Y-66426009D01*
X6651415Y-66379471D01*
X6725814Y-66288814D01*
X6827271Y-66205552D01*
X6863009Y-66176222D01*
X7019534Y-66092557D01*
X7189373Y-66041037D01*
X7255558Y-66034518D01*
X7321740Y-66028000D01*
X7410260Y-66028000D01*
X7476442Y-66034518D01*
X7476442Y-66034518D01*
G37*
G36*
X4936442Y-66034518D02*
G01*
X5002627Y-66041037D01*
X5172466Y-66092557D01*
X5328991Y-66176222D01*
X5364729Y-66205552D01*
X5466186Y-66288814D01*
X5540585Y-66379471D01*
X5578778Y-66426009D01*
X5662443Y-66582534D01*
X5713963Y-66752373D01*
X5731359Y-66929000D01*
X5713963Y-67105627D01*
X5662443Y-67275466D01*
X5578778Y-67431991D01*
X5573816Y-67438037D01*
X5466186Y-67569186D01*
X5364729Y-67652448D01*
X5328991Y-67681778D01*
X5172466Y-67765443D01*
X5002627Y-67816963D01*
X4936442Y-67823482D01*
X4870260Y-67830000D01*
X4781740Y-67830000D01*
X4715558Y-67823482D01*
X4649373Y-67816963D01*
X4479534Y-67765443D01*
X4323009Y-67681778D01*
X4287271Y-67652448D01*
X4185814Y-67569186D01*
X4078184Y-67438037D01*
X4073222Y-67431991D01*
X3989557Y-67275466D01*
X3938037Y-67105627D01*
X3920641Y-66929000D01*
X3938037Y-66752373D01*
X3989557Y-66582534D01*
X4073222Y-66426009D01*
X4111415Y-66379471D01*
X4185814Y-66288814D01*
X4287271Y-66205552D01*
X4323009Y-66176222D01*
X4479534Y-66092557D01*
X4649373Y-66041037D01*
X4715558Y-66034518D01*
X4781740Y-66028000D01*
X4870260Y-66028000D01*
X4936442Y-66034518D01*
X4936442Y-66034518D01*
G37*
G36*
X39917823Y-66090313D02*
G01*
X40078242Y-66138976D01*
X40210906Y-66209886D01*
X40226078Y-66217996D01*
X40355659Y-66324341D01*
X40462004Y-66453922D01*
X40462005Y-66453924D01*
X40541024Y-66601758D01*
X40541025Y-66601761D01*
X40547299Y-66622443D01*
X40589687Y-66762177D01*
X40606117Y-66929000D01*
X40589687Y-67095823D01*
X40541024Y-67256242D01*
X40530747Y-67275468D01*
X40462004Y-67404078D01*
X40355659Y-67533659D01*
X40226078Y-67640004D01*
X40226076Y-67640005D01*
X40078242Y-67719024D01*
X39917823Y-67767687D01*
X39792804Y-67780000D01*
X39709196Y-67780000D01*
X39584177Y-67767687D01*
X39423758Y-67719024D01*
X39275924Y-67640005D01*
X39275922Y-67640004D01*
X39146341Y-67533659D01*
X39039996Y-67404078D01*
X38971253Y-67275468D01*
X38960976Y-67256242D01*
X38912313Y-67095823D01*
X38895883Y-66929000D01*
X38912313Y-66762177D01*
X38954701Y-66622443D01*
X38960975Y-66601761D01*
X38960976Y-66601758D01*
X39039995Y-66453924D01*
X39039996Y-66453922D01*
X39146341Y-66324341D01*
X39275922Y-66217996D01*
X39291094Y-66209886D01*
X39423758Y-66138976D01*
X39584177Y-66090313D01*
X39709196Y-66078000D01*
X39792804Y-66078000D01*
X39917823Y-66090313D01*
X39917823Y-66090313D01*
G37*
G36*
X32982000Y-67780000D02*
G01*
X31280000Y-67780000D01*
X31280000Y-66078000D01*
X32982000Y-66078000D01*
X32982000Y-67780000D01*
X32982000Y-67780000D01*
G37*
G36*
X92312442Y-64891518D02*
G01*
X92378627Y-64898037D01*
X92548466Y-64949557D01*
X92704991Y-65033222D01*
X92740729Y-65062552D01*
X92842186Y-65145814D01*
X92925448Y-65247271D01*
X92954778Y-65283009D01*
X93038443Y-65439534D01*
X93089963Y-65609373D01*
X93107359Y-65786000D01*
X93089963Y-65962627D01*
X93038443Y-66132466D01*
X92954778Y-66288991D01*
X92925767Y-66324341D01*
X92842186Y-66426186D01*
X92740729Y-66509448D01*
X92704991Y-66538778D01*
X92548466Y-66622443D01*
X92378627Y-66673963D01*
X92312442Y-66680482D01*
X92246260Y-66687000D01*
X92157740Y-66687000D01*
X92091558Y-66680482D01*
X92025373Y-66673963D01*
X91855534Y-66622443D01*
X91699009Y-66538778D01*
X91663271Y-66509448D01*
X91561814Y-66426186D01*
X91478233Y-66324341D01*
X91449222Y-66288991D01*
X91365557Y-66132466D01*
X91314037Y-65962627D01*
X91296641Y-65786000D01*
X91314037Y-65609373D01*
X91365557Y-65439534D01*
X91449222Y-65283009D01*
X91478552Y-65247271D01*
X91561814Y-65145814D01*
X91663271Y-65062552D01*
X91699009Y-65033222D01*
X91855534Y-64949557D01*
X92025373Y-64898037D01*
X92091558Y-64891518D01*
X92157740Y-64885000D01*
X92246260Y-64885000D01*
X92312442Y-64891518D01*
X92312442Y-64891518D01*
G37*
G36*
X94852442Y-64891518D02*
G01*
X94918627Y-64898037D01*
X95088466Y-64949557D01*
X95244991Y-65033222D01*
X95280729Y-65062552D01*
X95382186Y-65145814D01*
X95465448Y-65247271D01*
X95494778Y-65283009D01*
X95578443Y-65439534D01*
X95629963Y-65609373D01*
X95647359Y-65786000D01*
X95629963Y-65962627D01*
X95578443Y-66132466D01*
X95494778Y-66288991D01*
X95465767Y-66324341D01*
X95382186Y-66426186D01*
X95280729Y-66509448D01*
X95244991Y-66538778D01*
X95088466Y-66622443D01*
X94918627Y-66673963D01*
X94852442Y-66680482D01*
X94786260Y-66687000D01*
X94697740Y-66687000D01*
X94631558Y-66680482D01*
X94565373Y-66673963D01*
X94395534Y-66622443D01*
X94239009Y-66538778D01*
X94203271Y-66509448D01*
X94101814Y-66426186D01*
X94018233Y-66324341D01*
X93989222Y-66288991D01*
X93905557Y-66132466D01*
X93854037Y-65962627D01*
X93836641Y-65786000D01*
X93854037Y-65609373D01*
X93905557Y-65439534D01*
X93989222Y-65283009D01*
X94018552Y-65247271D01*
X94101814Y-65145814D01*
X94203271Y-65062552D01*
X94239009Y-65033222D01*
X94395534Y-64949557D01*
X94565373Y-64898037D01*
X94631558Y-64891518D01*
X94697740Y-64885000D01*
X94786260Y-64885000D01*
X94852442Y-64891518D01*
X94852442Y-64891518D01*
G37*
G36*
X64245142Y-64877242D02*
G01*
X64393101Y-64938529D01*
X64526255Y-65027499D01*
X64639501Y-65140745D01*
X64728471Y-65273899D01*
X64789758Y-65421858D01*
X64821000Y-65578925D01*
X64821000Y-65739075D01*
X64789758Y-65896142D01*
X64728471Y-66044101D01*
X64639501Y-66177255D01*
X64526255Y-66290501D01*
X64393101Y-66379471D01*
X64245142Y-66440758D01*
X64088075Y-66472000D01*
X63927925Y-66472000D01*
X63770858Y-66440758D01*
X63622899Y-66379471D01*
X63489745Y-66290501D01*
X63376499Y-66177255D01*
X63287529Y-66044101D01*
X63226242Y-65896142D01*
X63195000Y-65739075D01*
X63195000Y-65578925D01*
X63226242Y-65421858D01*
X63287529Y-65273899D01*
X63376499Y-65140745D01*
X63489745Y-65027499D01*
X63622899Y-64938529D01*
X63770858Y-64877242D01*
X63927925Y-64846000D01*
X64088075Y-64846000D01*
X64245142Y-64877242D01*
X64245142Y-64877242D01*
G37*
G36*
X49005142Y-64877242D02*
G01*
X49153101Y-64938529D01*
X49286255Y-65027499D01*
X49399501Y-65140745D01*
X49488471Y-65273899D01*
X49549758Y-65421858D01*
X49581000Y-65578925D01*
X49581000Y-65739075D01*
X49549758Y-65896142D01*
X49488471Y-66044101D01*
X49399501Y-66177255D01*
X49286255Y-66290501D01*
X49153101Y-66379471D01*
X49005142Y-66440758D01*
X48848075Y-66472000D01*
X48687925Y-66472000D01*
X48530858Y-66440758D01*
X48382899Y-66379471D01*
X48249745Y-66290501D01*
X48136499Y-66177255D01*
X48047529Y-66044101D01*
X47986242Y-65896142D01*
X47955000Y-65739075D01*
X47955000Y-65578925D01*
X47986242Y-65421858D01*
X48047529Y-65273899D01*
X48136499Y-65140745D01*
X48249745Y-65027499D01*
X48382899Y-64938529D01*
X48530858Y-64877242D01*
X48687925Y-64846000D01*
X48848075Y-64846000D01*
X49005142Y-64877242D01*
X49005142Y-64877242D01*
G37*
G36*
X7476443Y-63494519D02*
G01*
X7542627Y-63501037D01*
X7712466Y-63552557D01*
X7868991Y-63636222D01*
X7887584Y-63651481D01*
X8006186Y-63748814D01*
X8080585Y-63839471D01*
X8118778Y-63886009D01*
X8202443Y-64042534D01*
X8253963Y-64212373D01*
X8271359Y-64389000D01*
X8253963Y-64565627D01*
X8202443Y-64735466D01*
X8118778Y-64891991D01*
X8113816Y-64898037D01*
X8006186Y-65029186D01*
X7904729Y-65112448D01*
X7868991Y-65141778D01*
X7712466Y-65225443D01*
X7542627Y-65276963D01*
X7476443Y-65283481D01*
X7410260Y-65290000D01*
X7321740Y-65290000D01*
X7255557Y-65283481D01*
X7189373Y-65276963D01*
X7019534Y-65225443D01*
X6863009Y-65141778D01*
X6827271Y-65112448D01*
X6725814Y-65029186D01*
X6618184Y-64898037D01*
X6613222Y-64891991D01*
X6529557Y-64735466D01*
X6478037Y-64565627D01*
X6460641Y-64389000D01*
X6478037Y-64212373D01*
X6529557Y-64042534D01*
X6613222Y-63886009D01*
X6651415Y-63839471D01*
X6725814Y-63748814D01*
X6844416Y-63651481D01*
X6863009Y-63636222D01*
X7019534Y-63552557D01*
X7189373Y-63501037D01*
X7255557Y-63494519D01*
X7321740Y-63488000D01*
X7410260Y-63488000D01*
X7476443Y-63494519D01*
X7476443Y-63494519D01*
G37*
G36*
X4936443Y-63494519D02*
G01*
X5002627Y-63501037D01*
X5172466Y-63552557D01*
X5328991Y-63636222D01*
X5347584Y-63651481D01*
X5466186Y-63748814D01*
X5540585Y-63839471D01*
X5578778Y-63886009D01*
X5662443Y-64042534D01*
X5713963Y-64212373D01*
X5731359Y-64389000D01*
X5713963Y-64565627D01*
X5662443Y-64735466D01*
X5578778Y-64891991D01*
X5573816Y-64898037D01*
X5466186Y-65029186D01*
X5364729Y-65112448D01*
X5328991Y-65141778D01*
X5172466Y-65225443D01*
X5002627Y-65276963D01*
X4936443Y-65283481D01*
X4870260Y-65290000D01*
X4781740Y-65290000D01*
X4715557Y-65283481D01*
X4649373Y-65276963D01*
X4479534Y-65225443D01*
X4323009Y-65141778D01*
X4287271Y-65112448D01*
X4185814Y-65029186D01*
X4078184Y-64898037D01*
X4073222Y-64891991D01*
X3989557Y-64735466D01*
X3938037Y-64565627D01*
X3920641Y-64389000D01*
X3938037Y-64212373D01*
X3989557Y-64042534D01*
X4073222Y-63886009D01*
X4111415Y-63839471D01*
X4185814Y-63748814D01*
X4304416Y-63651481D01*
X4323009Y-63636222D01*
X4479534Y-63552557D01*
X4649373Y-63501037D01*
X4715557Y-63494519D01*
X4781740Y-63488000D01*
X4870260Y-63488000D01*
X4936443Y-63494519D01*
X4936443Y-63494519D01*
G37*
G36*
X94852443Y-62351519D02*
G01*
X94918627Y-62358037D01*
X95088466Y-62409557D01*
X95244991Y-62493222D01*
X95280729Y-62522552D01*
X95382186Y-62605814D01*
X95464323Y-62705900D01*
X95494778Y-62743009D01*
X95578443Y-62899534D01*
X95629963Y-63069373D01*
X95647359Y-63246000D01*
X95629963Y-63422627D01*
X95578443Y-63592466D01*
X95494778Y-63748991D01*
X95477524Y-63770015D01*
X95382186Y-63886186D01*
X95292242Y-63960000D01*
X95244991Y-63998778D01*
X95088466Y-64082443D01*
X94918627Y-64133963D01*
X94852443Y-64140481D01*
X94786260Y-64147000D01*
X94697740Y-64147000D01*
X94631557Y-64140481D01*
X94565373Y-64133963D01*
X94395534Y-64082443D01*
X94239009Y-63998778D01*
X94191758Y-63960000D01*
X94101814Y-63886186D01*
X94006476Y-63770015D01*
X93989222Y-63748991D01*
X93905557Y-63592466D01*
X93854037Y-63422627D01*
X93836641Y-63246000D01*
X93854037Y-63069373D01*
X93905557Y-62899534D01*
X93989222Y-62743009D01*
X94019677Y-62705900D01*
X94101814Y-62605814D01*
X94203271Y-62522552D01*
X94239009Y-62493222D01*
X94395534Y-62409557D01*
X94565373Y-62358037D01*
X94631557Y-62351519D01*
X94697740Y-62345000D01*
X94786260Y-62345000D01*
X94852443Y-62351519D01*
X94852443Y-62351519D01*
G37*
G36*
X92312443Y-62351519D02*
G01*
X92378627Y-62358037D01*
X92548466Y-62409557D01*
X92704991Y-62493222D01*
X92740729Y-62522552D01*
X92842186Y-62605814D01*
X92924323Y-62705900D01*
X92954778Y-62743009D01*
X93038443Y-62899534D01*
X93089963Y-63069373D01*
X93107359Y-63246000D01*
X93089963Y-63422627D01*
X93038443Y-63592466D01*
X92954778Y-63748991D01*
X92937524Y-63770015D01*
X92842186Y-63886186D01*
X92752242Y-63960000D01*
X92704991Y-63998778D01*
X92548466Y-64082443D01*
X92378627Y-64133963D01*
X92312443Y-64140481D01*
X92246260Y-64147000D01*
X92157740Y-64147000D01*
X92091557Y-64140481D01*
X92025373Y-64133963D01*
X91855534Y-64082443D01*
X91699009Y-63998778D01*
X91651758Y-63960000D01*
X91561814Y-63886186D01*
X91466476Y-63770015D01*
X91449222Y-63748991D01*
X91365557Y-63592466D01*
X91314037Y-63422627D01*
X91296641Y-63246000D01*
X91314037Y-63069373D01*
X91365557Y-62899534D01*
X91449222Y-62743009D01*
X91479677Y-62705900D01*
X91561814Y-62605814D01*
X91663271Y-62522552D01*
X91699009Y-62493222D01*
X91855534Y-62409557D01*
X92025373Y-62358037D01*
X92091557Y-62351519D01*
X92157740Y-62345000D01*
X92246260Y-62345000D01*
X92312443Y-62351519D01*
X92312443Y-62351519D01*
G37*
G36*
X17901228Y-62290703D02*
G01*
X18056100Y-62354853D01*
X18195481Y-62447985D01*
X18314015Y-62566519D01*
X18407147Y-62705900D01*
X18471297Y-62860772D01*
X18504000Y-63025184D01*
X18504000Y-63192816D01*
X18471297Y-63357228D01*
X18407147Y-63512100D01*
X18314015Y-63651481D01*
X18195481Y-63770015D01*
X18056100Y-63863147D01*
X17901228Y-63927297D01*
X17736816Y-63960000D01*
X17569184Y-63960000D01*
X17404772Y-63927297D01*
X17249900Y-63863147D01*
X17110519Y-63770015D01*
X16991985Y-63651481D01*
X16898853Y-63512100D01*
X16834703Y-63357228D01*
X16802000Y-63192816D01*
X16802000Y-63025184D01*
X16834703Y-62860772D01*
X16898853Y-62705900D01*
X16991985Y-62566519D01*
X17110519Y-62447985D01*
X17249900Y-62354853D01*
X17404772Y-62290703D01*
X17569184Y-62258000D01*
X17736816Y-62258000D01*
X17901228Y-62290703D01*
X17901228Y-62290703D01*
G37*
G36*
X25515228Y-62290703D02*
G01*
X25670100Y-62354853D01*
X25809481Y-62447985D01*
X25928015Y-62566519D01*
X26021147Y-62705900D01*
X26085297Y-62860772D01*
X26118000Y-63025184D01*
X26118000Y-63192816D01*
X26085297Y-63357228D01*
X26021147Y-63512100D01*
X25928015Y-63651481D01*
X25809481Y-63770015D01*
X25670100Y-63863147D01*
X25515228Y-63927297D01*
X25350816Y-63960000D01*
X25183184Y-63960000D01*
X25018772Y-63927297D01*
X24863900Y-63863147D01*
X24724519Y-63770015D01*
X24605985Y-63651481D01*
X24512853Y-63512100D01*
X24448703Y-63357228D01*
X24416000Y-63192816D01*
X24416000Y-63025184D01*
X24448703Y-62860772D01*
X24512853Y-62705900D01*
X24605985Y-62566519D01*
X24724519Y-62447985D01*
X24863900Y-62354853D01*
X25018772Y-62290703D01*
X25183184Y-62258000D01*
X25350816Y-62258000D01*
X25515228Y-62290703D01*
X25515228Y-62290703D01*
G37*
G36*
X49005142Y-62337242D02*
G01*
X49153101Y-62398529D01*
X49286255Y-62487499D01*
X49399501Y-62600745D01*
X49488471Y-62733899D01*
X49549758Y-62881858D01*
X49581000Y-63038925D01*
X49581000Y-63199075D01*
X49549758Y-63356142D01*
X49488471Y-63504101D01*
X49399501Y-63637255D01*
X49286255Y-63750501D01*
X49153101Y-63839471D01*
X49005142Y-63900758D01*
X48848075Y-63932000D01*
X48687925Y-63932000D01*
X48530858Y-63900758D01*
X48382899Y-63839471D01*
X48249745Y-63750501D01*
X48136499Y-63637255D01*
X48047529Y-63504101D01*
X47986242Y-63356142D01*
X47955000Y-63199075D01*
X47955000Y-63038925D01*
X47986242Y-62881858D01*
X48047529Y-62733899D01*
X48136499Y-62600745D01*
X48249745Y-62487499D01*
X48382899Y-62398529D01*
X48530858Y-62337242D01*
X48687925Y-62306000D01*
X48848075Y-62306000D01*
X49005142Y-62337242D01*
X49005142Y-62337242D01*
G37*
G36*
X64245142Y-62337242D02*
G01*
X64393101Y-62398529D01*
X64526255Y-62487499D01*
X64639501Y-62600745D01*
X64728471Y-62733899D01*
X64789758Y-62881858D01*
X64821000Y-63038925D01*
X64821000Y-63199075D01*
X64789758Y-63356142D01*
X64728471Y-63504101D01*
X64639501Y-63637255D01*
X64526255Y-63750501D01*
X64393101Y-63839471D01*
X64245142Y-63900758D01*
X64088075Y-63932000D01*
X63927925Y-63932000D01*
X63770858Y-63900758D01*
X63622899Y-63839471D01*
X63489745Y-63750501D01*
X63376499Y-63637255D01*
X63287529Y-63504101D01*
X63226242Y-63356142D01*
X63195000Y-63199075D01*
X63195000Y-63038925D01*
X63226242Y-62881858D01*
X63287529Y-62733899D01*
X63376499Y-62600745D01*
X63489745Y-62487499D01*
X63622899Y-62398529D01*
X63770858Y-62337242D01*
X63927925Y-62306000D01*
X64088075Y-62306000D01*
X64245142Y-62337242D01*
X64245142Y-62337242D01*
G37*
G36*
X7476443Y-60954519D02*
G01*
X7542627Y-60961037D01*
X7712466Y-61012557D01*
X7868991Y-61096222D01*
X7904729Y-61125552D01*
X8006186Y-61208814D01*
X8080585Y-61299471D01*
X8118778Y-61346009D01*
X8202443Y-61502534D01*
X8253963Y-61672373D01*
X8271359Y-61849000D01*
X8253963Y-62025627D01*
X8202443Y-62195466D01*
X8118778Y-62351991D01*
X8116429Y-62354853D01*
X8006186Y-62489186D01*
X7911954Y-62566519D01*
X7868991Y-62601778D01*
X7712466Y-62685443D01*
X7542627Y-62736963D01*
X7476442Y-62743482D01*
X7410260Y-62750000D01*
X7321740Y-62750000D01*
X7255558Y-62743482D01*
X7189373Y-62736963D01*
X7019534Y-62685443D01*
X6863009Y-62601778D01*
X6820046Y-62566519D01*
X6725814Y-62489186D01*
X6615571Y-62354853D01*
X6613222Y-62351991D01*
X6529557Y-62195466D01*
X6478037Y-62025627D01*
X6460641Y-61849000D01*
X6478037Y-61672373D01*
X6529557Y-61502534D01*
X6613222Y-61346009D01*
X6651415Y-61299471D01*
X6725814Y-61208814D01*
X6827271Y-61125552D01*
X6863009Y-61096222D01*
X7019534Y-61012557D01*
X7189373Y-60961037D01*
X7255557Y-60954519D01*
X7321740Y-60948000D01*
X7410260Y-60948000D01*
X7476443Y-60954519D01*
X7476443Y-60954519D01*
G37*
G36*
X4936443Y-60954519D02*
G01*
X5002627Y-60961037D01*
X5172466Y-61012557D01*
X5328991Y-61096222D01*
X5364729Y-61125552D01*
X5466186Y-61208814D01*
X5540585Y-61299471D01*
X5578778Y-61346009D01*
X5662443Y-61502534D01*
X5713963Y-61672373D01*
X5731359Y-61849000D01*
X5713963Y-62025627D01*
X5662443Y-62195466D01*
X5578778Y-62351991D01*
X5576429Y-62354853D01*
X5466186Y-62489186D01*
X5371954Y-62566519D01*
X5328991Y-62601778D01*
X5172466Y-62685443D01*
X5002627Y-62736963D01*
X4936442Y-62743482D01*
X4870260Y-62750000D01*
X4781740Y-62750000D01*
X4715558Y-62743482D01*
X4649373Y-62736963D01*
X4479534Y-62685443D01*
X4323009Y-62601778D01*
X4280046Y-62566519D01*
X4185814Y-62489186D01*
X4075571Y-62354853D01*
X4073222Y-62351991D01*
X3989557Y-62195466D01*
X3938037Y-62025627D01*
X3920641Y-61849000D01*
X3938037Y-61672373D01*
X3989557Y-61502534D01*
X4073222Y-61346009D01*
X4111415Y-61299471D01*
X4185814Y-61208814D01*
X4287271Y-61125552D01*
X4323009Y-61096222D01*
X4479534Y-61012557D01*
X4649373Y-60961037D01*
X4715557Y-60954519D01*
X4781740Y-60948000D01*
X4870260Y-60948000D01*
X4936443Y-60954519D01*
X4936443Y-60954519D01*
G37*
G36*
X94852443Y-59811519D02*
G01*
X94918627Y-59818037D01*
X95088466Y-59869557D01*
X95244991Y-59953222D01*
X95280729Y-59982552D01*
X95382186Y-60065814D01*
X95465448Y-60167271D01*
X95494778Y-60203009D01*
X95578443Y-60359534D01*
X95629963Y-60529373D01*
X95647359Y-60706000D01*
X95629963Y-60882627D01*
X95578443Y-61052466D01*
X95494778Y-61208991D01*
X95465448Y-61244729D01*
X95382186Y-61346186D01*
X95280729Y-61429448D01*
X95244991Y-61458778D01*
X95088466Y-61542443D01*
X94918627Y-61593963D01*
X94852442Y-61600482D01*
X94786260Y-61607000D01*
X94697740Y-61607000D01*
X94631558Y-61600482D01*
X94565373Y-61593963D01*
X94395534Y-61542443D01*
X94239009Y-61458778D01*
X94203271Y-61429448D01*
X94101814Y-61346186D01*
X94018552Y-61244729D01*
X93989222Y-61208991D01*
X93905557Y-61052466D01*
X93854037Y-60882627D01*
X93836641Y-60706000D01*
X93854037Y-60529373D01*
X93905557Y-60359534D01*
X93989222Y-60203009D01*
X94018552Y-60167271D01*
X94101814Y-60065814D01*
X94203271Y-59982552D01*
X94239009Y-59953222D01*
X94395534Y-59869557D01*
X94565373Y-59818037D01*
X94631557Y-59811519D01*
X94697740Y-59805000D01*
X94786260Y-59805000D01*
X94852443Y-59811519D01*
X94852443Y-59811519D01*
G37*
G36*
X92312443Y-59811519D02*
G01*
X92378627Y-59818037D01*
X92548466Y-59869557D01*
X92704991Y-59953222D01*
X92740729Y-59982552D01*
X92842186Y-60065814D01*
X92925448Y-60167271D01*
X92954778Y-60203009D01*
X93038443Y-60359534D01*
X93089963Y-60529373D01*
X93107359Y-60706000D01*
X93089963Y-60882627D01*
X93038443Y-61052466D01*
X92954778Y-61208991D01*
X92925448Y-61244729D01*
X92842186Y-61346186D01*
X92740729Y-61429448D01*
X92704991Y-61458778D01*
X92548466Y-61542443D01*
X92378627Y-61593963D01*
X92312442Y-61600482D01*
X92246260Y-61607000D01*
X92157740Y-61607000D01*
X92091558Y-61600482D01*
X92025373Y-61593963D01*
X91855534Y-61542443D01*
X91699009Y-61458778D01*
X91663271Y-61429448D01*
X91561814Y-61346186D01*
X91478552Y-61244729D01*
X91449222Y-61208991D01*
X91365557Y-61052466D01*
X91314037Y-60882627D01*
X91296641Y-60706000D01*
X91314037Y-60529373D01*
X91365557Y-60359534D01*
X91449222Y-60203009D01*
X91478552Y-60167271D01*
X91561814Y-60065814D01*
X91663271Y-59982552D01*
X91699009Y-59953222D01*
X91855534Y-59869557D01*
X92025373Y-59818037D01*
X92091557Y-59811519D01*
X92157740Y-59805000D01*
X92246260Y-59805000D01*
X92312443Y-59811519D01*
X92312443Y-59811519D01*
G37*
G36*
X64245142Y-59797242D02*
G01*
X64393101Y-59858529D01*
X64526255Y-59947499D01*
X64639501Y-60060745D01*
X64728471Y-60193899D01*
X64789758Y-60341858D01*
X64821000Y-60498925D01*
X64821000Y-60659075D01*
X64789758Y-60816142D01*
X64728471Y-60964101D01*
X64639501Y-61097255D01*
X64526255Y-61210501D01*
X64393101Y-61299471D01*
X64245142Y-61360758D01*
X64088075Y-61392000D01*
X63927925Y-61392000D01*
X63770858Y-61360758D01*
X63622899Y-61299471D01*
X63489745Y-61210501D01*
X63376499Y-61097255D01*
X63287529Y-60964101D01*
X63226242Y-60816142D01*
X63195000Y-60659075D01*
X63195000Y-60498925D01*
X63226242Y-60341858D01*
X63287529Y-60193899D01*
X63376499Y-60060745D01*
X63489745Y-59947499D01*
X63622899Y-59858529D01*
X63770858Y-59797242D01*
X63927925Y-59766000D01*
X64088075Y-59766000D01*
X64245142Y-59797242D01*
X64245142Y-59797242D01*
G37*
G36*
X49005142Y-59797242D02*
G01*
X49153101Y-59858529D01*
X49286255Y-59947499D01*
X49399501Y-60060745D01*
X49488471Y-60193899D01*
X49549758Y-60341858D01*
X49581000Y-60498925D01*
X49581000Y-60659075D01*
X49549758Y-60816142D01*
X49488471Y-60964101D01*
X49399501Y-61097255D01*
X49286255Y-61210501D01*
X49153101Y-61299471D01*
X49005142Y-61360758D01*
X48848075Y-61392000D01*
X48687925Y-61392000D01*
X48530858Y-61360758D01*
X48382899Y-61299471D01*
X48249745Y-61210501D01*
X48136499Y-61097255D01*
X48047529Y-60964101D01*
X47986242Y-60816142D01*
X47955000Y-60659075D01*
X47955000Y-60498925D01*
X47986242Y-60341858D01*
X48047529Y-60193899D01*
X48136499Y-60060745D01*
X48249745Y-59947499D01*
X48382899Y-59858529D01*
X48530858Y-59797242D01*
X48687925Y-59766000D01*
X48848075Y-59766000D01*
X49005142Y-59797242D01*
X49005142Y-59797242D01*
G37*
G36*
X4936443Y-58414519D02*
G01*
X5002627Y-58421037D01*
X5172466Y-58472557D01*
X5328991Y-58556222D01*
X5364729Y-58585552D01*
X5466186Y-58668814D01*
X5540585Y-58759471D01*
X5578778Y-58806009D01*
X5662443Y-58962534D01*
X5713963Y-59132373D01*
X5731359Y-59309000D01*
X5713963Y-59485627D01*
X5662443Y-59655466D01*
X5578778Y-59811991D01*
X5573816Y-59818037D01*
X5466186Y-59949186D01*
X5364729Y-60032448D01*
X5328991Y-60061778D01*
X5172466Y-60145443D01*
X5002627Y-60196963D01*
X4936443Y-60203481D01*
X4870260Y-60210000D01*
X4781740Y-60210000D01*
X4715557Y-60203481D01*
X4649373Y-60196963D01*
X4479534Y-60145443D01*
X4323009Y-60061778D01*
X4287271Y-60032448D01*
X4185814Y-59949186D01*
X4078184Y-59818037D01*
X4073222Y-59811991D01*
X3989557Y-59655466D01*
X3938037Y-59485627D01*
X3920641Y-59309000D01*
X3938037Y-59132373D01*
X3989557Y-58962534D01*
X4073222Y-58806009D01*
X4111415Y-58759471D01*
X4185814Y-58668814D01*
X4287271Y-58585552D01*
X4323009Y-58556222D01*
X4479534Y-58472557D01*
X4649373Y-58421037D01*
X4715557Y-58414519D01*
X4781740Y-58408000D01*
X4870260Y-58408000D01*
X4936443Y-58414519D01*
X4936443Y-58414519D01*
G37*
G36*
X7476443Y-58414519D02*
G01*
X7542627Y-58421037D01*
X7712466Y-58472557D01*
X7868991Y-58556222D01*
X7904729Y-58585552D01*
X8006186Y-58668814D01*
X8080585Y-58759471D01*
X8118778Y-58806009D01*
X8202443Y-58962534D01*
X8253963Y-59132373D01*
X8271359Y-59309000D01*
X8253963Y-59485627D01*
X8202443Y-59655466D01*
X8118778Y-59811991D01*
X8113816Y-59818037D01*
X8006186Y-59949186D01*
X7904729Y-60032448D01*
X7868991Y-60061778D01*
X7712466Y-60145443D01*
X7542627Y-60196963D01*
X7476443Y-60203481D01*
X7410260Y-60210000D01*
X7321740Y-60210000D01*
X7255557Y-60203481D01*
X7189373Y-60196963D01*
X7019534Y-60145443D01*
X6863009Y-60061778D01*
X6827271Y-60032448D01*
X6725814Y-59949186D01*
X6618184Y-59818037D01*
X6613222Y-59811991D01*
X6529557Y-59655466D01*
X6478037Y-59485627D01*
X6460641Y-59309000D01*
X6478037Y-59132373D01*
X6529557Y-58962534D01*
X6613222Y-58806009D01*
X6651415Y-58759471D01*
X6725814Y-58668814D01*
X6827271Y-58585552D01*
X6863009Y-58556222D01*
X7019534Y-58472557D01*
X7189373Y-58421037D01*
X7255557Y-58414519D01*
X7321740Y-58408000D01*
X7410260Y-58408000D01*
X7476443Y-58414519D01*
X7476443Y-58414519D01*
G37*
G36*
X92312443Y-57271519D02*
G01*
X92378627Y-57278037D01*
X92548466Y-57329557D01*
X92704991Y-57413222D01*
X92740729Y-57442552D01*
X92842186Y-57525814D01*
X92925448Y-57627271D01*
X92954778Y-57663009D01*
X93038443Y-57819534D01*
X93089963Y-57989373D01*
X93107359Y-58166000D01*
X93089963Y-58342627D01*
X93038443Y-58512466D01*
X92954778Y-58668991D01*
X92925448Y-58704729D01*
X92842186Y-58806186D01*
X92740729Y-58889448D01*
X92704991Y-58918778D01*
X92548466Y-59002443D01*
X92378627Y-59053963D01*
X92312443Y-59060481D01*
X92246260Y-59067000D01*
X92157740Y-59067000D01*
X92091557Y-59060481D01*
X92025373Y-59053963D01*
X91855534Y-59002443D01*
X91699009Y-58918778D01*
X91663271Y-58889448D01*
X91561814Y-58806186D01*
X91478552Y-58704729D01*
X91449222Y-58668991D01*
X91365557Y-58512466D01*
X91314037Y-58342627D01*
X91296641Y-58166000D01*
X91314037Y-57989373D01*
X91365557Y-57819534D01*
X91449222Y-57663009D01*
X91478552Y-57627271D01*
X91561814Y-57525814D01*
X91663271Y-57442552D01*
X91699009Y-57413222D01*
X91855534Y-57329557D01*
X92025373Y-57278037D01*
X92091557Y-57271519D01*
X92157740Y-57265000D01*
X92246260Y-57265000D01*
X92312443Y-57271519D01*
X92312443Y-57271519D01*
G37*
G36*
X95643000Y-59067000D02*
G01*
X93841000Y-59067000D01*
X93841000Y-57265000D01*
X95643000Y-57265000D01*
X95643000Y-59067000D01*
X95643000Y-59067000D01*
G37*
G36*
X49005142Y-57257242D02*
G01*
X49153101Y-57318529D01*
X49286255Y-57407499D01*
X49399501Y-57520745D01*
X49488471Y-57653899D01*
X49549758Y-57801858D01*
X49581000Y-57958925D01*
X49581000Y-58119075D01*
X49549758Y-58276142D01*
X49488471Y-58424101D01*
X49399501Y-58557255D01*
X49286255Y-58670501D01*
X49153101Y-58759471D01*
X49005142Y-58820758D01*
X48848075Y-58852000D01*
X48687925Y-58852000D01*
X48530858Y-58820758D01*
X48382899Y-58759471D01*
X48249745Y-58670501D01*
X48136499Y-58557255D01*
X48047529Y-58424101D01*
X47986242Y-58276142D01*
X47955000Y-58119075D01*
X47955000Y-57958925D01*
X47986242Y-57801858D01*
X48047529Y-57653899D01*
X48136499Y-57520745D01*
X48249745Y-57407499D01*
X48382899Y-57318529D01*
X48530858Y-57257242D01*
X48687925Y-57226000D01*
X48848075Y-57226000D01*
X49005142Y-57257242D01*
X49005142Y-57257242D01*
G37*
G36*
X64245142Y-57257242D02*
G01*
X64393101Y-57318529D01*
X64526255Y-57407499D01*
X64639501Y-57520745D01*
X64728471Y-57653899D01*
X64789758Y-57801858D01*
X64821000Y-57958925D01*
X64821000Y-58119075D01*
X64789758Y-58276142D01*
X64728471Y-58424101D01*
X64639501Y-58557255D01*
X64526255Y-58670501D01*
X64393101Y-58759471D01*
X64245142Y-58820758D01*
X64088075Y-58852000D01*
X63927925Y-58852000D01*
X63770858Y-58820758D01*
X63622899Y-58759471D01*
X63489745Y-58670501D01*
X63376499Y-58557255D01*
X63287529Y-58424101D01*
X63226242Y-58276142D01*
X63195000Y-58119075D01*
X63195000Y-57958925D01*
X63226242Y-57801858D01*
X63287529Y-57653899D01*
X63376499Y-57520745D01*
X63489745Y-57407499D01*
X63622899Y-57318529D01*
X63770858Y-57257242D01*
X63927925Y-57226000D01*
X64088075Y-57226000D01*
X64245142Y-57257242D01*
X64245142Y-57257242D01*
G37*
G36*
X4936442Y-55874518D02*
G01*
X5002627Y-55881037D01*
X5172466Y-55932557D01*
X5328991Y-56016222D01*
X5364729Y-56045552D01*
X5466186Y-56128814D01*
X5540585Y-56219471D01*
X5578778Y-56266009D01*
X5662443Y-56422534D01*
X5713963Y-56592373D01*
X5731359Y-56769000D01*
X5713963Y-56945627D01*
X5662443Y-57115466D01*
X5578778Y-57271991D01*
X5573816Y-57278037D01*
X5466186Y-57409186D01*
X5364729Y-57492448D01*
X5328991Y-57521778D01*
X5172466Y-57605443D01*
X5002627Y-57656963D01*
X4936442Y-57663482D01*
X4870260Y-57670000D01*
X4781740Y-57670000D01*
X4715558Y-57663482D01*
X4649373Y-57656963D01*
X4479534Y-57605443D01*
X4323009Y-57521778D01*
X4287271Y-57492448D01*
X4185814Y-57409186D01*
X4078184Y-57278037D01*
X4073222Y-57271991D01*
X3989557Y-57115466D01*
X3938037Y-56945627D01*
X3920641Y-56769000D01*
X3938037Y-56592373D01*
X3989557Y-56422534D01*
X4073222Y-56266009D01*
X4111415Y-56219471D01*
X4185814Y-56128814D01*
X4287271Y-56045552D01*
X4323009Y-56016222D01*
X4479534Y-55932557D01*
X4649373Y-55881037D01*
X4715558Y-55874518D01*
X4781740Y-55868000D01*
X4870260Y-55868000D01*
X4936442Y-55874518D01*
X4936442Y-55874518D01*
G37*
G36*
X8267000Y-57670000D02*
G01*
X6465000Y-57670000D01*
X6465000Y-55868000D01*
X8267000Y-55868000D01*
X8267000Y-57670000D01*
X8267000Y-57670000D01*
G37*
G36*
X74023823Y-54797313D02*
G01*
X74184242Y-54845976D01*
X74224512Y-54867501D01*
X74332078Y-54924996D01*
X74461659Y-55031341D01*
X74568004Y-55160922D01*
X74568005Y-55160924D01*
X74647024Y-55308758D01*
X74695687Y-55469177D01*
X74712117Y-55636000D01*
X74695687Y-55802823D01*
X74647024Y-55963242D01*
X74618153Y-56017255D01*
X74568004Y-56111078D01*
X74461659Y-56240659D01*
X74332078Y-56347004D01*
X74332076Y-56347005D01*
X74184242Y-56426024D01*
X74023823Y-56474687D01*
X73898804Y-56487000D01*
X73815196Y-56487000D01*
X73690177Y-56474687D01*
X73529758Y-56426024D01*
X73381924Y-56347005D01*
X73381922Y-56347004D01*
X73252341Y-56240659D01*
X73145996Y-56111078D01*
X73095847Y-56017255D01*
X73066976Y-55963242D01*
X73018313Y-55802823D01*
X73001883Y-55636000D01*
X73018313Y-55469177D01*
X73066976Y-55308758D01*
X73145995Y-55160924D01*
X73145996Y-55160922D01*
X73252341Y-55031341D01*
X73381922Y-54924996D01*
X73489488Y-54867501D01*
X73529758Y-54845976D01*
X73690177Y-54797313D01*
X73815196Y-54785000D01*
X73898804Y-54785000D01*
X74023823Y-54797313D01*
X74023823Y-54797313D01*
G37*
G36*
X81446823Y-54797313D02*
G01*
X81607242Y-54845976D01*
X81647512Y-54867501D01*
X81755078Y-54924996D01*
X81884659Y-55031341D01*
X81991004Y-55160922D01*
X81991005Y-55160924D01*
X82070024Y-55308758D01*
X82118687Y-55469177D01*
X82135117Y-55636000D01*
X82118687Y-55802823D01*
X82070024Y-55963242D01*
X82041153Y-56017255D01*
X81991004Y-56111078D01*
X81884659Y-56240659D01*
X81755078Y-56347004D01*
X81755076Y-56347005D01*
X81607242Y-56426024D01*
X81446823Y-56474687D01*
X81321804Y-56487000D01*
X81238196Y-56487000D01*
X81113177Y-56474687D01*
X80952758Y-56426024D01*
X80804924Y-56347005D01*
X80804922Y-56347004D01*
X80675341Y-56240659D01*
X80568996Y-56111078D01*
X80518847Y-56017255D01*
X80489976Y-55963242D01*
X80441313Y-55802823D01*
X80424883Y-55636000D01*
X80441313Y-55469177D01*
X80489976Y-55308758D01*
X80568995Y-55160924D01*
X80568996Y-55160922D01*
X80675341Y-55031341D01*
X80804922Y-54924996D01*
X80912488Y-54867501D01*
X80952758Y-54845976D01*
X81113177Y-54797313D01*
X81238196Y-54785000D01*
X81321804Y-54785000D01*
X81446823Y-54797313D01*
X81446823Y-54797313D01*
G37*
G36*
X49005142Y-54717242D02*
G01*
X49153101Y-54778529D01*
X49286255Y-54867499D01*
X49399501Y-54980745D01*
X49488471Y-55113899D01*
X49549758Y-55261858D01*
X49581000Y-55418925D01*
X49581000Y-55579075D01*
X49549758Y-55736142D01*
X49488471Y-55884101D01*
X49399501Y-56017255D01*
X49286255Y-56130501D01*
X49153101Y-56219471D01*
X49005142Y-56280758D01*
X48848075Y-56312000D01*
X48687925Y-56312000D01*
X48530858Y-56280758D01*
X48382899Y-56219471D01*
X48249745Y-56130501D01*
X48136499Y-56017255D01*
X48047529Y-55884101D01*
X47986242Y-55736142D01*
X47955000Y-55579075D01*
X47955000Y-55418925D01*
X47986242Y-55261858D01*
X48047529Y-55113899D01*
X48136499Y-54980745D01*
X48249745Y-54867499D01*
X48382899Y-54778529D01*
X48530858Y-54717242D01*
X48687925Y-54686000D01*
X48848075Y-54686000D01*
X49005142Y-54717242D01*
X49005142Y-54717242D01*
G37*
G36*
X64245142Y-54717242D02*
G01*
X64393101Y-54778529D01*
X64526255Y-54867499D01*
X64639501Y-54980745D01*
X64728471Y-55113899D01*
X64789758Y-55261858D01*
X64821000Y-55418925D01*
X64821000Y-55579075D01*
X64789758Y-55736142D01*
X64728471Y-55884101D01*
X64639501Y-56017255D01*
X64526255Y-56130501D01*
X64393101Y-56219471D01*
X64245142Y-56280758D01*
X64088075Y-56312000D01*
X63927925Y-56312000D01*
X63770858Y-56280758D01*
X63622899Y-56219471D01*
X63489745Y-56130501D01*
X63376499Y-56017255D01*
X63287529Y-55884101D01*
X63226242Y-55736142D01*
X63195000Y-55579075D01*
X63195000Y-55418925D01*
X63226242Y-55261858D01*
X63287529Y-55113899D01*
X63376499Y-54980745D01*
X63489745Y-54867499D01*
X63622899Y-54778529D01*
X63770858Y-54717242D01*
X63927925Y-54686000D01*
X64088075Y-54686000D01*
X64245142Y-54717242D01*
X64245142Y-54717242D01*
G37*
G36*
X64245142Y-52177242D02*
G01*
X64393101Y-52238529D01*
X64526255Y-52327499D01*
X64639501Y-52440745D01*
X64728471Y-52573899D01*
X64789758Y-52721858D01*
X64821000Y-52878925D01*
X64821000Y-53039075D01*
X64789758Y-53196142D01*
X64728471Y-53344101D01*
X64639501Y-53477255D01*
X64526255Y-53590501D01*
X64393101Y-53679471D01*
X64245142Y-53740758D01*
X64088075Y-53772000D01*
X63927925Y-53772000D01*
X63770858Y-53740758D01*
X63622899Y-53679471D01*
X63489745Y-53590501D01*
X63376499Y-53477255D01*
X63287529Y-53344101D01*
X63226242Y-53196142D01*
X63195000Y-53039075D01*
X63195000Y-52878925D01*
X63226242Y-52721858D01*
X63287529Y-52573899D01*
X63376499Y-52440745D01*
X63489745Y-52327499D01*
X63622899Y-52238529D01*
X63770858Y-52177242D01*
X63927925Y-52146000D01*
X64088075Y-52146000D01*
X64245142Y-52177242D01*
X64245142Y-52177242D01*
G37*
G36*
X49005142Y-52177242D02*
G01*
X49153101Y-52238529D01*
X49286255Y-52327499D01*
X49399501Y-52440745D01*
X49488471Y-52573899D01*
X49549758Y-52721858D01*
X49581000Y-52878925D01*
X49581000Y-53039075D01*
X49549758Y-53196142D01*
X49488471Y-53344101D01*
X49399501Y-53477255D01*
X49286255Y-53590501D01*
X49153101Y-53679471D01*
X49005142Y-53740758D01*
X48848075Y-53772000D01*
X48687925Y-53772000D01*
X48530858Y-53740758D01*
X48382899Y-53679471D01*
X48249745Y-53590501D01*
X48136499Y-53477255D01*
X48047529Y-53344101D01*
X47986242Y-53196142D01*
X47955000Y-53039075D01*
X47955000Y-52878925D01*
X47986242Y-52721858D01*
X48047529Y-52573899D01*
X48136499Y-52440745D01*
X48249745Y-52327499D01*
X48382899Y-52238529D01*
X48530858Y-52177242D01*
X48687925Y-52146000D01*
X48848075Y-52146000D01*
X49005142Y-52177242D01*
X49005142Y-52177242D01*
G37*
G36*
X49005142Y-49637242D02*
G01*
X49153101Y-49698529D01*
X49286255Y-49787499D01*
X49399501Y-49900745D01*
X49488471Y-50033899D01*
X49549758Y-50181858D01*
X49581000Y-50338925D01*
X49581000Y-50499075D01*
X49549758Y-50656142D01*
X49488471Y-50804101D01*
X49399501Y-50937255D01*
X49286255Y-51050501D01*
X49153101Y-51139471D01*
X49005142Y-51200758D01*
X48848075Y-51232000D01*
X48687925Y-51232000D01*
X48530858Y-51200758D01*
X48382899Y-51139471D01*
X48249745Y-51050501D01*
X48136499Y-50937255D01*
X48047529Y-50804101D01*
X47986242Y-50656142D01*
X47955000Y-50499075D01*
X47955000Y-50338925D01*
X47986242Y-50181858D01*
X48047529Y-50033899D01*
X48136499Y-49900745D01*
X48249745Y-49787499D01*
X48382899Y-49698529D01*
X48530858Y-49637242D01*
X48687925Y-49606000D01*
X48848075Y-49606000D01*
X49005142Y-49637242D01*
X49005142Y-49637242D01*
G37*
G36*
X64245142Y-49637242D02*
G01*
X64393101Y-49698529D01*
X64526255Y-49787499D01*
X64639501Y-49900745D01*
X64728471Y-50033899D01*
X64789758Y-50181858D01*
X64821000Y-50338925D01*
X64821000Y-50499075D01*
X64789758Y-50656142D01*
X64728471Y-50804101D01*
X64639501Y-50937255D01*
X64526255Y-51050501D01*
X64393101Y-51139471D01*
X64245142Y-51200758D01*
X64088075Y-51232000D01*
X63927925Y-51232000D01*
X63770858Y-51200758D01*
X63622899Y-51139471D01*
X63489745Y-51050501D01*
X63376499Y-50937255D01*
X63287529Y-50804101D01*
X63226242Y-50656142D01*
X63195000Y-50499075D01*
X63195000Y-50338925D01*
X63226242Y-50181858D01*
X63287529Y-50033899D01*
X63376499Y-49900745D01*
X63489745Y-49787499D01*
X63622899Y-49698529D01*
X63770858Y-49637242D01*
X63927925Y-49606000D01*
X64088075Y-49606000D01*
X64245142Y-49637242D01*
X64245142Y-49637242D01*
G37*
G36*
X21827142Y-49002242D02*
G01*
X21975101Y-49063529D01*
X22108255Y-49152499D01*
X22221501Y-49265745D01*
X22310471Y-49398899D01*
X22371758Y-49546858D01*
X22403000Y-49703925D01*
X22403000Y-49864075D01*
X22371758Y-50021142D01*
X22310471Y-50169101D01*
X22221501Y-50302255D01*
X22108255Y-50415501D01*
X21975101Y-50504471D01*
X21827142Y-50565758D01*
X21670075Y-50597000D01*
X21509925Y-50597000D01*
X21352858Y-50565758D01*
X21204899Y-50504471D01*
X21071745Y-50415501D01*
X20958499Y-50302255D01*
X20869529Y-50169101D01*
X20808242Y-50021142D01*
X20777000Y-49864075D01*
X20777000Y-49703925D01*
X20808242Y-49546858D01*
X20869529Y-49398899D01*
X20958499Y-49265745D01*
X21071745Y-49152499D01*
X21204899Y-49063529D01*
X21352858Y-49002242D01*
X21509925Y-48971000D01*
X21670075Y-48971000D01*
X21827142Y-49002242D01*
X21827142Y-49002242D01*
G37*
G36*
X34527142Y-49002242D02*
G01*
X34675101Y-49063529D01*
X34808255Y-49152499D01*
X34921501Y-49265745D01*
X35010471Y-49398899D01*
X35071758Y-49546858D01*
X35103000Y-49703925D01*
X35103000Y-49864075D01*
X35071758Y-50021142D01*
X35010471Y-50169101D01*
X34921501Y-50302255D01*
X34808255Y-50415501D01*
X34675101Y-50504471D01*
X34527142Y-50565758D01*
X34370075Y-50597000D01*
X34209925Y-50597000D01*
X34052858Y-50565758D01*
X33904899Y-50504471D01*
X33771745Y-50415501D01*
X33658499Y-50302255D01*
X33569529Y-50169101D01*
X33508242Y-50021142D01*
X33477000Y-49864075D01*
X33477000Y-49703925D01*
X33508242Y-49546858D01*
X33569529Y-49398899D01*
X33658499Y-49265745D01*
X33771745Y-49152499D01*
X33904899Y-49063529D01*
X34052858Y-49002242D01*
X34209925Y-48971000D01*
X34370075Y-48971000D01*
X34527142Y-49002242D01*
X34527142Y-49002242D01*
G37*
G36*
X49005142Y-47097242D02*
G01*
X49153101Y-47158529D01*
X49286255Y-47247499D01*
X49399501Y-47360745D01*
X49488471Y-47493899D01*
X49549758Y-47641858D01*
X49581000Y-47798925D01*
X49581000Y-47959075D01*
X49549758Y-48116142D01*
X49488471Y-48264101D01*
X49399501Y-48397255D01*
X49286255Y-48510501D01*
X49153101Y-48599471D01*
X49005142Y-48660758D01*
X48848075Y-48692000D01*
X48687925Y-48692000D01*
X48530858Y-48660758D01*
X48382899Y-48599471D01*
X48249745Y-48510501D01*
X48136499Y-48397255D01*
X48047529Y-48264101D01*
X47986242Y-48116142D01*
X47955000Y-47959075D01*
X47955000Y-47798925D01*
X47986242Y-47641858D01*
X48047529Y-47493899D01*
X48136499Y-47360745D01*
X48249745Y-47247499D01*
X48382899Y-47158529D01*
X48530858Y-47097242D01*
X48687925Y-47066000D01*
X48848075Y-47066000D01*
X49005142Y-47097242D01*
X49005142Y-47097242D01*
G37*
G36*
X64245142Y-47097242D02*
G01*
X64393101Y-47158529D01*
X64526255Y-47247499D01*
X64639501Y-47360745D01*
X64728471Y-47493899D01*
X64789758Y-47641858D01*
X64821000Y-47798925D01*
X64821000Y-47959075D01*
X64789758Y-48116142D01*
X64728471Y-48264101D01*
X64639501Y-48397255D01*
X64526255Y-48510501D01*
X64393101Y-48599471D01*
X64245142Y-48660758D01*
X64088075Y-48692000D01*
X63927925Y-48692000D01*
X63770858Y-48660758D01*
X63622899Y-48599471D01*
X63489745Y-48510501D01*
X63376499Y-48397255D01*
X63287529Y-48264101D01*
X63226242Y-48116142D01*
X63195000Y-47959075D01*
X63195000Y-47798925D01*
X63226242Y-47641858D01*
X63287529Y-47493899D01*
X63376499Y-47360745D01*
X63489745Y-47247499D01*
X63622899Y-47158529D01*
X63770858Y-47097242D01*
X63927925Y-47066000D01*
X64088075Y-47066000D01*
X64245142Y-47097242D01*
X64245142Y-47097242D01*
G37*
G36*
X34527142Y-46462242D02*
G01*
X34675101Y-46523529D01*
X34808255Y-46612499D01*
X34921501Y-46725745D01*
X35010471Y-46858899D01*
X35071758Y-47006858D01*
X35103000Y-47163925D01*
X35103000Y-47324075D01*
X35071758Y-47481142D01*
X35010471Y-47629101D01*
X34921501Y-47762255D01*
X34808255Y-47875501D01*
X34675101Y-47964471D01*
X34527142Y-48025758D01*
X34370075Y-48057000D01*
X34209925Y-48057000D01*
X34052858Y-48025758D01*
X33904899Y-47964471D01*
X33771745Y-47875501D01*
X33658499Y-47762255D01*
X33569529Y-47629101D01*
X33508242Y-47481142D01*
X33477000Y-47324075D01*
X33477000Y-47163925D01*
X33508242Y-47006858D01*
X33569529Y-46858899D01*
X33658499Y-46725745D01*
X33771745Y-46612499D01*
X33904899Y-46523529D01*
X34052858Y-46462242D01*
X34209925Y-46431000D01*
X34370075Y-46431000D01*
X34527142Y-46462242D01*
X34527142Y-46462242D01*
G37*
G36*
X21827142Y-46462242D02*
G01*
X21975101Y-46523529D01*
X22108255Y-46612499D01*
X22221501Y-46725745D01*
X22310471Y-46858899D01*
X22371758Y-47006858D01*
X22403000Y-47163925D01*
X22403000Y-47324075D01*
X22371758Y-47481142D01*
X22310471Y-47629101D01*
X22221501Y-47762255D01*
X22108255Y-47875501D01*
X21975101Y-47964471D01*
X21827142Y-48025758D01*
X21670075Y-48057000D01*
X21509925Y-48057000D01*
X21352858Y-48025758D01*
X21204899Y-47964471D01*
X21071745Y-47875501D01*
X20958499Y-47762255D01*
X20869529Y-47629101D01*
X20808242Y-47481142D01*
X20777000Y-47324075D01*
X20777000Y-47163925D01*
X20808242Y-47006858D01*
X20869529Y-46858899D01*
X20958499Y-46725745D01*
X21071745Y-46612499D01*
X21204899Y-46523529D01*
X21352858Y-46462242D01*
X21509925Y-46431000D01*
X21670075Y-46431000D01*
X21827142Y-46462242D01*
X21827142Y-46462242D01*
G37*
G36*
X94852442Y-45968518D02*
G01*
X94918627Y-45975037D01*
X95088466Y-46026557D01*
X95244991Y-46110222D01*
X95257829Y-46120758D01*
X95382186Y-46222814D01*
X95465448Y-46324271D01*
X95494778Y-46360009D01*
X95578443Y-46516534D01*
X95629963Y-46686373D01*
X95647359Y-46863000D01*
X95629963Y-47039627D01*
X95578443Y-47209466D01*
X95494778Y-47365991D01*
X95465448Y-47401729D01*
X95382186Y-47503186D01*
X95280729Y-47586448D01*
X95244991Y-47615778D01*
X95088466Y-47699443D01*
X94918627Y-47750963D01*
X94852443Y-47757481D01*
X94786260Y-47764000D01*
X94697740Y-47764000D01*
X94631558Y-47757482D01*
X94565373Y-47750963D01*
X94395534Y-47699443D01*
X94239009Y-47615778D01*
X94203271Y-47586448D01*
X94101814Y-47503186D01*
X94018552Y-47401729D01*
X93989222Y-47365991D01*
X93905557Y-47209466D01*
X93854037Y-47039627D01*
X93836641Y-46863000D01*
X93854037Y-46686373D01*
X93905557Y-46516534D01*
X93989222Y-46360009D01*
X94018552Y-46324271D01*
X94101814Y-46222814D01*
X94226171Y-46120758D01*
X94239009Y-46110222D01*
X94395534Y-46026557D01*
X94565373Y-45975037D01*
X94631558Y-45968518D01*
X94697740Y-45962000D01*
X94786260Y-45962000D01*
X94852442Y-45968518D01*
X94852442Y-45968518D01*
G37*
G36*
X92312442Y-45968518D02*
G01*
X92378627Y-45975037D01*
X92548466Y-46026557D01*
X92704991Y-46110222D01*
X92717829Y-46120758D01*
X92842186Y-46222814D01*
X92925448Y-46324271D01*
X92954778Y-46360009D01*
X93038443Y-46516534D01*
X93089963Y-46686373D01*
X93107359Y-46863000D01*
X93089963Y-47039627D01*
X93038443Y-47209466D01*
X92954778Y-47365991D01*
X92925448Y-47401729D01*
X92842186Y-47503186D01*
X92740729Y-47586448D01*
X92704991Y-47615778D01*
X92548466Y-47699443D01*
X92378627Y-47750963D01*
X92312443Y-47757481D01*
X92246260Y-47764000D01*
X92157740Y-47764000D01*
X92091558Y-47757482D01*
X92025373Y-47750963D01*
X91855534Y-47699443D01*
X91699009Y-47615778D01*
X91663271Y-47586448D01*
X91561814Y-47503186D01*
X91478552Y-47401729D01*
X91449222Y-47365991D01*
X91365557Y-47209466D01*
X91314037Y-47039627D01*
X91296641Y-46863000D01*
X91314037Y-46686373D01*
X91365557Y-46516534D01*
X91449222Y-46360009D01*
X91478552Y-46324271D01*
X91561814Y-46222814D01*
X91686171Y-46120758D01*
X91699009Y-46110222D01*
X91855534Y-46026557D01*
X92025373Y-45975037D01*
X92091558Y-45968518D01*
X92157740Y-45962000D01*
X92246260Y-45962000D01*
X92312442Y-45968518D01*
X92312442Y-45968518D01*
G37*
G36*
X7476443Y-45206519D02*
G01*
X7542627Y-45213037D01*
X7712466Y-45264557D01*
X7868991Y-45348222D01*
X7904729Y-45377552D01*
X8006186Y-45460814D01*
X8089448Y-45562271D01*
X8118778Y-45598009D01*
X8202443Y-45754534D01*
X8253963Y-45924373D01*
X8271359Y-46101000D01*
X8253963Y-46277627D01*
X8202443Y-46447466D01*
X8202442Y-46447468D01*
X8165526Y-46516532D01*
X8118778Y-46603991D01*
X8089448Y-46639729D01*
X8006186Y-46741186D01*
X7904729Y-46824448D01*
X7868991Y-46853778D01*
X7712466Y-46937443D01*
X7542627Y-46988963D01*
X7476443Y-46995481D01*
X7410260Y-47002000D01*
X7321740Y-47002000D01*
X7255557Y-46995481D01*
X7189373Y-46988963D01*
X7019534Y-46937443D01*
X6863009Y-46853778D01*
X6827271Y-46824448D01*
X6725814Y-46741186D01*
X6642552Y-46639729D01*
X6613222Y-46603991D01*
X6566474Y-46516532D01*
X6529558Y-46447468D01*
X6529557Y-46447466D01*
X6478037Y-46277627D01*
X6460641Y-46101000D01*
X6478037Y-45924373D01*
X6529557Y-45754534D01*
X6613222Y-45598009D01*
X6642552Y-45562271D01*
X6725814Y-45460814D01*
X6827271Y-45377552D01*
X6863009Y-45348222D01*
X7019534Y-45264557D01*
X7189373Y-45213037D01*
X7255557Y-45206519D01*
X7321740Y-45200000D01*
X7410260Y-45200000D01*
X7476443Y-45206519D01*
X7476443Y-45206519D01*
G37*
G36*
X4936443Y-45206519D02*
G01*
X5002627Y-45213037D01*
X5172466Y-45264557D01*
X5328991Y-45348222D01*
X5364729Y-45377552D01*
X5466186Y-45460814D01*
X5549448Y-45562271D01*
X5578778Y-45598009D01*
X5662443Y-45754534D01*
X5713963Y-45924373D01*
X5731359Y-46101000D01*
X5713963Y-46277627D01*
X5662443Y-46447466D01*
X5662442Y-46447468D01*
X5625526Y-46516532D01*
X5578778Y-46603991D01*
X5549448Y-46639729D01*
X5466186Y-46741186D01*
X5364729Y-46824448D01*
X5328991Y-46853778D01*
X5172466Y-46937443D01*
X5002627Y-46988963D01*
X4936443Y-46995481D01*
X4870260Y-47002000D01*
X4781740Y-47002000D01*
X4715557Y-46995481D01*
X4649373Y-46988963D01*
X4479534Y-46937443D01*
X4323009Y-46853778D01*
X4287271Y-46824448D01*
X4185814Y-46741186D01*
X4102552Y-46639729D01*
X4073222Y-46603991D01*
X4026474Y-46516532D01*
X3989558Y-46447468D01*
X3989557Y-46447466D01*
X3938037Y-46277627D01*
X3920641Y-46101000D01*
X3938037Y-45924373D01*
X3989557Y-45754534D01*
X4073222Y-45598009D01*
X4102552Y-45562271D01*
X4185814Y-45460814D01*
X4287271Y-45377552D01*
X4323009Y-45348222D01*
X4479534Y-45264557D01*
X4649373Y-45213037D01*
X4715557Y-45206519D01*
X4781740Y-45200000D01*
X4870260Y-45200000D01*
X4936443Y-45206519D01*
X4936443Y-45206519D01*
G37*
G36*
X49005142Y-44557242D02*
G01*
X49153101Y-44618529D01*
X49286255Y-44707499D01*
X49399501Y-44820745D01*
X49488471Y-44953899D01*
X49549758Y-45101858D01*
X49581000Y-45258925D01*
X49581000Y-45419075D01*
X49549758Y-45576142D01*
X49488471Y-45724101D01*
X49399501Y-45857255D01*
X49286255Y-45970501D01*
X49153101Y-46059471D01*
X49005142Y-46120758D01*
X48848075Y-46152000D01*
X48687925Y-46152000D01*
X48530858Y-46120758D01*
X48382899Y-46059471D01*
X48249745Y-45970501D01*
X48136499Y-45857255D01*
X48047529Y-45724101D01*
X47986242Y-45576142D01*
X47955000Y-45419075D01*
X47955000Y-45258925D01*
X47986242Y-45101858D01*
X48047529Y-44953899D01*
X48136499Y-44820745D01*
X48249745Y-44707499D01*
X48382899Y-44618529D01*
X48530858Y-44557242D01*
X48687925Y-44526000D01*
X48848075Y-44526000D01*
X49005142Y-44557242D01*
X49005142Y-44557242D01*
G37*
G36*
X64245142Y-44557242D02*
G01*
X64393101Y-44618529D01*
X64526255Y-44707499D01*
X64639501Y-44820745D01*
X64728471Y-44953899D01*
X64789758Y-45101858D01*
X64821000Y-45258925D01*
X64821000Y-45419075D01*
X64789758Y-45576142D01*
X64728471Y-45724101D01*
X64639501Y-45857255D01*
X64526255Y-45970501D01*
X64393101Y-46059471D01*
X64245142Y-46120758D01*
X64088075Y-46152000D01*
X63927925Y-46152000D01*
X63770858Y-46120758D01*
X63622899Y-46059471D01*
X63489745Y-45970501D01*
X63376499Y-45857255D01*
X63287529Y-45724101D01*
X63226242Y-45576142D01*
X63195000Y-45419075D01*
X63195000Y-45258925D01*
X63226242Y-45101858D01*
X63287529Y-44953899D01*
X63376499Y-44820745D01*
X63489745Y-44707499D01*
X63622899Y-44618529D01*
X63770858Y-44557242D01*
X63927925Y-44526000D01*
X64088075Y-44526000D01*
X64245142Y-44557242D01*
X64245142Y-44557242D01*
G37*
G36*
X21827142Y-43922242D02*
G01*
X21975101Y-43983529D01*
X22108255Y-44072499D01*
X22221501Y-44185745D01*
X22310471Y-44318899D01*
X22371758Y-44466858D01*
X22403000Y-44623925D01*
X22403000Y-44784075D01*
X22371758Y-44941142D01*
X22310471Y-45089101D01*
X22221501Y-45222255D01*
X22108255Y-45335501D01*
X21975101Y-45424471D01*
X21827142Y-45485758D01*
X21670075Y-45517000D01*
X21509925Y-45517000D01*
X21352858Y-45485758D01*
X21204899Y-45424471D01*
X21071745Y-45335501D01*
X20958499Y-45222255D01*
X20869529Y-45089101D01*
X20808242Y-44941142D01*
X20777000Y-44784075D01*
X20777000Y-44623925D01*
X20808242Y-44466858D01*
X20869529Y-44318899D01*
X20958499Y-44185745D01*
X21071745Y-44072499D01*
X21204899Y-43983529D01*
X21352858Y-43922242D01*
X21509925Y-43891000D01*
X21670075Y-43891000D01*
X21827142Y-43922242D01*
X21827142Y-43922242D01*
G37*
G36*
X34527142Y-43922242D02*
G01*
X34675101Y-43983529D01*
X34808255Y-44072499D01*
X34921501Y-44185745D01*
X35010471Y-44318899D01*
X35071758Y-44466858D01*
X35103000Y-44623925D01*
X35103000Y-44784075D01*
X35071758Y-44941142D01*
X35010471Y-45089101D01*
X34921501Y-45222255D01*
X34808255Y-45335501D01*
X34675101Y-45424471D01*
X34527142Y-45485758D01*
X34370075Y-45517000D01*
X34209925Y-45517000D01*
X34052858Y-45485758D01*
X33904899Y-45424471D01*
X33771745Y-45335501D01*
X33658499Y-45222255D01*
X33569529Y-45089101D01*
X33508242Y-44941142D01*
X33477000Y-44784075D01*
X33477000Y-44623925D01*
X33508242Y-44466858D01*
X33569529Y-44318899D01*
X33658499Y-44185745D01*
X33771745Y-44072499D01*
X33904899Y-43983529D01*
X34052858Y-43922242D01*
X34209925Y-43891000D01*
X34370075Y-43891000D01*
X34527142Y-43922242D01*
X34527142Y-43922242D01*
G37*
G36*
X92312442Y-43428518D02*
G01*
X92378627Y-43435037D01*
X92548466Y-43486557D01*
X92704991Y-43570222D01*
X92717829Y-43580758D01*
X92842186Y-43682814D01*
X92925448Y-43784271D01*
X92954778Y-43820009D01*
X93038443Y-43976534D01*
X93089963Y-44146373D01*
X93107359Y-44323000D01*
X93089963Y-44499627D01*
X93038443Y-44669466D01*
X92954778Y-44825991D01*
X92925448Y-44861729D01*
X92842186Y-44963186D01*
X92740729Y-45046448D01*
X92704991Y-45075778D01*
X92548466Y-45159443D01*
X92378627Y-45210963D01*
X92312443Y-45217481D01*
X92246260Y-45224000D01*
X92157740Y-45224000D01*
X92091557Y-45217481D01*
X92025373Y-45210963D01*
X91855534Y-45159443D01*
X91699009Y-45075778D01*
X91663271Y-45046448D01*
X91561814Y-44963186D01*
X91478552Y-44861729D01*
X91449222Y-44825991D01*
X91365557Y-44669466D01*
X91314037Y-44499627D01*
X91296641Y-44323000D01*
X91314037Y-44146373D01*
X91365557Y-43976534D01*
X91449222Y-43820009D01*
X91478552Y-43784271D01*
X91561814Y-43682814D01*
X91686171Y-43580758D01*
X91699009Y-43570222D01*
X91855534Y-43486557D01*
X92025373Y-43435037D01*
X92091558Y-43428518D01*
X92157740Y-43422000D01*
X92246260Y-43422000D01*
X92312442Y-43428518D01*
X92312442Y-43428518D01*
G37*
G36*
X94852442Y-43428518D02*
G01*
X94918627Y-43435037D01*
X95088466Y-43486557D01*
X95244991Y-43570222D01*
X95257829Y-43580758D01*
X95382186Y-43682814D01*
X95465448Y-43784271D01*
X95494778Y-43820009D01*
X95578443Y-43976534D01*
X95629963Y-44146373D01*
X95647359Y-44323000D01*
X95629963Y-44499627D01*
X95578443Y-44669466D01*
X95494778Y-44825991D01*
X95465448Y-44861729D01*
X95382186Y-44963186D01*
X95280729Y-45046448D01*
X95244991Y-45075778D01*
X95088466Y-45159443D01*
X94918627Y-45210963D01*
X94852443Y-45217481D01*
X94786260Y-45224000D01*
X94697740Y-45224000D01*
X94631557Y-45217481D01*
X94565373Y-45210963D01*
X94395534Y-45159443D01*
X94239009Y-45075778D01*
X94203271Y-45046448D01*
X94101814Y-44963186D01*
X94018552Y-44861729D01*
X93989222Y-44825991D01*
X93905557Y-44669466D01*
X93854037Y-44499627D01*
X93836641Y-44323000D01*
X93854037Y-44146373D01*
X93905557Y-43976534D01*
X93989222Y-43820009D01*
X94018552Y-43784271D01*
X94101814Y-43682814D01*
X94226171Y-43580758D01*
X94239009Y-43570222D01*
X94395534Y-43486557D01*
X94565373Y-43435037D01*
X94631558Y-43428518D01*
X94697740Y-43422000D01*
X94786260Y-43422000D01*
X94852442Y-43428518D01*
X94852442Y-43428518D01*
G37*
G36*
X4936442Y-42666518D02*
G01*
X5002627Y-42673037D01*
X5172466Y-42724557D01*
X5328991Y-42808222D01*
X5364729Y-42837552D01*
X5466186Y-42920814D01*
X5549448Y-43022271D01*
X5578778Y-43058009D01*
X5662443Y-43214534D01*
X5713963Y-43384373D01*
X5731359Y-43561000D01*
X5713963Y-43737627D01*
X5662443Y-43907466D01*
X5662442Y-43907468D01*
X5625526Y-43976532D01*
X5578778Y-44063991D01*
X5549448Y-44099729D01*
X5466186Y-44201186D01*
X5364729Y-44284448D01*
X5328991Y-44313778D01*
X5172466Y-44397443D01*
X5002627Y-44448963D01*
X4936443Y-44455481D01*
X4870260Y-44462000D01*
X4781740Y-44462000D01*
X4715557Y-44455481D01*
X4649373Y-44448963D01*
X4479534Y-44397443D01*
X4323009Y-44313778D01*
X4287271Y-44284448D01*
X4185814Y-44201186D01*
X4102552Y-44099729D01*
X4073222Y-44063991D01*
X4026474Y-43976532D01*
X3989558Y-43907468D01*
X3989557Y-43907466D01*
X3938037Y-43737627D01*
X3920641Y-43561000D01*
X3938037Y-43384373D01*
X3989557Y-43214534D01*
X4073222Y-43058009D01*
X4102552Y-43022271D01*
X4185814Y-42920814D01*
X4287271Y-42837552D01*
X4323009Y-42808222D01*
X4479534Y-42724557D01*
X4649373Y-42673037D01*
X4715558Y-42666518D01*
X4781740Y-42660000D01*
X4870260Y-42660000D01*
X4936442Y-42666518D01*
X4936442Y-42666518D01*
G37*
G36*
X7476442Y-42666518D02*
G01*
X7542627Y-42673037D01*
X7712466Y-42724557D01*
X7868991Y-42808222D01*
X7904729Y-42837552D01*
X8006186Y-42920814D01*
X8089448Y-43022271D01*
X8118778Y-43058009D01*
X8202443Y-43214534D01*
X8253963Y-43384373D01*
X8271359Y-43561000D01*
X8253963Y-43737627D01*
X8202443Y-43907466D01*
X8202442Y-43907468D01*
X8165526Y-43976532D01*
X8118778Y-44063991D01*
X8089448Y-44099729D01*
X8006186Y-44201186D01*
X7904729Y-44284448D01*
X7868991Y-44313778D01*
X7712466Y-44397443D01*
X7542627Y-44448963D01*
X7476443Y-44455481D01*
X7410260Y-44462000D01*
X7321740Y-44462000D01*
X7255557Y-44455481D01*
X7189373Y-44448963D01*
X7019534Y-44397443D01*
X6863009Y-44313778D01*
X6827271Y-44284448D01*
X6725814Y-44201186D01*
X6642552Y-44099729D01*
X6613222Y-44063991D01*
X6566474Y-43976532D01*
X6529558Y-43907468D01*
X6529557Y-43907466D01*
X6478037Y-43737627D01*
X6460641Y-43561000D01*
X6478037Y-43384373D01*
X6529557Y-43214534D01*
X6613222Y-43058009D01*
X6642552Y-43022271D01*
X6725814Y-42920814D01*
X6827271Y-42837552D01*
X6863009Y-42808222D01*
X7019534Y-42724557D01*
X7189373Y-42673037D01*
X7255558Y-42666518D01*
X7321740Y-42660000D01*
X7410260Y-42660000D01*
X7476442Y-42666518D01*
X7476442Y-42666518D01*
G37*
G36*
X64245142Y-42017242D02*
G01*
X64393101Y-42078529D01*
X64526255Y-42167499D01*
X64639501Y-42280745D01*
X64728471Y-42413899D01*
X64789758Y-42561858D01*
X64821000Y-42718925D01*
X64821000Y-42879075D01*
X64789758Y-43036142D01*
X64728471Y-43184101D01*
X64639501Y-43317255D01*
X64526255Y-43430501D01*
X64393101Y-43519471D01*
X64245142Y-43580758D01*
X64088075Y-43612000D01*
X63927925Y-43612000D01*
X63770858Y-43580758D01*
X63622899Y-43519471D01*
X63489745Y-43430501D01*
X63376499Y-43317255D01*
X63287529Y-43184101D01*
X63226242Y-43036142D01*
X63195000Y-42879075D01*
X63195000Y-42718925D01*
X63226242Y-42561858D01*
X63287529Y-42413899D01*
X63376499Y-42280745D01*
X63489745Y-42167499D01*
X63622899Y-42078529D01*
X63770858Y-42017242D01*
X63927925Y-41986000D01*
X64088075Y-41986000D01*
X64245142Y-42017242D01*
X64245142Y-42017242D01*
G37*
G36*
X49005142Y-42017242D02*
G01*
X49153101Y-42078529D01*
X49286255Y-42167499D01*
X49399501Y-42280745D01*
X49488471Y-42413899D01*
X49549758Y-42561858D01*
X49581000Y-42718925D01*
X49581000Y-42879075D01*
X49549758Y-43036142D01*
X49488471Y-43184101D01*
X49399501Y-43317255D01*
X49286255Y-43430501D01*
X49153101Y-43519471D01*
X49005142Y-43580758D01*
X48848075Y-43612000D01*
X48687925Y-43612000D01*
X48530858Y-43580758D01*
X48382899Y-43519471D01*
X48249745Y-43430501D01*
X48136499Y-43317255D01*
X48047529Y-43184101D01*
X47986242Y-43036142D01*
X47955000Y-42879075D01*
X47955000Y-42718925D01*
X47986242Y-42561858D01*
X48047529Y-42413899D01*
X48136499Y-42280745D01*
X48249745Y-42167499D01*
X48382899Y-42078529D01*
X48530858Y-42017242D01*
X48687925Y-41986000D01*
X48848075Y-41986000D01*
X49005142Y-42017242D01*
X49005142Y-42017242D01*
G37*
G36*
X21827142Y-41382242D02*
G01*
X21975101Y-41443529D01*
X22108255Y-41532499D01*
X22221501Y-41645745D01*
X22310471Y-41778899D01*
X22371758Y-41926858D01*
X22403000Y-42083925D01*
X22403000Y-42244075D01*
X22371758Y-42401142D01*
X22310471Y-42549101D01*
X22221501Y-42682255D01*
X22108255Y-42795501D01*
X21975101Y-42884471D01*
X21827142Y-42945758D01*
X21670075Y-42977000D01*
X21509925Y-42977000D01*
X21352858Y-42945758D01*
X21204899Y-42884471D01*
X21071745Y-42795501D01*
X20958499Y-42682255D01*
X20869529Y-42549101D01*
X20808242Y-42401142D01*
X20777000Y-42244075D01*
X20777000Y-42083925D01*
X20808242Y-41926858D01*
X20869529Y-41778899D01*
X20958499Y-41645745D01*
X21071745Y-41532499D01*
X21204899Y-41443529D01*
X21352858Y-41382242D01*
X21509925Y-41351000D01*
X21670075Y-41351000D01*
X21827142Y-41382242D01*
X21827142Y-41382242D01*
G37*
G36*
X34527142Y-41382242D02*
G01*
X34675101Y-41443529D01*
X34808255Y-41532499D01*
X34921501Y-41645745D01*
X35010471Y-41778899D01*
X35071758Y-41926858D01*
X35103000Y-42083925D01*
X35103000Y-42244075D01*
X35071758Y-42401142D01*
X35010471Y-42549101D01*
X34921501Y-42682255D01*
X34808255Y-42795501D01*
X34675101Y-42884471D01*
X34527142Y-42945758D01*
X34370075Y-42977000D01*
X34209925Y-42977000D01*
X34052858Y-42945758D01*
X33904899Y-42884471D01*
X33771745Y-42795501D01*
X33658499Y-42682255D01*
X33569529Y-42549101D01*
X33508242Y-42401142D01*
X33477000Y-42244075D01*
X33477000Y-42083925D01*
X33508242Y-41926858D01*
X33569529Y-41778899D01*
X33658499Y-41645745D01*
X33771745Y-41532499D01*
X33904899Y-41443529D01*
X34052858Y-41382242D01*
X34209925Y-41351000D01*
X34370075Y-41351000D01*
X34527142Y-41382242D01*
X34527142Y-41382242D01*
G37*
G36*
X94852442Y-40888518D02*
G01*
X94918627Y-40895037D01*
X95088466Y-40946557D01*
X95244991Y-41030222D01*
X95257829Y-41040758D01*
X95382186Y-41142814D01*
X95465448Y-41244271D01*
X95494778Y-41280009D01*
X95578443Y-41436534D01*
X95629963Y-41606373D01*
X95647359Y-41783000D01*
X95629963Y-41959627D01*
X95578443Y-42129466D01*
X95494778Y-42285991D01*
X95465448Y-42321729D01*
X95382186Y-42423186D01*
X95280729Y-42506448D01*
X95244991Y-42535778D01*
X95088466Y-42619443D01*
X94918627Y-42670963D01*
X94852442Y-42677482D01*
X94786260Y-42684000D01*
X94697740Y-42684000D01*
X94631558Y-42677482D01*
X94565373Y-42670963D01*
X94395534Y-42619443D01*
X94239009Y-42535778D01*
X94203271Y-42506448D01*
X94101814Y-42423186D01*
X94018552Y-42321729D01*
X93989222Y-42285991D01*
X93905557Y-42129466D01*
X93854037Y-41959627D01*
X93836641Y-41783000D01*
X93854037Y-41606373D01*
X93905557Y-41436534D01*
X93989222Y-41280009D01*
X94018552Y-41244271D01*
X94101814Y-41142814D01*
X94226171Y-41040758D01*
X94239009Y-41030222D01*
X94395534Y-40946557D01*
X94565373Y-40895037D01*
X94631558Y-40888518D01*
X94697740Y-40882000D01*
X94786260Y-40882000D01*
X94852442Y-40888518D01*
X94852442Y-40888518D01*
G37*
G36*
X92312442Y-40888518D02*
G01*
X92378627Y-40895037D01*
X92548466Y-40946557D01*
X92704991Y-41030222D01*
X92717829Y-41040758D01*
X92842186Y-41142814D01*
X92925448Y-41244271D01*
X92954778Y-41280009D01*
X93038443Y-41436534D01*
X93089963Y-41606373D01*
X93107359Y-41783000D01*
X93089963Y-41959627D01*
X93038443Y-42129466D01*
X92954778Y-42285991D01*
X92925448Y-42321729D01*
X92842186Y-42423186D01*
X92740729Y-42506448D01*
X92704991Y-42535778D01*
X92548466Y-42619443D01*
X92378627Y-42670963D01*
X92312442Y-42677482D01*
X92246260Y-42684000D01*
X92157740Y-42684000D01*
X92091558Y-42677482D01*
X92025373Y-42670963D01*
X91855534Y-42619443D01*
X91699009Y-42535778D01*
X91663271Y-42506448D01*
X91561814Y-42423186D01*
X91478552Y-42321729D01*
X91449222Y-42285991D01*
X91365557Y-42129466D01*
X91314037Y-41959627D01*
X91296641Y-41783000D01*
X91314037Y-41606373D01*
X91365557Y-41436534D01*
X91449222Y-41280009D01*
X91478552Y-41244271D01*
X91561814Y-41142814D01*
X91686171Y-41040758D01*
X91699009Y-41030222D01*
X91855534Y-40946557D01*
X92025373Y-40895037D01*
X92091558Y-40888518D01*
X92157740Y-40882000D01*
X92246260Y-40882000D01*
X92312442Y-40888518D01*
X92312442Y-40888518D01*
G37*
G36*
X4936443Y-40126519D02*
G01*
X5002627Y-40133037D01*
X5172466Y-40184557D01*
X5328991Y-40268222D01*
X5364729Y-40297552D01*
X5466186Y-40380814D01*
X5549448Y-40482271D01*
X5578778Y-40518009D01*
X5662443Y-40674534D01*
X5713963Y-40844373D01*
X5731359Y-41021000D01*
X5713963Y-41197627D01*
X5662443Y-41367466D01*
X5662442Y-41367468D01*
X5625526Y-41436532D01*
X5578778Y-41523991D01*
X5549448Y-41559729D01*
X5466186Y-41661186D01*
X5364729Y-41744448D01*
X5328991Y-41773778D01*
X5172466Y-41857443D01*
X5002627Y-41908963D01*
X4936442Y-41915482D01*
X4870260Y-41922000D01*
X4781740Y-41922000D01*
X4715558Y-41915482D01*
X4649373Y-41908963D01*
X4479534Y-41857443D01*
X4323009Y-41773778D01*
X4287271Y-41744448D01*
X4185814Y-41661186D01*
X4102552Y-41559729D01*
X4073222Y-41523991D01*
X4026474Y-41436532D01*
X3989558Y-41367468D01*
X3989557Y-41367466D01*
X3938037Y-41197627D01*
X3920641Y-41021000D01*
X3938037Y-40844373D01*
X3989557Y-40674534D01*
X4073222Y-40518009D01*
X4102552Y-40482271D01*
X4185814Y-40380814D01*
X4287271Y-40297552D01*
X4323009Y-40268222D01*
X4479534Y-40184557D01*
X4649373Y-40133037D01*
X4715557Y-40126519D01*
X4781740Y-40120000D01*
X4870260Y-40120000D01*
X4936443Y-40126519D01*
X4936443Y-40126519D01*
G37*
G36*
X7476443Y-40126519D02*
G01*
X7542627Y-40133037D01*
X7712466Y-40184557D01*
X7868991Y-40268222D01*
X7904729Y-40297552D01*
X8006186Y-40380814D01*
X8089448Y-40482271D01*
X8118778Y-40518009D01*
X8202443Y-40674534D01*
X8253963Y-40844373D01*
X8271359Y-41021000D01*
X8253963Y-41197627D01*
X8202443Y-41367466D01*
X8202442Y-41367468D01*
X8165526Y-41436532D01*
X8118778Y-41523991D01*
X8089448Y-41559729D01*
X8006186Y-41661186D01*
X7904729Y-41744448D01*
X7868991Y-41773778D01*
X7712466Y-41857443D01*
X7542627Y-41908963D01*
X7476442Y-41915482D01*
X7410260Y-41922000D01*
X7321740Y-41922000D01*
X7255558Y-41915482D01*
X7189373Y-41908963D01*
X7019534Y-41857443D01*
X6863009Y-41773778D01*
X6827271Y-41744448D01*
X6725814Y-41661186D01*
X6642552Y-41559729D01*
X6613222Y-41523991D01*
X6566474Y-41436532D01*
X6529558Y-41367468D01*
X6529557Y-41367466D01*
X6478037Y-41197627D01*
X6460641Y-41021000D01*
X6478037Y-40844373D01*
X6529557Y-40674534D01*
X6613222Y-40518009D01*
X6642552Y-40482271D01*
X6725814Y-40380814D01*
X6827271Y-40297552D01*
X6863009Y-40268222D01*
X7019534Y-40184557D01*
X7189373Y-40133037D01*
X7255557Y-40126519D01*
X7321740Y-40120000D01*
X7410260Y-40120000D01*
X7476443Y-40126519D01*
X7476443Y-40126519D01*
G37*
G36*
X49005142Y-39477242D02*
G01*
X49153101Y-39538529D01*
X49286255Y-39627499D01*
X49399501Y-39740745D01*
X49488471Y-39873899D01*
X49549758Y-40021858D01*
X49581000Y-40178925D01*
X49581000Y-40339075D01*
X49549758Y-40496142D01*
X49488471Y-40644101D01*
X49399501Y-40777255D01*
X49286255Y-40890501D01*
X49153101Y-40979471D01*
X49005142Y-41040758D01*
X48848075Y-41072000D01*
X48687925Y-41072000D01*
X48530858Y-41040758D01*
X48382899Y-40979471D01*
X48249745Y-40890501D01*
X48136499Y-40777255D01*
X48047529Y-40644101D01*
X47986242Y-40496142D01*
X47955000Y-40339075D01*
X47955000Y-40178925D01*
X47986242Y-40021858D01*
X48047529Y-39873899D01*
X48136499Y-39740745D01*
X48249745Y-39627499D01*
X48382899Y-39538529D01*
X48530858Y-39477242D01*
X48687925Y-39446000D01*
X48848075Y-39446000D01*
X49005142Y-39477242D01*
X49005142Y-39477242D01*
G37*
G36*
X64245142Y-39477242D02*
G01*
X64393101Y-39538529D01*
X64526255Y-39627499D01*
X64639501Y-39740745D01*
X64728471Y-39873899D01*
X64789758Y-40021858D01*
X64821000Y-40178925D01*
X64821000Y-40339075D01*
X64789758Y-40496142D01*
X64728471Y-40644101D01*
X64639501Y-40777255D01*
X64526255Y-40890501D01*
X64393101Y-40979471D01*
X64245142Y-41040758D01*
X64088075Y-41072000D01*
X63927925Y-41072000D01*
X63770858Y-41040758D01*
X63622899Y-40979471D01*
X63489745Y-40890501D01*
X63376499Y-40777255D01*
X63287529Y-40644101D01*
X63226242Y-40496142D01*
X63195000Y-40339075D01*
X63195000Y-40178925D01*
X63226242Y-40021858D01*
X63287529Y-39873899D01*
X63376499Y-39740745D01*
X63489745Y-39627499D01*
X63622899Y-39538529D01*
X63770858Y-39477242D01*
X63927925Y-39446000D01*
X64088075Y-39446000D01*
X64245142Y-39477242D01*
X64245142Y-39477242D01*
G37*
G36*
X34527142Y-38842242D02*
G01*
X34675101Y-38903529D01*
X34808255Y-38992499D01*
X34921501Y-39105745D01*
X35010471Y-39238899D01*
X35071758Y-39386858D01*
X35103000Y-39543925D01*
X35103000Y-39704075D01*
X35071758Y-39861142D01*
X35010471Y-40009101D01*
X34921501Y-40142255D01*
X34808255Y-40255501D01*
X34675101Y-40344471D01*
X34527142Y-40405758D01*
X34370075Y-40437000D01*
X34209925Y-40437000D01*
X34052858Y-40405758D01*
X33904899Y-40344471D01*
X33771745Y-40255501D01*
X33658499Y-40142255D01*
X33569529Y-40009101D01*
X33508242Y-39861142D01*
X33477000Y-39704075D01*
X33477000Y-39543925D01*
X33508242Y-39386858D01*
X33569529Y-39238899D01*
X33658499Y-39105745D01*
X33771745Y-38992499D01*
X33904899Y-38903529D01*
X34052858Y-38842242D01*
X34209925Y-38811000D01*
X34370075Y-38811000D01*
X34527142Y-38842242D01*
X34527142Y-38842242D01*
G37*
G36*
X21827142Y-38842242D02*
G01*
X21975101Y-38903529D01*
X22108255Y-38992499D01*
X22221501Y-39105745D01*
X22310471Y-39238899D01*
X22371758Y-39386858D01*
X22403000Y-39543925D01*
X22403000Y-39704075D01*
X22371758Y-39861142D01*
X22310471Y-40009101D01*
X22221501Y-40142255D01*
X22108255Y-40255501D01*
X21975101Y-40344471D01*
X21827142Y-40405758D01*
X21670075Y-40437000D01*
X21509925Y-40437000D01*
X21352858Y-40405758D01*
X21204899Y-40344471D01*
X21071745Y-40255501D01*
X20958499Y-40142255D01*
X20869529Y-40009101D01*
X20808242Y-39861142D01*
X20777000Y-39704075D01*
X20777000Y-39543925D01*
X20808242Y-39386858D01*
X20869529Y-39238899D01*
X20958499Y-39105745D01*
X21071745Y-38992499D01*
X21204899Y-38903529D01*
X21352858Y-38842242D01*
X21509925Y-38811000D01*
X21670075Y-38811000D01*
X21827142Y-38842242D01*
X21827142Y-38842242D01*
G37*
G36*
X71876228Y-38551703D02*
G01*
X72031100Y-38615853D01*
X72170481Y-38708985D01*
X72289015Y-38827519D01*
X72382147Y-38966900D01*
X72446297Y-39121772D01*
X72479000Y-39286184D01*
X72479000Y-39453816D01*
X72446297Y-39618228D01*
X72382147Y-39773100D01*
X72289015Y-39912481D01*
X72170481Y-40031015D01*
X72031100Y-40124147D01*
X71876228Y-40188297D01*
X71711816Y-40221000D01*
X71544184Y-40221000D01*
X71379772Y-40188297D01*
X71224900Y-40124147D01*
X71085519Y-40031015D01*
X70966985Y-39912481D01*
X70873853Y-39773100D01*
X70809703Y-39618228D01*
X70777000Y-39453816D01*
X70777000Y-39286184D01*
X70809703Y-39121772D01*
X70873853Y-38966900D01*
X70966985Y-38827519D01*
X71085519Y-38708985D01*
X71224900Y-38615853D01*
X71379772Y-38551703D01*
X71544184Y-38519000D01*
X71711816Y-38519000D01*
X71876228Y-38551703D01*
X71876228Y-38551703D01*
G37*
G36*
X76876228Y-38551703D02*
G01*
X77031100Y-38615853D01*
X77170481Y-38708985D01*
X77289015Y-38827519D01*
X77382147Y-38966900D01*
X77446297Y-39121772D01*
X77479000Y-39286184D01*
X77479000Y-39453816D01*
X77446297Y-39618228D01*
X77382147Y-39773100D01*
X77289015Y-39912481D01*
X77170481Y-40031015D01*
X77031100Y-40124147D01*
X76876228Y-40188297D01*
X76711816Y-40221000D01*
X76544184Y-40221000D01*
X76379772Y-40188297D01*
X76224900Y-40124147D01*
X76085519Y-40031015D01*
X75966985Y-39912481D01*
X75873853Y-39773100D01*
X75809703Y-39618228D01*
X75777000Y-39453816D01*
X75777000Y-39286184D01*
X75809703Y-39121772D01*
X75873853Y-38966900D01*
X75966985Y-38827519D01*
X76085519Y-38708985D01*
X76224900Y-38615853D01*
X76379772Y-38551703D01*
X76544184Y-38519000D01*
X76711816Y-38519000D01*
X76876228Y-38551703D01*
X76876228Y-38551703D01*
G37*
G36*
X94852442Y-38348518D02*
G01*
X94918627Y-38355037D01*
X95088466Y-38406557D01*
X95244991Y-38490222D01*
X95257829Y-38500758D01*
X95382186Y-38602814D01*
X95465448Y-38704271D01*
X95494778Y-38740009D01*
X95578443Y-38896534D01*
X95629963Y-39066373D01*
X95647359Y-39243000D01*
X95629963Y-39419627D01*
X95578443Y-39589466D01*
X95494778Y-39745991D01*
X95472530Y-39773100D01*
X95382186Y-39883186D01*
X95280729Y-39966448D01*
X95244991Y-39995778D01*
X95088466Y-40079443D01*
X94918627Y-40130963D01*
X94852443Y-40137481D01*
X94786260Y-40144000D01*
X94697740Y-40144000D01*
X94631557Y-40137481D01*
X94565373Y-40130963D01*
X94395534Y-40079443D01*
X94239009Y-39995778D01*
X94203271Y-39966448D01*
X94101814Y-39883186D01*
X94011470Y-39773100D01*
X93989222Y-39745991D01*
X93905557Y-39589466D01*
X93854037Y-39419627D01*
X93836641Y-39243000D01*
X93854037Y-39066373D01*
X93905557Y-38896534D01*
X93989222Y-38740009D01*
X94018552Y-38704271D01*
X94101814Y-38602814D01*
X94226171Y-38500758D01*
X94239009Y-38490222D01*
X94395534Y-38406557D01*
X94565373Y-38355037D01*
X94631558Y-38348518D01*
X94697740Y-38342000D01*
X94786260Y-38342000D01*
X94852442Y-38348518D01*
X94852442Y-38348518D01*
G37*
G36*
X92312442Y-38348518D02*
G01*
X92378627Y-38355037D01*
X92548466Y-38406557D01*
X92704991Y-38490222D01*
X92717829Y-38500758D01*
X92842186Y-38602814D01*
X92925448Y-38704271D01*
X92954778Y-38740009D01*
X93038443Y-38896534D01*
X93089963Y-39066373D01*
X93107359Y-39243000D01*
X93089963Y-39419627D01*
X93038443Y-39589466D01*
X92954778Y-39745991D01*
X92932530Y-39773100D01*
X92842186Y-39883186D01*
X92740729Y-39966448D01*
X92704991Y-39995778D01*
X92548466Y-40079443D01*
X92378627Y-40130963D01*
X92312443Y-40137481D01*
X92246260Y-40144000D01*
X92157740Y-40144000D01*
X92091557Y-40137481D01*
X92025373Y-40130963D01*
X91855534Y-40079443D01*
X91699009Y-39995778D01*
X91663271Y-39966448D01*
X91561814Y-39883186D01*
X91471470Y-39773100D01*
X91449222Y-39745991D01*
X91365557Y-39589466D01*
X91314037Y-39419627D01*
X91296641Y-39243000D01*
X91314037Y-39066373D01*
X91365557Y-38896534D01*
X91449222Y-38740009D01*
X91478552Y-38704271D01*
X91561814Y-38602814D01*
X91686171Y-38500758D01*
X91699009Y-38490222D01*
X91855534Y-38406557D01*
X92025373Y-38355037D01*
X92091558Y-38348518D01*
X92157740Y-38342000D01*
X92246260Y-38342000D01*
X92312442Y-38348518D01*
X92312442Y-38348518D01*
G37*
G36*
X85560000Y-39586000D02*
G01*
X83858000Y-39586000D01*
X83858000Y-37884000D01*
X85560000Y-37884000D01*
X85560000Y-39586000D01*
X85560000Y-39586000D01*
G37*
G36*
X82457228Y-37916703D02*
G01*
X82612100Y-37980853D01*
X82751481Y-38073985D01*
X82870015Y-38192519D01*
X82963147Y-38331900D01*
X83027297Y-38486772D01*
X83060000Y-38651184D01*
X83060000Y-38818816D01*
X83027297Y-38983228D01*
X82963147Y-39138100D01*
X82870015Y-39277481D01*
X82751481Y-39396015D01*
X82612100Y-39489147D01*
X82457228Y-39553297D01*
X82292816Y-39586000D01*
X82125184Y-39586000D01*
X81960772Y-39553297D01*
X81805900Y-39489147D01*
X81666519Y-39396015D01*
X81547985Y-39277481D01*
X81454853Y-39138100D01*
X81390703Y-38983228D01*
X81358000Y-38818816D01*
X81358000Y-38651184D01*
X81390703Y-38486772D01*
X81454853Y-38331900D01*
X81547985Y-38192519D01*
X81666519Y-38073985D01*
X81805900Y-37980853D01*
X81960772Y-37916703D01*
X82125184Y-37884000D01*
X82292816Y-37884000D01*
X82457228Y-37916703D01*
X82457228Y-37916703D01*
G37*
G36*
X7476442Y-37586518D02*
G01*
X7542627Y-37593037D01*
X7712466Y-37644557D01*
X7868991Y-37728222D01*
X7904729Y-37757552D01*
X8006186Y-37840814D01*
X8068467Y-37916705D01*
X8118778Y-37978009D01*
X8202443Y-38134534D01*
X8253963Y-38304373D01*
X8271359Y-38481000D01*
X8253963Y-38657627D01*
X8205067Y-38818815D01*
X8202442Y-38827468D01*
X8165526Y-38896532D01*
X8118778Y-38983991D01*
X8089448Y-39019729D01*
X8006186Y-39121186D01*
X7904729Y-39204448D01*
X7868991Y-39233778D01*
X7712466Y-39317443D01*
X7542627Y-39368963D01*
X7476443Y-39375481D01*
X7410260Y-39382000D01*
X7321740Y-39382000D01*
X7255557Y-39375481D01*
X7189373Y-39368963D01*
X7019534Y-39317443D01*
X6863009Y-39233778D01*
X6827271Y-39204448D01*
X6725814Y-39121186D01*
X6642552Y-39019729D01*
X6613222Y-38983991D01*
X6566474Y-38896532D01*
X6529558Y-38827468D01*
X6526933Y-38818815D01*
X6478037Y-38657627D01*
X6460641Y-38481000D01*
X6478037Y-38304373D01*
X6529557Y-38134534D01*
X6613222Y-37978009D01*
X6663533Y-37916705D01*
X6725814Y-37840814D01*
X6827271Y-37757552D01*
X6863009Y-37728222D01*
X7019534Y-37644557D01*
X7189373Y-37593037D01*
X7255558Y-37586518D01*
X7321740Y-37580000D01*
X7410260Y-37580000D01*
X7476442Y-37586518D01*
X7476442Y-37586518D01*
G37*
G36*
X4936442Y-37586518D02*
G01*
X5002627Y-37593037D01*
X5172466Y-37644557D01*
X5328991Y-37728222D01*
X5364729Y-37757552D01*
X5466186Y-37840814D01*
X5528467Y-37916705D01*
X5578778Y-37978009D01*
X5662443Y-38134534D01*
X5713963Y-38304373D01*
X5731359Y-38481000D01*
X5713963Y-38657627D01*
X5665067Y-38818815D01*
X5662442Y-38827468D01*
X5625526Y-38896532D01*
X5578778Y-38983991D01*
X5549448Y-39019729D01*
X5466186Y-39121186D01*
X5364729Y-39204448D01*
X5328991Y-39233778D01*
X5172466Y-39317443D01*
X5002627Y-39368963D01*
X4936443Y-39375481D01*
X4870260Y-39382000D01*
X4781740Y-39382000D01*
X4715557Y-39375481D01*
X4649373Y-39368963D01*
X4479534Y-39317443D01*
X4323009Y-39233778D01*
X4287271Y-39204448D01*
X4185814Y-39121186D01*
X4102552Y-39019729D01*
X4073222Y-38983991D01*
X4026474Y-38896532D01*
X3989558Y-38827468D01*
X3986933Y-38818815D01*
X3938037Y-38657627D01*
X3920641Y-38481000D01*
X3938037Y-38304373D01*
X3989557Y-38134534D01*
X4073222Y-37978009D01*
X4123533Y-37916705D01*
X4185814Y-37840814D01*
X4287271Y-37757552D01*
X4323009Y-37728222D01*
X4479534Y-37644557D01*
X4649373Y-37593037D01*
X4715558Y-37586518D01*
X4781740Y-37580000D01*
X4870260Y-37580000D01*
X4936442Y-37586518D01*
X4936442Y-37586518D01*
G37*
G36*
X49005142Y-36937242D02*
G01*
X49153101Y-36998529D01*
X49286255Y-37087499D01*
X49399501Y-37200745D01*
X49488471Y-37333899D01*
X49549758Y-37481858D01*
X49581000Y-37638925D01*
X49581000Y-37799075D01*
X49549758Y-37956142D01*
X49488471Y-38104101D01*
X49399501Y-38237255D01*
X49286255Y-38350501D01*
X49153101Y-38439471D01*
X49005142Y-38500758D01*
X48848075Y-38532000D01*
X48687925Y-38532000D01*
X48530858Y-38500758D01*
X48382899Y-38439471D01*
X48249745Y-38350501D01*
X48136499Y-38237255D01*
X48047529Y-38104101D01*
X47986242Y-37956142D01*
X47955000Y-37799075D01*
X47955000Y-37638925D01*
X47986242Y-37481858D01*
X48047529Y-37333899D01*
X48136499Y-37200745D01*
X48249745Y-37087499D01*
X48382899Y-36998529D01*
X48530858Y-36937242D01*
X48687925Y-36906000D01*
X48848075Y-36906000D01*
X49005142Y-36937242D01*
X49005142Y-36937242D01*
G37*
G36*
X64245142Y-36937242D02*
G01*
X64393101Y-36998529D01*
X64526255Y-37087499D01*
X64639501Y-37200745D01*
X64728471Y-37333899D01*
X64789758Y-37481858D01*
X64821000Y-37638925D01*
X64821000Y-37799075D01*
X64789758Y-37956142D01*
X64728471Y-38104101D01*
X64639501Y-38237255D01*
X64526255Y-38350501D01*
X64393101Y-38439471D01*
X64245142Y-38500758D01*
X64088075Y-38532000D01*
X63927925Y-38532000D01*
X63770858Y-38500758D01*
X63622899Y-38439471D01*
X63489745Y-38350501D01*
X63376499Y-38237255D01*
X63287529Y-38104101D01*
X63226242Y-37956142D01*
X63195000Y-37799075D01*
X63195000Y-37638925D01*
X63226242Y-37481858D01*
X63287529Y-37333899D01*
X63376499Y-37200745D01*
X63489745Y-37087499D01*
X63622899Y-36998529D01*
X63770858Y-36937242D01*
X63927925Y-36906000D01*
X64088075Y-36906000D01*
X64245142Y-36937242D01*
X64245142Y-36937242D01*
G37*
G36*
X34527142Y-36302242D02*
G01*
X34675101Y-36363529D01*
X34808255Y-36452499D01*
X34921501Y-36565745D01*
X35010471Y-36698899D01*
X35071758Y-36846858D01*
X35103000Y-37003925D01*
X35103000Y-37164075D01*
X35071758Y-37321142D01*
X35010471Y-37469101D01*
X34921501Y-37602255D01*
X34808255Y-37715501D01*
X34675101Y-37804471D01*
X34527142Y-37865758D01*
X34370075Y-37897000D01*
X34209925Y-37897000D01*
X34052858Y-37865758D01*
X33904899Y-37804471D01*
X33771745Y-37715501D01*
X33658499Y-37602255D01*
X33569529Y-37469101D01*
X33508242Y-37321142D01*
X33477000Y-37164075D01*
X33477000Y-37003925D01*
X33508242Y-36846858D01*
X33569529Y-36698899D01*
X33658499Y-36565745D01*
X33771745Y-36452499D01*
X33904899Y-36363529D01*
X34052858Y-36302242D01*
X34209925Y-36271000D01*
X34370075Y-36271000D01*
X34527142Y-36302242D01*
X34527142Y-36302242D01*
G37*
G36*
X21827142Y-36302242D02*
G01*
X21975101Y-36363529D01*
X22108255Y-36452499D01*
X22221501Y-36565745D01*
X22310471Y-36698899D01*
X22371758Y-36846858D01*
X22403000Y-37003925D01*
X22403000Y-37164075D01*
X22371758Y-37321142D01*
X22310471Y-37469101D01*
X22221501Y-37602255D01*
X22108255Y-37715501D01*
X21975101Y-37804471D01*
X21827142Y-37865758D01*
X21670075Y-37897000D01*
X21509925Y-37897000D01*
X21352858Y-37865758D01*
X21204899Y-37804471D01*
X21071745Y-37715501D01*
X20958499Y-37602255D01*
X20869529Y-37469101D01*
X20808242Y-37321142D01*
X20777000Y-37164075D01*
X20777000Y-37003925D01*
X20808242Y-36846858D01*
X20869529Y-36698899D01*
X20958499Y-36565745D01*
X21071745Y-36452499D01*
X21204899Y-36363529D01*
X21352858Y-36302242D01*
X21509925Y-36271000D01*
X21670075Y-36271000D01*
X21827142Y-36302242D01*
X21827142Y-36302242D01*
G37*
G36*
X92312443Y-35808519D02*
G01*
X92378627Y-35815037D01*
X92548466Y-35866557D01*
X92704991Y-35950222D01*
X92740729Y-35979552D01*
X92842186Y-36062814D01*
X92925448Y-36164271D01*
X92954778Y-36200009D01*
X93038443Y-36356534D01*
X93089963Y-36526373D01*
X93107359Y-36703000D01*
X93089963Y-36879627D01*
X93038443Y-37049466D01*
X92954778Y-37205991D01*
X92925448Y-37241729D01*
X92842186Y-37343186D01*
X92740729Y-37426448D01*
X92704991Y-37455778D01*
X92548466Y-37539443D01*
X92378627Y-37590963D01*
X92312442Y-37597482D01*
X92246260Y-37604000D01*
X92157740Y-37604000D01*
X92091558Y-37597482D01*
X92025373Y-37590963D01*
X91855534Y-37539443D01*
X91699009Y-37455778D01*
X91663271Y-37426448D01*
X91561814Y-37343186D01*
X91478552Y-37241729D01*
X91449222Y-37205991D01*
X91365557Y-37049466D01*
X91314037Y-36879627D01*
X91296641Y-36703000D01*
X91314037Y-36526373D01*
X91365557Y-36356534D01*
X91449222Y-36200009D01*
X91478552Y-36164271D01*
X91561814Y-36062814D01*
X91663271Y-35979552D01*
X91699009Y-35950222D01*
X91855534Y-35866557D01*
X92025373Y-35815037D01*
X92091557Y-35808519D01*
X92157740Y-35802000D01*
X92246260Y-35802000D01*
X92312443Y-35808519D01*
X92312443Y-35808519D01*
G37*
G36*
X94852443Y-35808519D02*
G01*
X94918627Y-35815037D01*
X95088466Y-35866557D01*
X95244991Y-35950222D01*
X95280729Y-35979552D01*
X95382186Y-36062814D01*
X95465448Y-36164271D01*
X95494778Y-36200009D01*
X95578443Y-36356534D01*
X95629963Y-36526373D01*
X95647359Y-36703000D01*
X95629963Y-36879627D01*
X95578443Y-37049466D01*
X95494778Y-37205991D01*
X95465448Y-37241729D01*
X95382186Y-37343186D01*
X95280729Y-37426448D01*
X95244991Y-37455778D01*
X95088466Y-37539443D01*
X94918627Y-37590963D01*
X94852442Y-37597482D01*
X94786260Y-37604000D01*
X94697740Y-37604000D01*
X94631558Y-37597482D01*
X94565373Y-37590963D01*
X94395534Y-37539443D01*
X94239009Y-37455778D01*
X94203271Y-37426448D01*
X94101814Y-37343186D01*
X94018552Y-37241729D01*
X93989222Y-37205991D01*
X93905557Y-37049466D01*
X93854037Y-36879627D01*
X93836641Y-36703000D01*
X93854037Y-36526373D01*
X93905557Y-36356534D01*
X93989222Y-36200009D01*
X94018552Y-36164271D01*
X94101814Y-36062814D01*
X94203271Y-35979552D01*
X94239009Y-35950222D01*
X94395534Y-35866557D01*
X94565373Y-35815037D01*
X94631557Y-35808519D01*
X94697740Y-35802000D01*
X94786260Y-35802000D01*
X94852443Y-35808519D01*
X94852443Y-35808519D01*
G37*
G36*
X7476443Y-35046519D02*
G01*
X7542627Y-35053037D01*
X7712466Y-35104557D01*
X7868991Y-35188222D01*
X7904729Y-35217552D01*
X8006186Y-35300814D01*
X8089448Y-35402271D01*
X8118778Y-35438009D01*
X8202443Y-35594534D01*
X8253963Y-35764373D01*
X8271359Y-35941000D01*
X8253963Y-36117627D01*
X8202443Y-36287466D01*
X8202442Y-36287468D01*
X8165526Y-36356532D01*
X8118778Y-36443991D01*
X8089448Y-36479729D01*
X8006186Y-36581186D01*
X7904729Y-36664448D01*
X7868991Y-36693778D01*
X7712466Y-36777443D01*
X7542627Y-36828963D01*
X7476442Y-36835482D01*
X7410260Y-36842000D01*
X7321740Y-36842000D01*
X7255558Y-36835482D01*
X7189373Y-36828963D01*
X7019534Y-36777443D01*
X6863009Y-36693778D01*
X6827271Y-36664448D01*
X6725814Y-36581186D01*
X6642552Y-36479729D01*
X6613222Y-36443991D01*
X6566474Y-36356532D01*
X6529558Y-36287468D01*
X6529557Y-36287466D01*
X6478037Y-36117627D01*
X6460641Y-35941000D01*
X6478037Y-35764373D01*
X6529557Y-35594534D01*
X6613222Y-35438009D01*
X6642552Y-35402271D01*
X6725814Y-35300814D01*
X6827271Y-35217552D01*
X6863009Y-35188222D01*
X7019534Y-35104557D01*
X7189373Y-35053037D01*
X7255557Y-35046519D01*
X7321740Y-35040000D01*
X7410260Y-35040000D01*
X7476443Y-35046519D01*
X7476443Y-35046519D01*
G37*
G36*
X4936443Y-35046519D02*
G01*
X5002627Y-35053037D01*
X5172466Y-35104557D01*
X5328991Y-35188222D01*
X5364729Y-35217552D01*
X5466186Y-35300814D01*
X5549448Y-35402271D01*
X5578778Y-35438009D01*
X5662443Y-35594534D01*
X5713963Y-35764373D01*
X5731359Y-35941000D01*
X5713963Y-36117627D01*
X5662443Y-36287466D01*
X5662442Y-36287468D01*
X5625526Y-36356532D01*
X5578778Y-36443991D01*
X5549448Y-36479729D01*
X5466186Y-36581186D01*
X5364729Y-36664448D01*
X5328991Y-36693778D01*
X5172466Y-36777443D01*
X5002627Y-36828963D01*
X4936442Y-36835482D01*
X4870260Y-36842000D01*
X4781740Y-36842000D01*
X4715558Y-36835482D01*
X4649373Y-36828963D01*
X4479534Y-36777443D01*
X4323009Y-36693778D01*
X4287271Y-36664448D01*
X4185814Y-36581186D01*
X4102552Y-36479729D01*
X4073222Y-36443991D01*
X4026474Y-36356532D01*
X3989558Y-36287468D01*
X3989557Y-36287466D01*
X3938037Y-36117627D01*
X3920641Y-35941000D01*
X3938037Y-35764373D01*
X3989557Y-35594534D01*
X4073222Y-35438009D01*
X4102552Y-35402271D01*
X4185814Y-35300814D01*
X4287271Y-35217552D01*
X4323009Y-35188222D01*
X4479534Y-35104557D01*
X4649373Y-35053037D01*
X4715557Y-35046519D01*
X4781740Y-35040000D01*
X4870260Y-35040000D01*
X4936443Y-35046519D01*
X4936443Y-35046519D01*
G37*
G36*
X34527142Y-33762242D02*
G01*
X34675101Y-33823529D01*
X34808255Y-33912499D01*
X34921501Y-34025745D01*
X35010471Y-34158899D01*
X35071758Y-34306858D01*
X35103000Y-34463925D01*
X35103000Y-34624075D01*
X35071758Y-34781142D01*
X35010471Y-34929101D01*
X34921501Y-35062255D01*
X34808255Y-35175501D01*
X34675101Y-35264471D01*
X34527142Y-35325758D01*
X34370075Y-35357000D01*
X34209925Y-35357000D01*
X34052858Y-35325758D01*
X33904899Y-35264471D01*
X33771745Y-35175501D01*
X33658499Y-35062255D01*
X33569529Y-34929101D01*
X33508242Y-34781142D01*
X33477000Y-34624075D01*
X33477000Y-34463925D01*
X33508242Y-34306858D01*
X33569529Y-34158899D01*
X33658499Y-34025745D01*
X33771745Y-33912499D01*
X33904899Y-33823529D01*
X34052858Y-33762242D01*
X34209925Y-33731000D01*
X34370075Y-33731000D01*
X34527142Y-33762242D01*
X34527142Y-33762242D01*
G37*
G36*
X21827142Y-33762242D02*
G01*
X21975101Y-33823529D01*
X22108255Y-33912499D01*
X22221501Y-34025745D01*
X22310471Y-34158899D01*
X22371758Y-34306858D01*
X22403000Y-34463925D01*
X22403000Y-34624075D01*
X22371758Y-34781142D01*
X22310471Y-34929101D01*
X22221501Y-35062255D01*
X22108255Y-35175501D01*
X21975101Y-35264471D01*
X21827142Y-35325758D01*
X21670075Y-35357000D01*
X21509925Y-35357000D01*
X21352858Y-35325758D01*
X21204899Y-35264471D01*
X21071745Y-35175501D01*
X20958499Y-35062255D01*
X20869529Y-34929101D01*
X20808242Y-34781142D01*
X20777000Y-34624075D01*
X20777000Y-34463925D01*
X20808242Y-34306858D01*
X20869529Y-34158899D01*
X20958499Y-34025745D01*
X21071745Y-33912499D01*
X21204899Y-33823529D01*
X21352858Y-33762242D01*
X21509925Y-33731000D01*
X21670075Y-33731000D01*
X21827142Y-33762242D01*
X21827142Y-33762242D01*
G37*
G36*
X92312443Y-33268519D02*
G01*
X92378627Y-33275037D01*
X92548466Y-33326557D01*
X92704991Y-33410222D01*
X92740729Y-33439552D01*
X92842186Y-33522814D01*
X92925448Y-33624271D01*
X92954778Y-33660009D01*
X93038443Y-33816534D01*
X93089963Y-33986373D01*
X93107359Y-34163000D01*
X93089963Y-34339627D01*
X93038443Y-34509466D01*
X92954778Y-34665991D01*
X92925448Y-34701729D01*
X92842186Y-34803186D01*
X92740729Y-34886448D01*
X92704991Y-34915778D01*
X92548466Y-34999443D01*
X92378627Y-35050963D01*
X92312443Y-35057481D01*
X92246260Y-35064000D01*
X92157740Y-35064000D01*
X92091557Y-35057481D01*
X92025373Y-35050963D01*
X91855534Y-34999443D01*
X91699009Y-34915778D01*
X91663271Y-34886448D01*
X91561814Y-34803186D01*
X91478552Y-34701729D01*
X91449222Y-34665991D01*
X91365557Y-34509466D01*
X91314037Y-34339627D01*
X91296641Y-34163000D01*
X91314037Y-33986373D01*
X91365557Y-33816534D01*
X91449222Y-33660009D01*
X91478552Y-33624271D01*
X91561814Y-33522814D01*
X91663271Y-33439552D01*
X91699009Y-33410222D01*
X91855534Y-33326557D01*
X92025373Y-33275037D01*
X92091557Y-33268519D01*
X92157740Y-33262000D01*
X92246260Y-33262000D01*
X92312443Y-33268519D01*
X92312443Y-33268519D01*
G37*
G36*
X94852443Y-33268519D02*
G01*
X94918627Y-33275037D01*
X95088466Y-33326557D01*
X95244991Y-33410222D01*
X95280729Y-33439552D01*
X95382186Y-33522814D01*
X95465448Y-33624271D01*
X95494778Y-33660009D01*
X95578443Y-33816534D01*
X95629963Y-33986373D01*
X95647359Y-34163000D01*
X95629963Y-34339627D01*
X95578443Y-34509466D01*
X95494778Y-34665991D01*
X95465448Y-34701729D01*
X95382186Y-34803186D01*
X95280729Y-34886448D01*
X95244991Y-34915778D01*
X95088466Y-34999443D01*
X94918627Y-35050963D01*
X94852443Y-35057481D01*
X94786260Y-35064000D01*
X94697740Y-35064000D01*
X94631557Y-35057481D01*
X94565373Y-35050963D01*
X94395534Y-34999443D01*
X94239009Y-34915778D01*
X94203271Y-34886448D01*
X94101814Y-34803186D01*
X94018552Y-34701729D01*
X93989222Y-34665991D01*
X93905557Y-34509466D01*
X93854037Y-34339627D01*
X93836641Y-34163000D01*
X93854037Y-33986373D01*
X93905557Y-33816534D01*
X93989222Y-33660009D01*
X94018552Y-33624271D01*
X94101814Y-33522814D01*
X94203271Y-33439552D01*
X94239009Y-33410222D01*
X94395534Y-33326557D01*
X94565373Y-33275037D01*
X94631557Y-33268519D01*
X94697740Y-33262000D01*
X94786260Y-33262000D01*
X94852443Y-33268519D01*
X94852443Y-33268519D01*
G37*
G36*
X4936442Y-32506518D02*
G01*
X5002627Y-32513037D01*
X5172466Y-32564557D01*
X5328991Y-32648222D01*
X5364729Y-32677552D01*
X5466186Y-32760814D01*
X5549448Y-32862271D01*
X5578778Y-32898009D01*
X5662443Y-33054534D01*
X5713963Y-33224373D01*
X5731359Y-33401000D01*
X5713963Y-33577627D01*
X5662443Y-33747466D01*
X5662442Y-33747468D01*
X5625526Y-33816532D01*
X5578778Y-33903991D01*
X5549448Y-33939729D01*
X5466186Y-34041186D01*
X5364729Y-34124448D01*
X5328991Y-34153778D01*
X5172466Y-34237443D01*
X5002627Y-34288963D01*
X4936443Y-34295481D01*
X4870260Y-34302000D01*
X4781740Y-34302000D01*
X4715557Y-34295481D01*
X4649373Y-34288963D01*
X4479534Y-34237443D01*
X4323009Y-34153778D01*
X4287271Y-34124448D01*
X4185814Y-34041186D01*
X4102552Y-33939729D01*
X4073222Y-33903991D01*
X4026474Y-33816532D01*
X3989558Y-33747468D01*
X3989557Y-33747466D01*
X3938037Y-33577627D01*
X3920641Y-33401000D01*
X3938037Y-33224373D01*
X3989557Y-33054534D01*
X4073222Y-32898009D01*
X4102552Y-32862271D01*
X4185814Y-32760814D01*
X4287271Y-32677552D01*
X4323009Y-32648222D01*
X4479534Y-32564557D01*
X4649373Y-32513037D01*
X4715558Y-32506518D01*
X4781740Y-32500000D01*
X4870260Y-32500000D01*
X4936442Y-32506518D01*
X4936442Y-32506518D01*
G37*
G36*
X7476442Y-32506518D02*
G01*
X7542627Y-32513037D01*
X7712466Y-32564557D01*
X7868991Y-32648222D01*
X7904729Y-32677552D01*
X8006186Y-32760814D01*
X8089448Y-32862271D01*
X8118778Y-32898009D01*
X8202443Y-33054534D01*
X8253963Y-33224373D01*
X8271359Y-33401000D01*
X8253963Y-33577627D01*
X8202443Y-33747466D01*
X8202442Y-33747468D01*
X8165526Y-33816532D01*
X8118778Y-33903991D01*
X8089448Y-33939729D01*
X8006186Y-34041186D01*
X7904729Y-34124448D01*
X7868991Y-34153778D01*
X7712466Y-34237443D01*
X7542627Y-34288963D01*
X7476443Y-34295481D01*
X7410260Y-34302000D01*
X7321740Y-34302000D01*
X7255557Y-34295481D01*
X7189373Y-34288963D01*
X7019534Y-34237443D01*
X6863009Y-34153778D01*
X6827271Y-34124448D01*
X6725814Y-34041186D01*
X6642552Y-33939729D01*
X6613222Y-33903991D01*
X6566474Y-33816532D01*
X6529558Y-33747468D01*
X6529557Y-33747466D01*
X6478037Y-33577627D01*
X6460641Y-33401000D01*
X6478037Y-33224373D01*
X6529557Y-33054534D01*
X6613222Y-32898009D01*
X6642552Y-32862271D01*
X6725814Y-32760814D01*
X6827271Y-32677552D01*
X6863009Y-32648222D01*
X7019534Y-32564557D01*
X7189373Y-32513037D01*
X7255558Y-32506518D01*
X7321740Y-32500000D01*
X7410260Y-32500000D01*
X7476442Y-32506518D01*
X7476442Y-32506518D01*
G37*
G36*
X21827142Y-31222242D02*
G01*
X21975101Y-31283529D01*
X22108255Y-31372499D01*
X22221501Y-31485745D01*
X22310471Y-31618899D01*
X22371758Y-31766858D01*
X22403000Y-31923925D01*
X22403000Y-32084075D01*
X22371758Y-32241142D01*
X22310471Y-32389101D01*
X22221501Y-32522255D01*
X22108255Y-32635501D01*
X21975101Y-32724471D01*
X21827142Y-32785758D01*
X21670075Y-32817000D01*
X21509925Y-32817000D01*
X21352858Y-32785758D01*
X21204899Y-32724471D01*
X21071745Y-32635501D01*
X20958499Y-32522255D01*
X20869529Y-32389101D01*
X20808242Y-32241142D01*
X20777000Y-32084075D01*
X20777000Y-31923925D01*
X20808242Y-31766858D01*
X20869529Y-31618899D01*
X20958499Y-31485745D01*
X21071745Y-31372499D01*
X21204899Y-31283529D01*
X21352858Y-31222242D01*
X21509925Y-31191000D01*
X21670075Y-31191000D01*
X21827142Y-31222242D01*
X21827142Y-31222242D01*
G37*
G36*
X34527142Y-31222242D02*
G01*
X34675101Y-31283529D01*
X34808255Y-31372499D01*
X34921501Y-31485745D01*
X35010471Y-31618899D01*
X35071758Y-31766858D01*
X35103000Y-31923925D01*
X35103000Y-32084075D01*
X35071758Y-32241142D01*
X35010471Y-32389101D01*
X34921501Y-32522255D01*
X34808255Y-32635501D01*
X34675101Y-32724471D01*
X34527142Y-32785758D01*
X34370075Y-32817000D01*
X34209925Y-32817000D01*
X34052858Y-32785758D01*
X33904899Y-32724471D01*
X33771745Y-32635501D01*
X33658499Y-32522255D01*
X33569529Y-32389101D01*
X33508242Y-32241142D01*
X33477000Y-32084075D01*
X33477000Y-31923925D01*
X33508242Y-31766858D01*
X33569529Y-31618899D01*
X33658499Y-31485745D01*
X33771745Y-31372499D01*
X33904899Y-31283529D01*
X34052858Y-31222242D01*
X34209925Y-31191000D01*
X34370075Y-31191000D01*
X34527142Y-31222242D01*
X34527142Y-31222242D01*
G37*
G36*
X94852443Y-30728519D02*
G01*
X94918627Y-30735037D01*
X95088466Y-30786557D01*
X95244991Y-30870222D01*
X95280729Y-30899552D01*
X95382186Y-30982814D01*
X95465448Y-31084271D01*
X95494778Y-31120009D01*
X95578443Y-31276534D01*
X95629963Y-31446373D01*
X95647359Y-31623000D01*
X95629963Y-31799627D01*
X95578443Y-31969466D01*
X95494778Y-32125991D01*
X95465448Y-32161729D01*
X95382186Y-32263186D01*
X95288678Y-32339925D01*
X95244991Y-32375778D01*
X95088466Y-32459443D01*
X94918627Y-32510963D01*
X94852443Y-32517481D01*
X94786260Y-32524000D01*
X94697740Y-32524000D01*
X94631557Y-32517481D01*
X94565373Y-32510963D01*
X94395534Y-32459443D01*
X94239009Y-32375778D01*
X94195322Y-32339925D01*
X94101814Y-32263186D01*
X94018552Y-32161729D01*
X93989222Y-32125991D01*
X93905557Y-31969466D01*
X93854037Y-31799627D01*
X93836641Y-31623000D01*
X93854037Y-31446373D01*
X93905557Y-31276534D01*
X93989222Y-31120009D01*
X94018552Y-31084271D01*
X94101814Y-30982814D01*
X94203271Y-30899552D01*
X94239009Y-30870222D01*
X94395534Y-30786557D01*
X94565373Y-30735037D01*
X94631557Y-30728519D01*
X94697740Y-30722000D01*
X94786260Y-30722000D01*
X94852443Y-30728519D01*
X94852443Y-30728519D01*
G37*
G36*
X92312443Y-30728519D02*
G01*
X92378627Y-30735037D01*
X92548466Y-30786557D01*
X92704991Y-30870222D01*
X92740729Y-30899552D01*
X92842186Y-30982814D01*
X92925448Y-31084271D01*
X92954778Y-31120009D01*
X93038443Y-31276534D01*
X93089963Y-31446373D01*
X93107359Y-31623000D01*
X93089963Y-31799627D01*
X93038443Y-31969466D01*
X92954778Y-32125991D01*
X92925448Y-32161729D01*
X92842186Y-32263186D01*
X92748678Y-32339925D01*
X92704991Y-32375778D01*
X92548466Y-32459443D01*
X92378627Y-32510963D01*
X92312443Y-32517481D01*
X92246260Y-32524000D01*
X92157740Y-32524000D01*
X92091557Y-32517481D01*
X92025373Y-32510963D01*
X91855534Y-32459443D01*
X91699009Y-32375778D01*
X91655322Y-32339925D01*
X91561814Y-32263186D01*
X91478552Y-32161729D01*
X91449222Y-32125991D01*
X91365557Y-31969466D01*
X91314037Y-31799627D01*
X91296641Y-31623000D01*
X91314037Y-31446373D01*
X91365557Y-31276534D01*
X91449222Y-31120009D01*
X91478552Y-31084271D01*
X91561814Y-30982814D01*
X91663271Y-30899552D01*
X91699009Y-30870222D01*
X91855534Y-30786557D01*
X92025373Y-30735037D01*
X92091557Y-30728519D01*
X92157740Y-30722000D01*
X92246260Y-30722000D01*
X92312443Y-30728519D01*
X92312443Y-30728519D01*
G37*
G36*
X78351903Y-29934075D02*
G01*
X78570347Y-30024557D01*
X78579571Y-30028378D01*
X78784466Y-30165285D01*
X78958715Y-30339534D01*
X79095622Y-30544429D01*
X79189925Y-30772097D01*
X79238000Y-31013787D01*
X79238000Y-31260213D01*
X79189925Y-31501903D01*
X79095622Y-31729571D01*
X78958715Y-31934466D01*
X78784466Y-32108715D01*
X78579571Y-32245622D01*
X78579570Y-32245623D01*
X78579569Y-32245623D01*
X78351903Y-32339925D01*
X78110214Y-32388000D01*
X77863786Y-32388000D01*
X77622097Y-32339925D01*
X77394431Y-32245623D01*
X77394430Y-32245623D01*
X77394429Y-32245622D01*
X77189534Y-32108715D01*
X77015285Y-31934466D01*
X76878378Y-31729571D01*
X76784075Y-31501903D01*
X76736000Y-31260213D01*
X76736000Y-31013787D01*
X76784075Y-30772097D01*
X76878378Y-30544429D01*
X77015285Y-30339534D01*
X77189534Y-30165285D01*
X77394429Y-30028378D01*
X77403654Y-30024557D01*
X77622097Y-29934075D01*
X77863786Y-29886000D01*
X78110214Y-29886000D01*
X78351903Y-29934075D01*
X78351903Y-29934075D01*
G37*
G36*
X4936443Y-29966519D02*
G01*
X5002627Y-29973037D01*
X5172466Y-30024557D01*
X5328991Y-30108222D01*
X5364729Y-30137552D01*
X5466186Y-30220814D01*
X5549448Y-30322271D01*
X5578778Y-30358009D01*
X5662443Y-30514534D01*
X5713963Y-30684373D01*
X5731359Y-30861000D01*
X5713963Y-31037627D01*
X5662443Y-31207466D01*
X5662442Y-31207468D01*
X5634249Y-31260213D01*
X5578778Y-31363991D01*
X5549448Y-31399729D01*
X5466186Y-31501186D01*
X5364729Y-31584448D01*
X5328991Y-31613778D01*
X5172466Y-31697443D01*
X5002627Y-31748963D01*
X4936443Y-31755481D01*
X4870260Y-31762000D01*
X4781740Y-31762000D01*
X4715557Y-31755481D01*
X4649373Y-31748963D01*
X4479534Y-31697443D01*
X4323009Y-31613778D01*
X4287271Y-31584448D01*
X4185814Y-31501186D01*
X4102552Y-31399729D01*
X4073222Y-31363991D01*
X4017751Y-31260213D01*
X3989558Y-31207468D01*
X3989557Y-31207466D01*
X3938037Y-31037627D01*
X3920641Y-30861000D01*
X3938037Y-30684373D01*
X3989557Y-30514534D01*
X4073222Y-30358009D01*
X4102552Y-30322271D01*
X4185814Y-30220814D01*
X4287271Y-30137552D01*
X4323009Y-30108222D01*
X4479534Y-30024557D01*
X4649373Y-29973037D01*
X4715557Y-29966519D01*
X4781740Y-29960000D01*
X4870260Y-29960000D01*
X4936443Y-29966519D01*
X4936443Y-29966519D01*
G37*
G36*
X7476443Y-29966519D02*
G01*
X7542627Y-29973037D01*
X7712466Y-30024557D01*
X7868991Y-30108222D01*
X7904729Y-30137552D01*
X8006186Y-30220814D01*
X8089448Y-30322271D01*
X8118778Y-30358009D01*
X8202443Y-30514534D01*
X8253963Y-30684373D01*
X8271359Y-30861000D01*
X8253963Y-31037627D01*
X8202443Y-31207466D01*
X8202442Y-31207468D01*
X8174249Y-31260213D01*
X8118778Y-31363991D01*
X8089448Y-31399729D01*
X8006186Y-31501186D01*
X7904729Y-31584448D01*
X7868991Y-31613778D01*
X7712466Y-31697443D01*
X7542627Y-31748963D01*
X7476443Y-31755481D01*
X7410260Y-31762000D01*
X7321740Y-31762000D01*
X7255557Y-31755481D01*
X7189373Y-31748963D01*
X7019534Y-31697443D01*
X6863009Y-31613778D01*
X6827271Y-31584448D01*
X6725814Y-31501186D01*
X6642552Y-31399729D01*
X6613222Y-31363991D01*
X6557751Y-31260213D01*
X6529558Y-31207468D01*
X6529557Y-31207466D01*
X6478037Y-31037627D01*
X6460641Y-30861000D01*
X6478037Y-30684373D01*
X6529557Y-30514534D01*
X6613222Y-30358009D01*
X6642552Y-30322271D01*
X6725814Y-30220814D01*
X6827271Y-30137552D01*
X6863009Y-30108222D01*
X7019534Y-30024557D01*
X7189373Y-29973037D01*
X7255557Y-29966519D01*
X7321740Y-29960000D01*
X7410260Y-29960000D01*
X7476443Y-29966519D01*
X7476443Y-29966519D01*
G37*
G36*
X34527142Y-28682242D02*
G01*
X34675101Y-28743529D01*
X34808255Y-28832499D01*
X34921501Y-28945745D01*
X35010471Y-29078899D01*
X35071758Y-29226858D01*
X35103000Y-29383925D01*
X35103000Y-29544075D01*
X35071758Y-29701142D01*
X35010471Y-29849101D01*
X34921501Y-29982255D01*
X34808255Y-30095501D01*
X34675101Y-30184471D01*
X34527142Y-30245758D01*
X34370075Y-30277000D01*
X34209925Y-30277000D01*
X34052858Y-30245758D01*
X33904899Y-30184471D01*
X33771745Y-30095501D01*
X33658499Y-29982255D01*
X33569529Y-29849101D01*
X33508242Y-29701142D01*
X33477000Y-29544075D01*
X33477000Y-29383925D01*
X33508242Y-29226858D01*
X33569529Y-29078899D01*
X33658499Y-28945745D01*
X33771745Y-28832499D01*
X33904899Y-28743529D01*
X34052858Y-28682242D01*
X34209925Y-28651000D01*
X34370075Y-28651000D01*
X34527142Y-28682242D01*
X34527142Y-28682242D01*
G37*
G36*
X21827142Y-28682242D02*
G01*
X21975101Y-28743529D01*
X22108255Y-28832499D01*
X22221501Y-28945745D01*
X22310471Y-29078899D01*
X22371758Y-29226858D01*
X22403000Y-29383925D01*
X22403000Y-29544075D01*
X22371758Y-29701142D01*
X22310471Y-29849101D01*
X22221501Y-29982255D01*
X22108255Y-30095501D01*
X21975101Y-30184471D01*
X21827142Y-30245758D01*
X21670075Y-30277000D01*
X21509925Y-30277000D01*
X21352858Y-30245758D01*
X21204899Y-30184471D01*
X21071745Y-30095501D01*
X20958499Y-29982255D01*
X20869529Y-29849101D01*
X20808242Y-29701142D01*
X20777000Y-29544075D01*
X20777000Y-29383925D01*
X20808242Y-29226858D01*
X20869529Y-29078899D01*
X20958499Y-28945745D01*
X21071745Y-28832499D01*
X21204899Y-28743529D01*
X21352858Y-28682242D01*
X21509925Y-28651000D01*
X21670075Y-28651000D01*
X21827142Y-28682242D01*
X21827142Y-28682242D01*
G37*
G36*
X94852443Y-28188519D02*
G01*
X94918627Y-28195037D01*
X95088466Y-28246557D01*
X95244991Y-28330222D01*
X95280729Y-28359552D01*
X95382186Y-28442814D01*
X95465448Y-28544271D01*
X95494778Y-28580009D01*
X95578443Y-28736534D01*
X95629963Y-28906373D01*
X95647359Y-29083000D01*
X95629963Y-29259627D01*
X95578443Y-29429466D01*
X95494778Y-29585991D01*
X95465448Y-29621729D01*
X95382186Y-29723186D01*
X95280729Y-29806448D01*
X95244991Y-29835778D01*
X95088466Y-29919443D01*
X94918627Y-29970963D01*
X94852442Y-29977482D01*
X94786260Y-29984000D01*
X94697740Y-29984000D01*
X94631558Y-29977482D01*
X94565373Y-29970963D01*
X94395534Y-29919443D01*
X94239009Y-29835778D01*
X94203271Y-29806448D01*
X94101814Y-29723186D01*
X94018552Y-29621729D01*
X93989222Y-29585991D01*
X93905557Y-29429466D01*
X93854037Y-29259627D01*
X93836641Y-29083000D01*
X93854037Y-28906373D01*
X93905557Y-28736534D01*
X93989222Y-28580009D01*
X94018552Y-28544271D01*
X94101814Y-28442814D01*
X94203271Y-28359552D01*
X94239009Y-28330222D01*
X94395534Y-28246557D01*
X94565373Y-28195037D01*
X94631557Y-28188519D01*
X94697740Y-28182000D01*
X94786260Y-28182000D01*
X94852443Y-28188519D01*
X94852443Y-28188519D01*
G37*
G36*
X92312443Y-28188519D02*
G01*
X92378627Y-28195037D01*
X92548466Y-28246557D01*
X92704991Y-28330222D01*
X92740729Y-28359552D01*
X92842186Y-28442814D01*
X92925448Y-28544271D01*
X92954778Y-28580009D01*
X93038443Y-28736534D01*
X93089963Y-28906373D01*
X93107359Y-29083000D01*
X93089963Y-29259627D01*
X93038443Y-29429466D01*
X92954778Y-29585991D01*
X92925448Y-29621729D01*
X92842186Y-29723186D01*
X92740729Y-29806448D01*
X92704991Y-29835778D01*
X92548466Y-29919443D01*
X92378627Y-29970963D01*
X92312442Y-29977482D01*
X92246260Y-29984000D01*
X92157740Y-29984000D01*
X92091558Y-29977482D01*
X92025373Y-29970963D01*
X91855534Y-29919443D01*
X91699009Y-29835778D01*
X91663271Y-29806448D01*
X91561814Y-29723186D01*
X91478552Y-29621729D01*
X91449222Y-29585991D01*
X91365557Y-29429466D01*
X91314037Y-29259627D01*
X91296641Y-29083000D01*
X91314037Y-28906373D01*
X91365557Y-28736534D01*
X91449222Y-28580009D01*
X91478552Y-28544271D01*
X91561814Y-28442814D01*
X91663271Y-28359552D01*
X91699009Y-28330222D01*
X91855534Y-28246557D01*
X92025373Y-28195037D01*
X92091557Y-28188519D01*
X92157740Y-28182000D01*
X92246260Y-28182000D01*
X92312443Y-28188519D01*
X92312443Y-28188519D01*
G37*
G36*
X7476443Y-27426519D02*
G01*
X7542627Y-27433037D01*
X7712466Y-27484557D01*
X7868991Y-27568222D01*
X7904729Y-27597552D01*
X8006186Y-27680814D01*
X8089448Y-27782271D01*
X8118778Y-27818009D01*
X8202443Y-27974534D01*
X8253963Y-28144373D01*
X8271359Y-28321000D01*
X8253963Y-28497627D01*
X8202443Y-28667466D01*
X8202442Y-28667468D01*
X8165526Y-28736532D01*
X8118778Y-28823991D01*
X8089448Y-28859729D01*
X8006186Y-28961186D01*
X7904729Y-29044448D01*
X7868991Y-29073778D01*
X7712466Y-29157443D01*
X7542627Y-29208963D01*
X7476443Y-29215481D01*
X7410260Y-29222000D01*
X7321740Y-29222000D01*
X7255557Y-29215481D01*
X7189373Y-29208963D01*
X7019534Y-29157443D01*
X6863009Y-29073778D01*
X6827271Y-29044448D01*
X6725814Y-28961186D01*
X6642552Y-28859729D01*
X6613222Y-28823991D01*
X6566474Y-28736532D01*
X6529558Y-28667468D01*
X6529557Y-28667466D01*
X6478037Y-28497627D01*
X6460641Y-28321000D01*
X6478037Y-28144373D01*
X6529557Y-27974534D01*
X6613222Y-27818009D01*
X6642552Y-27782271D01*
X6725814Y-27680814D01*
X6827271Y-27597552D01*
X6863009Y-27568222D01*
X7019534Y-27484557D01*
X7189373Y-27433037D01*
X7255557Y-27426519D01*
X7321740Y-27420000D01*
X7410260Y-27420000D01*
X7476443Y-27426519D01*
X7476443Y-27426519D01*
G37*
G36*
X4936443Y-27426519D02*
G01*
X5002627Y-27433037D01*
X5172466Y-27484557D01*
X5328991Y-27568222D01*
X5364729Y-27597552D01*
X5466186Y-27680814D01*
X5549448Y-27782271D01*
X5578778Y-27818009D01*
X5662443Y-27974534D01*
X5713963Y-28144373D01*
X5731359Y-28321000D01*
X5713963Y-28497627D01*
X5662443Y-28667466D01*
X5662442Y-28667468D01*
X5625526Y-28736532D01*
X5578778Y-28823991D01*
X5549448Y-28859729D01*
X5466186Y-28961186D01*
X5364729Y-29044448D01*
X5328991Y-29073778D01*
X5172466Y-29157443D01*
X5002627Y-29208963D01*
X4936443Y-29215481D01*
X4870260Y-29222000D01*
X4781740Y-29222000D01*
X4715557Y-29215481D01*
X4649373Y-29208963D01*
X4479534Y-29157443D01*
X4323009Y-29073778D01*
X4287271Y-29044448D01*
X4185814Y-28961186D01*
X4102552Y-28859729D01*
X4073222Y-28823991D01*
X4026474Y-28736532D01*
X3989558Y-28667468D01*
X3989557Y-28667466D01*
X3938037Y-28497627D01*
X3920641Y-28321000D01*
X3938037Y-28144373D01*
X3989557Y-27974534D01*
X4073222Y-27818009D01*
X4102552Y-27782271D01*
X4185814Y-27680814D01*
X4287271Y-27597552D01*
X4323009Y-27568222D01*
X4479534Y-27484557D01*
X4649373Y-27433037D01*
X4715557Y-27426519D01*
X4781740Y-27420000D01*
X4870260Y-27420000D01*
X4936443Y-27426519D01*
X4936443Y-27426519D01*
G37*
G36*
X34527142Y-26142242D02*
G01*
X34675101Y-26203529D01*
X34808255Y-26292499D01*
X34921501Y-26405745D01*
X35010471Y-26538899D01*
X35071758Y-26686858D01*
X35103000Y-26843925D01*
X35103000Y-27004075D01*
X35071758Y-27161142D01*
X35010471Y-27309101D01*
X34921501Y-27442255D01*
X34808255Y-27555501D01*
X34675101Y-27644471D01*
X34527142Y-27705758D01*
X34370075Y-27737000D01*
X34209925Y-27737000D01*
X34052858Y-27705758D01*
X33904899Y-27644471D01*
X33771745Y-27555501D01*
X33658499Y-27442255D01*
X33569529Y-27309101D01*
X33508242Y-27161142D01*
X33477000Y-27004075D01*
X33477000Y-26843925D01*
X33508242Y-26686858D01*
X33569529Y-26538899D01*
X33658499Y-26405745D01*
X33771745Y-26292499D01*
X33904899Y-26203529D01*
X34052858Y-26142242D01*
X34209925Y-26111000D01*
X34370075Y-26111000D01*
X34527142Y-26142242D01*
X34527142Y-26142242D01*
G37*
G36*
X21827142Y-26142242D02*
G01*
X21975101Y-26203529D01*
X22108255Y-26292499D01*
X22221501Y-26405745D01*
X22310471Y-26538899D01*
X22371758Y-26686858D01*
X22403000Y-26843925D01*
X22403000Y-27004075D01*
X22371758Y-27161142D01*
X22310471Y-27309101D01*
X22221501Y-27442255D01*
X22108255Y-27555501D01*
X21975101Y-27644471D01*
X21827142Y-27705758D01*
X21670075Y-27737000D01*
X21509925Y-27737000D01*
X21352858Y-27705758D01*
X21204899Y-27644471D01*
X21071745Y-27555501D01*
X20958499Y-27442255D01*
X20869529Y-27309101D01*
X20808242Y-27161142D01*
X20777000Y-27004075D01*
X20777000Y-26843925D01*
X20808242Y-26686858D01*
X20869529Y-26538899D01*
X20958499Y-26405745D01*
X21071745Y-26292499D01*
X21204899Y-26203529D01*
X21352858Y-26142242D01*
X21509925Y-26111000D01*
X21670075Y-26111000D01*
X21827142Y-26142242D01*
X21827142Y-26142242D01*
G37*
G36*
X94852442Y-25648518D02*
G01*
X94918627Y-25655037D01*
X95088466Y-25706557D01*
X95244991Y-25790222D01*
X95280729Y-25819552D01*
X95382186Y-25902814D01*
X95465448Y-26004271D01*
X95494778Y-26040009D01*
X95578443Y-26196534D01*
X95629963Y-26366373D01*
X95647359Y-26543000D01*
X95629963Y-26719627D01*
X95578443Y-26889466D01*
X95494778Y-27045991D01*
X95465448Y-27081729D01*
X95382186Y-27183186D01*
X95280729Y-27266448D01*
X95244991Y-27295778D01*
X95088466Y-27379443D01*
X94918627Y-27430963D01*
X94852443Y-27437481D01*
X94786260Y-27444000D01*
X94697740Y-27444000D01*
X94631557Y-27437481D01*
X94565373Y-27430963D01*
X94395534Y-27379443D01*
X94239009Y-27295778D01*
X94203271Y-27266448D01*
X94101814Y-27183186D01*
X94018552Y-27081729D01*
X93989222Y-27045991D01*
X93905557Y-26889466D01*
X93854037Y-26719627D01*
X93836641Y-26543000D01*
X93854037Y-26366373D01*
X93905557Y-26196534D01*
X93989222Y-26040009D01*
X94018552Y-26004271D01*
X94101814Y-25902814D01*
X94203271Y-25819552D01*
X94239009Y-25790222D01*
X94395534Y-25706557D01*
X94565373Y-25655037D01*
X94631557Y-25648519D01*
X94697740Y-25642000D01*
X94786260Y-25642000D01*
X94852442Y-25648518D01*
X94852442Y-25648518D01*
G37*
G36*
X92312442Y-25648518D02*
G01*
X92378627Y-25655037D01*
X92548466Y-25706557D01*
X92704991Y-25790222D01*
X92740729Y-25819552D01*
X92842186Y-25902814D01*
X92925448Y-26004271D01*
X92954778Y-26040009D01*
X93038443Y-26196534D01*
X93089963Y-26366373D01*
X93107359Y-26543000D01*
X93089963Y-26719627D01*
X93038443Y-26889466D01*
X92954778Y-27045991D01*
X92925448Y-27081729D01*
X92842186Y-27183186D01*
X92740729Y-27266448D01*
X92704991Y-27295778D01*
X92548466Y-27379443D01*
X92378627Y-27430963D01*
X92312443Y-27437481D01*
X92246260Y-27444000D01*
X92157740Y-27444000D01*
X92091557Y-27437481D01*
X92025373Y-27430963D01*
X91855534Y-27379443D01*
X91699009Y-27295778D01*
X91663271Y-27266448D01*
X91561814Y-27183186D01*
X91478552Y-27081729D01*
X91449222Y-27045991D01*
X91365557Y-26889466D01*
X91314037Y-26719627D01*
X91296641Y-26543000D01*
X91314037Y-26366373D01*
X91365557Y-26196534D01*
X91449222Y-26040009D01*
X91478552Y-26004271D01*
X91561814Y-25902814D01*
X91663271Y-25819552D01*
X91699009Y-25790222D01*
X91855534Y-25706557D01*
X92025373Y-25655037D01*
X92091557Y-25648519D01*
X92157740Y-25642000D01*
X92246260Y-25642000D01*
X92312442Y-25648518D01*
X92312442Y-25648518D01*
G37*
G36*
X7476442Y-24886518D02*
G01*
X7542627Y-24893037D01*
X7712466Y-24944557D01*
X7868991Y-25028222D01*
X7904729Y-25057552D01*
X8006186Y-25140814D01*
X8089448Y-25242271D01*
X8118778Y-25278009D01*
X8202443Y-25434534D01*
X8253963Y-25604373D01*
X8271359Y-25781000D01*
X8253963Y-25957627D01*
X8202443Y-26127466D01*
X8202442Y-26127468D01*
X8165526Y-26196532D01*
X8118778Y-26283991D01*
X8089448Y-26319729D01*
X8006186Y-26421186D01*
X7904729Y-26504448D01*
X7868991Y-26533778D01*
X7712466Y-26617443D01*
X7542627Y-26668963D01*
X7476442Y-26675482D01*
X7410260Y-26682000D01*
X7321740Y-26682000D01*
X7255558Y-26675482D01*
X7189373Y-26668963D01*
X7019534Y-26617443D01*
X6863009Y-26533778D01*
X6827271Y-26504448D01*
X6725814Y-26421186D01*
X6642552Y-26319729D01*
X6613222Y-26283991D01*
X6566474Y-26196532D01*
X6529558Y-26127468D01*
X6529557Y-26127466D01*
X6478037Y-25957627D01*
X6460641Y-25781000D01*
X6478037Y-25604373D01*
X6529557Y-25434534D01*
X6613222Y-25278009D01*
X6642552Y-25242271D01*
X6725814Y-25140814D01*
X6827271Y-25057552D01*
X6863009Y-25028222D01*
X7019534Y-24944557D01*
X7189373Y-24893037D01*
X7255558Y-24886518D01*
X7321740Y-24880000D01*
X7410260Y-24880000D01*
X7476442Y-24886518D01*
X7476442Y-24886518D01*
G37*
G36*
X4936442Y-24886518D02*
G01*
X5002627Y-24893037D01*
X5172466Y-24944557D01*
X5328991Y-25028222D01*
X5364729Y-25057552D01*
X5466186Y-25140814D01*
X5549448Y-25242271D01*
X5578778Y-25278009D01*
X5662443Y-25434534D01*
X5713963Y-25604373D01*
X5731359Y-25781000D01*
X5713963Y-25957627D01*
X5662443Y-26127466D01*
X5662442Y-26127468D01*
X5625526Y-26196532D01*
X5578778Y-26283991D01*
X5549448Y-26319729D01*
X5466186Y-26421186D01*
X5364729Y-26504448D01*
X5328991Y-26533778D01*
X5172466Y-26617443D01*
X5002627Y-26668963D01*
X4936442Y-26675482D01*
X4870260Y-26682000D01*
X4781740Y-26682000D01*
X4715558Y-26675482D01*
X4649373Y-26668963D01*
X4479534Y-26617443D01*
X4323009Y-26533778D01*
X4287271Y-26504448D01*
X4185814Y-26421186D01*
X4102552Y-26319729D01*
X4073222Y-26283991D01*
X4026474Y-26196532D01*
X3989558Y-26127468D01*
X3989557Y-26127466D01*
X3938037Y-25957627D01*
X3920641Y-25781000D01*
X3938037Y-25604373D01*
X3989557Y-25434534D01*
X4073222Y-25278009D01*
X4102552Y-25242271D01*
X4185814Y-25140814D01*
X4287271Y-25057552D01*
X4323009Y-25028222D01*
X4479534Y-24944557D01*
X4649373Y-24893037D01*
X4715558Y-24886518D01*
X4781740Y-24880000D01*
X4870260Y-24880000D01*
X4936442Y-24886518D01*
X4936442Y-24886518D01*
G37*
G36*
X21827142Y-23602242D02*
G01*
X21975101Y-23663529D01*
X22108255Y-23752499D01*
X22221501Y-23865745D01*
X22310471Y-23998899D01*
X22371758Y-24146858D01*
X22403000Y-24303925D01*
X22403000Y-24464075D01*
X22371758Y-24621142D01*
X22310471Y-24769101D01*
X22221501Y-24902255D01*
X22108255Y-25015501D01*
X21975101Y-25104471D01*
X21827142Y-25165758D01*
X21670075Y-25197000D01*
X21509925Y-25197000D01*
X21352858Y-25165758D01*
X21204899Y-25104471D01*
X21071745Y-25015501D01*
X20958499Y-24902255D01*
X20869529Y-24769101D01*
X20808242Y-24621142D01*
X20777000Y-24464075D01*
X20777000Y-24303925D01*
X20808242Y-24146858D01*
X20869529Y-23998899D01*
X20958499Y-23865745D01*
X21071745Y-23752499D01*
X21204899Y-23663529D01*
X21352858Y-23602242D01*
X21509925Y-23571000D01*
X21670075Y-23571000D01*
X21827142Y-23602242D01*
X21827142Y-23602242D01*
G37*
G36*
X34527142Y-23602242D02*
G01*
X34675101Y-23663529D01*
X34808255Y-23752499D01*
X34921501Y-23865745D01*
X35010471Y-23998899D01*
X35071758Y-24146858D01*
X35103000Y-24303925D01*
X35103000Y-24464075D01*
X35071758Y-24621142D01*
X35010471Y-24769101D01*
X34921501Y-24902255D01*
X34808255Y-25015501D01*
X34675101Y-25104471D01*
X34527142Y-25165758D01*
X34370075Y-25197000D01*
X34209925Y-25197000D01*
X34052858Y-25165758D01*
X33904899Y-25104471D01*
X33771745Y-25015501D01*
X33658499Y-24902255D01*
X33569529Y-24769101D01*
X33508242Y-24621142D01*
X33477000Y-24464075D01*
X33477000Y-24303925D01*
X33508242Y-24146858D01*
X33569529Y-23998899D01*
X33658499Y-23865745D01*
X33771745Y-23752499D01*
X33904899Y-23663529D01*
X34052858Y-23602242D01*
X34209925Y-23571000D01*
X34370075Y-23571000D01*
X34527142Y-23602242D01*
X34527142Y-23602242D01*
G37*
G36*
X95643000Y-24904000D02*
G01*
X93841000Y-24904000D01*
X93841000Y-23102000D01*
X95643000Y-23102000D01*
X95643000Y-24904000D01*
X95643000Y-24904000D01*
G37*
G36*
X92312443Y-23108519D02*
G01*
X92378627Y-23115037D01*
X92548466Y-23166557D01*
X92704991Y-23250222D01*
X92740729Y-23279552D01*
X92842186Y-23362814D01*
X92925448Y-23464271D01*
X92954778Y-23500009D01*
X93038443Y-23656534D01*
X93089963Y-23826373D01*
X93107359Y-24003000D01*
X93089963Y-24179627D01*
X93038443Y-24349466D01*
X92954778Y-24505991D01*
X92925448Y-24541729D01*
X92842186Y-24643186D01*
X92740729Y-24726448D01*
X92704991Y-24755778D01*
X92548466Y-24839443D01*
X92378627Y-24890963D01*
X92312442Y-24897482D01*
X92246260Y-24904000D01*
X92157740Y-24904000D01*
X92091558Y-24897482D01*
X92025373Y-24890963D01*
X91855534Y-24839443D01*
X91699009Y-24755778D01*
X91663271Y-24726448D01*
X91561814Y-24643186D01*
X91478552Y-24541729D01*
X91449222Y-24505991D01*
X91365557Y-24349466D01*
X91314037Y-24179627D01*
X91296641Y-24003000D01*
X91314037Y-23826373D01*
X91365557Y-23656534D01*
X91449222Y-23500009D01*
X91478552Y-23464271D01*
X91561814Y-23362814D01*
X91663271Y-23279552D01*
X91699009Y-23250222D01*
X91855534Y-23166557D01*
X92025373Y-23115037D01*
X92091557Y-23108519D01*
X92157740Y-23102000D01*
X92246260Y-23102000D01*
X92312443Y-23108519D01*
X92312443Y-23108519D01*
G37*
G36*
X78428720Y-22712520D02*
G01*
X78617881Y-22769901D01*
X78792212Y-22863083D01*
X78945015Y-22988485D01*
X79070417Y-23141288D01*
X79083924Y-23166558D01*
X79163598Y-23315617D01*
X79163599Y-23315620D01*
X79220980Y-23504781D01*
X79235500Y-23652207D01*
X79235500Y-23845794D01*
X79220980Y-23993220D01*
X79163599Y-24182381D01*
X79070417Y-24356712D01*
X78945015Y-24509515D01*
X78792212Y-24634917D01*
X78710333Y-24678682D01*
X78617883Y-24728098D01*
X78617880Y-24728099D01*
X78428719Y-24785480D01*
X78232000Y-24804855D01*
X78035280Y-24785480D01*
X77846119Y-24728099D01*
X77671788Y-24634917D01*
X77518985Y-24509515D01*
X77393583Y-24356712D01*
X77349818Y-24274833D01*
X77300402Y-24182383D01*
X77268569Y-24077442D01*
X77243020Y-23993219D01*
X77228500Y-23845793D01*
X77228500Y-23652206D01*
X77243020Y-23504780D01*
X77300401Y-23315619D01*
X77393583Y-23141288D01*
X77518985Y-22988485D01*
X77671788Y-22863083D01*
X77846120Y-22769901D01*
X78035281Y-22712520D01*
X78232000Y-22693145D01*
X78428720Y-22712520D01*
X78428720Y-22712520D01*
G37*
G36*
X75888720Y-22712520D02*
G01*
X76077881Y-22769901D01*
X76252212Y-22863083D01*
X76405015Y-22988485D01*
X76530417Y-23141288D01*
X76543924Y-23166558D01*
X76623598Y-23315617D01*
X76623599Y-23315620D01*
X76680980Y-23504781D01*
X76695500Y-23652207D01*
X76695500Y-23845794D01*
X76680980Y-23993220D01*
X76623599Y-24182381D01*
X76530417Y-24356712D01*
X76405015Y-24509515D01*
X76252212Y-24634917D01*
X76170333Y-24678682D01*
X76077883Y-24728098D01*
X76077880Y-24728099D01*
X75888719Y-24785480D01*
X75692000Y-24804855D01*
X75495280Y-24785480D01*
X75306119Y-24728099D01*
X75131788Y-24634917D01*
X74978985Y-24509515D01*
X74853583Y-24356712D01*
X74809818Y-24274833D01*
X74760402Y-24182383D01*
X74728569Y-24077442D01*
X74703020Y-23993219D01*
X74688500Y-23845793D01*
X74688500Y-23652206D01*
X74703020Y-23504780D01*
X74760401Y-23315619D01*
X74853583Y-23141288D01*
X74978985Y-22988485D01*
X75131788Y-22863083D01*
X75306120Y-22769901D01*
X75495281Y-22712520D01*
X75692000Y-22693145D01*
X75888720Y-22712520D01*
X75888720Y-22712520D01*
G37*
G36*
X81775500Y-24800000D02*
G01*
X79768500Y-24800000D01*
X79768500Y-22698000D01*
X81775500Y-22698000D01*
X81775500Y-24800000D01*
X81775500Y-24800000D01*
G37*
G36*
X4936442Y-22346518D02*
G01*
X5002627Y-22353037D01*
X5172466Y-22404557D01*
X5328991Y-22488222D01*
X5364729Y-22517552D01*
X5466186Y-22600814D01*
X5541959Y-22693145D01*
X5578778Y-22738009D01*
X5662443Y-22894534D01*
X5713963Y-23064373D01*
X5731359Y-23241000D01*
X5713963Y-23417627D01*
X5662443Y-23587466D01*
X5662442Y-23587468D01*
X5627839Y-23652205D01*
X5578778Y-23743991D01*
X5549448Y-23779729D01*
X5466186Y-23881186D01*
X5364729Y-23964448D01*
X5328991Y-23993778D01*
X5172466Y-24077443D01*
X5002627Y-24128963D01*
X4936442Y-24135482D01*
X4870260Y-24142000D01*
X4781740Y-24142000D01*
X4715558Y-24135482D01*
X4649373Y-24128963D01*
X4479534Y-24077443D01*
X4323009Y-23993778D01*
X4287271Y-23964448D01*
X4185814Y-23881186D01*
X4102552Y-23779729D01*
X4073222Y-23743991D01*
X4024161Y-23652205D01*
X3989558Y-23587468D01*
X3989557Y-23587466D01*
X3938037Y-23417627D01*
X3920641Y-23241000D01*
X3938037Y-23064373D01*
X3989557Y-22894534D01*
X4073222Y-22738009D01*
X4110041Y-22693145D01*
X4185814Y-22600814D01*
X4287271Y-22517552D01*
X4323009Y-22488222D01*
X4479534Y-22404557D01*
X4649373Y-22353037D01*
X4715558Y-22346518D01*
X4781740Y-22340000D01*
X4870260Y-22340000D01*
X4936442Y-22346518D01*
X4936442Y-22346518D01*
G37*
G36*
X8267000Y-24142000D02*
G01*
X6465000Y-24142000D01*
X6465000Y-22340000D01*
X8267000Y-22340000D01*
X8267000Y-24142000D01*
X8267000Y-24142000D01*
G37*
G36*
X92271606Y-11990562D02*
G01*
X92790455Y-12205476D01*
X93164524Y-12455421D01*
X93257406Y-12517483D01*
X93654517Y-12914594D01*
X93663602Y-12928191D01*
X93966524Y-13381545D01*
X94181438Y-13900394D01*
X94207274Y-14030281D01*
X94269379Y-14342502D01*
X94291000Y-14451201D01*
X94291000Y-15012799D01*
X94181438Y-15563606D01*
X93966524Y-16082455D01*
X93654516Y-16549407D01*
X93257407Y-16946516D01*
X92790455Y-17258524D01*
X92271606Y-17473438D01*
X91720800Y-17583000D01*
X91159200Y-17583000D01*
X90883798Y-17528219D01*
X90608394Y-17473438D01*
X90089545Y-17258524D01*
X89622593Y-16946516D01*
X89225484Y-16549407D01*
X88913476Y-16082455D01*
X88698562Y-15563606D01*
X88589000Y-15012799D01*
X88589000Y-14451201D01*
X88610622Y-14342502D01*
X88672726Y-14030281D01*
X88698562Y-13900394D01*
X88913476Y-13381545D01*
X89216398Y-12928191D01*
X89225483Y-12914594D01*
X89622594Y-12517483D01*
X89715476Y-12455421D01*
X90089545Y-12205476D01*
X90608394Y-11990562D01*
X90883798Y-11935781D01*
X91159200Y-11881000D01*
X91720800Y-11881000D01*
X92271606Y-11990562D01*
X92271606Y-11990562D01*
G37*
G36*
X10356606Y-11990562D02*
G01*
X10875455Y-12205476D01*
X11249524Y-12455421D01*
X11342406Y-12517483D01*
X11739517Y-12914594D01*
X11748602Y-12928191D01*
X12051524Y-13381545D01*
X12266438Y-13900394D01*
X12292274Y-14030281D01*
X12354379Y-14342502D01*
X12376000Y-14451201D01*
X12376000Y-15012799D01*
X12266438Y-15563606D01*
X12051524Y-16082455D01*
X11739516Y-16549407D01*
X11342407Y-16946516D01*
X10875455Y-17258524D01*
X10356606Y-17473438D01*
X10081202Y-17528219D01*
X9805800Y-17583000D01*
X9244200Y-17583000D01*
X8968798Y-17528219D01*
X8693394Y-17473438D01*
X8174545Y-17258524D01*
X7707593Y-16946516D01*
X7310484Y-16549407D01*
X6998476Y-16082455D01*
X6783562Y-15563606D01*
X6674000Y-15012799D01*
X6674000Y-14451201D01*
X6695622Y-14342502D01*
X6757726Y-14030281D01*
X6783562Y-13900394D01*
X6998476Y-13381545D01*
X7301398Y-12928191D01*
X7310483Y-12914594D01*
X7707594Y-12517483D01*
X7800476Y-12455421D01*
X8174545Y-12205476D01*
X8693394Y-11990562D01*
X8968798Y-11935781D01*
X9244200Y-11881000D01*
X9805800Y-11881000D01*
X10356606Y-11990562D01*
X10356606Y-11990562D01*
G37*
G36*
X59064242Y-7596718D02*
G01*
X59064245Y-7596719D01*
X59064246Y-7596719D01*
X59347186Y-7682548D01*
X59347189Y-7682550D01*
X59347190Y-7682550D01*
X59607943Y-7821925D01*
X59836503Y-8009497D01*
X60024075Y-8238056D01*
X60114670Y-8407548D01*
X60163452Y-8498813D01*
X60234946Y-8734497D01*
X60249282Y-8781757D01*
X60271000Y-9002264D01*
X60271000Y-13349736D01*
X60249282Y-13570243D01*
X60249281Y-13570246D01*
X60249281Y-13570247D01*
X60163452Y-13853187D01*
X60163450Y-13853190D01*
X60163450Y-13853191D01*
X60024075Y-14113944D01*
X59836503Y-14342503D01*
X59607944Y-14530075D01*
X59347191Y-14669450D01*
X59347187Y-14669452D01*
X59064247Y-14755281D01*
X59064246Y-14755281D01*
X59064243Y-14755282D01*
X58770000Y-14784262D01*
X58475758Y-14755282D01*
X58475755Y-14755281D01*
X58475754Y-14755281D01*
X58192814Y-14669452D01*
X58192810Y-14669450D01*
X57932057Y-14530075D01*
X57703498Y-14342503D01*
X57515926Y-14113944D01*
X57376551Y-13853191D01*
X57376551Y-13853190D01*
X57376549Y-13853187D01*
X57290720Y-13570247D01*
X57290720Y-13570246D01*
X57290719Y-13570243D01*
X57269001Y-13349736D01*
X57269000Y-9002265D01*
X57290718Y-8781758D01*
X57290719Y-8781754D01*
X57376548Y-8498814D01*
X57376551Y-8498809D01*
X57515925Y-8238057D01*
X57703497Y-8009497D01*
X57932056Y-7821925D01*
X58192809Y-7682550D01*
X58192810Y-7682550D01*
X58192813Y-7682548D01*
X58475753Y-7596719D01*
X58475754Y-7596719D01*
X58475757Y-7596718D01*
X58770000Y-7567738D01*
X59064242Y-7596718D01*
X59064242Y-7596718D01*
G37*
G36*
X43378243Y-7596718D02*
G01*
X43378246Y-7596719D01*
X43378247Y-7596719D01*
X43661187Y-7682548D01*
X43661190Y-7682550D01*
X43661191Y-7682550D01*
X43921944Y-7821925D01*
X44150503Y-8009497D01*
X44338075Y-8238056D01*
X44428670Y-8407548D01*
X44477452Y-8498813D01*
X44548946Y-8734497D01*
X44563282Y-8781757D01*
X44585000Y-9002264D01*
X44585000Y-13349736D01*
X44563282Y-13570243D01*
X44563281Y-13570246D01*
X44563281Y-13570247D01*
X44477452Y-13853187D01*
X44477450Y-13853190D01*
X44477450Y-13853191D01*
X44338075Y-14113944D01*
X44150503Y-14342503D01*
X43921943Y-14530075D01*
X43661190Y-14669450D01*
X43661186Y-14669452D01*
X43378246Y-14755281D01*
X43378245Y-14755281D01*
X43378242Y-14755282D01*
X43084000Y-14784262D01*
X42789757Y-14755282D01*
X42789754Y-14755281D01*
X42789753Y-14755281D01*
X42506813Y-14669452D01*
X42506809Y-14669450D01*
X42246056Y-14530075D01*
X42017497Y-14342503D01*
X41829925Y-14113943D01*
X41690550Y-13853190D01*
X41690549Y-13853187D01*
X41690548Y-13853186D01*
X41604719Y-13570246D01*
X41604719Y-13570245D01*
X41604718Y-13570242D01*
X41583000Y-13349735D01*
X41583001Y-9002264D01*
X41604719Y-8781757D01*
X41619055Y-8734497D01*
X41690549Y-8498813D01*
X41739331Y-8407548D01*
X41829926Y-8238056D01*
X42017498Y-8009497D01*
X42246057Y-7821925D01*
X42506810Y-7682550D01*
X42506811Y-7682550D01*
X42506814Y-7682548D01*
X42789754Y-7596719D01*
X42789755Y-7596719D01*
X42789758Y-7596718D01*
X43084000Y-7567738D01*
X43378243Y-7596718D01*
X43378243Y-7596718D01*
G37*
G36*
X20407242Y-7896718D02*
G01*
X20407245Y-7896719D01*
X20407246Y-7896719D01*
X20690186Y-7982548D01*
X20690189Y-7982550D01*
X20690190Y-7982550D01*
X20950943Y-8121925D01*
X21179503Y-8309497D01*
X21367075Y-8538056D01*
X21497336Y-8781758D01*
X21506452Y-8798813D01*
X21592281Y-9081753D01*
X21592282Y-9081757D01*
X21614000Y-9302264D01*
X21614000Y-13049736D01*
X21592282Y-13270243D01*
X21592281Y-13270246D01*
X21592281Y-13270247D01*
X21506452Y-13553187D01*
X21506450Y-13553190D01*
X21506450Y-13553191D01*
X21367075Y-13813944D01*
X21179503Y-14042503D01*
X20950944Y-14230075D01*
X20740607Y-14342502D01*
X20690187Y-14369452D01*
X20407247Y-14455281D01*
X20407246Y-14455281D01*
X20407243Y-14455282D01*
X20113000Y-14484262D01*
X19818758Y-14455282D01*
X19818755Y-14455281D01*
X19818754Y-14455281D01*
X19535814Y-14369452D01*
X19485394Y-14342502D01*
X19275057Y-14230075D01*
X19046498Y-14042503D01*
X18858926Y-13813944D01*
X18719551Y-13553191D01*
X18719551Y-13553190D01*
X18719549Y-13553187D01*
X18633720Y-13270247D01*
X18633720Y-13270246D01*
X18633719Y-13270243D01*
X18612001Y-13049736D01*
X18612000Y-9302265D01*
X18633718Y-9081758D01*
X18633719Y-9081754D01*
X18719548Y-8798814D01*
X18719551Y-8798809D01*
X18858925Y-8538057D01*
X19046497Y-8309497D01*
X19275056Y-8121925D01*
X19535809Y-7982550D01*
X19535810Y-7982550D01*
X19535813Y-7982548D01*
X19818753Y-7896719D01*
X19818754Y-7896719D01*
X19818757Y-7896718D01*
X20113000Y-7867738D01*
X20407242Y-7896718D01*
X20407242Y-7896718D01*
G37*
G36*
X81654243Y-7896718D02*
G01*
X81654246Y-7896719D01*
X81654247Y-7896719D01*
X81937187Y-7982548D01*
X81937190Y-7982550D01*
X81937191Y-7982550D01*
X82197944Y-8121925D01*
X82426503Y-8309497D01*
X82614075Y-8538056D01*
X82744336Y-8781758D01*
X82753452Y-8798813D01*
X82839281Y-9081753D01*
X82839282Y-9081757D01*
X82861000Y-9302264D01*
X82861000Y-13049736D01*
X82839282Y-13270243D01*
X82839281Y-13270246D01*
X82839281Y-13270247D01*
X82753452Y-13553187D01*
X82753450Y-13553190D01*
X82753450Y-13553191D01*
X82614075Y-13813944D01*
X82426503Y-14042503D01*
X82197943Y-14230075D01*
X81987606Y-14342502D01*
X81937186Y-14369452D01*
X81654246Y-14455281D01*
X81654245Y-14455281D01*
X81654242Y-14455282D01*
X81360000Y-14484262D01*
X81065757Y-14455282D01*
X81065754Y-14455281D01*
X81065753Y-14455281D01*
X80782813Y-14369452D01*
X80732393Y-14342502D01*
X80522056Y-14230075D01*
X80293497Y-14042503D01*
X80105925Y-13813943D01*
X79966550Y-13553190D01*
X79966549Y-13553187D01*
X79966548Y-13553186D01*
X79880719Y-13270246D01*
X79880719Y-13270245D01*
X79880718Y-13270242D01*
X79859000Y-13049735D01*
X79859001Y-9302264D01*
X79880719Y-9081757D01*
X79880720Y-9081753D01*
X79966549Y-8798813D01*
X79975665Y-8781758D01*
X80105926Y-8538056D01*
X80293498Y-8309497D01*
X80522057Y-8121925D01*
X80782810Y-7982550D01*
X80782811Y-7982550D01*
X80782814Y-7982548D01*
X81065754Y-7896719D01*
X81065755Y-7896719D01*
X81065758Y-7896718D01*
X81360000Y-7867738D01*
X81654243Y-7896718D01*
X81654243Y-7896718D01*
G37*
G36*
X38478243Y-11071718D02*
G01*
X38478246Y-11071719D01*
X38478247Y-11071719D01*
X38761187Y-11157548D01*
X38761190Y-11157550D01*
X38761191Y-11157550D01*
X39021944Y-11296925D01*
X39250503Y-11484497D01*
X39438075Y-11713056D01*
X39577450Y-11973809D01*
X39577452Y-11973813D01*
X39647726Y-12205476D01*
X39663282Y-12256757D01*
X39692262Y-12551000D01*
X39663282Y-12845243D01*
X39663281Y-12845246D01*
X39663281Y-12845247D01*
X39577452Y-13128187D01*
X39577450Y-13128190D01*
X39577450Y-13128191D01*
X39438075Y-13388944D01*
X39250503Y-13617503D01*
X39021944Y-13805075D01*
X38843614Y-13900394D01*
X38761187Y-13944452D01*
X38478247Y-14030281D01*
X38478246Y-14030281D01*
X38478243Y-14030282D01*
X38257736Y-14052000D01*
X33910264Y-14052000D01*
X33689757Y-14030282D01*
X33689754Y-14030281D01*
X33689753Y-14030281D01*
X33406813Y-13944452D01*
X33324386Y-13900394D01*
X33146056Y-13805075D01*
X32917497Y-13617503D01*
X32729925Y-13388944D01*
X32590550Y-13128191D01*
X32590550Y-13128190D01*
X32590548Y-13128187D01*
X32504719Y-12845247D01*
X32504719Y-12845246D01*
X32504718Y-12845243D01*
X32475738Y-12551000D01*
X32504718Y-12256757D01*
X32520274Y-12205476D01*
X32590548Y-11973813D01*
X32590550Y-11973809D01*
X32729925Y-11713056D01*
X32917497Y-11484497D01*
X33146056Y-11296925D01*
X33406809Y-11157550D01*
X33406810Y-11157550D01*
X33406813Y-11157548D01*
X33689753Y-11071719D01*
X33689754Y-11071719D01*
X33689757Y-11071718D01*
X33910264Y-11050000D01*
X38257736Y-11050000D01*
X38478243Y-11071718D01*
X38478243Y-11071718D01*
G37*
G36*
X77554243Y-10871718D02*
G01*
X77554246Y-10871719D01*
X77554247Y-10871719D01*
X77837187Y-10957548D01*
X77837190Y-10957550D01*
X77837191Y-10957550D01*
X78097944Y-11096925D01*
X78326503Y-11284497D01*
X78514074Y-11513055D01*
X78653452Y-11773813D01*
X78714120Y-11973809D01*
X78739282Y-12056757D01*
X78768262Y-12351000D01*
X78739282Y-12645243D01*
X78739281Y-12645246D01*
X78739281Y-12645247D01*
X78653452Y-12928187D01*
X78653450Y-12928190D01*
X78653450Y-12928191D01*
X78514075Y-13188944D01*
X78326503Y-13417503D01*
X78097944Y-13605075D01*
X77837191Y-13744450D01*
X77837187Y-13744452D01*
X77554247Y-13830281D01*
X77554246Y-13830281D01*
X77554243Y-13830282D01*
X77333736Y-13852000D01*
X73586264Y-13852000D01*
X73365757Y-13830282D01*
X73365754Y-13830281D01*
X73365753Y-13830281D01*
X73082813Y-13744452D01*
X73082809Y-13744450D01*
X72822056Y-13605075D01*
X72593497Y-13417503D01*
X72405925Y-13188944D01*
X72266550Y-12928191D01*
X72266550Y-12928190D01*
X72266548Y-12928187D01*
X72180719Y-12645247D01*
X72180719Y-12645246D01*
X72180718Y-12645243D01*
X72151738Y-12351000D01*
X72180718Y-12056757D01*
X72205880Y-11973809D01*
X72266548Y-11773813D01*
X72405926Y-11513055D01*
X72593497Y-11284497D01*
X72822056Y-11096925D01*
X73082809Y-10957550D01*
X73082810Y-10957550D01*
X73082813Y-10957548D01*
X73365753Y-10871719D01*
X73365754Y-10871719D01*
X73365757Y-10871718D01*
X73586264Y-10850000D01*
X77333736Y-10850000D01*
X77554243Y-10871718D01*
X77554243Y-10871718D01*
G37*
G36*
X28107243Y-8521718D02*
G01*
X28107246Y-8521719D01*
X28107247Y-8521719D01*
X28390187Y-8607548D01*
X28390190Y-8607550D01*
X28390191Y-8607550D01*
X28650944Y-8746925D01*
X28879503Y-8934497D01*
X29067075Y-9163056D01*
X29206450Y-9423809D01*
X29206452Y-9423813D01*
X29292281Y-9706753D01*
X29292282Y-9706757D01*
X29321262Y-10001000D01*
X29292282Y-10295243D01*
X29292281Y-10295246D01*
X29292281Y-10295247D01*
X29206452Y-10578187D01*
X29206450Y-10578190D01*
X29206450Y-10578191D01*
X29067075Y-10838944D01*
X28879503Y-11067503D01*
X28650944Y-11255075D01*
X28563153Y-11302000D01*
X28390187Y-11394452D01*
X28107247Y-11480281D01*
X28107246Y-11480281D01*
X28107243Y-11480282D01*
X27886736Y-11502000D01*
X24139264Y-11502000D01*
X23918757Y-11480282D01*
X23918754Y-11480281D01*
X23918753Y-11480281D01*
X23635813Y-11394452D01*
X23462847Y-11302000D01*
X23375056Y-11255075D01*
X23146497Y-11067503D01*
X22958925Y-10838944D01*
X22819550Y-10578191D01*
X22819550Y-10578190D01*
X22819548Y-10578187D01*
X22733719Y-10295247D01*
X22733719Y-10295246D01*
X22733718Y-10295243D01*
X22704738Y-10001000D01*
X22733718Y-9706757D01*
X22733719Y-9706753D01*
X22819548Y-9423813D01*
X22819550Y-9423809D01*
X22958925Y-9163056D01*
X23146497Y-8934497D01*
X23375056Y-8746925D01*
X23635809Y-8607550D01*
X23635810Y-8607550D01*
X23635813Y-8607548D01*
X23918753Y-8521719D01*
X23918754Y-8521719D01*
X23918757Y-8521718D01*
X24139264Y-8500000D01*
X27886736Y-8500000D01*
X28107243Y-8521718D01*
X28107243Y-8521718D01*
G37*
G36*
X68164243Y-8321718D02*
G01*
X68164246Y-8321719D01*
X68164247Y-8321719D01*
X68447187Y-8407548D01*
X68447190Y-8407550D01*
X68447191Y-8407550D01*
X68707944Y-8546925D01*
X68936503Y-8734497D01*
X69124075Y-8963056D01*
X69187520Y-9081754D01*
X69263452Y-9223813D01*
X69287251Y-9302269D01*
X69349282Y-9506757D01*
X69378262Y-9801000D01*
X69349282Y-10095243D01*
X69349281Y-10095246D01*
X69349281Y-10095247D01*
X69263452Y-10378187D01*
X69263450Y-10378190D01*
X69263450Y-10378191D01*
X69124075Y-10638944D01*
X68936503Y-10867503D01*
X68707944Y-11055075D01*
X68516230Y-11157548D01*
X68447187Y-11194452D01*
X68164247Y-11280281D01*
X68164246Y-11280281D01*
X68164243Y-11280282D01*
X67943736Y-11302000D01*
X63596264Y-11302000D01*
X63375757Y-11280282D01*
X63375754Y-11280281D01*
X63375753Y-11280281D01*
X63092813Y-11194452D01*
X63023770Y-11157548D01*
X62832056Y-11055075D01*
X62603497Y-10867503D01*
X62415925Y-10638944D01*
X62276550Y-10378191D01*
X62276550Y-10378190D01*
X62276548Y-10378187D01*
X62190719Y-10095247D01*
X62190719Y-10095246D01*
X62190718Y-10095243D01*
X62161738Y-9801000D01*
X62190718Y-9506757D01*
X62252749Y-9302269D01*
X62276548Y-9223813D01*
X62352480Y-9081754D01*
X62415925Y-8963056D01*
X62603497Y-8734497D01*
X62832056Y-8546925D01*
X63092809Y-8407550D01*
X63092810Y-8407550D01*
X63092813Y-8407548D01*
X63375753Y-8321719D01*
X63375754Y-8321719D01*
X63375757Y-8321718D01*
X63596264Y-8300000D01*
X67943736Y-8300000D01*
X68164243Y-8321718D01*
X68164243Y-8321718D01*
G37*
M02*
